<?xml version="1.0" encoding="utf-8"?>
<!-- Generator: Adobe Illustrator 16.0.0, SVG Export Plug-In . SVG Version: 6.00 Build 0)  -->
<!DOCTYPE svg PUBLIC "-//W3C//DTD SVG 1.1//EN" "http://www.w3.org/Graphics/SVG/1.1/DTD/svg11.dtd">
<svg version="1.1" id="图层_1" xmlns="http://www.w3.org/2000/svg" xmlns:xlink="http://www.w3.org/1999/xlink" x="0px" y="0px"
	 width="220px" height="230px" viewBox="0 0 220 230" enable-background="new 0 0 220 230" xml:space="preserve">
<ellipse fill="#C7C6C6" cx="163.352" cy="214.46" rx="10.54" ry="3.095"/>
<path fill="#C99F72" stroke="#613619" stroke-miterlimit="10" d="M152.448,186.898c1.925,1.095,1.961,9.348,0.076,13.16
	c-1.886,3.811-0.758,12.205,0.493,13.039s19.353,0.522,20.28-0.285c0.929-0.809-0.493-3.061-3.489-4.371
	c-2.998-1.31-7.215,1.521-8.742,1.578c-1.528,0.059-4.391,0.162-5.012-0.775c-0.62-0.938,0.48-6.373,4.978-9.133
	s9.328-9.774,10.265-13.461c0.938-3.686,2.379-9.827-6.388-11.618s-13.226,5.364-13.226,5.364S148.941,184.902,152.448,186.898z"/>
<ellipse fill="#C7C6C6" cx="142.663" cy="214.46" rx="10.54" ry="3.095"/>
<path fill="#EAC08A" stroke="#613619" stroke-miterlimit="10" d="M119.856,174.365c-1.166-3.498-10.399,1.18-10.399,1.18
	c-34.316,15.715-59.816,3.1-68.066-11.9c-8.106-14.738,1.503-47.012,3.5-64.264c2.604-22.502-4.934-45.836-6.934-51.224
	c-2-5.388-3.566-19.529,8.434-14.263s49.285,10.002,62.066,39.804c19.489,45.446,2.435,81.196,4.225,85.696
	c1.361,3.42,8.91-0.736,8.91-0.736"/>
<path fill="#FFFFFF" d="M53.639,152.395c-5.5-13.136,3.242-41.944,4.576-54.305c1.334-12.36,2.924-29.195-1.5-37.965
	c-3.644-7.223-13.179-14.763-4.992-13.897c8.668,0.916,31.918,10.916,40.918,30.039c6.328,13.447-1.473,46.325,0,62.992
	c1.473,16.666,16.416,24.968,16.416,24.968C69.723,178.227,56.467,159.145,53.639,152.395z"/>
<path fill="#E3BB88" stroke="#613619" stroke-miterlimit="10" d="M130.287,128.02l-2.341,2.002c0,0,2.556,10.176-6.667,28.373
	c-8.286,16.351-1.877,23.5,5.691,29.971c6.869,5.873,27.671,7.04,38.8,4.546c15.696-3.519,26.01-19.462,22.387-33.332
	c-5.565-21.308-10.218-29.325-10.218-29.325L130.287,128.02z"/>
<path fill="#FFFFFF" d="M185.222,151.057c-4.828-15.522-8.553-23.037-8.553-23.037l-15.446,2.834c0,0-3.834,3.041,0,7.973
	c3.834,4.933,2.697,26.415,3.928,37.568c1.229,11.152,18.396,3.875,18.396,3.875C189.88,169.436,189.186,163.788,185.222,151.057z"
	/>
<path fill="#187FC4" d="M156.19,106.143h-8.735l-23.25,22.349c0,0,24.268,4.188,34.685,8.766c7.365,3.238,18.25,11,18.25,11
	s0.711-3.867,1.158-8.863c0.137-5.443-0.358-9.141-0.358-9.141L156.19,106.143z"/>
<path fill="#EAC08A" stroke="#63361A" stroke-miterlimit="10" d="M88.619,100.404c0.682,1.978,4.396,1.385,4.979,2.592
	c0.765,1.583-3.409,0.921-2.318,3.649c6.674,16.686,31.145,24.473,52.334,23.473c3.322-0.156,4.419,2.46,8.385,3.659
	c2.097,0.596,6.945,0.748,10.423-0.206c3.162-1.033,3.664-3.61,6.986-3.453c21.188,1,33.658-8.787,40.333-25.473
	c1.091-2.728-3.083-2.066-2.319-3.649c0.583-1.208,4.297-0.614,4.979-2.592c0.728-2.112-3.24-1.739-3.342-2.66
	c-0.146-1.316,4.092-1.705,2.046-4.57c-3.779-5.289-8.025-7.556-15.539-11.99c-2.495-9.11-3.465-15.199-6.057-20.759
	c-3.34-7.168-5.895-11.734-9.023-17.727c-3.484-6.673-10.229-11.407-12.259-9.521c-1.406,1.305-0.534,1.673-2.829,11.239
	c-0.444,1.847-4.242-1.282-13.853-0.888c-9.738-0.166-13.48,2.735-13.924,0.888c-2.296-9.566-1.423-9.934-2.828-11.239
	c-2.031-1.886-8.775,2.848-12.26,9.521c-3.129,5.993-4.684,10.559-8.023,17.727c-2.174,4.666-4.447,11.233-7.057,20.759
	c-7.514,4.434-13.761,8.701-17.539,13.99c-2.046,2.865,2.192,3.254,2.047,4.57C91.858,98.664,87.891,98.291,88.619,100.404z"/>
<path fill="#613619" d="M168.563,43.517c3.115,0.671,5.707,1.619,8.014,2.853c-0.672-2.094-1.138-3.569-1.771-4.785
	c-0.964-1.85-1.519-2.435-2.236-3.52s-1.758-1.744-2.14-1.768c-0.381-0.023-0.646,0.385-1.017,2.062
	C169.14,39.588,168.95,40.142,168.563,43.517z"/>
<path fill="#613619" d="M134.295,43.517c-3.117,0.671-5.707,1.619-8.015,2.853c0.672-2.094,1.138-3.569,1.771-4.785
	c0.965-1.85,1.52-2.435,2.238-3.52c0.717-1.085,1.758-1.744,2.139-1.768c0.381-0.023,0.646,0.385,1.017,2.062
	C133.717,39.588,133.906,40.142,134.295,43.517z"/>
<g>
	<path fill="#FFFFFF" d="M97.922,102.926c0.863,14.033,20.93,27.756,46.408,27.205c2.994-0.064,3.725,2.096,6.931,3.096
		c4.175,1.027,7.059,0.744,10.847-0.053c2.875-0.971,4.531-3.533,5.883-3.447c20.981,1.334,34.474-12.767,35.337-26.8
		c0.472-7.667-0.909-12.367-6.786-15.789c-3.689-2.148-4.396-1.656-4.632-1.649c-6.361-28.94-15.618-29.283-19.342-29.556
		c-3.789-0.278-6.716,1.158-9.217,7.461c-0.93,2.34-2.237,12.407-2.587,15.75c-0.247,2.377-0.422,6.723-4.375,7.455
		c-2.044-0.333-2.816-0.581-4.5-5.274c-2.275-6.348-6.039-14.154-6.866-16.532c-2.489-7.153-7.899-9.608-13.22-9.608
		c-5.522,0-13.646,4.427-20.461,30.304c-0.235-0.007-2.941-0.499-6.631,1.649C98.834,90.559,97.452,95.26,97.922,102.926z"/>
</g>
<ellipse fill="#EE869A" cx="191.013" cy="100.967" rx="8.599" ry="2.877"/>
<ellipse fill="#EE869A" cx="121.592" cy="102.258" rx="8.599" ry="2.877"/>
<path fill="none" stroke="#63361A" stroke-width="2" stroke-linecap="round" stroke-linejoin="round" stroke-miterlimit="10" d="
	M157.645,106.377c-0.535-1.512,0.132-5.411,0.132-5.411"/>
<g>
	<path fill="#613619" d="M162.836,90.489c0.583,0.354,0.916,0.668,1.163,0.937c0.247,0.269,0.409,0.492,0.665,0.842
		c0.257,0.35,0.609,0.828,0.447,1.752s-0.837,2.294-2.261,3.933c-1.425,1.64-3.598,3.548-5.192,3.573s-3.827-1.814-5.302-3.408
		c-1.476-1.594-2.193-2.942-2.384-3.86s0.146-1.407,0.392-1.765c0.245-0.358,0.398-0.586,0.638-0.862
		c0.239-0.276,0.563-0.601,1.133-0.973c0.571-0.372,1.392-0.793,5.338-0.886C161.42,89.741,162.253,90.136,162.836,90.489z"/>
	<path fill="#FFFFFF" d="M163.091,93.116c-0.136,0.131-0.354,0.108-0.459-0.049c-0.1-0.15-0.239-0.331-0.413-0.499
		c-0.264-0.257-0.525-0.428-0.705-0.528c-0.129-0.073-0.183-0.227-0.132-0.366l0.03-0.083c0.05-0.137,0.189-0.22,0.332-0.195
		c0.256,0.044,0.679,0.163,1.138,0.486c0.256,0.181,0.437,0.402,0.545,0.564c0.082,0.122,0.064,0.285-0.042,0.387L163.091,93.116z"
		/>
</g>
<g>
	<g>
		<g>
			<path fill="#FFFFFF" d="M172.9,137.843c-0.452-0.618-0.905-1.235-1.357-1.854c-0.134,2.02-0.268,4.04-0.401,6.06
				c-2.065-0.359-3.645-2.038-3.88-4.121c-0.233-2.082,0.933-4.07,2.865-4.881c1.934-0.811,4.168-0.25,5.49,1.377
				c1.322,1.626,1.413,3.93,0.223,5.655c0.243,0.522-0.378,1.021-0.835,0.669s-0.136-1.079,0.432-0.979
				c2.241-3.297-0.926-7.574-4.732-6.392s-3.994,6.501-0.279,7.947c0.165-2.492,0.331-4.984,0.496-7.476
				c1.079,1.475,2.158,2.948,3.238,4.424c-0.441,0.127-0.882,0.256-1.323,0.384c0.619,0.845,1.237,1.69,1.856,2.534
				c-1.101-0.969-2.201-1.938-3.301-2.908C171.895,138.137,172.397,137.991,172.9,137.843z"/>
		</g>
	</g>
</g>
<path fill="#DEB686" stroke="#613619" stroke-miterlimit="10" d="M132.99,186.896c1.926,1.095,1.961,9.348,0.076,13.16
	c-1.885,3.811-0.757,12.205,0.493,13.039c1.251,0.834,19.353,0.522,20.28-0.285c0.929-0.809-0.493-3.061-3.489-4.371
	c-2.998-1.31-7.215,1.521-8.742,1.578c-1.528,0.059-4.39,0.162-5.011-0.775s0.479-6.373,4.977-9.133s9.328-9.774,10.265-13.461
	c0.938-3.686,2.379-9.828-6.388-11.618c-8.767-1.791-13.226,5.364-13.226,5.364S129.482,184.9,132.99,186.896z"/>
<path fill="#EAC08A" stroke="#63361A" stroke-miterlimit="10" d="M149.011,155.855c1.265,3.153,7.095,10.742,8.151,11.484
	c0.286,0.201,0.87,0.03,1.336-0.092c0.7-0.184,1.252-0.184,2.116-0.145c1.923,0.084,3.587,1.283,3.284,2.088
	c-0.277,0.731-1.197-0.127-1.339,0.057c-0.143,0.184,1.93,1.43,1.591,4.544c-0.203,1.864-2.475,4.106-5.494,3.138
	c-4.229-1.356-2.671-3.66-6.26-7.328c-3.59-3.666-8.629-3.135-18.275-15.474c-2.262-2.894-1.256-10.588,3.912-12.028
	C143.2,140.66,148.448,154.454,149.011,155.855z"/>
<g>
	<path fill="none" stroke="#613619" stroke-miterlimit="10" d="M151.128,108.904c0.634,2.308,0.678,3.769,1.313,6.077
		c3.073-0.048,6.577-0.384,9.65-0.432c0.563-2.327,0.852-3.185,1.413-5.512c0,0-3.89-2.203-5.936-2.173
		c-0.063,1.638-0.127,4.277-0.191,5.915c-0.115-1.636-0.229-4.271-0.345-5.907C154.986,106.906,151.129,108.903,151.128,108.904z"/>
	<path fill="none" stroke="#63361A" stroke-width="2" stroke-linecap="round" stroke-linejoin="round" stroke-miterlimit="10" d="
		M146.157,109.928c0,0,10.576-3.291,11.764-3.551l10.794,4.384"/>
</g>
<g>
	<path fill="none" stroke="#63361A" stroke-width="2" stroke-linecap="round" stroke-linejoin="round" stroke-miterlimit="10" d="
		M166.612,83.75c0-1.303,2.109-4.091,7.108-4.648h6.167c5.625,0,9.542,3.485,9.542,4.648l0,0c0,1.485-2.879,5.31-10.173,4.935
		h-5.472C169.701,88.685,166.612,85.235,166.612,83.75L166.612,83.75z"/>
	
		<polyline fill="none" stroke="#63361A" stroke-width="2" stroke-linecap="round" stroke-linejoin="round" stroke-miterlimit="10" points="
		181.665,66.803 175.281,71.527 172.407,68.62 	"/>
	<path fill="#63361A" d="M172.407,82.24c0-2.219,2.487-3.138,5.554-3.138l0,0c3.068,0,5.554,0.919,5.554,3.138v2.986
		c0,2.881-2.486,3.459-5.554,3.459l0,0c-3.905,0-5.554-0.679-5.554-3.459V82.24z"/>
</g>
<g>
	<path fill="none" stroke="#63361A" stroke-width="2" stroke-linecap="round" stroke-linejoin="round" stroke-miterlimit="10" d="
		M148.087,83.75c0-1.303-2.109-4.091-7.108-4.648h-6.167c-5.625,0-9.542,3.485-9.542,4.648l0,0c0,1.485,2.879,5.31,10.173,4.935
		h5.472C144.998,88.685,148.087,85.235,148.087,83.75L148.087,83.75z"/>
	
		<polyline fill="none" stroke="#63361A" stroke-width="2" stroke-linecap="round" stroke-linejoin="round" stroke-miterlimit="10" points="
		133.035,66.803 139.418,71.527 142.293,68.62 	"/>
	<path fill="#63361A" d="M142.293,82.24c0-2.219-2.487-3.138-5.554-3.138l0,0c-3.067,0-5.554,0.919-5.554,3.138v2.986
		c0,2.881,2.486,3.459,5.554,3.459l0,0c3.905,0,5.554-0.679,5.554-3.459V82.24z"/>
</g>
</svg>
