<?xml version="1.0" encoding="utf-8"?>
<!-- Generator: Adobe Illustrator 16.0.0, SVG Export Plug-In . SVG Version: 6.00 Build 0)  -->
<!DOCTYPE svg PUBLIC "-//W3C//DTD SVG 1.1//EN" "http://www.w3.org/Graphics/SVG/1.1/DTD/svg11.dtd">
<svg version="1.1" id="图层_1" xmlns="http://www.w3.org/2000/svg" xmlns:xlink="http://www.w3.org/1999/xlink" x="0px" y="0px"
	 width="220px" height="230px" viewBox="0 0 220 230" enable-background="new 0 0 220 230" xml:space="preserve">
<g>
	<ellipse fill="#C7C6C6" cx="187.337" cy="217.691" rx="10.54" ry="3.096"/>
	<ellipse fill="#C7C6C6" cx="126.89" cy="219.355" rx="10.54" ry="3.096"/>
	<path fill="#C99F72" stroke="#613619" stroke-miterlimit="10" d="M166.272,195.585c2.211-0.125,6.72,6.788,7.203,11.013
		c0.484,4.226,5.986,10.665,7.489,10.688c1.503,0.021,16.54-10.063,16.881-11.244c0.343-1.182-2.073-2.305-5.302-1.777
		c-3.228,0.527-5.235,5.191-6.487,6.069s-3.599,2.519-4.63,2.067c-1.03-0.451-3.054-5.614-0.774-10.373
		c2.278-4.758,2.531-13.271,1.318-16.875c-1.213-3.605-3.334-9.547-11.67-6.295s-8.198,11.683-8.198,11.683
		S162.243,195.813,166.272,195.585z"/>
	<path fill="#EAC08A" stroke="#613619" stroke-miterlimit="10" d="M121.524,179.626c-1.166-3.498-10.4,1.181-10.4,1.181
		c-32.431,17.428-59.815,3.099-68.065-11.901c-8.106-14.738,1.046-47.362,5.046-64.263s-8.479-45.836-10.479-51.224
		c-2-5.388-3.566-19.529,8.434-14.263c12,5.266,51.285,10.002,64.066,39.804c19.489,45.446,2.434,81.196,4.225,85.696
		c1.361,3.421,8.91-0.736,8.91-0.736"/>
	<path fill="#FFFFFF" d="M55.307,157.655c-5.5-13.136,3.242-41.944,4.576-54.304s1.924-27.195-2.5-35.965
		c-3.644-7.223-13.179-14.763-4.992-13.896c8.668,0.916,32.918,8.916,41.918,28.039c6.328,13.447-1.473,46.326,0,62.992
		s16.416,24.969,16.416,24.969C71.393,183.488,58.135,164.404,55.307,157.655z"/>
	<path fill="#E3BB88" stroke="#613619" stroke-miterlimit="10" d="M131.957,133.279l-2.342,2.003c0,0,1.186,6.999-7.413,25.499
		c-6.519,14.025-2.92,27.259,6.438,32.844c7.76,4.631,27.67,7.04,38.799,4.546c15.696-3.517,25.95-18.222,21.619-31.887
		c-6.898-21.765-9.451-30.771-9.451-30.771L131.957,133.279z"/>
	<path fill="#FFFFFF" d="M185.498,157.037c-3.676-11.58-7.16-23.758-7.16-23.758l-15.446,2.835c0,0-3.834,3.04,0,7.972
		c3.834,4.934,2.698,26.415,3.928,37.568c1.229,11.152,17.924,5.035,17.924,5.035C192.583,174.787,189.827,170.666,185.498,157.037z
		"/>
	<path fill="#187FC4" d="M157.858,111.403h-8.735l-23.251,22.349c0,0,24.269,4.188,34.686,8.766c7.365,3.238,20.066,11,20.066,11
		s-1.106-3.867-0.658-8.863c0.137-5.443-0.358-9.141-0.358-9.141L157.858,111.403z"/>
	<path fill="#EAC08A" stroke="#63361A" stroke-miterlimit="10" d="M90.288,105.664c0.683,1.978,4.396,1.385,4.979,2.592
		c0.764,1.583-3.41,0.921-2.319,3.649c6.674,16.686,29.461,26.034,52.334,23.473c3.305-0.37,4.419,2.46,8.385,3.66
		c2.097,0.595,6.945,0.748,10.423-0.207c3.162-1.033,3.665-3.631,6.986-3.453c16.925,0.909,35.591-7.257,40.333-25.473
		c0.74-2.844-3.083-2.066-2.319-3.649c0.583-1.208,4.297-0.614,4.979-2.592c0.728-2.112-3.24-1.739-3.342-2.66
		c-0.146-1.316,4.092-1.705,2.046-4.57c-3.779-5.289-8.025-7.556-15.539-11.99c-2.608-9.526-4.882-16.092-7.057-20.759
		c-3.34-7.168-4.895-11.734-8.023-17.727c-3.484-6.673-9.229-11.407-11.259-9.521c-1.406,1.305-1.534,1.673-3.829,11.239
		c-0.444,1.847-4.242-1.282-13.853-0.888c-9.738-0.166-13.48,2.735-13.923,0.888c-2.297-9.566-2.424-9.934-3.83-11.239
		c-2.031-1.886-7.774,2.848-11.259,9.521c-3.129,5.993-4.685,10.559-8.024,17.727c-2.174,4.666-4.446,11.233-7.056,20.759
		c-7.514,4.434-13.761,8.701-17.538,13.99c-2.047,2.865,2.191,3.254,2.045,4.57C93.526,103.925,89.559,103.552,90.288,105.664z"/>
	<path fill="#613619" d="M170.23,48.777c3.115,0.671,5.707,1.619,8.014,2.853c-0.672-2.094-1.138-3.569-1.771-4.785
		c-0.964-1.85-1.519-2.435-2.236-3.52c-0.719-1.085-1.758-1.744-2.14-1.768c-0.381-0.023-0.646,0.385-1.017,2.062
		C170.808,44.849,170.618,45.402,170.23,48.777z"/>
	<path fill="#613619" d="M135.963,48.777c-3.117,0.671-5.707,1.619-8.015,2.853c0.672-2.094,1.138-3.569,1.771-4.785
		c0.965-1.85,1.52-2.435,2.237-3.52s1.759-1.744,2.14-1.768c0.381-0.023,0.646,0.385,1.017,2.062
		C135.385,44.849,135.574,45.402,135.963,48.777z"/>
	<g>
		<path fill="#FFFFFF" d="M99.592,108.186c0.862,14.033,20.929,27.755,46.407,27.205c2.994-0.063,3.725,2.096,6.931,3.096
			c4.175,1.027,7.059,0.744,10.847-0.053c2.875-0.971,4.531-3.533,5.883-3.447c20.981,1.334,34.474-12.767,35.337-26.799
			c0.472-7.667-0.909-12.367-6.786-15.789c-3.689-2.148-4.396-1.656-4.632-1.649c-6.361-28.94-15.618-29.283-19.342-29.556
			c-3.789-0.278-6.716,1.158-9.217,7.461c-0.93,2.34-2.237,12.407-2.587,15.75c-0.247,2.377-0.422,6.723-4.375,7.455
			c-2.044-0.333-2.816-0.581-4.5-5.274c-2.275-6.348-6.039-14.154-6.866-16.532c-2.489-7.153-7.898-9.608-13.219-9.608
			c-5.523,0-13.647,4.427-20.461,30.304c-0.236-0.007-2.942-0.499-6.633,1.649C100.502,95.82,99.121,100.521,99.592,108.186z"/>
	</g>
	<ellipse fill="#EE869A" cx="192.682" cy="106.227" rx="8.599" ry="2.877"/>
	<ellipse fill="#EE869A" cx="123.26" cy="107.518" rx="8.599" ry="2.877"/>
	<path fill="none" stroke="#63361A" stroke-width="2" stroke-linecap="round" stroke-linejoin="round" stroke-miterlimit="10" d="
		M159.313,111.638c-0.535-1.512,0.132-5.411,0.132-5.411"/>
	<g>
		<path fill="#613619" d="M164.504,95.749c0.583,0.354,0.916,0.668,1.163,0.937s0.409,0.492,0.665,0.842
			c0.257,0.35,0.609,0.828,0.447,1.752c-0.162,0.924-0.837,2.294-2.262,3.933c-1.424,1.64-3.597,3.548-5.191,3.573
			c-1.595,0.025-3.827-1.814-5.302-3.408c-1.476-1.594-2.193-2.942-2.384-3.86s0.146-1.407,0.392-1.765s0.398-0.586,0.638-0.862
			s0.563-0.601,1.133-0.973c0.571-0.372,1.392-0.793,5.338-0.886C163.089,95.002,163.921,95.396,164.504,95.749z"/>
		<path fill="#FFFFFF" d="M164.759,98.376c-0.136,0.131-0.354,0.108-0.459-0.049c-0.1-0.15-0.239-0.331-0.413-0.499
			c-0.264-0.257-0.525-0.428-0.705-0.528c-0.129-0.073-0.183-0.227-0.132-0.366l0.03-0.083c0.05-0.137,0.189-0.22,0.332-0.195
			c0.256,0.044,0.679,0.163,1.138,0.486c0.256,0.181,0.437,0.402,0.545,0.564c0.082,0.122,0.064,0.285-0.042,0.387L164.759,98.376z"
			/>
	</g>
	<path fill="none" stroke="#613619" stroke-miterlimit="10" d="M152.642,113.929c0.635,2.308,1.036,3.77,1.671,6.077
		c3.073-0.049,6.148-0.097,9.223-0.145c0.562-2.327,0.921-3.473,1.482-5.799c-2.046-0.024-3.89-1.203-5.936-1.173
		c-0.063,1.638-0.127,3.277-0.191,4.916c-0.114-1.637-0.229-3.271-0.345-4.908C156.5,112.931,154.688,113.841,152.642,113.929z"/>
	<path fill="none" stroke="#63361A" stroke-width="2" stroke-linecap="round" stroke-linejoin="round" stroke-miterlimit="10" d="
		M142.013,112.045c8.194,4.504,16.234-0.383,17.422-0.643c7.802,6.359,12.762-0.2,12.762-0.2"/>
	<g>
		<g>
			<g>
				<path fill="#FFFFFF" d="M174.568,143.104c-0.452-0.619-0.905-1.236-1.357-1.854c-0.134,2.021-0.268,4.04-0.402,6.06
					c-2.064-0.359-3.644-2.037-3.879-4.121c-0.233-2.082,0.933-4.069,2.865-4.881c1.934-0.81,4.168-0.25,5.49,1.377
					s1.413,3.93,0.223,5.655c0.243,0.522-0.378,1.021-0.835,0.669c-0.457-0.351-0.136-1.078,0.432-0.979
					c2.241-3.297-0.926-7.573-4.732-6.391c-3.807,1.182-3.994,6.5-0.279,7.946c0.165-2.492,0.331-4.983,0.496-7.476
					c1.079,1.475,2.158,2.949,3.238,4.424c-0.441,0.129-0.882,0.257-1.323,0.385c0.619,0.846,1.237,1.689,1.856,2.535
					c-1.101-0.971-2.201-1.939-3.302-2.909C173.563,143.398,174.066,143.251,174.568,143.104z"/>
			</g>
		</g>
	</g>
	<path fill="#DEB686" stroke="#613619" stroke-miterlimit="10" d="M126.391,187.486c1.373,1.738-1.695,9.4-4.875,12.224
		s-5.291,11.026-4.445,12.269c0.846,1.244,17.738,7.758,18.9,7.358c1.164-0.399,0.695-3.021-1.59-5.36
		c-2.287-2.341-7.256-1.304-8.694-1.824c-1.437-0.52-4.128-1.5-4.351-2.602c-0.225-1.102,2.84-5.725,8.043-6.592
		c5.205-0.867,12.318-5.551,14.572-8.615c2.254-3.063,5.898-8.213-1.552-13.168c-7.452-4.955-14.272,0-14.272,0
		S123.893,184.32,126.391,187.486z"/>
	<path fill="#EAC08A" stroke="#63361A" stroke-miterlimit="10" d="M153.439,157.126c1.619,2.985,8.286,9.851,9.423,10.466
		c0.308,0.167,0.868-0.068,1.316-0.244c0.675-0.264,1.223-0.326,2.085-0.389c1.921-0.139,3.712,0.861,3.504,1.695
		c-0.189,0.759-1.202,0.013-1.322,0.211c-0.12,0.197,2.082,1.197,2.104,4.33c0.015,1.875-1.982,4.365-5.095,3.752
		c-4.357-0.86-3.076-3.328-7.065-6.557c-3.988-3.228-8.934-2.117-19.939-13.26c-2.581-2.613-2.47-10.372,2.497-12.398
		C145.914,142.704,152.719,155.801,153.439,157.126z"/>
</g>
<g>
	<path fill="#63361A" d="M172.659,92.101c-0.422-0.861-0.03-1.919,0.876-2.362l12.166-5.961c0.905-0.444,1.98-0.105,2.403,0.756l0,0
		c0.422,0.861,0.028,1.918-0.876,2.362l-12.166,5.961C174.157,93.301,173.081,92.962,172.659,92.101L172.659,92.101z"/>
	<path fill="#63361A" d="M187.844,97.438c0.457-0.878,0.108-1.922-0.78-2.33l-11.936-5.49c-0.889-0.408-1.979-0.027-2.436,0.851l0,0
		c-0.457,0.878-0.107,1.921,0.78,2.33l11.936,5.49C186.297,98.697,187.387,98.316,187.844,97.438L187.844,97.438z"/>
</g>
<g>
	<path fill="#63361A" d="M145.62,92.101c0.421-0.861,0.029-1.919-0.876-2.362l-12.166-5.961c-0.904-0.444-1.98-0.105-2.402,0.756
		l0,0c-0.422,0.861-0.029,1.918,0.875,2.362l12.166,5.961C144.122,93.301,145.198,92.962,145.62,92.101L145.62,92.101z"/>
	<path fill="#63361A" d="M130.436,97.438c-0.457-0.878-0.108-1.922,0.781-2.33l11.935-5.49c0.889-0.408,1.979-0.027,2.436,0.851l0,0
		c0.457,0.878,0.107,1.921-0.781,2.33l-11.935,5.49C131.982,98.697,130.893,98.316,130.436,97.438L130.436,97.438z"/>
</g>
</svg>
