<?xml version="1.0" encoding="utf-8"?>
<!-- Generator: Adobe Illustrator 16.0.0, SVG Export Plug-In . SVG Version: 6.00 Build 0)  -->
<!DOCTYPE svg PUBLIC "-//W3C//DTD SVG 1.1//EN" "http://www.w3.org/Graphics/SVG/1.1/DTD/svg11.dtd">
<svg version="1.1" id="图层_1" xmlns="http://www.w3.org/2000/svg" xmlns:xlink="http://www.w3.org/1999/xlink" x="0px" y="0px"
	 width="220px" height="230px" viewBox="0 0 220 230" enable-background="new 0 0 220 230" xml:space="preserve">
<g>
	<ellipse fill="#C7C6C6" cx="133.678" cy="222.35" rx="10.54" ry="3.094"/>
	<ellipse fill="#C7C6C6" cx="92.813" cy="222.35" rx="10.54" ry="3.094"/>
	<g>
		<path fill="#EAC08A" stroke="#613619" stroke-miterlimit="10" d="M129.815,184.48c11.287-18.576,12.222-54.909,10.078-68.022
			c-9.269-56.687-33.659-72.732-59.338-78.13c-23.03-4.841-13.011-20.592-18.205-16.181s-12.255,22.328-9.022,37.398
			c3.231,15.07-22.057,48.281-25.235,68.451c-3.931,24.936,10.37,47.598,25.935,59.2c20.033,14.934,39.453,13.389,53.915,17.889
			C107.942,205.085,118.528,203.057,129.815,184.48z"/>
		<path fill="#FFFFFF" d="M123.009,163.898c8.554-14.078,9.268-41.613,7.638-51.549c-5.836-35.568-19.037-55.312-37.878-59.889
			C78.941,49.101,64.9,38.062,60.652,34.531c0,0,5.206,17.079,5.705,32.27c0.383,11.675-17.886,44.407-20.295,59.692
			c-2.979,18.897,4.578,31.522,19.512,43.534c14.754,11.869,29.898,10.146,40.858,13.557
			C106.433,183.584,114.454,177.977,123.009,163.898z"/>
	</g>
	<path fill="#EAC08A" stroke="#63361A" stroke-miterlimit="10" d="M92.037,169.009c-10.732,24.938-10.395,26.91-10.463,28.279
		c-0.121,2.459,0.625,4.832,1.776,6.692c2.663,4.304,9.347,8.521,9.856,9.105c0.779,0.891,3.941,2.984,1.617,3.325
		c-2.326,0.341-4.75-0.819-7.197-0.902c-1.613-0.054-2.683,0.575-3.196,1.347c-0.515,0.771-1.285,2.068-1.649,2.783
		c-0.365,0.715-0.322,0.846-0.213,1.106c0.109,0.26,0.285,0.649,5.295,0.843c5.01,0.195,5.018,0.195,10.086,0.15
		c5.068-0.045,5.452-0.648,5.823-1.82c0.317-0.998-0.183-2.418-0.961-6.402l0.004-0.003c7.057,1.384,14.113,1.45,21.169,0.205
		c-0.754,3.819-1.232,5.22-0.921,6.2c0.371,1.171,0.755,1.775,5.823,1.82c5.067,0.044,5.075,0.044,10.086-0.15
		c5.01-0.193,5.186-0.583,5.295-0.843c0.108-0.261,0.15-0.392-0.213-1.106c-0.364-0.715-1.136-2.013-1.649-2.783
		c-0.513-0.771-1.583-1.4-3.196-1.347c-2.447,0.083-4.872,1.243-7.196,0.902c-2.325-0.341,0.837-2.435,1.615-3.325
		c0.512-0.585,7.193-4.802,9.857-9.105c1.153-1.86,1.898-4.233,1.776-6.692c-0.067-1.37,0.27-3.341-10.462-28.279l-3.526-14.722
		c-0.424-0.424-0.857-0.855-1.286-1.287l-14.916-0.852v-0.188l-1.653,0.095l-1.652-0.095v0.188L96.85,153
		c-0.428,0.432-0.862,0.864-1.286,1.287L92.037,169.009z"/>
	<path fill="#FFFFFF" d="M99.256,166.463c0-7.745,6.278-14.023,14.023-14.023l0,0c7.745,0,14.023,6.278,14.023,14.023l4.37,24.346
		c1.184,7.784-2.095,14.094-18.395,14.022h-2.003c-11.565,0-18.166-5.964-16.391-14.022L99.256,166.463z"/>
	<polygon fill="#187FC4" points="119.081,129.582 110.334,129.582 92.067,151.124 114.432,174.34 135.686,151.307 	"/>
	<path fill="#EAC08A" stroke="#63361A" stroke-miterlimit="10" d="M51.418,123.836c0.684,1.98,4.404,1.387,4.986,2.596
		c0.766,1.586-3.414,0.922-2.322,3.653c6.684,16.709,26.181,24.507,47.397,23.505c3.327-0.156,4.598,2.555,8.569,3.756
		c2.099,0.596,5.342,0.774,8.824-0.182c3.165-1.035,5.107-3.732,8.435-3.575c21.217,1.001,40.714-6.796,47.396-23.505
		c1.093-2.732-3.087-2.068-2.321-3.654c0.584-1.209,4.303-0.613,4.985-2.595c0.73-2.114-3.244-1.742-3.346-2.664
		c-0.146-1.317,4.098-1.708,2.049-4.575c-3.783-5.298-10.038-9.57-17.562-14.01c-2.612-9.539-4.89-16.114-7.066-20.787
		c-3.344-7.178-4.901-11.75-8.035-17.751c-3.489-6.682-9.24-11.422-11.273-9.534c-1.408,1.307-1.536,1.676-3.834,11.254
		c-0.444,1.849-4.248-1.283-13.87-0.889c-9.751-0.166-13.499,2.739-13.943,0.889c-2.299-9.578-2.426-9.947-3.834-11.254
		c-2.034-1.888-7.785,2.852-11.275,9.534c-3.133,6.001-4.69,10.574-8.034,17.751c-2.177,4.673-4.454,11.248-7.065,20.787
		c-7.525,4.44-13.779,8.712-17.563,14.009c-2.049,2.869,2.195,3.259,2.049,4.576C54.664,122.093,50.69,121.72,51.418,123.836z"/>
	<path fill="#613619" d="M131.47,66.871c3.121,0.672,5.715,1.622,8.024,2.857c-0.673-2.096-1.139-3.574-1.772-4.791
		c-0.967-1.853-1.521-2.439-2.24-3.525s-1.761-1.746-2.143-1.77c-0.382-0.023-0.646,0.386-1.019,2.065
		C132.048,62.938,131.857,63.492,131.47,66.871z"/>
	<path fill="#613619" d="M97.156,66.871c-3.121,0.672-5.715,1.622-8.025,2.857c0.673-2.096,1.139-3.574,1.773-4.791
		c0.965-1.853,1.521-2.439,2.239-3.525c0.72-1.086,1.761-1.746,2.142-1.77c0.382-0.023,0.647,0.386,1.019,2.065
		C96.578,62.938,96.768,63.492,97.156,66.871z"/>
	<g>
		<path fill="#FFFFFF" d="M60.734,126.361c0.865,14.051,15.95,27.793,41.463,27.24c2.998-0.064,4.898,2.053,7.776,3.025
			c3.058,1.014,4.834,1.15,8.404-0.102c2.878-0.973,4.479-3.527,7.512-3.33c25.064,1.64,41.529-12.782,42.394-26.834
			c0.473-7.678-0.91-12.384-6.795-15.811c-3.695-2.152-6.404-1.659-6.641-1.652c-6.369-28.979-16.478-29.389-20.206-29.662
			c-3.794-0.278-8.557,0.546-11.061,6.857c-0.93,2.343-5.182,16.271-6.01,18.798c-0.806,2.461-1.014,3.899-3.061,4.232
			c-2.048-0.333-2.256-1.77-3.062-4.232c-0.828-2.528-4.724-14.336-5.553-16.717c-2.492-7.162-5.907-9.621-11.234-9.621
			c-5.532,0-13.667,4.434-20.489,30.345c-0.237-0.006-2.946-0.499-6.641,1.652C61.648,113.977,60.266,118.684,60.734,126.361z"/>
	</g>
	<ellipse fill="#EE869A" cx="143.475" cy="125.691" rx="8.61" ry="2.881"/>
	<ellipse fill="#EE869A" cx="84.124" cy="125.691" rx="8.61" ry="2.881"/>
	<path fill="none" stroke="#63361A" stroke-width="2" stroke-linecap="round" stroke-linejoin="round" stroke-miterlimit="10" d="
		M114.226,129.816c-0.536-1.515,0.132-5.418,0.132-5.418"/>
	<g>
		<path fill="#613619" d="M119.717,114.225c0.577,0.364,0.905,0.684,1.148,0.957s0.401,0.498,0.652,0.853
			c0.252,0.354,0.596,0.838,0.42,1.761c-0.176,0.922-0.874,2.283-2.325,3.902c-1.452,1.618-3.658,3.495-5.255,3.495
			c-1.598,0-3.803-1.877-5.255-3.495c-1.451-1.619-2.149-2.98-2.325-3.902c-0.176-0.922,0.169-1.405,0.42-1.761
			c0.252-0.355,0.41-0.58,0.653-0.853s0.571-0.593,1.149-0.957c0.577-0.364,1.405-0.772,5.358-0.803
			C118.311,113.453,119.138,113.861,119.717,114.225z"/>
		<path fill="#FFFFFF" d="M119.931,116.855c-0.139,0.129-0.356,0.104-0.459-0.056c-0.099-0.151-0.235-0.335-0.406-0.506
			c-0.261-0.26-0.521-0.437-0.698-0.539c-0.128-0.073-0.18-0.229-0.127-0.368l0.032-0.082c0.052-0.136,0.191-0.217,0.335-0.19
			c0.255,0.048,0.678,0.174,1.132,0.505c0.254,0.185,0.43,0.409,0.537,0.573c0.081,0.123,0.06,0.285-0.048,0.386L119.931,116.855z"
			/>
	</g>
	<path fill="none" stroke="#613619" stroke-miterlimit="10" d="M107.689,132.238c0.599,2.32,0.978,3.789,1.577,6.111
		c3.078,0,6.156,0,9.235,0c0.6-2.322,0.978-3.463,1.576-5.783c-2.049-0.057-3.876-1.267-5.925-1.269
		c-0.09,1.64-0.179,3.279-0.269,4.918c-0.091-1.639-0.18-3.278-0.27-4.918C111.565,131.301,109.738,132.184,107.689,132.238z"/>
	<path fill="none" stroke="#63361A" stroke-width="2" stroke-linecap="round" stroke-linejoin="round" stroke-miterlimit="10" d="
		M99.08,130.186c8.133,4.639,13.952,0.219,15.146-0.023c7.71,6.488,15.086-0.346,15.086-0.346"/>
	<g>
		<g>
			<g>
				<path fill="#FFFFFF" d="M115.298,164.071c-0.262-0.722-0.524-1.442-0.786-2.163c-0.693,1.904-1.388,3.81-2.08,5.715
					c-1.885-0.923-2.934-2.979-2.578-5.047c0.357-2.068,2.034-3.653,4.119-3.893c2.085-0.24,4.078,0.924,4.894,2.857
					c0.816,1.934,0.26,4.173-1.366,5.5c0.087,0.57-0.648,0.875-0.989,0.41c-0.343-0.465,0.17-1.076,0.688-0.821
					c3.077-2.543,1.228-7.541-2.764-7.468c-3.991,0.072-5.657,5.135-2.489,7.564c0.855-2.351,1.711-4.701,2.566-7.051
					c0.626,1.721,1.252,3.439,1.878,5.159c-0.46,0-0.92,0-1.38,0c0.358,0.985,0.717,1.972,1.075,2.956
					c-0.787-1.24-1.573-2.48-2.36-3.721C114.248,164.07,114.773,164.07,115.298,164.071z"/>
			</g>
		</g>
	</g>
	<g>
		<path fill="none" stroke="#040000" stroke-width="3" stroke-linecap="round" stroke-linejoin="round" stroke-miterlimit="10" d="
			M102.236,109.376c-5.361-5.713-14.625-5.713-20.714,0"/>
		<path fill="none" stroke="#040000" stroke-width="3" stroke-linecap="round" stroke-linejoin="round" stroke-miterlimit="10" d="
			M100.751,111.212c-4.592-4.895-12.529-4.895-17.746,0"/>
		<path fill="none" stroke="#FFFFFF" stroke-width="2" stroke-linecap="round" stroke-linejoin="round" stroke-miterlimit="10" d="
			M100.054,108.507c-2.632-1.81-4.644-2.228-7.509-2.25"/>
		<path fill="none" stroke="#FFFFFF" stroke-linecap="round" stroke-linejoin="round" stroke-miterlimit="10" d="M89.398,108.019
			c-2.061,0.087-2.759,0.371-4.059,1.223"/>
	</g>
	<g>
		<path fill="none" stroke="#040000" stroke-width="3" stroke-linecap="round" stroke-linejoin="round" stroke-miterlimit="10" d="
			M147.501,109.376c-5.36-5.713-14.625-5.713-20.714,0"/>
		<path fill="none" stroke="#040000" stroke-width="3" stroke-linecap="round" stroke-linejoin="round" stroke-miterlimit="10" d="
			M146.017,111.212c-4.592-4.895-12.529-4.895-17.746,0"/>
		<path fill="none" stroke="#FFFFFF" stroke-width="2" stroke-linecap="round" stroke-linejoin="round" stroke-miterlimit="10" d="
			M145.318,108.507c-2.632-1.81-4.644-2.228-7.508-2.25"/>
		<path fill="none" stroke="#FFFFFF" stroke-linecap="round" stroke-linejoin="round" stroke-miterlimit="10" d="M134.663,108.019
			c-2.06,0.087-2.759,0.371-4.059,1.223"/>
	</g>
	<g>
		
			<rect x="94.828" y="156.374" transform="matrix(0.48 -0.8773 0.8773 0.48 -70.8946 204.6108)" fill="#F4DF28" stroke="#613619" stroke-miterlimit="10" width="84.634" height="11.463"/>
		<line fill="none" stroke="#613619" stroke-miterlimit="10" x1="155.607" y1="130.212" x2="149.796" y2="127.033"/>
		<line fill="none" stroke="#613619" stroke-miterlimit="10" x1="152.067" y1="136.682" x2="146.256" y2="133.503"/>
		<line fill="none" stroke="#613619" stroke-miterlimit="10" x1="148.741" y1="142.76" x2="142.931" y2="139.581"/>
		<line fill="none" stroke="#613619" stroke-miterlimit="10" x1="145.685" y1="148.348" x2="139.873" y2="145.169"/>
		<line fill="none" stroke="#613619" stroke-miterlimit="10" x1="142.091" y1="154.917" x2="136.28" y2="151.738"/>
		<line fill="none" stroke="#613619" stroke-miterlimit="10" x1="139.141" y1="160.309" x2="133.33" y2="157.13"/>
	</g>
	<g>
		<path fill="#EFBA4D" stroke="#613619" stroke-miterlimit="10" d="M119.66,146.563l-32.18,48.479
			c13.194,8.758,31.094,5.005,39.979-8.382C136.347,173.273,132.854,155.32,119.66,146.563z M118.724,158.061
			c7.087,4.705,7.102,17.153,2.328,24.345c-4.773,7.192-16.516,12.413-23.604,7.708L118.724,158.061z"/>
		<line fill="none" stroke="#613619" stroke-miterlimit="10" x1="98.551" y1="193.443" x2="97.219" y2="199.137"/>
		<line fill="none" stroke="#613619" stroke-miterlimit="10" x1="106.657" y1="194.784" x2="106.983" y2="199.04"/>
		<line fill="none" stroke="#613619" stroke-miterlimit="10" x1="113.081" y1="192.41" x2="115.825" y2="196.85"/>
		<line fill="none" stroke="#613619" stroke-miterlimit="10" x1="121.419" y1="188.422" x2="123.972" y2="190.973"/>
		<line fill="none" stroke="#613619" stroke-miterlimit="10" x1="125.913" y1="179.861" x2="130.08" y2="181.77"/>
		<line fill="none" stroke="#613619" stroke-miterlimit="10" x1="127.842" y1="170.174" x2="132.374" y2="170.127"/>
		<line fill="none" stroke="#613619" stroke-miterlimit="10" x1="127.001" y1="164.134" x2="131.482" y2="163.297"/>
		<line fill="none" stroke="#613619" stroke-miterlimit="10" x1="123.362" y1="157.907" x2="127.812" y2="154.823"/>
	</g>
	<path fill="#85C254" stroke="#613619" stroke-miterlimit="10" d="M79.178,150.682c1.08-1.798,5.639,14.629,13.124,9.977
		c6.252-3.887-4.36-16.27-2.206-16.317c4.356-0.096,8.576,2.026,10.888,5.944c2.847,4.824,1.912,10.865-1.898,14.844
		c-0.814,0.85,22.022,34.355,16.309,37.727c-7.319,4.318-22.375-34.004-24.059-33.779c-4.84,0.648-9.748-1.489-12.312-5.833
		C76.681,159.27,76.901,154.473,79.178,150.682z"/>
	<path fill="#EAC08A" stroke="#63361A" stroke-miterlimit="10" d="M127.36,167.405c-5.64,5.862-7.896,7.993-8.927,8.45
		c-0.28,0.123-0.928-0.207-1.307-0.392c-0.567-0.276-0.858-0.323-1.609-0.397c-1.289-0.125-1.905,0.117-2.233,0.399
		c-0.329,0.282-0.512,0.728-0.391,0.945s0.502-0.019,0.593,0.163c0.091,0.181-1.689,0.832-2.133,3.621
		c-0.176,1.107,1.422,3.937,4.172,3.619c3.851-0.444,2.908-2.682,6.603-5.213c3.695-2.531,7.92-1.221,18.271-10.148
		c2.427-2.094,2.871-8.852-1.309-10.962C134.91,155.381,127.359,167.405,127.36,167.405z"/>
	<path fill="#EAC08A" stroke="#63361A" stroke-miterlimit="10" d="M94.667,166.814c8.107,0.67,11.208,0.778,12.284,0.439
		c0.291-0.092,0.559-0.77,0.721-1.156c0.244-0.584,0.43-0.812,0.946-1.363c0.884-0.945,1.506-1.172,1.939-1.176
		c0.433-0.006,0.864,0.207,0.918,0.45c0.053,0.244-0.39,0.319-0.338,0.515c0.051,0.196,1.816-0.491,3.993,1.308
		c0.865,0.715,1.536,3.894-0.737,5.474c-3.184,2.211-3.954-0.091-8.4,0.452c-4.446,0.543-6.75,4.32-20.418,4.462
		c-3.205,0.033-8.006-4.744-6.264-9.091C81.053,162.782,94.667,166.813,94.667,166.814z"/>
</g>
</svg>
