<?xml version="1.0" encoding="utf-8"?>
<!-- Generator: Adobe Illustrator 16.0.0, SVG Export Plug-In . SVG Version: 6.00 Build 0)  -->
<!DOCTYPE svg PUBLIC "-//W3C//DTD SVG 1.1//EN" "http://www.w3.org/Graphics/SVG/1.1/DTD/svg11.dtd">
<svg version="1.1" id="图层_1" xmlns="http://www.w3.org/2000/svg" xmlns:xlink="http://www.w3.org/1999/xlink" x="0px" y="0px"
	 width="220px" height="230px" viewBox="0 0 220 230" enable-background="new 0 0 220 230" xml:space="preserve">
<g>
	<ellipse fill="#C7C6C6" cx="175.021" cy="211.786" rx="10.54" ry="3.095"/>
	<ellipse fill="#C7C6C6" cx="114.573" cy="213.45" rx="10.54" ry="3.095"/>
	<path fill="#C99F72" stroke="#613619" stroke-miterlimit="10" d="M153.955,189.68c2.211-0.125,6.72,6.787,7.204,11.012
		c0.484,4.226,5.986,10.666,7.489,10.688s16.54-10.063,16.881-11.244c0.342-1.182-2.074-2.303-5.302-1.777
		c-3.229,0.527-5.235,5.191-6.487,6.069s-3.599,2.519-4.63,2.067s-3.055-5.614-0.775-10.372s2.532-13.271,1.319-16.876
		s-3.334-9.546-11.67-6.294s-8.199,11.682-8.199,11.682S149.927,189.907,153.955,189.68z"/>
	<path fill="#EAC08A" stroke="#613619" stroke-miterlimit="10" d="M109.207,173.72c-1.166-3.497-10.399,1.181-10.399,1.181
		c-32.431,17.429-59.815,3.099-68.065-11.901c-8.106-14.738,1.045-47.362,5.045-64.263S27.308,52.9,25.308,47.512
		c-2-5.388-3.565-19.529,8.435-14.263s51.284,10.002,64.065,39.804c19.489,45.446,2.435,81.196,4.226,85.696
		c1.36,3.421,8.91-0.735,8.91-0.735"/>
	<path fill="#FFFFFF" d="M42.99,151.749c-5.5-13.135,3.241-41.944,4.575-54.304c1.334-12.36,1.925-27.195-2.499-35.965
		c-3.645-7.223-13.179-14.763-4.992-13.897c8.668,0.916,32.918,8.916,41.918,28.039c6.328,13.447-1.473,46.325,0,62.992
		c1.473,16.666,16.416,24.968,16.416,24.968C59.076,177.582,45.818,158.499,42.99,151.749z"/>
	<path fill="#E3BB88" stroke="#613619" stroke-miterlimit="10" d="M119.64,127.374l-2.342,2.003c0,0,1.187,6.999-7.412,25.499
		c-6.519,14.024-2.921,27.259,6.438,32.844c7.76,4.632,27.67,7.04,38.799,4.546c15.697-3.517,25.951-18.222,21.62-31.887
		c-6.898-21.765-9.452-30.77-9.452-30.77L119.64,127.374z"/>
	<path fill="#FFFFFF" d="M173.182,151.132c-3.677-11.58-7.16-23.758-7.16-23.758l-15.446,2.835c0,0-3.834,3.04,0,7.973
		s2.698,26.414,3.927,37.567c1.23,11.153,17.925,5.036,17.925,5.036C180.267,168.882,177.51,164.761,173.182,151.132z"/>
	<path fill="#187FC4" d="M145.541,105.498h-8.734l-23.251,22.35c0,0,24.269,4.187,34.686,8.766c7.365,3.238,20.066,11,20.066,11
		s-1.106-3.868-0.658-8.864c0.136-5.442-0.359-9.14-0.359-9.14L145.541,105.498z"/>
	<path fill="#EAC08A" stroke="#63361A" stroke-miterlimit="10" d="M77.972,99.759c0.682,1.978,4.396,1.385,4.979,2.592
		c0.764,1.583-3.41,0.921-2.32,3.649c6.675,16.686,29.462,26.035,52.334,23.473c3.306-0.369,4.42,2.461,8.386,3.66
		c2.097,0.596,6.944,0.748,10.423-0.207c3.162-1.033,3.665-3.631,6.986-3.453c16.925,0.909,35.591-7.257,40.333-25.473
		c0.739-2.844-3.083-2.066-2.319-3.649c0.583-1.208,4.297-0.614,4.979-2.592c0.729-2.112-3.239-1.739-3.342-2.66
		c-0.146-1.316,4.092-1.705,2.046-4.57c-3.778-5.289-8.024-7.556-15.539-11.99c-2.607-9.526-4.882-16.092-7.056-20.759
		c-3.34-7.168-4.896-11.734-8.024-17.728c-3.483-6.673-9.228-11.407-11.259-9.521c-1.406,1.305-1.534,1.673-3.829,11.239
		c-0.443,1.847-4.242-1.282-13.852-0.888c-9.738-0.166-13.481,2.735-13.924,0.888c-2.296-9.566-2.424-9.934-3.829-11.239
		c-2.031-1.886-7.775,2.848-11.259,9.521c-3.13,5.993-4.685,10.559-8.024,17.728c-2.174,4.666-4.447,11.233-7.056,20.759
		c-7.515,4.434-13.761,8.701-17.539,13.99c-2.046,2.865,2.192,3.254,2.046,4.57C81.209,98.02,77.242,97.647,77.972,99.759z"/>
	<path fill="#613619" d="M157.913,42.872c3.116,0.671,5.707,1.619,8.015,2.853c-0.673-2.094-1.139-3.569-1.771-4.785
		c-0.964-1.85-1.519-2.435-2.237-3.52c-0.718-1.085-1.758-1.744-2.139-1.768c-0.381-0.023-0.646,0.385-1.017,2.062
		C158.491,38.943,158.302,39.497,157.913,42.872z"/>
	<path fill="#613619" d="M123.646,42.872c-3.116,0.671-5.707,1.619-8.015,2.853c0.673-2.094,1.139-3.569,1.771-4.785
		c0.964-1.85,1.519-2.435,2.237-3.52c0.718-1.085,1.758-1.744,2.139-1.768c0.381-0.023,0.646,0.385,1.017,2.062
		C123.067,38.943,123.257,39.497,123.646,42.872z"/>
	<g>
		<path fill="#FFFFFF" d="M87.274,102.281c0.863,14.033,20.929,27.756,46.408,27.205c2.994-0.064,3.725,2.095,6.931,3.095
			c4.174,1.028,7.058,0.745,10.846-0.052c2.875-0.971,4.532-3.534,5.884-3.448c20.981,1.334,34.474-12.767,35.337-26.799
			c0.472-7.667-0.909-12.367-6.786-15.789c-3.69-2.148-4.396-1.656-4.632-1.649c-6.361-28.94-15.618-29.283-19.343-29.556
			c-3.789-0.278-6.716,1.158-9.217,7.461c-0.929,2.34-2.237,12.407-2.586,15.75c-0.248,2.377-0.422,6.723-4.375,7.455
			c-2.044-0.333-2.817-0.581-4.5-5.274c-2.276-6.348-6.04-14.154-6.867-16.532c-2.488-7.153-7.898-9.608-13.219-9.608
			c-5.523,0-13.647,4.427-20.461,30.304c-0.235-0.007-2.942-0.499-6.632,1.649C88.186,89.915,86.805,94.615,87.274,102.281z"/>
	</g>
	<ellipse fill="#EE869A" cx="180.364" cy="100.322" rx="8.599" ry="2.877"/>
	<ellipse fill="#EE869A" cx="110.943" cy="101.613" rx="8.599" ry="2.877"/>
	<path fill="none" stroke="#63361A" stroke-width="2" stroke-linecap="round" stroke-linejoin="round" stroke-miterlimit="10" d="
		M146.996,105.733c-0.535-1.512,0.132-5.411,0.132-5.411"/>
	<g>
		<path fill="#613619" d="M152.188,89.844c0.583,0.354,0.916,0.668,1.163,0.938c0.247,0.269,0.409,0.492,0.665,0.842
			c0.257,0.35,0.608,0.828,0.446,1.752c-0.161,0.924-0.837,2.294-2.261,3.933c-1.424,1.64-3.597,3.548-5.191,3.573
			c-1.596,0.025-3.827-1.814-5.303-3.408c-1.475-1.594-2.192-2.942-2.383-3.86c-0.191-0.918,0.146-1.407,0.391-1.765
			c0.245-0.358,0.399-0.586,0.639-0.862c0.239-0.276,0.562-0.601,1.133-0.973c0.571-0.372,1.391-0.793,5.338-0.886
			C150.772,89.097,151.604,89.491,152.188,89.844z"/>
		<path fill="#FFFFFF" d="M152.442,92.471c-0.136,0.131-0.354,0.108-0.459-0.049c-0.1-0.15-0.24-0.331-0.413-0.499
			c-0.264-0.257-0.526-0.428-0.705-0.528c-0.129-0.073-0.183-0.227-0.132-0.366l0.03-0.083c0.05-0.137,0.188-0.22,0.332-0.195
			c0.256,0.044,0.679,0.163,1.138,0.486c0.256,0.181,0.436,0.402,0.545,0.564c0.082,0.122,0.064,0.285-0.042,0.387L152.442,92.471z"
			/>
	</g>
	<g>
		<g>
			<g>
				<path fill="#FFFFFF" d="M162.251,137.198c-0.452-0.618-0.904-1.236-1.356-1.854c-0.134,2.021-0.269,4.04-0.402,6.061
					c-2.064-0.36-3.644-2.038-3.879-4.121c-0.234-2.082,0.932-4.07,2.865-4.881c1.933-0.811,4.168-0.25,5.49,1.377
					c1.321,1.625,1.412,3.929,0.223,5.654c0.243,0.523-0.378,1.021-0.835,0.67c-0.457-0.352-0.136-1.08,0.431-0.979
					c2.242-3.296-0.925-7.573-4.731-6.392c-3.808,1.183-3.994,6.502-0.279,7.947c0.165-2.492,0.331-4.984,0.496-7.476
					c1.079,1.475,2.158,2.948,3.238,4.424c-0.441,0.128-0.883,0.256-1.323,0.384c0.619,0.846,1.236,1.69,1.855,2.535
					c-1.1-0.97-2.2-1.939-3.301-2.908C161.246,137.492,161.749,137.346,162.251,137.198z"/>
			</g>
		</g>
	</g>
	<path fill="#DEB686" stroke="#613619" stroke-miterlimit="10" d="M114.074,181.582c1.372,1.738-1.695,9.398-4.875,12.223
		c-3.181,2.823-5.291,11.026-4.445,12.27c0.845,1.242,17.737,7.758,18.9,7.357c1.164-0.399,0.694-3.021-1.591-5.361
		c-2.286-2.34-7.256-1.303-8.694-1.822c-1.437-0.52-4.127-1.499-4.351-2.602s2.839-5.726,8.044-6.592
		c5.205-0.867,12.317-5.552,14.572-8.615c2.254-3.064,5.898-8.213-1.553-13.168c-7.452-4.955-14.272,0-14.272,0
		S111.576,178.415,114.074,181.582z"/>
	<path fill="#EAC08A" stroke="#63361A" stroke-miterlimit="10" d="M141.122,151.22c1.62,2.986,8.287,9.851,9.423,10.466
		c0.309,0.168,0.868-0.068,1.317-0.244c0.674-0.264,1.222-0.326,2.085-0.389c1.921-0.138,3.712,0.862,3.504,1.695
		c-0.189,0.759-1.203,0.013-1.323,0.211s2.082,1.198,2.105,4.33c0.014,1.875-1.983,4.366-5.095,3.752
		c-4.357-0.859-3.076-3.328-7.065-6.557c-3.989-3.228-8.934-2.116-19.94-13.26c-2.58-2.613-2.47-10.371,2.497-12.398
		C133.598,136.799,140.402,149.895,141.122,151.22z"/>
	<g>
		<path fill="none" stroke="#613619" stroke-miterlimit="10" d="M141.074,109.009c0.634,2.308,0.678,3.769,1.313,6.077
			c3.073-0.048,6.576-0.384,9.65-0.432c0.563-2.327,0.852-3.185,1.413-5.512c0,0-3.89-2.203-5.936-2.173
			c-0.063,1.638-0.127,4.277-0.191,5.915c-0.115-1.636-0.229-4.271-0.345-5.907C144.933,107.012,141.075,109.009,141.074,109.009z"
			/>
		<path fill="none" stroke="#63361A" stroke-width="2" stroke-linecap="round" stroke-linejoin="round" stroke-miterlimit="10" d="
			M136.104,110.034c0,0,10.576-3.291,11.764-3.551l10.794,4.384"/>
	</g>
	<g>
		<ellipse fill="#E5E5E4" cx="166.783" cy="93.995" rx="9.75" ry="2.511"/>
		<path fill="#63361A" d="M157.033,82.734c0-0.414,0.336-0.75,0.75-0.75h17c0.414,0,0.75,0.336,0.75,0.75l0,0
			c0,0.414-0.336,0.75-0.75,0.75h-17C157.369,83.484,157.033,83.148,157.033,82.734L157.033,82.734z"/>
		<path fill="#63361A" d="M157.033,92.484c0-0.414,0.336-0.75,0.75-0.75h17c0.414,0,0.75,0.336,0.75,0.75l0,0
			c0,0.414-0.336,0.75-0.75,0.75h-17C157.369,93.234,157.033,92.898,157.033,92.484L157.033,92.484z"/>
		<circle fill="#63361A" cx="166.247" cy="87.651" r="1.735"/>
		<path fill="none" stroke="#613619" stroke-width="2" stroke-linecap="round" stroke-linejoin="round" stroke-miterlimit="10" d="
			M167.7,73.385c-4.25-0.25-7.001-4.25-7.001-4.25"/>
	</g>
	<g>
		<ellipse fill="#E5E5E4" cx="123.449" cy="93.995" rx="9.75" ry="2.511"/>
		<path fill="#63361A" d="M133.198,82.734c0-0.414-0.336-0.75-0.75-0.75h-17c-0.413,0-0.749,0.336-0.749,0.75l0,0
			c0,0.414,0.336,0.75,0.749,0.75h17C132.862,83.484,133.198,83.148,133.198,82.734L133.198,82.734z"/>
		<path fill="#63361A" d="M133.198,92.484c0-0.414-0.336-0.75-0.75-0.75h-17c-0.413,0-0.749,0.336-0.749,0.75l0,0
			c0,0.414,0.336,0.75,0.749,0.75h17C132.862,93.234,133.198,92.898,133.198,92.484L133.198,92.484z"/>
		<circle fill="#63361A" cx="123.985" cy="87.651" r="1.735"/>
		<path fill="none" stroke="#613619" stroke-width="2" stroke-linecap="round" stroke-linejoin="round" stroke-miterlimit="10" d="
			M122.531,73.385c4.25-0.25,7.001-4.25,7.001-4.25"/>
	</g>
</g>
</svg>
