<?xml version="1.0" encoding="utf-8"?>
<!-- Generator: Adobe Illustrator 16.0.0, SVG Export Plug-In . SVG Version: 6.00 Build 0)  -->
<!DOCTYPE svg PUBLIC "-//W3C//DTD SVG 1.1//EN" "http://www.w3.org/Graphics/SVG/1.1/DTD/svg11.dtd">
<svg version="1.1" id="图层_1" xmlns="http://www.w3.org/2000/svg" xmlns:xlink="http://www.w3.org/1999/xlink" x="0px" y="0px"
	 width="220px" height="230px" viewBox="0 0 220 230" enable-background="new 0 0 220 230" xml:space="preserve">
<ellipse fill="#C7C6C6" cx="182.94" cy="207.494" rx="10.54" ry="3.095"/>
<ellipse fill="#C7C6C6" cx="122.493" cy="209.158" rx="10.54" ry="3.095"/>
<path fill="#C99F72" stroke="#613619" stroke-miterlimit="10" d="M161.875,185.387c2.211-0.125,6.72,6.788,7.204,11.014
	c0.484,4.225,5.986,10.664,7.489,10.687s16.54-10.062,16.881-11.244c0.342-1.182-2.074-2.304-5.302-1.776
	c-3.229,0.526-5.235,5.19-6.487,6.068c-1.252,0.879-3.599,2.518-4.63,2.067c-1.031-0.451-3.055-5.614-0.775-10.372
	s2.532-13.271,1.319-16.876s-3.334-9.546-11.67-6.294s-8.199,11.682-8.199,11.682S157.847,185.615,161.875,185.387z"/>
<path fill="#EAC08A" stroke="#613619" stroke-miterlimit="10" d="M117.127,169.428c-1.166-3.498-10.399,1.18-10.399,1.18
	c-32.431,17.43-59.816,3.1-68.066-11.9c-8.106-14.738,1.046-47.362,5.046-64.263S35.228,48.608,33.228,43.22
	c-2-5.388-3.566-19.529,8.434-14.263s51.285,10.002,64.066,39.804c19.489,45.446,2.435,81.196,4.225,85.696
	c1.361,3.421,8.911-0.736,8.911-0.736"/>
<path fill="#FFFFFF" d="M50.91,147.457c-5.5-13.135,3.241-41.944,4.575-54.304c1.334-12.36,1.925-27.195-2.499-35.965
	c-3.645-7.223-13.179-14.763-4.992-13.897c8.667,0.916,32.917,8.916,41.917,28.039c6.329,13.447-1.472,46.324,0,62.992
	c1.474,16.666,16.417,24.968,16.417,24.968C66.996,173.29,53.738,154.207,50.91,147.457z"/>
<path fill="#E3BB88" stroke="#613619" stroke-miterlimit="10" d="M127.56,123.082l-2.341,2.003c0,0,1.186,6.999-7.414,25.499
	c-6.519,14.025-2.92,27.259,6.438,32.844c7.76,4.631,27.67,7.04,38.799,4.547c15.697-3.518,25.951-18.223,21.62-31.888
	c-6.899-21.765-9.452-30.771-9.452-30.771L127.56,123.082z"/>
<path fill="#FFFFFF" d="M181.102,146.84c-3.677-11.58-7.16-23.758-7.16-23.758l-15.446,2.835c0,0-3.834,3.04,0,7.972
	c3.834,4.934,2.698,26.416,3.927,37.568c1.23,11.152,17.924,5.036,17.924,5.036C188.187,164.59,185.43,160.469,181.102,146.84z"/>
<path fill="#187FC4" d="M153.461,101.206h-8.734l-23.251,22.349c0,0,24.269,4.188,34.686,8.766c7.365,3.238,20.066,11,20.066,11
	s-1.106-3.867-0.658-8.863c0.136-5.443-0.359-9.141-0.359-9.141L153.461,101.206z"/>
<path fill="#EAC08A" stroke="#63361A" stroke-miterlimit="10" d="M85.892,95.467c0.682,1.978,4.396,1.385,4.979,2.592
	c0.764,1.583-3.41,0.921-2.32,3.649c6.675,16.687,29.461,26.035,52.334,23.474c3.306-0.371,4.419,2.459,8.386,3.659
	c2.097,0.595,6.944,0.748,10.423-0.207c3.162-1.032,3.665-3.631,6.985-3.452c16.926,0.908,35.592-7.258,40.333-25.474
	c0.74-2.844-3.083-2.066-2.318-3.649c0.583-1.208,4.297-0.614,4.979-2.592c0.729-2.112-3.239-1.739-3.342-2.66
	c-0.146-1.316,4.092-1.705,2.046-4.57c-3.779-5.289-8.024-7.556-15.539-11.99c-2.607-9.526-4.882-16.092-7.056-20.759
	c-3.34-7.168-4.896-11.734-8.024-17.727c-3.483-6.673-9.228-11.407-11.259-9.521c-1.406,1.305-1.534,1.673-3.829,11.239
	c-0.443,1.847-4.242-1.282-13.852-0.888c-9.738-0.166-13.481,2.735-13.924,0.888c-2.297-9.566-2.424-9.934-3.829-11.239
	c-2.031-1.886-7.775,2.848-11.26,9.521c-3.129,5.993-4.684,10.559-8.023,17.727c-2.174,4.666-4.447,11.233-7.056,20.759
	c-7.515,4.434-13.761,8.701-17.539,13.99c-2.046,2.865,2.192,3.254,2.046,4.57C89.129,93.727,85.161,93.354,85.892,95.467z"/>
<path fill="#613619" d="M165.833,38.58c3.116,0.671,5.707,1.619,8.014,2.853c-0.672-2.094-1.138-3.569-1.771-4.785
	c-0.964-1.85-1.519-2.435-2.237-3.52c-0.718-1.085-1.758-1.744-2.139-1.768c-0.381-0.023-0.646,0.385-1.017,2.062
	C166.411,34.651,166.221,35.205,165.833,38.58z"/>
<path fill="#613619" d="M131.565,38.58c-3.116,0.671-5.707,1.619-8.015,2.853c0.672-2.094,1.139-3.569,1.771-4.785
	c0.964-1.85,1.52-2.435,2.237-3.52s1.758-1.744,2.139-1.768c0.382-0.023,0.646,0.385,1.017,2.062
	C130.987,34.651,131.177,35.205,131.565,38.58z"/>
<g>
	<path fill="#FFFFFF" d="M95.194,97.989c0.863,14.033,20.929,27.756,46.408,27.204c2.993-0.063,3.725,2.096,6.931,3.096
		c4.174,1.027,7.058,0.745,10.846-0.053c2.875-0.971,4.532-3.533,5.883-3.447c20.982,1.334,34.475-12.766,35.338-26.799
		c0.472-7.667-0.909-12.367-6.786-15.789c-3.69-2.148-4.396-1.656-4.633-1.649c-6.36-28.94-15.617-29.283-19.342-29.556
		c-3.789-0.278-6.716,1.158-9.217,7.461c-0.929,2.34-2.237,12.407-2.586,15.75c-0.248,2.377-0.422,6.723-4.375,7.455
		c-2.044-0.333-2.817-0.581-4.5-5.274c-2.276-6.348-6.04-14.154-6.867-16.532c-2.489-7.153-7.898-9.608-13.219-9.608
		c-5.522,0-13.647,4.427-20.461,30.304c-0.235-0.007-2.942-0.499-6.632,1.649C96.105,85.622,94.725,90.323,95.194,97.989z"/>
</g>
<ellipse fill="#EE869A" cx="188.285" cy="96.03" rx="8.599" ry="2.877"/>
<ellipse fill="#EE869A" cx="118.863" cy="97.321" rx="8.6" ry="2.877"/>
<path fill="none" stroke="#63361A" stroke-width="2" stroke-linecap="round" stroke-linejoin="round" stroke-miterlimit="10" d="
	M154.916,101.44c-0.535-1.512,0.132-5.411,0.132-5.411"/>
<g>
	<path fill="#613619" d="M160.107,85.552c0.583,0.354,0.916,0.668,1.163,0.938c0.247,0.269,0.408,0.492,0.665,0.842
		s0.608,0.828,0.446,1.752s-0.837,2.294-2.261,3.933c-1.424,1.64-3.597,3.548-5.192,3.573c-1.595,0.025-3.826-1.814-5.302-3.408
		c-1.475-1.594-2.192-2.942-2.383-3.86c-0.191-0.918,0.146-1.407,0.391-1.765s0.399-0.586,0.639-0.862
		c0.238-0.276,0.562-0.601,1.133-0.973c0.571-0.372,1.391-0.793,5.338-0.886C158.692,84.804,159.525,85.199,160.107,85.552z"/>
	<path fill="#FFFFFF" d="M160.362,88.179c-0.136,0.131-0.354,0.108-0.459-0.049c-0.101-0.15-0.24-0.331-0.413-0.499
		c-0.264-0.257-0.526-0.428-0.705-0.528c-0.129-0.073-0.183-0.227-0.132-0.366l0.03-0.083c0.05-0.137,0.188-0.22,0.331-0.195
		c0.257,0.044,0.68,0.163,1.139,0.486c0.256,0.181,0.436,0.402,0.545,0.564c0.082,0.122,0.063,0.285-0.042,0.387L160.362,88.179z"/>
</g>
<g>
	<g>
		<g>
			<path fill="#FFFFFF" d="M170.172,132.906c-0.452-0.618-0.904-1.236-1.356-1.854c-0.135,2.021-0.269,4.04-0.402,6.06
				c-2.065-0.359-3.644-2.037-3.879-4.12c-0.234-2.082,0.932-4.07,2.865-4.882c1.933-0.81,4.168-0.25,5.489,1.377
				c1.322,1.627,1.413,3.93,0.224,5.656c0.243,0.522-0.378,1.02-0.835,0.668c-0.457-0.351-0.136-1.078,0.431-0.979
				c2.242-3.296-0.925-7.573-4.731-6.391c-3.808,1.182-3.994,6.5-0.279,7.947c0.165-2.492,0.331-4.984,0.496-7.477
				c1.079,1.475,2.158,2.949,3.237,4.424c-0.44,0.128-0.882,0.256-1.322,0.384c0.619,0.845,1.236,1.69,1.855,2.535
				c-1.1-0.97-2.201-1.938-3.301-2.909C169.166,133.2,169.669,133.055,170.172,132.906z"/>
		</g>
	</g>
</g>
<path fill="#DEB686" stroke="#613619" stroke-miterlimit="10" d="M121.996,177.29c1.371,1.737-1.697,9.399-4.877,12.224
	c-3.18,2.822-5.289,11.025-4.445,12.269c0.846,1.243,17.738,7.758,18.901,7.358c1.164-0.4,0.694-3.021-1.591-5.361
	c-2.286-2.34-7.256-1.303-8.693-1.823s-4.129-1.499-4.352-2.603c-0.225-1.102,2.839-5.725,8.044-6.592s12.317-5.551,14.571-8.615
	c2.255-3.063,5.899-8.213-1.552-13.168c-7.452-4.955-14.272,0-14.272,0S119.496,174.123,121.996,177.29z"/>
<path fill="#EAC08A" stroke="#63361A" stroke-miterlimit="10" d="M149.04,146.928c1.62,2.986,8.287,9.85,9.423,10.467
	c0.309,0.166,0.868-0.069,1.317-0.246c0.675-0.263,1.223-0.325,2.086-0.388c1.921-0.138,3.712,0.862,3.504,1.695
	c-0.19,0.759-1.203,0.013-1.323,0.211s2.082,1.198,2.105,4.33c0.014,1.875-1.983,4.366-5.095,3.752
	c-4.356-0.86-3.075-3.328-7.064-6.556c-3.989-3.229-8.934-2.117-19.94-13.26c-2.581-2.613-2.47-10.373,2.497-12.399
	C141.518,132.507,148.323,145.604,149.04,146.928z"/>
<g>
	<path fill="none" stroke="#613619" stroke-miterlimit="10" d="M148.4,104.474c0.634,2.308,0.678,3.769,1.312,6.077
		c3.074-0.048,6.577-0.384,9.651-0.432c0.562-2.327,0.851-3.185,1.413-5.512c0,0-3.891-2.203-5.937-2.173
		c-0.063,1.638-0.127,4.277-0.19,5.915c-0.115-1.636-0.23-4.271-0.346-5.907C152.257,102.477,148.401,104.474,148.4,104.474z"/>
	<path fill="none" stroke="#63361A" stroke-width="2" stroke-linecap="round" stroke-linejoin="round" stroke-miterlimit="10" d="
		M143.429,105.499c0,0,10.576-3.291,11.765-3.551l10.794,4.384"/>
</g>
<g>
	<g>
		<path fill="none" stroke="#613619" stroke-width="2" stroke-miterlimit="10" d="M181.622,74.004
			c-2.312-0.81-8.008-3.103-10.296-4.67c-5.113-3.503-6.236,1.516-6.236,7.628c0,6.113,4.378,11.005,11.005,11.005
			s10.931-4.955,10.931-11.068C187.025,74.799,185.453,75.344,181.622,74.004z"/>
		<path fill="#613619" d="M175.342,71.339c-3.972-2.126-6.884,1.556-6.884,5.792c0,4.236,3.034,7.626,7.626,7.626
			s7.574-3.434,7.574-7.67C183.658,72.851,179.122,73.361,175.342,71.339z"/>
		<ellipse fill="#FFFFFF" cx="173.101" cy="75.833" rx="3.267" ry="3.014"/>
		<ellipse fill="#FFFFFF" cx="179.864" cy="81.151" rx="1.759" ry="1.623"/>
	</g>
	<path fill="none" stroke="#63361A" stroke-width="4" stroke-linecap="round" stroke-linejoin="round" stroke-miterlimit="10" d="
		M188.102,75.833c-12.043-1.273-20.759-8.66-20.759-8.66"/>
</g>
<g>
	<g>
		<path fill="none" stroke="#613619" stroke-width="2" stroke-miterlimit="10" d="M125.082,74.004
			c2.313-0.81,8.008-3.103,10.296-4.67c5.113-3.503,6.236,1.516,6.236,7.628c0,6.113-4.378,11.005-11.005,11.005
			s-10.93-4.955-10.93-11.068C119.68,74.799,121.252,75.344,125.082,74.004z"/>
		<path fill="#613619" d="M131.362,71.339c3.972-2.126,6.884,1.556,6.884,5.792c0,4.236-3.034,7.626-7.625,7.626
			c-4.593,0-7.574-3.434-7.574-7.67C123.047,72.851,127.584,73.361,131.362,71.339z"/>
		<ellipse fill="#FFFFFF" cx="133.604" cy="75.833" rx="3.267" ry="3.014"/>
		<ellipse fill="#FFFFFF" cx="126.841" cy="81.151" rx="1.759" ry="1.623"/>
	</g>
	<path fill="none" stroke="#63361A" stroke-width="4" stroke-linecap="round" stroke-linejoin="round" stroke-miterlimit="10" d="
		M118.604,75.833c12.043-1.273,20.758-8.66,20.758-8.66"/>
</g>
</svg>
