<?xml version="1.0" encoding="utf-8"?>
<!-- Generator: Adobe Illustrator 16.0.0, SVG Export Plug-In . SVG Version: 6.00 Build 0)  -->
<!DOCTYPE svg PUBLIC "-//W3C//DTD SVG 1.1//EN" "http://www.w3.org/Graphics/SVG/1.1/DTD/svg11.dtd">
<svg version="1.1" id="图层_1" xmlns="http://www.w3.org/2000/svg" xmlns:xlink="http://www.w3.org/1999/xlink" x="0px" y="0px"
	 width="200px" height="230px" viewBox="0 0 200 230" enable-background="new 0 0 200 230" xml:space="preserve">
<ellipse fill="#C7C6C6" cx="138.976" cy="218.751" rx="10.54" ry="3.095"/>
<ellipse fill="#C7C6C6" cx="98.111" cy="218.751" rx="10.54" ry="3.095"/>
<g>
	<path fill="#EAC08A" stroke="#613619" stroke-miterlimit="10" d="M135.967,180.291c11.273-18.552,12.206-54.837,10.065-67.932
		c-9.256-56.612-33.614-72.635-59.259-78.026c-23-4.835-34.479-6.186-39.665-1.781c-5.187,4.405,9.245,7.92,12.473,22.97
		c3.228,15.051-22.026,48.217-25.202,68.36c-3.925,24.902,10.357,47.534,25.9,59.121c20.007,14.914,39.4,13.371,53.843,17.865
		C114.122,200.868,124.694,198.843,135.967,180.291z"/>
	<path fill="#FFFFFF" d="M129.166,159.738c8.543-14.059,9.256-41.559,7.628-51.481c-5.828-35.521-20.497-51.173-37.827-59.809
		c-8.043-4.01-28.354-8.407-28.354-4.102c0,2.831,4.826,4.356,6.35,14.516c1.731,11.536-22.232,48.255-24.639,63.52
		c-2.975,18.871,4.572,31.479,19.484,43.476c14.736,11.853,29.86,10.133,40.806,13.539
		C112.614,179.396,120.623,173.797,129.166,159.738z"/>
</g>
<path fill="#EAC08A" stroke="#63361A" stroke-miterlimit="10" d="M82.172,177.436c2.819,0.092,3.793-1.53,3.953-1.408
	c0.16,0.125-0.143,0.453,0.049,0.613c0.19,0.16,0.661,0.064,1-0.205c0.338-0.268,0.691-0.826,0.813-2.113
	c0.07-0.752,0.078-1.045-0.085-1.654c-0.109-0.406-0.312-1.104-0.138-1.354c0.644-0.926,3.16-2.735,9.973-7.159
	c-10.717,24.905-10.381,26.872-10.448,28.241c-0.122,2.455,0.622,4.824,1.772,6.684c2.66,4.296,9.334,8.508,9.845,9.092
	c0.778,0.891,3.937,2.98,1.614,3.321s-4.743-0.818-7.188-0.9c-1.611-0.054-2.679,0.574-3.191,1.345
	c-0.514,0.77-1.283,2.065-1.647,2.779c-0.362,0.715-0.321,0.846-0.212,1.104c0.109,0.261,0.285,0.648,5.288,0.843
	s5.011,0.194,10.073,0.149c5.061-0.045,5.443-0.647,5.814-1.817c0.316-0.998-0.184-2.416-0.96-6.394l0.004-0.004
	c7.046,1.383,14.093,1.449,21.14,0.205c-0.752,3.814-1.229,5.213-0.919,6.192c0.37,1.17,0.753,1.772,5.815,1.817
	c5.062,0.045,5.069,0.045,10.073-0.149c5.003-0.194,5.179-0.582,5.287-0.843c0.11-0.258,0.152-0.389-0.212-1.104
	c-0.363-0.714-1.134-2.01-1.646-2.779c-0.513-0.771-1.581-1.398-3.192-1.345c-2.443,0.082-4.865,1.241-7.187,0.9
	c-2.322-0.341,0.836-2.431,1.613-3.321c0.512-0.584,7.185-4.795,9.845-9.092c1.149-1.859,1.895-4.229,1.772-6.684
	c-0.066-1.367,0.271-3.336-10.447-28.241c6.813,4.424,9.329,6.233,9.972,7.159c0.174,0.25-0.028,0.947-0.137,1.354
	c-0.163,0.609-0.155,0.902-0.085,1.654c0.12,1.287,0.474,1.845,0.813,2.113c0.338,0.27,0.809,0.365,1,0.205s-0.112-0.49,0.048-0.613
	c0.161-0.122,1.135,1.5,3.954,1.408c1.119-0.035,3.592-2.137,2.761-4.773c-1.163-3.692-3.178-2.346-6.357-5.491
	s-2.128-4.39-15.488-17.719c-0.424-0.423-0.856-0.854-1.285-1.285l-14.896-0.851v-0.188l-1.651,0.094l-1.649-0.094v0.188
	l-14.896,0.851c-0.429,0.431-0.861,0.862-1.285,1.285c-13.359,13.33-12.309,14.573-15.488,17.719s-5.194,1.799-6.357,5.491
	C78.584,175.299,81.057,177.4,82.172,177.436z"/>
<path fill="#FFFFFF" d="M104.947,161.611c0-7.734,6.27-14.004,14.005-14.004l0,0c7.734,0,14.005,6.27,14.005,14.004l4.365,24.313
	c1.182,7.776-2.093,14.076-18.37,14.006h-2.001c-11.549,0-18.143-5.957-16.369-14.006L104.947,161.611z"/>
<polygon fill="#187FC4" points="124.014,126.489 115.279,126.489 97.036,148.002 119.37,171.188 140.596,148.184 "/>
<path fill="#EAC08A" stroke="#63361A" stroke-miterlimit="10" d="M56.443,120.749c0.682,1.978,4.396,1.385,4.979,2.592
	c0.764,1.583-3.41,0.921-2.318,3.649c6.675,16.686,26.145,24.473,47.334,23.473c3.322-0.156,4.591,2.551,8.557,3.751
	c2.096,0.595,5.335,0.774,8.813-0.181c3.161-1.033,5.102-3.727,8.423-3.57c21.189,1,40.659-6.787,47.334-23.473
	c1.092-2.729-3.083-2.066-2.318-3.649c0.583-1.208,4.297-0.614,4.979-2.592c0.729-2.112-3.239-1.739-3.342-2.66
	c-0.146-1.315,4.092-1.705,2.046-4.57c-3.777-5.289-10.024-9.556-17.539-13.99c-2.607-9.526-4.882-16.092-7.056-20.759
	c-3.34-7.168-4.896-11.734-8.024-17.727c-3.483-6.673-9.228-11.407-11.259-9.521c-1.406,1.305-1.534,1.673-3.829,11.239
	c-0.443,1.847-4.242-1.282-13.852-0.888c-9.738-0.166-13.48,2.735-13.924,0.888c-2.297-9.566-2.424-9.934-3.829-11.239
	c-2.031-1.886-7.774,2.848-11.259,9.521c-3.129,5.993-4.684,10.559-8.024,17.727c-2.174,4.666-4.446,11.233-7.056,20.759
	c-7.514,4.434-13.762,8.701-17.539,13.99c-2.046,2.865,2.191,3.254,2.046,4.57C59.682,119.009,55.715,118.637,56.443,120.749z"/>
<path fill="#613619" d="M136.386,63.862c3.116,0.671,5.707,1.619,8.015,2.853c-0.673-2.094-1.139-3.569-1.771-4.785
	c-0.964-1.85-1.519-2.435-2.237-3.52c-0.718-1.085-1.758-1.744-2.139-1.768c-0.381-0.023-0.646,0.385-1.017,2.062
	C136.964,59.933,136.772,60.487,136.386,63.862z"/>
<path fill="#613619" d="M102.118,63.862c-3.116,0.671-5.707,1.619-8.015,2.853c0.673-2.094,1.139-3.569,1.771-4.785
	c0.965-1.85,1.52-2.435,2.237-3.52s1.758-1.744,2.139-1.768c0.382-0.023,0.646,0.385,1.017,2.062
	C101.54,59.933,101.73,60.487,102.118,63.862z"/>
<g>
	<path fill="#FFFFFF" d="M65.746,123.271c0.863,14.033,15.928,27.756,41.407,27.205c2.993-0.065,4.891,2.049,7.765,3.021
		c3.054,1.012,4.828,1.147,8.394-0.101c2.874-0.972,4.475-3.523,7.501-3.326c25.031,1.638,41.475-12.766,42.338-26.799
		c0.472-7.666-0.909-12.366-6.786-15.789c-3.69-2.148-6.396-1.656-6.633-1.649c-6.36-28.94-16.454-29.349-20.179-29.622
		c-3.789-0.278-8.544,0.545-11.045,6.848c-0.928,2.34-5.175,16.249-6.002,18.773c-0.805,2.459-1.013,3.894-3.057,4.227
		c-2.044-0.333-2.252-1.769-3.058-4.227c-0.827-2.525-4.718-14.317-5.546-16.695c-2.488-7.153-5.898-9.608-11.219-9.608
		c-5.523,0-13.646,4.427-20.461,30.304c-0.236-0.007-2.941-0.499-6.632,1.649C66.657,110.904,65.276,115.605,65.746,123.271z"/>
</g>
<ellipse fill="#EE869A" cx="148.375" cy="122.604" rx="8.599" ry="2.877"/>
<ellipse fill="#EE869A" cx="89.103" cy="122.604" rx="8.599" ry="2.877"/>
<path fill="none" stroke="#63361A" stroke-width="2" stroke-linecap="round" stroke-linejoin="round" stroke-miterlimit="10" d="
	M119.164,126.723c-0.535-1.512,0.132-5.41,0.132-5.41"/>
<g>
	<path fill="#613619" d="M124.646,111.152c0.577,0.363,0.905,0.683,1.148,0.955s0.401,0.498,0.652,0.852s0.595,0.838,0.419,1.759
		c-0.177,0.921-0.872,2.28-2.322,3.897s-3.653,3.49-5.248,3.49c-1.596,0-3.798-1.873-5.247-3.49
		c-1.451-1.617-2.146-2.977-2.322-3.897s0.168-1.405,0.418-1.759c0.252-0.354,0.41-0.58,0.652-0.852
		c0.243-0.272,0.571-0.592,1.148-0.955c0.576-0.363,1.402-0.771,5.351-0.802C123.244,110.381,124.07,110.788,124.646,111.152z"/>
	<path fill="#FFFFFF" d="M124.862,113.78c-0.139,0.129-0.356,0.102-0.459-0.056c-0.099-0.151-0.235-0.334-0.405-0.505
		c-0.26-0.261-0.521-0.436-0.697-0.539c-0.128-0.075-0.18-0.23-0.127-0.368l0.032-0.082c0.053-0.135,0.191-0.216,0.335-0.189
		c0.256,0.048,0.677,0.174,1.131,0.504c0.253,0.184,0.429,0.409,0.536,0.572c0.081,0.123,0.06,0.285-0.048,0.386L124.862,113.78z"/>
</g>
<g>
	<g>
		<g>
			<path fill="#FFFFFF" d="M120.236,160.934c-0.263-0.721-0.524-1.44-0.786-2.16c-0.692,1.901-1.386,3.805-2.077,5.707
				c-1.882-0.922-2.931-2.976-2.574-5.041c0.355-2.064,2.03-3.648,4.112-3.888s4.073,0.923,4.888,2.854
				c0.814,1.931,0.259,4.168-1.365,5.492c0.087,0.569-0.647,0.875-0.988,0.41c-0.341-0.466,0.171-1.074,0.688-0.82
				c3.073-2.54,1.227-7.531-2.76-7.458c-3.984,0.073-5.648,5.129-2.485,7.554c0.855-2.348,1.709-4.693,2.563-7.041
				c0.625,1.717,1.25,3.436,1.875,5.152c-0.46,0-0.919,0-1.378,0c0.357,0.984,0.716,1.968,1.073,2.951
				c-0.785-1.237-1.571-2.477-2.357-3.715C119.188,160.932,119.712,160.932,120.236,160.934z"/>
		</g>
	</g>
</g>
<g>
	<path fill="none" stroke="#613619" stroke-miterlimit="10" d="M112.895,128.709c0.598,2.318,0.977,3.785,1.574,6.104
		c3.075,0,6.149,0,9.225,0c0.599-2.319,0.976-3.459,1.573-5.776c-2.046-0.056-3.87-1.265-5.917-1.267
		c-0.089,1.638-0.179,3.274-0.268,4.912c-0.09-1.638-0.18-3.274-0.27-4.912C116.766,127.771,114.939,128.652,112.895,128.709z"/>
	<path fill="none" stroke="#63361A" stroke-width="2" stroke-linecap="round" stroke-linejoin="round" stroke-miterlimit="10" d="
		M106.995,130.091c7.64-2.176,11.234-3.214,12.427-3.456c9.881,3.598,11.582,4.072,11.582,4.072"/>
</g>
<g>
	<path fill="none" stroke="#63361A" stroke-width="2" stroke-linecap="round" stroke-linejoin="round" stroke-miterlimit="10" d="
		M128.436,104.73c0-1.302,2.11-4.09,7.109-4.648h6.167c5.625,0,9.542,3.485,9.542,4.648l0,0c0,1.485-2.879,5.31-10.173,4.935h-5.472
		C131.525,109.665,128.436,106.215,128.436,104.73L128.436,104.73z"/>
	
		<polyline fill="none" stroke="#63361A" stroke-width="2" stroke-linecap="round" stroke-linejoin="round" stroke-miterlimit="10" points="
		143.488,87.783 137.104,92.507 134.229,89.6 	"/>
	<path fill="#63361A" d="M134.229,103.22c0-2.219,2.487-3.138,5.555-3.138l0,0c3.067,0,5.554,0.919,5.554,3.138v2.986
		c0,2.881-2.487,3.459-5.554,3.459l0,0c-3.905,0-5.555-0.679-5.555-3.459V103.22z"/>
</g>
<g>
	<path fill="none" stroke="#63361A" stroke-width="2" stroke-linecap="round" stroke-linejoin="round" stroke-miterlimit="10" d="
		M109.911,104.73c0-1.302-2.11-4.09-7.108-4.648h-6.168c-5.625,0-9.541,3.485-9.541,4.648l0,0c0,1.485,2.879,5.31,10.172,4.935
		h5.473C106.822,109.665,109.911,106.215,109.911,104.73L109.911,104.73z"/>
	
		<polyline fill="none" stroke="#63361A" stroke-width="2" stroke-linecap="round" stroke-linejoin="round" stroke-miterlimit="10" points="
		94.858,87.783 101.242,92.507 104.116,89.6 	"/>
	<path fill="#63361A" d="M104.116,103.22c0-2.219-2.487-3.138-5.554-3.138l0,0c-3.068,0-5.555,0.919-5.555,3.138v2.986
		c0,2.881,2.487,3.459,5.555,3.459l0,0c3.904,0,5.554-0.679,5.554-3.459V103.22z"/>
</g>
</svg>
