<?xml version="1.0" encoding="utf-8"?>
<!-- Generator: Adobe Illustrator 16.0.0, SVG Export Plug-In . SVG Version: 6.00 Build 0)  -->
<!DOCTYPE svg PUBLIC "-//W3C//DTD SVG 1.1//EN" "http://www.w3.org/Graphics/SVG/1.1/DTD/svg11.dtd">
<svg version="1.1" id="图层_1" xmlns="http://www.w3.org/2000/svg" xmlns:xlink="http://www.w3.org/1999/xlink" x="0px" y="0px"
	 width="200px" height="220px" viewBox="0 0 200 220" enable-background="new 0 0 200 220" xml:space="preserve">
<ellipse fill="#C7C6C6" cx="134.894" cy="217.367" rx="10.54" ry="3.095"/>
<ellipse fill="#C7C6C6" cx="94.029" cy="217.367" rx="10.54" ry="3.095"/>
<g>
	<path fill="#EAC08A" stroke="#613619" stroke-miterlimit="10" d="M131.885,178.907c11.273-18.552,12.206-54.837,10.065-67.933
		c-9.256-56.612-33.614-72.635-59.259-78.025c-23-4.835-34.479-6.186-39.666-1.781c-5.187,4.405,9.246,7.92,12.474,22.97
		c3.228,15.051-22.026,48.217-25.202,68.36c-3.925,24.9,10.357,47.534,25.9,59.121c20.007,14.914,39.4,13.371,53.843,17.865
		C110.04,199.484,120.612,197.459,131.885,178.907z"/>
	<path fill="#FFFFFF" d="M125.084,158.354c8.543-14.059,9.256-41.558,7.628-51.48c-5.828-35.521-20.497-51.173-37.827-59.809
		c-8.043-4.01-28.354-8.407-28.354-4.102c0,2.831,4.826,4.356,6.35,14.516c1.731,11.536-22.232,48.255-24.639,63.52
		c-2.975,18.871,4.572,31.48,19.484,43.475c14.736,11.854,29.86,10.133,40.806,13.539
		C108.532,178.012,116.544,172.412,125.084,158.354z"/>
</g>
<path fill="#EAC08A" stroke="#63361A" stroke-miterlimit="10" d="M78.089,176.052c2.82,0.091,3.794-1.53,3.954-1.407
	s-0.143,0.453,0.049,0.612c0.19,0.16,0.661,0.063,1-0.205c0.338-0.268,0.691-0.825,0.813-2.114c0.07-0.75,0.078-1.043-0.085-1.653
	c-0.109-0.406-0.312-1.103-0.138-1.354c0.644-0.925,3.16-2.734,9.973-7.158c-10.717,24.904-10.381,26.873-10.448,28.24
	c-0.122,2.455,0.622,4.825,1.772,6.684c2.66,4.297,9.334,8.509,9.845,9.093c0.778,0.89,3.937,2.979,1.614,3.321
	c-2.322,0.34-4.743-0.819-7.188-0.901c-1.611-0.054-2.679,0.574-3.191,1.344c-0.514,0.771-1.283,2.066-1.647,2.78
	c-0.362,0.714-0.321,0.845-0.212,1.104c0.109,0.26,0.285,0.648,5.288,0.842c5.003,0.195,5.011,0.195,10.073,0.15
	c5.061-0.045,5.443-0.648,5.814-1.818c0.316-0.998-0.184-2.416-0.96-6.394l0.004-0.003c7.046,1.382,14.093,1.449,21.14,0.205
	c-0.752,3.814-1.229,5.213-0.919,6.191c0.37,1.17,0.753,1.773,5.815,1.818c5.062,0.045,5.069,0.045,10.073-0.15
	c5.003-0.193,5.179-0.582,5.287-0.842c0.11-0.259,0.152-0.39-0.212-1.104c-0.363-0.714-1.134-2.01-1.646-2.78
	c-0.513-0.77-1.581-1.397-3.192-1.344c-2.443,0.083-4.865,1.242-7.187,0.901c-2.322-0.342,0.836-2.432,1.613-3.321
	c0.512-0.584,7.185-4.795,9.845-9.093c1.149-1.858,1.895-4.229,1.772-6.684c-0.066-1.367,0.271-3.336-10.447-28.24
	c6.813,4.424,9.329,6.233,9.972,7.158c0.174,0.25-0.028,0.948-0.137,1.354c-0.163,0.61-0.155,0.903-0.085,1.653
	c0.12,1.287,0.474,1.846,0.813,2.114c0.338,0.269,0.809,0.365,1,0.205c0.191-0.159-0.112-0.489,0.048-0.612
	c0.161-0.123,1.135,1.498,3.954,1.407c1.119-0.036,3.592-2.137,2.761-4.774c-1.163-3.691-3.178-2.344-6.357-5.49
	s-2.128-4.391-15.488-17.719c-0.424-0.424-0.857-0.854-1.285-1.285l-14.896-0.85v-0.188l-1.651,0.094l-1.65-0.094v0.188
	l-14.896,0.85c-0.429,0.431-0.861,0.861-1.285,1.285c-13.359,13.33-12.309,14.572-15.488,17.719s-5.194,1.799-6.357,5.49
	C74.502,173.915,76.975,176.016,78.089,176.052z"/>
<path fill="#FFFFFF" d="M100.865,160.229c0-7.735,6.27-14.006,14.005-14.006l0,0c7.734,0,14.005,6.271,14.005,14.006l4.365,24.312
	c1.182,7.776-2.093,14.076-18.37,14.005h-2.001c-11.549,0-18.143-5.957-16.369-14.005L100.865,160.229z"/>
<polygon fill="#187FC4" points="119.932,125.105 111.196,125.105 92.954,146.618 115.288,169.803 136.514,146.8 "/>
<path fill="#EAC08A" stroke="#63361A" stroke-miterlimit="10" d="M52.361,119.365c0.682,1.978,4.396,1.385,4.979,2.592
	c0.764,1.583-3.41,0.921-2.318,3.648c6.675,16.687,26.145,24.474,47.334,23.474c3.322-0.157,4.591,2.551,8.557,3.751
	c2.096,0.595,5.335,0.773,8.813-0.182c3.161-1.032,5.102-3.727,8.423-3.569c21.189,1,40.659-6.787,47.334-23.474
	c1.092-2.728-3.083-2.065-2.318-3.648c0.583-1.208,4.297-0.614,4.979-2.592c0.729-2.112-3.24-1.739-3.342-2.66
	c-0.146-1.316,4.092-1.705,2.046-4.57c-3.778-5.289-10.024-9.556-17.539-13.99c-2.607-9.526-4.882-16.092-7.056-20.759
	c-3.34-7.168-4.896-11.734-8.024-17.727c-3.483-6.673-9.228-11.407-11.259-9.521c-1.406,1.305-1.534,1.673-3.829,11.239
	c-0.443,1.847-4.242-1.282-13.852-0.888c-9.738-0.166-13.48,2.735-13.924,0.888c-2.297-9.566-2.424-9.934-3.829-11.239
	c-2.031-1.886-7.774,2.848-11.259,9.521c-3.129,5.993-4.684,10.559-8.024,17.727c-2.174,4.666-4.446,11.233-7.056,20.759
	c-7.514,4.434-13.762,8.701-17.539,13.99c-2.047,2.865,2.191,3.254,2.046,4.57C55.6,117.626,51.633,117.253,52.361,119.365z"/>
<path fill="#613619" d="M132.303,62.478c3.116,0.671,5.707,1.619,8.014,2.853c-0.672-2.094-1.138-3.569-1.771-4.785
	c-0.964-1.85-1.52-2.435-2.237-3.52s-1.758-1.744-2.139-1.768c-0.381-0.023-0.646,0.385-1.017,2.062
	C132.881,58.549,132.69,59.103,132.303,62.478z"/>
<path fill="#613619" d="M98.035,62.478c-3.116,0.671-5.707,1.619-8.014,2.853c0.672-2.094,1.138-3.569,1.771-4.785
	c0.964-1.85,1.519-2.435,2.237-3.52c0.718-1.085,1.758-1.744,2.139-1.768c0.381-0.023,0.646,0.385,1.018,2.062
	C97.457,58.549,97.646,59.103,98.035,62.478z"/>
<g>
	<path fill="#FFFFFF" d="M61.665,121.886c0.863,14.033,15.929,27.757,41.407,27.205c2.994-0.065,4.891,2.05,7.765,3.021
		c3.054,1.013,4.828,1.148,8.394-0.101c2.874-0.971,4.475-3.522,7.501-3.325c25.031,1.638,41.475-12.766,42.338-26.799
		c0.472-7.667-0.909-12.367-6.786-15.789c-3.69-2.148-6.396-1.656-6.633-1.649c-6.359-28.94-16.454-29.349-20.18-29.621
		c-3.789-0.278-8.544,0.545-11.045,6.848c-0.928,2.34-5.175,16.249-6.002,18.773c-0.805,2.459-1.013,3.894-3.057,4.227
		c-2.044-0.333-2.252-1.769-3.058-4.227c-0.827-2.525-4.719-14.317-5.546-16.695c-2.488-7.153-5.898-9.608-11.219-9.608
		c-5.523,0-13.646,4.427-20.461,30.304c-0.236-0.007-2.941-0.499-6.632,1.649C62.575,109.521,61.194,114.221,61.665,121.886z"/>
</g>
<ellipse fill="#EE869A" cx="144.293" cy="121.219" rx="8.599" ry="2.877"/>
<ellipse fill="#EE869A" cx="85.021" cy="121.219" rx="8.599" ry="2.877"/>
<path fill="none" stroke="#63361A" stroke-width="2" stroke-linecap="round" stroke-linejoin="round" stroke-miterlimit="10" d="
	M115.082,125.339c-0.535-1.512,0.132-5.411,0.132-5.411"/>
<g>
	<path fill="#613619" d="M120.564,109.768c0.577,0.363,0.905,0.683,1.148,0.955c0.243,0.272,0.401,0.498,0.652,0.853
		s0.595,0.838,0.419,1.759c-0.177,0.921-0.872,2.28-2.322,3.896c-1.45,1.617-3.653,3.492-5.248,3.492
		c-1.596,0-3.798-1.875-5.248-3.492c-1.45-1.616-2.146-2.976-2.322-3.896c-0.176-0.921,0.168-1.404,0.419-1.759
		s0.409-0.58,0.652-0.853c0.243-0.271,0.571-0.592,1.148-0.955c0.576-0.363,1.402-0.771,5.351-0.802
		C119.162,108.997,119.988,109.405,120.564,109.768z"/>
	<path fill="#FFFFFF" d="M120.779,112.396c-0.139,0.129-0.356,0.102-0.459-0.057c-0.099-0.15-0.235-0.334-0.405-0.505
		c-0.26-0.261-0.521-0.437-0.697-0.539c-0.128-0.075-0.18-0.229-0.127-0.368l0.032-0.082c0.053-0.135,0.191-0.216,0.335-0.188
		c0.256,0.048,0.677,0.174,1.131,0.504c0.253,0.184,0.429,0.409,0.536,0.571c0.081,0.123,0.06,0.285-0.048,0.387L120.779,112.396z"
		/>
</g>
<path fill="none" stroke="#613619" stroke-miterlimit="10" d="M108.554,127.758c0.598,2.318,0.978,3.785,1.575,6.104
	c3.075,0,6.149,0,9.224,0c0.6-2.319,0.977-3.459,1.574-5.776c-2.046-0.056-3.87-1.265-5.917-1.267
	c-0.089,1.638-0.179,3.274-0.268,4.912c-0.091-1.638-0.181-3.274-0.27-4.912C112.426,126.82,110.6,127.702,108.554,127.758z"/>
<path fill="none" stroke="#63361A" stroke-width="2" stroke-linecap="round" stroke-linejoin="round" stroke-miterlimit="10" d="
	M99.956,125.708c8.122,4.632,13.934,0.218,15.126-0.024c7.7,6.48,15.065-0.346,15.065-0.346"/>
<g>
	<g>
		<g>
			<path fill="#FFFFFF" d="M116.154,159.549c-0.263-0.72-0.524-1.439-0.786-2.16c-0.692,1.902-1.386,3.805-2.077,5.707
				c-1.882-0.922-2.932-2.975-2.575-5.039c0.356-2.065,2.031-3.649,4.113-3.889c2.082-0.238,4.072,0.923,4.888,2.854
				c0.814,1.932,0.259,4.168-1.365,5.494c0.087,0.568-0.647,0.873-0.988,0.408s0.171-1.074,0.688-0.82
				c3.073-2.539,1.226-7.53-2.76-7.457c-3.985,0.072-5.649,5.129-2.485,7.554c0.855-2.347,1.709-4.694,2.563-7.041
				c0.625,1.717,1.25,3.435,1.875,5.151c-0.46,0-0.919,0-1.378,0c0.357,0.984,0.716,1.969,1.073,2.953
				c-0.785-1.238-1.571-2.478-2.357-3.716C115.105,159.548,115.63,159.548,116.154,159.549z"/>
		</g>
	</g>
</g>
<g>
	<path fill="none" stroke="#4B2C13" stroke-miterlimit="10" d="M137.398,95.921c6.849,0,12.399,4.778,12.399,6.932
		c0,2.189-5.551,6.932-12.399,6.932c-6.848,0-12.398-4.337-12.398-6.932C125,100.7,130.551,95.921,137.398,95.921z"/>
	<path fill="#4B2C13" d="M137.398,95.921c6.03,0,7.453,2.366,7.453,6.932s-1.559,6.932-7.453,6.932
		c-6.437,0-7.452-2.367-7.452-6.932S130.827,95.922,137.398,95.921z"/>
</g>
<g>
	<path fill="none" stroke="#4B2C13" stroke-miterlimit="10" d="M93.62,95.921c6.849,0,12.399,4.778,12.399,6.932
		c0,2.189-5.551,6.932-12.399,6.932s-12.399-4.337-12.399-6.932C81.221,100.7,86.771,95.922,93.62,95.921z"/>
	<path fill="#4B2C13" d="M93.62,95.921c6.03,0,7.453,2.366,7.453,6.932s-1.56,6.932-7.453,6.932c-6.437,0-7.453-2.367-7.453-6.932
		S87.047,95.922,93.62,95.921z"/>
</g>
</svg>
