<?xml version="1.0" encoding="utf-8"?>
<!-- Generator: Adobe Illustrator 16.0.0, SVG Export Plug-In . SVG Version: 6.00 Build 0)  -->
<!DOCTYPE svg PUBLIC "-//W3C//DTD SVG 1.1//EN" "http://www.w3.org/Graphics/SVG/1.1/DTD/svg11.dtd">
<svg version="1.1" id="图层_1" xmlns="http://www.w3.org/2000/svg" xmlns:xlink="http://www.w3.org/1999/xlink" x="0px" y="0px"
	 width="220px" height="230px" viewBox="0 0 220 230" enable-background="new 0 0 220 230" xml:space="preserve">
<g>
	<ellipse fill="#C7C6C6" cx="178.795" cy="213.842" rx="10.54" ry="3.096"/>
	<ellipse fill="#C7C6C6" cx="118.347" cy="215.506" rx="10.54" ry="3.096"/>
	<path fill="#C99F72" stroke="#613619" stroke-miterlimit="10" d="M157.73,191.734c2.211-0.125,6.72,6.789,7.204,11.014
		c0.483,4.225,5.985,10.665,7.488,10.688c1.503,0.021,16.54-10.063,16.881-11.244c0.343-1.183-2.073-2.303-5.302-1.777
		c-3.228,0.527-5.234,5.191-6.487,6.068c-1.252,0.879-3.599,2.519-4.63,2.067c-1.03-0.45-3.054-5.614-0.774-10.372
		c2.278-4.758,2.532-13.271,1.318-16.876c-1.213-3.604-3.334-9.546-11.67-6.294s-8.198,11.682-8.198,11.682
		S153.701,191.963,157.73,191.734z"/>
	<path fill="#EAC08A" stroke="#613619" stroke-miterlimit="10" d="M112.982,175.775c-1.166-3.498-10.4,1.181-10.4,1.181
		c-32.431,17.429-59.816,3.099-68.066-11.901c-8.105-14.738,1.047-47.361,5.047-64.263c4-16.901-8.48-45.836-10.48-51.224
		c-2-5.388-3.565-19.529,8.435-14.263c12,5.266,51.284,10.002,64.065,39.804c19.49,45.446,2.436,81.196,4.225,85.696
		c1.361,3.422,8.912-0.736,8.912-0.736"/>
	<path fill="#FFFFFF" d="M46.766,153.805c-5.5-13.135,3.242-41.944,4.574-54.304c1.334-12.36,1.926-27.195-2.498-35.965
		c-3.645-7.223-13.18-14.763-4.992-13.897c8.667,0.916,32.917,8.916,41.917,28.039c6.329,13.447-1.472,46.325,0,62.992
		c1.473,16.666,16.417,24.969,16.417,24.969C62.85,179.639,49.594,160.555,46.766,153.805z"/>
	<path fill="#E3BB88" stroke="#613619" stroke-miterlimit="10" d="M123.414,129.43l-2.341,2.004c0,0,1.187,6.998-7.413,25.498
		c-6.519,14.025-2.92,27.26,6.438,32.844c7.761,4.632,27.671,7.041,38.8,4.547c15.696-3.518,25.95-18.223,21.62-31.887
		c-6.899-21.766-9.452-30.771-9.452-30.771L123.414,129.43z"/>
	<path fill="#FFFFFF" d="M176.955,153.188c-3.676-11.58-7.16-23.758-7.16-23.758l-15.446,2.836c0,0-3.834,3.038,0,7.971
		c3.835,4.934,2.697,26.416,3.928,37.568c1.229,11.153,17.924,5.036,17.924,5.036C184.04,170.938,181.284,166.816,176.955,153.188z"
		/>
	<path fill="#187FC4" d="M149.316,107.554h-8.735l-23.251,22.349c0,0,24.27,4.188,34.687,8.767c7.364,3.238,20.065,11,20.065,11
		s-1.105-3.868-0.658-8.864c0.137-5.443-0.358-9.14-0.358-9.14L149.316,107.554z"/>
	<path fill="#EAC08A" stroke="#63361A" stroke-miterlimit="10" d="M81.745,101.815c0.683,1.978,4.396,1.385,4.979,2.592
		c0.764,1.583-3.41,0.921-2.319,3.649c6.675,16.686,29.461,26.035,52.334,23.473c3.305-0.37,4.419,2.46,8.385,3.66
		c2.097,0.595,6.945,0.748,10.423-0.207c3.162-1.033,3.665-3.631,6.986-3.453c16.925,0.908,35.591-7.258,40.333-25.473
		c0.74-2.844-3.083-2.066-2.319-3.649c0.583-1.208,4.297-0.614,4.979-2.592c0.728-2.112-3.24-1.739-3.342-2.66
		c-0.146-1.316,4.092-1.705,2.046-4.57c-3.779-5.289-8.025-7.556-15.539-11.99c-2.608-9.526-4.882-16.092-7.057-20.759
		c-3.34-7.168-4.895-11.734-8.023-17.727c-3.484-6.673-9.229-11.407-11.259-9.521c-1.406,1.305-1.534,1.673-3.829,11.239
		c-0.444,1.847-4.242-1.282-13.853-0.888c-9.737-0.166-13.48,2.735-13.924,0.888c-2.296-9.566-2.423-9.934-3.829-11.239
		c-2.031-1.886-7.774,2.848-11.259,9.521c-3.129,5.993-4.684,10.559-8.024,17.727c-2.174,4.666-4.446,11.233-7.055,20.759
		c-7.515,4.434-13.762,8.701-17.539,13.99c-2.047,2.865,2.191,3.254,2.045,4.57C84.984,100.076,81.017,99.703,81.745,101.815z"/>
	<path fill="#613619" d="M161.688,44.928c3.115,0.671,5.707,1.619,8.014,2.854c-0.672-2.094-1.138-3.569-1.771-4.785
		c-0.964-1.85-1.519-2.435-2.236-3.52s-1.758-1.744-2.14-1.768c-0.381-0.023-0.646,0.385-1.017,2.062
		C162.267,40.999,162.076,41.553,161.688,44.928z"/>
	<path fill="#613619" d="M127.42,44.928c-3.116,0.671-5.707,1.619-8.014,2.854c0.672-2.094,1.139-3.569,1.771-4.785
		c0.964-1.85,1.519-2.435,2.236-3.52s1.758-1.744,2.139-1.768c0.382-0.023,0.646,0.385,1.018,2.062
		C126.842,40.999,127.032,41.553,127.42,44.928z"/>
	<g>
		<path fill="#FFFFFF" d="M91.049,104.337c0.863,14.033,20.93,27.756,46.408,27.205c2.994-0.063,3.725,2.095,6.931,3.095
			c4.175,1.028,7.059,0.745,10.847-0.052c2.875-0.971,4.532-3.534,5.883-3.448c20.981,1.334,34.474-12.766,35.337-26.799
			c0.472-7.667-0.909-12.367-6.786-15.789c-3.689-2.148-4.396-1.656-4.632-1.649c-6.361-28.941-15.618-29.283-19.343-29.556
			c-3.789-0.278-6.716,1.158-9.217,7.461c-0.93,2.34-2.237,12.407-2.587,15.75c-0.247,2.377-0.422,6.723-4.375,7.455
			c-2.044-0.333-2.816-0.581-4.5-5.274c-2.275-6.348-6.039-14.154-6.866-16.532c-2.489-7.153-7.899-9.608-13.22-9.608
			c-5.522,0-13.646,4.427-20.46,30.304c-0.236-0.007-2.942-0.499-6.633,1.649C91.959,91.971,90.578,96.671,91.049,104.337z"/>
	</g>
	<ellipse fill="#EE869A" cx="184.139" cy="102.378" rx="8.599" ry="2.877"/>
	<ellipse fill="#EE869A" cx="114.718" cy="103.669" rx="8.599" ry="2.877"/>
	<path fill="none" stroke="#63361A" stroke-width="2" stroke-linecap="round" stroke-linejoin="round" stroke-miterlimit="10" d="
		M150.771,107.789c-0.535-1.512,0.132-5.411,0.132-5.411"/>
	<g>
		<path fill="#613619" d="M155.962,91.9c0.583,0.354,0.916,0.668,1.163,0.937s0.409,0.492,0.665,0.842
			c0.257,0.35,0.609,0.828,0.447,1.752c-0.162,0.924-0.837,2.294-2.261,3.933c-1.425,1.64-3.598,3.548-5.192,3.573
			s-3.827-1.814-5.302-3.408c-1.476-1.594-2.193-2.942-2.384-3.86s0.146-1.407,0.392-1.765c0.245-0.358,0.398-0.586,0.638-0.862
			s0.563-0.601,1.133-0.973c0.571-0.372,1.392-0.793,5.338-0.886C154.546,91.153,155.379,91.547,155.962,91.9z"/>
		<path fill="#FFFFFF" d="M156.217,94.527c-0.136,0.131-0.354,0.108-0.459-0.049c-0.1-0.15-0.239-0.331-0.413-0.499
			c-0.264-0.257-0.525-0.428-0.705-0.528c-0.129-0.073-0.183-0.227-0.132-0.366l0.03-0.083c0.05-0.137,0.189-0.22,0.332-0.195
			c0.256,0.044,0.679,0.163,1.138,0.486c0.256,0.181,0.437,0.402,0.545,0.564c0.082,0.122,0.064,0.285-0.042,0.387L156.217,94.527z"
			/>
	</g>
	<path fill="none" stroke="#613619" stroke-miterlimit="10" d="M144.101,110.08c0.634,2.308,1.035,3.769,1.67,6.077
		c3.073-0.05,6.148-0.097,9.223-0.146c0.562-2.327,0.921-3.472,1.483-5.799c-2.047-0.024-3.891-1.203-5.937-1.173
		c-0.063,1.638-0.127,3.277-0.191,4.915c-0.114-1.636-0.229-3.271-0.345-4.907C147.957,109.082,146.146,109.991,144.101,110.08z"/>
	<path fill="none" stroke="#63361A" stroke-width="2" stroke-linecap="round" stroke-linejoin="round" stroke-miterlimit="10" d="
		M133.471,108.196c8.194,4.504,16.234-0.383,17.423-0.643c7.801,6.359,12.761-0.2,12.761-0.2"/>
	<g>
		<g>
			<g>
				<path fill="#FFFFFF" d="M166.026,139.255c-0.452-0.618-0.905-1.235-1.357-1.854c-0.134,2.021-0.268,4.041-0.401,6.061
					c-2.065-0.359-3.645-2.038-3.88-4.121c-0.233-2.082,0.933-4.07,2.865-4.881c1.934-0.811,4.168-0.25,5.49,1.377
					c1.322,1.626,1.413,3.93,0.223,5.655c0.243,0.522-0.378,1.02-0.835,0.669c-0.457-0.352-0.136-1.079,0.432-0.979
					c2.241-3.297-0.926-7.574-4.732-6.392s-3.994,6.501-0.279,7.946c0.165-2.491,0.331-4.983,0.496-7.476
					c1.079,1.476,2.158,2.949,3.238,4.425c-0.441,0.127-0.882,0.256-1.323,0.383c0.619,0.846,1.237,1.69,1.856,2.535
					c-1.101-0.97-2.201-1.938-3.301-2.908C165.021,139.548,165.523,139.402,166.026,139.255z"/>
			</g>
		</g>
	</g>
	<path fill="#DEB686" stroke="#613619" stroke-miterlimit="10" d="M117.85,183.639c1.371,1.737-1.696,9.398-4.877,12.223
		c-3.18,2.822-5.289,11.025-4.444,12.269s17.738,7.759,18.9,7.358c1.164-0.4,0.694-3.021-1.591-5.361
		c-2.286-2.34-7.256-1.303-8.693-1.822c-1.438-0.521-4.128-1.5-4.352-2.603s2.84-5.726,8.045-6.593
		c5.204-0.866,12.317-5.551,14.571-8.614s5.899-8.213-1.552-13.168c-7.452-4.955-14.273,0-14.273,0S115.35,180.473,117.85,183.639z"
		/>
	<path fill="#EAC08A" stroke="#63361A" stroke-miterlimit="10" d="M144.896,153.277c1.619,2.986,8.286,9.85,9.423,10.466
		c0.308,0.167,0.868-0.069,1.316-0.245c0.676-0.264,1.224-0.326,2.086-0.389c1.922-0.137,3.713,0.863,3.505,1.695
		c-0.19,0.76-1.203,0.014-1.323,0.211c-0.12,0.198,2.082,1.198,2.104,4.33c0.015,1.875-1.982,4.366-5.095,3.752
		c-4.356-0.859-3.075-3.328-7.064-6.556c-3.988-3.228-8.934-2.117-19.939-13.26c-2.581-2.613-2.47-10.372,2.497-12.399
		C137.371,138.855,144.177,151.951,144.896,153.277z"/>
</g>
<circle fill="#63361A" cx="169.772" cy="84.399" r="6.153"/>
<circle fill="#63361A" cx="128.354" cy="84.399" r="6.153"/>
</svg>
