<?xml version="1.0" encoding="utf-8"?>
<!-- Generator: Adobe Illustrator 16.0.0, SVG Export Plug-In . SVG Version: 6.00 Build 0)  -->
<!DOCTYPE svg PUBLIC "-//W3C//DTD SVG 1.1//EN" "http://www.w3.org/Graphics/SVG/1.1/DTD/svg11.dtd">
<svg version="1.1" id="图层_1" xmlns="http://www.w3.org/2000/svg" xmlns:xlink="http://www.w3.org/1999/xlink" x="0px" y="0px"
	 width="220px" height="220px" viewBox="0 0 220 220" enable-background="new 0 0 220 220" xml:space="preserve">
<g>
	<ellipse fill="#C7C6C6" cx="149.612" cy="207.913" rx="10.54" ry="3.095"/>
	<path fill="#C99F72" stroke="#613619" stroke-miterlimit="10" d="M138.71,180.352c1.925,1.094,1.961,9.349,0.075,13.159
		c-1.885,3.812-0.757,12.206,0.493,13.04c1.251,0.834,19.354,0.522,20.281-0.285c0.928-0.809-0.493-3.061-3.49-4.371
		c-2.998-1.31-7.214,1.521-8.742,1.578c-1.527,0.059-4.39,0.162-5.011-0.775c-0.621-0.938,0.48-6.373,4.978-9.133
		s9.328-9.774,10.265-13.461c0.938-3.686,2.379-9.828-6.388-11.619c-8.768-1.791-13.227,5.365-13.227,5.365
		S135.202,178.355,138.71,180.352z"/>
	<ellipse fill="#C7C6C6" cx="128.924" cy="207.913" rx="10.54" ry="3.095"/>
	<path fill="#EAC08A" stroke="#613619" stroke-miterlimit="10" d="M106.117,167.818c-1.166-3.498-10.399,1.18-10.399,1.18
		c-34.315,15.715-59.815,3.1-68.065-11.9c-8.106-14.738,1.502-47.012,3.5-64.264c2.604-22.502-4.935-45.836-6.935-51.224
		c-2-5.388-3.565-19.529,8.435-14.263c12,5.266,49.285,10.002,62.065,39.804c19.49,45.447,2.435,81.197,4.226,85.697
		c1.36,3.42,8.91-0.736,8.91-0.736"/>
	<path fill="#FFFFFF" d="M39.9,145.848c-5.5-13.136,3.242-41.945,4.575-54.305c1.335-12.36,2.925-29.195-1.499-37.965
		c-3.644-7.223-13.179-14.763-4.992-13.897c8.668,0.916,31.918,10.916,40.918,30.039c6.328,13.447-1.473,46.325,0,62.992
		c1.473,16.666,16.416,24.968,16.416,24.968C55.986,171.68,42.729,152.598,39.9,145.848z"/>
	<path fill="#E3BB88" stroke="#613619" stroke-miterlimit="10" d="M116.549,121.473l-2.341,2.002c0,0,2.555,10.176-6.667,28.373
		c-8.286,16.351-1.877,23.5,5.691,29.971c6.869,5.873,27.67,7.039,38.799,4.546c15.697-3.519,26.011-19.462,22.388-33.332
		c-5.565-21.308-10.219-29.325-10.219-29.325L116.549,121.473z"/>
	<path fill="#FFFFFF" d="M171.484,144.508c-4.829-15.521-8.553-23.037-8.553-23.037l-15.446,2.836c0,0-3.834,3.039,0,7.971
		c3.834,4.934,2.698,26.416,3.928,37.568c1.229,11.153,18.396,3.875,18.396,3.875C176.142,162.889,175.446,157.241,171.484,144.508z
		"/>
	<path fill="#187FC4" d="M142.451,99.596h-8.734l-23.251,22.349c0,0,24.269,4.187,34.686,8.766c7.365,3.238,18.25,11,18.25,11
		s0.71-3.868,1.158-8.863c0.136-5.443-0.359-9.141-0.359-9.141L142.451,99.596z"/>
	<path fill="#EAC08A" stroke="#63361A" stroke-miterlimit="10" d="M74.881,93.856c0.682,1.978,4.396,1.385,4.979,2.592
		c0.765,1.583-3.41,0.921-2.318,3.649c6.674,16.686,31.145,24.473,52.334,23.473c3.321-0.156,4.419,2.46,8.385,3.66
		c2.097,0.595,6.945,0.748,10.423-0.207c3.162-1.033,3.664-3.61,6.986-3.453c21.188,1,33.657-8.787,40.333-25.473
		c1.091-2.728-3.083-2.066-2.319-3.649c0.583-1.208,4.297-0.614,4.979-2.592c0.729-2.112-3.239-1.739-3.342-2.66
		c-0.146-1.316,4.092-1.705,2.046-4.57c-3.778-5.289-8.024-7.556-15.539-11.99c-2.494-9.11-3.465-15.199-6.056-20.759
		c-3.34-7.168-5.895-11.734-9.023-17.727c-3.484-6.673-10.229-11.407-12.26-9.521c-1.405,1.305-0.534,1.673-2.829,11.239
		c-0.443,1.847-4.241-1.282-13.852-0.888c-9.738-0.166-13.481,2.735-13.924,0.888c-2.296-9.566-1.423-9.934-2.829-11.239
		c-2.031-1.886-8.775,2.848-12.259,9.521c-3.129,5.993-4.684,10.559-8.023,17.727c-2.175,4.666-4.447,11.233-7.057,20.759
		c-7.514,4.434-13.762,8.701-17.539,13.99c-2.046,2.865,2.191,3.254,2.046,4.57C78.119,92.117,74.152,91.744,74.881,93.856z"/>
	<path fill="#613619" d="M154.823,36.97c3.116,0.671,5.707,1.619,8.015,2.854c-0.672-2.094-1.139-3.569-1.771-4.785
		c-0.964-1.85-1.519-2.435-2.236-3.52c-0.719-1.085-1.759-1.744-2.14-1.768c-0.381-0.023-0.646,0.385-1.017,2.062
		C155.401,33.041,155.212,33.594,154.823,36.97z"/>
	<path fill="#613619" d="M120.556,36.97c-3.116,0.671-5.707,1.619-8.014,2.854c0.672-2.094,1.138-3.569,1.771-4.785
		c0.964-1.85,1.52-2.435,2.237-3.52s1.758-1.744,2.139-1.768c0.381-0.023,0.646,0.385,1.018,2.062
		C119.978,33.041,120.168,33.594,120.556,36.97z"/>
	<g>
		<path fill="#FFFFFF" d="M84.186,96.379c0.862,14.033,20.928,27.756,46.407,27.205c2.994-0.064,3.725,2.096,6.931,3.096
			c4.174,1.027,7.059,0.744,10.846-0.053c2.875-0.971,4.532-3.534,5.884-3.447c20.981,1.334,34.474-12.767,35.337-26.8
			c0.472-7.667-0.909-12.368-6.787-15.789c-3.69-2.148-4.396-1.656-4.632-1.649c-6.361-28.94-15.618-29.283-19.343-29.556
			c-3.788-0.278-6.716,1.158-9.217,7.461c-0.929,2.34-2.236,12.407-2.586,15.75c-0.248,2.377-0.422,6.723-4.375,7.455
			c-2.044-0.333-2.816-0.581-4.5-5.274c-2.275-6.348-6.04-14.154-6.867-16.532c-2.488-7.153-7.898-9.608-13.219-9.608
			c-5.522,0-13.646,4.427-20.461,30.304c-0.236-0.007-2.941-0.499-6.632,1.649C85.096,84.012,83.715,88.713,84.186,96.379z"/>
	</g>
	<ellipse fill="#EE869A" cx="177.275" cy="94.419" rx="8.599" ry="2.877"/>
	<ellipse fill="#EE869A" cx="107.854" cy="95.711" rx="8.599" ry="2.877"/>
	<path fill="none" stroke="#63361A" stroke-width="2" stroke-linecap="round" stroke-linejoin="round" stroke-miterlimit="10" d="
		M143.905,99.83c-0.535-1.512,0.133-5.411,0.133-5.411"/>
	<g>
		<path fill="#613619" d="M149.098,83.942c0.583,0.354,0.916,0.668,1.163,0.937s0.409,0.492,0.665,0.842
			c0.257,0.35,0.608,0.828,0.447,1.752c-0.162,0.924-0.838,2.294-2.262,3.933c-1.424,1.64-3.597,3.548-5.191,3.573
			c-1.596,0.025-3.827-1.814-5.303-3.408c-1.475-1.594-2.192-2.942-2.383-3.86s0.146-1.407,0.392-1.765
			c0.244-0.358,0.398-0.586,0.638-0.862s0.562-0.601,1.133-0.973c0.571-0.372,1.392-0.793,5.338-0.886
			C147.682,83.194,148.515,83.589,149.098,83.942z"/>
		<path fill="#FFFFFF" d="M149.353,86.568c-0.136,0.131-0.354,0.108-0.459-0.049c-0.1-0.15-0.24-0.331-0.413-0.499
			c-0.264-0.257-0.525-0.428-0.705-0.528c-0.129-0.073-0.183-0.227-0.132-0.366l0.03-0.083c0.05-0.137,0.188-0.22,0.332-0.195
			c0.256,0.044,0.679,0.163,1.138,0.486c0.256,0.181,0.437,0.402,0.545,0.564c0.082,0.122,0.064,0.285-0.042,0.387L149.353,86.568z"
			/>
	</g>
	<path fill="none" stroke="#613619" stroke-miterlimit="10" d="M137.235,102.121c0.634,2.308,1.036,3.769,1.67,6.077
		c3.074-0.049,6.149-0.097,9.224-0.146c0.562-2.327,0.921-3.472,1.482-5.799c-2.046-0.024-3.89-1.203-5.936-1.173
		c-0.063,1.638-0.127,3.277-0.191,4.915c-0.115-1.636-0.229-3.271-0.345-4.907C141.094,101.124,139.28,102.033,137.235,102.121z"/>
	<path fill="none" stroke="#63361A" stroke-width="2" stroke-linecap="round" stroke-linejoin="round" stroke-miterlimit="10" d="
		M126.606,100.237c8.194,4.504,16.234-0.383,17.422-0.643c7.802,6.359,12.762-0.2,12.762-0.2"/>
	<g>
		<g>
			<g>
				<path fill="#FFFFFF" d="M159.161,131.296c-0.451-0.618-0.904-1.235-1.356-1.854c-0.134,2.021-0.269,4.041-0.402,6.061
					c-2.064-0.359-3.644-2.038-3.879-4.121c-0.233-2.082,0.933-4.07,2.865-4.881s4.168-0.25,5.49,1.377
					c1.321,1.626,1.413,3.93,0.223,5.655c0.243,0.522-0.378,1.02-0.835,0.669c-0.457-0.352-0.136-1.079,0.431-0.979
					c2.242-3.297-0.925-7.574-4.731-6.392c-3.808,1.183-3.994,6.501-0.279,7.946c0.165-2.491,0.331-4.983,0.496-7.476
					c1.079,1.476,2.158,2.949,3.238,4.425c-0.441,0.127-0.882,0.256-1.323,0.383c0.619,0.846,1.237,1.69,1.855,2.535
					c-1.1-0.97-2.2-1.938-3.301-2.908C158.155,131.59,158.659,131.443,159.161,131.296z"/>
			</g>
		</g>
	</g>
	<path fill="#DEB686" stroke="#613619" stroke-miterlimit="10" d="M119.252,180.35c1.925,1.094,1.961,9.349,0.075,13.159
		c-1.885,3.812-0.758,12.206,0.493,13.04s19.354,0.521,20.281-0.285c0.928-0.809-0.492-3.061-3.49-4.371
		c-2.998-1.31-7.214,1.521-8.742,1.578c-1.527,0.059-4.39,0.162-5.011-0.775c-0.621-0.938,0.48-6.373,4.978-9.133
		c4.497-2.761,9.328-9.774,10.265-13.461c0.938-3.686,2.379-9.828-6.388-11.619c-8.768-1.791-13.227,5.365-13.227,5.365
		S115.744,178.354,119.252,180.35z"/>
	<path fill="#EAC08A" stroke="#63361A" stroke-miterlimit="10" d="M135.272,149.309c1.264,3.153,7.094,10.741,8.151,11.484
		c0.286,0.201,0.87,0.03,1.336-0.092c0.7-0.184,1.252-0.184,2.116-0.145c1.923,0.084,3.587,1.283,3.283,2.088
		c-0.276,0.731-1.196-0.127-1.339,0.057c-0.142,0.183,1.931,1.43,1.591,4.544c-0.202,1.864-2.474,4.106-5.493,3.138
		c-4.229-1.357-2.671-3.66-6.261-7.328c-3.589-3.666-8.629-3.135-18.274-15.474c-2.262-2.894-1.256-10.588,3.912-12.028
		C129.462,134.111,134.711,147.907,135.272,149.309z"/>
</g>
<g>
	<path fill="none" stroke="#4B2C13" stroke-miterlimit="10" d="M164.92,68.778c6.848,0,12.398,4.778,12.398,6.932
		c0,2.189-5.551,6.932-12.398,6.932c-6.849,0-12.399-4.337-12.399-6.932C152.521,73.556,158.071,68.778,164.92,68.778z"/>
	<path fill="#4B2C13" d="M164.92,68.778c6.029,0,7.453,2.367,7.453,6.932c0,4.566-1.56,6.932-7.453,6.932
		c-6.438,0-7.453-2.367-7.453-6.932S158.348,68.778,164.92,68.778z"/>
</g>
<g>
	<path fill="none" stroke="#4B2C13" stroke-miterlimit="10" d="M121.141,68.778c6.848,0,12.399,4.778,12.399,6.932
		c0,2.189-5.552,6.932-12.399,6.932s-12.398-4.337-12.398-6.932C108.742,73.556,114.293,68.778,121.141,68.778z"/>
	<path fill="#4B2C13" d="M121.141,68.778c6.03,0,7.453,2.367,7.453,6.932c0,4.566-1.56,6.932-7.453,6.932
		c-6.438,0-7.453-2.367-7.453-6.932S114.567,68.778,121.141,68.778z"/>
</g>
</svg>
