<?xml version="1.0" encoding="utf-8"?>
<!-- Generator: Adobe Illustrator 16.0.0, SVG Export Plug-In . SVG Version: 6.00 Build 0)  -->
<!DOCTYPE svg PUBLIC "-//W3C//DTD SVG 1.1//EN" "http://www.w3.org/Graphics/SVG/1.1/DTD/svg11.dtd">
<svg version="1.1" id="图层_1" xmlns="http://www.w3.org/2000/svg" xmlns:xlink="http://www.w3.org/1999/xlink" x="0px" y="0px"
	 width="220px" height="230px" viewBox="0 0 220 230" enable-background="new 0 0 220 230" xml:space="preserve">
<g>
	<ellipse fill="#C7C6C6" cx="151.449" cy="215.007" rx="10.54" ry="3.095"/>
	<path fill="#C99F72" stroke="#613619" stroke-miterlimit="10" d="M140.547,187.445c1.925,1.095,1.961,9.349,0.075,13.16
		c-1.885,3.811-0.758,12.205,0.493,13.039s19.354,0.522,20.281-0.285c0.928-0.809-0.492-3.061-3.49-4.37s-7.214,1.52-8.742,1.577
		c-1.527,0.059-4.39,0.162-5.011-0.775s0.48-6.373,4.978-9.133c4.496-2.76,9.327-9.774,10.265-13.46
		c0.937-3.687,2.379-9.828-6.388-11.619c-8.768-1.791-13.227,5.364-13.227,5.364S137.039,185.45,140.547,187.445z"/>
	<ellipse fill="#C7C6C6" cx="130.761" cy="215.007" rx="10.54" ry="3.095"/>
	<path fill="#EAC08A" stroke="#613619" stroke-miterlimit="10" d="M107.955,174.912c-1.166-3.498-10.4,1.18-10.4,1.18
		c-34.316,15.715-59.816,3.1-68.066-11.9c-8.105-14.738,1.504-47.012,3.5-64.264c2.605-22.502-4.934-45.836-6.934-51.224
		c-2-5.388-3.566-19.529,8.434-14.263s49.285,10.002,62.066,39.804c19.489,45.446,2.436,81.196,4.225,85.696
		c1.361,3.42,8.911-0.736,8.911-0.736"/>
	<path fill="#FFFFFF" d="M41.738,152.941c-5.5-13.135,3.24-41.944,4.574-54.305c1.334-12.36,2.926-29.195-1.499-37.965
		c-3.644-7.223-13.179-14.763-4.991-13.897c8.666,0.916,31.916,10.916,40.916,30.039c6.33,13.447-1.472,46.325,0,62.993
		c1.474,16.666,16.418,24.967,16.418,24.967C57.822,178.773,44.564,159.691,41.738,152.941z"/>
	<path fill="#E3BB88" stroke="#613619" stroke-miterlimit="10" d="M118.385,128.566l-2.342,2.002c0,0,2.556,10.176-6.666,28.373
		c-8.286,16.351-1.877,23.5,5.691,29.971c6.869,5.873,27.67,7.04,38.799,4.546c15.697-3.519,26.01-19.462,22.388-33.332
		c-5.565-21.308-10.219-29.325-10.219-29.325L118.385,128.566z"/>
	<path fill="#FFFFFF" d="M173.32,151.604c-4.829-15.522-8.553-23.037-8.553-23.037l-15.446,2.834c0,0-3.834,3.041,0,7.973
		c3.834,4.934,2.698,26.415,3.927,37.568c1.23,11.152,18.396,3.875,18.396,3.875C177.979,169.982,177.283,164.335,173.32,151.604z"
		/>
	<path fill="#187FC4" d="M144.288,106.691h-8.734l-23.252,22.348c0,0,24.269,4.188,34.686,8.766c7.365,3.238,18.25,11,18.25,11
		s0.71-3.867,1.158-8.863c0.136-5.443-0.359-9.141-0.359-9.141L144.288,106.691z"/>
	<path fill="#EAC08A" stroke="#63361A" stroke-miterlimit="10" d="M76.718,100.951c0.683,1.978,4.396,1.385,4.979,2.592
		c0.764,1.583-3.41,0.921-2.319,3.649c6.674,16.686,31.145,24.473,52.334,23.473c3.321-0.156,4.419,2.46,8.385,3.66
		c2.097,0.595,6.944,0.748,10.423-0.207c3.162-1.033,3.664-3.61,6.986-3.453c21.188,1,33.657-8.787,40.333-25.473
		c1.091-2.728-3.083-2.066-2.319-3.649c0.583-1.208,4.297-0.614,4.979-2.592c0.729-2.112-3.239-1.739-3.342-2.66
		c-0.146-1.316,4.092-1.705,2.046-4.57c-3.778-5.289-8.024-7.556-15.539-11.99c-2.495-9.11-3.465-15.199-6.056-20.759
		c-3.34-7.168-5.895-11.734-9.024-17.727c-3.483-6.673-10.228-11.407-12.259-9.521c-1.406,1.305-0.534,1.673-2.829,11.239
		c-0.443,1.847-4.241-1.282-13.852-0.888c-9.738-0.166-13.481,2.735-13.924,0.888c-2.296-9.566-1.423-9.934-2.829-11.239
		c-2.031-1.886-8.775,2.848-12.259,9.521c-3.13,5.993-4.685,10.559-8.024,17.727c-2.174,4.666-4.447,11.233-7.056,20.759
		c-7.515,4.434-13.761,8.701-17.539,13.99c-2.046,2.865,2.192,3.254,2.046,4.57C79.957,99.212,75.988,98.839,76.718,100.951z"/>
	<path fill="#613619" d="M156.66,44.064c3.116,0.671,5.707,1.619,8.015,2.853c-0.673-2.094-1.139-3.569-1.771-4.785
		c-0.964-1.85-1.519-2.435-2.237-3.52c-0.718-1.085-1.758-1.744-2.139-1.768c-0.381-0.023-0.646,0.385-1.017,2.063
		C157.237,40.135,157.048,40.689,156.66,44.064z"/>
	<path fill="#613619" d="M122.393,44.064c-3.116,0.671-5.707,1.619-8.014,2.853c0.672-2.094,1.138-3.569,1.771-4.785
		c0.964-1.85,1.519-2.435,2.237-3.52c0.718-1.085,1.758-1.744,2.139-1.768c0.381-0.023,0.646,0.385,1.017,2.063
		C121.814,40.135,122.005,40.689,122.393,44.064z"/>
	<g>
		<path fill="#FFFFFF" d="M86.021,103.473c0.863,14.033,20.929,27.755,46.408,27.205c2.994-0.063,3.725,2.096,6.931,3.096
			c4.174,1.027,7.058,0.744,10.846-0.053c2.875-0.971,4.532-3.533,5.884-3.447c20.981,1.334,34.474-12.767,35.337-26.799
			c0.472-7.667-0.909-12.367-6.786-15.789c-3.69-2.148-4.396-1.656-4.632-1.649c-6.361-28.94-15.618-29.283-19.343-29.556
			c-3.789-0.278-6.716,1.158-9.217,7.461c-0.929,2.34-2.236,12.407-2.586,15.75c-0.248,2.377-0.422,6.723-4.375,7.455
			c-2.044-0.333-2.816-0.581-4.5-5.274c-2.275-6.348-6.04-14.154-6.867-16.532c-2.488-7.153-7.898-9.608-13.219-9.608
			c-5.522,0-13.646,4.427-20.461,30.304c-0.235-0.007-2.942-0.499-6.632,1.649C86.932,91.107,85.551,95.807,86.021,103.473z"/>
	</g>
	<ellipse fill="#EE869A" cx="179.111" cy="101.514" rx="8.599" ry="2.877"/>
	<ellipse fill="#EE869A" cx="109.69" cy="102.805" rx="8.599" ry="2.877"/>
	<path fill="none" stroke="#63361A" stroke-width="2" stroke-linecap="round" stroke-linejoin="round" stroke-miterlimit="10" d="
		M145.742,106.925c-0.535-1.512,0.132-5.411,0.132-5.411"/>
	<g>
		<path fill="#613619" d="M150.935,91.036c0.583,0.354,0.916,0.668,1.163,0.937s0.409,0.492,0.665,0.842
			c0.257,0.35,0.608,0.828,0.446,1.752c-0.161,0.924-0.837,2.294-2.261,3.933c-1.424,1.64-3.597,3.548-5.191,3.573
			c-1.596,0.025-3.827-1.814-5.303-3.408c-1.475-1.594-2.192-2.942-2.383-3.86s0.146-1.407,0.392-1.765
			c0.244-0.358,0.398-0.586,0.638-0.862c0.239-0.276,0.562-0.601,1.133-0.973s1.391-0.793,5.338-0.886
			C149.519,90.289,150.352,90.683,150.935,91.036z"/>
		<path fill="#FFFFFF" d="M151.189,93.663c-0.136,0.131-0.354,0.108-0.459-0.049c-0.1-0.15-0.24-0.331-0.413-0.499
			c-0.264-0.257-0.526-0.428-0.705-0.528c-0.129-0.073-0.183-0.227-0.132-0.366l0.03-0.083c0.05-0.137,0.188-0.22,0.332-0.195
			c0.256,0.044,0.679,0.163,1.138,0.486c0.256,0.181,0.436,0.402,0.545,0.564c0.082,0.122,0.064,0.285-0.042,0.387L151.189,93.663z"
			/>
	</g>
	<g>
		<g>
			<g>
				<path fill="#FFFFFF" d="M160.998,138.391c-0.451-0.617-0.904-1.236-1.356-1.854c-0.134,2.02-0.269,4.04-0.402,6.061
					c-2.064-0.361-3.644-2.039-3.879-4.121c-0.234-2.082,0.932-4.07,2.865-4.882c1.933-0.81,4.168-0.25,5.49,1.378
					c1.321,1.625,1.413,3.928,0.223,5.654c0.243,0.523-0.378,1.02-0.835,0.669s-0.136-1.079,0.431-0.979
					c2.242-3.295-0.925-7.572-4.731-6.391c-3.808,1.182-3.994,6.501-0.279,7.947c0.165-2.492,0.331-4.984,0.496-7.477
					c1.079,1.476,2.158,2.949,3.238,4.424c-0.441,0.129-0.883,0.257-1.323,0.385c0.619,0.845,1.237,1.689,1.855,2.535
					c-1.1-0.971-2.2-1.939-3.301-2.909C159.992,138.684,160.495,138.538,160.998,138.391z"/>
			</g>
		</g>
	</g>
	<path fill="#DEB686" stroke="#613619" stroke-miterlimit="10" d="M121.088,187.443c1.925,1.095,1.961,9.349,0.075,13.16
		c-1.885,3.811-0.757,12.205,0.493,13.039c1.251,0.834,19.354,0.522,20.281-0.285c0.928-0.809-0.492-3.061-3.49-4.371
		c-2.998-1.31-7.214,1.521-8.742,1.578c-1.527,0.059-4.39,0.162-5.011-0.775s0.48-6.373,4.978-9.133
		c4.496-2.76,9.327-9.774,10.265-13.461c0.937-3.686,2.379-9.827-6.388-11.618c-8.768-1.791-13.227,5.364-13.227,5.364
		S117.58,185.448,121.088,187.443z"/>
	<path fill="#EAC08A" stroke="#63361A" stroke-miterlimit="10" d="M137.109,156.402c1.264,3.154,7.094,10.742,8.151,11.484
		c0.286,0.201,0.87,0.03,1.336-0.092c0.7-0.184,1.252-0.184,2.116-0.145c1.923,0.084,3.587,1.283,3.283,2.088
		c-0.276,0.731-1.196-0.127-1.339,0.057c-0.142,0.184,1.931,1.43,1.591,4.544c-0.202,1.864-2.474,4.106-5.493,3.138
		c-4.229-1.356-2.672-3.66-6.261-7.328c-3.589-3.666-8.629-3.135-18.274-15.474c-2.263-2.893-1.256-10.588,3.912-12.028
		C131.299,141.207,136.547,155.002,137.109,156.402z"/>
	<g>
		<path fill="none" stroke="#613619" stroke-miterlimit="10" d="M138.881,109.533c0.634,2.308,0.678,3.769,1.312,6.076
			c3.074-0.047,6.577-0.383,9.651-0.432c0.562-2.327,0.851-3.185,1.413-5.512c0,0-3.891-2.203-5.937-2.173
			c-0.063,1.638-0.127,4.277-0.19,5.915c-0.115-1.636-0.23-4.271-0.346-5.907C142.737,107.536,138.882,109.533,138.881,109.533z"/>
		<path fill="none" stroke="#63361A" stroke-width="2" stroke-linecap="round" stroke-linejoin="round" stroke-miterlimit="10" d="
			M133.909,110.558c0,0,10.576-3.291,11.765-3.551l10.794,4.384"/>
	</g>
	<g>
		<ellipse fill="#E5E5E4" cx="166.59" cy="94.731" rx="9.75" ry="2.511"/>
		<path fill="#63361A" d="M156.84,83.47c0-0.414,0.336-0.75,0.75-0.75h17c0.414,0,0.75,0.336,0.75,0.75l0,0
			c0,0.414-0.336,0.75-0.75,0.75h-17C157.176,84.22,156.84,83.884,156.84,83.47L156.84,83.47z"/>
		<path fill="#63361A" d="M156.84,93.22c0-0.414,0.336-0.75,0.75-0.75h17c0.414,0,0.75,0.336,0.75,0.75l0,0
			c0,0.414-0.336,0.75-0.75,0.75h-17C157.176,93.97,156.84,93.634,156.84,93.22L156.84,93.22z"/>
		<circle fill="#63361A" cx="166.051" cy="88.387" r="1.735"/>
		<path fill="none" stroke="#613619" stroke-width="2" stroke-linecap="round" stroke-linejoin="round" stroke-miterlimit="10" d="
			M167.507,74.121c-4.25-0.25-7.001-4.25-7.001-4.25"/>
	</g>
	<g>
		<ellipse fill="#E5E5E4" cx="123.254" cy="94.731" rx="9.75" ry="2.511"/>
		<path fill="#63361A" d="M133.004,83.47c0-0.414-0.337-0.75-0.75-0.75h-17c-0.414,0-0.75,0.336-0.75,0.75l0,0
			c0,0.414,0.336,0.75,0.75,0.75h17C132.667,84.22,133.004,83.884,133.004,83.47L133.004,83.47z"/>
		<path fill="#63361A" d="M133.004,93.22c0-0.414-0.337-0.75-0.75-0.75h-17c-0.414,0-0.75,0.336-0.75,0.75l0,0
			c0,0.414,0.336,0.75,0.75,0.75h17C132.667,93.97,133.004,93.634,133.004,93.22L133.004,93.22z"/>
		<circle fill="#63361A" cx="123.792" cy="88.387" r="1.735"/>
		<path fill="none" stroke="#613619" stroke-width="2" stroke-linecap="round" stroke-linejoin="round" stroke-miterlimit="10" d="
			M122.337,74.121c4.25-0.25,7.001-4.25,7.001-4.25"/>
	</g>
</g>
</svg>
