<?xml version="1.0" encoding="utf-8"?>
<!-- Generator: Adobe Illustrator 16.0.0, SVG Export Plug-In . SVG Version: 6.00 Build 0)  -->
<!DOCTYPE svg PUBLIC "-//W3C//DTD SVG 1.1//EN" "http://www.w3.org/Graphics/SVG/1.1/DTD/svg11.dtd">
<svg version="1.1" id="图层_1" xmlns="http://www.w3.org/2000/svg" xmlns:xlink="http://www.w3.org/1999/xlink" x="0px" y="0px"
	 width="200px" height="210px" viewBox="0 0 200 210" enable-background="new 0 0 200 210" xml:space="preserve">
<g>
	<ellipse fill="#C7C6C6" cx="163.971" cy="197.055" rx="10.54" ry="3.094"/>
	<ellipse fill="#C7C6C6" cx="103.522" cy="198.718" rx="10.54" ry="3.095"/>
	<path fill="#C99F72" stroke="#613619" stroke-miterlimit="10" d="M142.905,174.947c2.211-0.125,6.721,6.787,7.204,11.013
		c0.484,4.226,5.986,10.665,7.489,10.687c1.503,0.022,16.54-10.062,16.881-11.244c0.342-1.182-2.074-2.303-5.302-1.776
		c-3.229,0.526-5.235,5.19-6.487,6.069c-1.252,0.878-3.599,2.518-4.63,2.066s-3.054-5.613-0.775-10.371
		c2.279-4.759,2.532-13.271,1.319-16.877c-1.213-3.604-3.334-9.546-11.67-6.294c-8.336,3.253-8.199,11.683-8.199,11.683
		S138.877,175.175,142.905,174.947z"/>
	<path fill="#EAC08A" stroke="#613619" stroke-miterlimit="10" d="M98.158,158.988c-1.166-3.498-10.4,1.18-10.4,1.18
		c-32.432,17.43-59.816,3.1-68.066-11.9c-8.105-14.738,1.047-47.362,5.047-64.264c4-16.901-8.48-45.836-10.48-51.224
		c-2-5.388-3.566-19.529,8.434-14.263s51.285,10.002,64.066,39.804c19.49,45.446,2.436,81.197,4.225,85.697
		c1.361,3.42,8.912-0.736,8.912-0.736"/>
	<path fill="#FFFFFF" d="M31.941,137.018c-5.5-13.136,3.24-41.944,4.574-54.305c1.334-12.36,1.926-27.195-2.498-35.965
		c-3.645-7.223-13.18-14.763-4.992-13.897c8.666,0.916,32.916,8.916,41.916,28.039c6.33,13.447-1.472,46.325,0,62.992
		c1.474,16.666,16.418,24.968,16.418,24.968C48.025,162.85,34.77,143.768,31.941,137.018z"/>
	<path fill="#E3BB88" stroke="#613619" stroke-miterlimit="10" d="M108.59,112.643l-2.341,2.002c0,0,1.186,7-7.413,25.5
		c-6.52,14.024-2.92,27.258,6.438,32.844c7.76,4.631,27.67,7.039,38.799,4.546c15.697-3.517,25.951-18.222,21.62-31.888
		c-6.898-21.765-9.452-30.77-9.452-30.77L108.59,112.643z"/>
	<path fill="#FFFFFF" d="M162.132,136.4c-3.676-11.58-7.16-23.758-7.16-23.758l-15.446,2.834c0,0-3.834,3.041,0,7.973
		c3.834,4.933,2.698,26.415,3.928,37.568c1.229,11.152,17.924,5.035,17.924,5.035C169.217,154.15,166.46,150.029,162.132,136.4z"/>
	<path fill="#187FC4" d="M134.491,90.767h-8.734l-23.251,22.348c0,0,24.269,4.187,34.686,8.766c7.365,3.238,20.066,11,20.066,11
		s-1.106-3.867-0.658-8.863c0.136-5.443-0.359-9.141-0.359-9.141L134.491,90.767z"/>
	<path fill="#EAC08A" stroke="#63361A" stroke-miterlimit="10" d="M66.922,85.027c0.682,1.978,4.396,1.385,4.979,2.592
		c0.765,1.583-3.41,0.921-2.318,3.649c6.674,16.686,29.461,26.035,52.334,23.473c3.305-0.37,4.419,2.46,8.385,3.659
		c2.097,0.596,6.945,0.748,10.423-0.207c3.162-1.032,3.665-3.631,6.986-3.452c16.925,0.909,35.591-7.257,40.333-25.473
		c0.739-2.844-3.083-2.066-2.319-3.649c0.583-1.208,4.297-0.614,4.979-2.592c0.728-2.112-3.24-1.739-3.343-2.66
		c-0.146-1.316,4.093-1.705,2.046-4.57c-3.778-5.289-8.024-7.556-15.539-11.99c-2.607-9.526-4.882-16.092-7.056-20.759
		c-3.34-7.168-4.895-11.734-8.023-17.727c-3.484-6.673-9.229-11.407-11.26-9.521c-1.405,1.305-1.533,1.673-3.829,11.239
		c-0.443,1.847-4.241-1.282-13.852-0.888c-9.738-0.166-13.481,2.735-13.924,0.888c-2.296-9.566-2.423-9.934-3.829-11.239
		c-2.031-1.886-7.775,2.848-11.259,9.521c-3.129,5.993-4.684,10.559-8.023,17.727c-2.175,4.666-4.447,11.233-7.057,20.759
		c-7.514,4.434-13.761,8.701-17.539,13.99c-2.046,2.865,2.191,3.254,2.046,4.57C70.16,83.287,66.191,82.914,66.922,85.027z"/>
	<path fill="#613619" d="M146.863,28.14c3.116,0.671,5.707,1.619,8.015,2.853c-0.672-2.094-1.139-3.569-1.771-4.785
		c-0.964-1.85-1.519-2.435-2.236-3.52c-0.719-1.085-1.759-1.744-2.14-1.768c-0.381-0.023-0.646,0.385-1.017,2.062
		C147.441,24.211,147.252,24.765,146.863,28.14z"/>
	<path fill="#613619" d="M112.596,28.14c-3.116,0.671-5.707,1.619-8.014,2.853c0.672-2.094,1.138-3.569,1.771-4.785
		c0.964-1.85,1.52-2.435,2.237-3.52s1.758-1.744,2.139-1.768c0.381-0.023,0.646,0.385,1.018,2.062
		C112.018,24.211,112.208,24.765,112.596,28.14z"/>
	<g>
		<path fill="#FFFFFF" d="M76.225,87.549c0.863,14.033,20.93,27.756,46.408,27.205c2.994-0.064,3.725,2.096,6.931,3.096
			c4.174,1.027,7.059,0.744,10.846-0.053c2.875-0.971,4.532-3.533,5.884-3.447c20.981,1.334,34.474-12.767,35.337-26.8
			c0.472-7.667-0.909-12.367-6.786-15.789c-3.69-2.148-4.396-1.656-4.632-1.649c-6.361-28.94-15.618-29.283-19.342-29.556
			c-3.789-0.278-6.717,1.158-9.218,7.461c-0.929,2.34-2.236,12.407-2.586,15.75c-0.248,2.377-0.422,6.723-4.375,7.455
			c-2.044-0.333-2.816-0.581-4.5-5.274c-2.275-6.348-6.04-14.154-6.867-16.532c-2.488-7.153-7.898-9.608-13.219-9.608
			c-5.522,0-13.646,4.427-20.461,30.304c-0.236-0.007-2.941-0.499-6.632,1.649C77.136,75.182,75.755,79.883,76.225,87.549z"/>
	</g>
	<ellipse fill="#EE869A" cx="169.315" cy="85.59" rx="8.599" ry="2.877"/>
	<ellipse fill="#EE869A" cx="99.894" cy="86.881" rx="8.599" ry="2.877"/>
	<g>
		<path fill="none" stroke="#613619" stroke-width="2" stroke-miterlimit="10" d="M111.547,52.22
			c7.582,0,12.591,6.224,12.591,13.805c0,7.582-5.009,13.649-12.591,13.649c-7.581,0-12.505-6.144-12.505-13.726
			S103.966,52.221,111.547,52.22z"/>
		<path fill="#613619" d="M111.56,56.669c5.254,0,8.725,4.314,8.725,9.567c0,5.254-3.471,9.458-8.725,9.458
			s-8.665-4.258-8.665-9.512C102.895,60.928,106.306,56.669,111.56,56.669z"/>
		<circle fill="#FFFFFF" cx="114.974" cy="64.627" r="3.738"/>
		<circle fill="#FFFFFF" cx="107.236" cy="71.222" r="2.012"/>
	</g>
	<g>
		<path fill="none" stroke="#613619" stroke-width="2" stroke-miterlimit="10" d="M154.676,53.22
			c-7.243,0-12.028,5.947-12.028,13.189c0,7.243,4.785,13.039,12.028,13.039s11.947-5.87,11.947-13.113S161.919,53.22,154.676,53.22
			z"/>
		<path fill="#613619" d="M154.663,57.471c-5.02,0-8.335,4.12-8.335,9.139s3.315,9.036,8.335,9.036c5.019,0,8.278-4.068,8.278-9.087
			C162.941,61.539,159.682,57.471,154.663,57.471z"/>
		<circle fill="#FFFFFF" cx="151.402" cy="65.073" r="3.571"/>
		<circle fill="#FFFFFF" cx="158.794" cy="71.373" r="1.923"/>
	</g>
	<path fill="none" stroke="#63361A" stroke-width="2" stroke-linecap="round" stroke-linejoin="round" stroke-miterlimit="10" d="
		M135.946,91c-0.534-1.512,0.133-5.411,0.133-5.411"/>
	<g>
		<path fill="#613619" d="M141.138,75.112c0.583,0.354,0.916,0.668,1.163,0.937c0.247,0.269,0.409,0.492,0.665,0.842
			c0.257,0.35,0.608,0.828,0.447,1.752c-0.162,0.924-0.838,2.294-2.262,3.933c-1.424,1.64-3.597,3.548-5.191,3.573
			c-1.596,0.025-3.827-1.814-5.303-3.408c-1.475-1.594-2.192-2.942-2.383-3.86s0.146-1.407,0.392-1.765
			c0.244-0.358,0.398-0.586,0.638-0.862c0.239-0.276,0.562-0.601,1.133-0.973c0.571-0.372,1.391-0.793,5.338-0.886
			C139.723,74.364,140.555,74.759,141.138,75.112z"/>
		<path fill="#FFFFFF" d="M141.393,77.739c-0.136,0.131-0.354,0.108-0.459-0.049c-0.1-0.15-0.24-0.331-0.413-0.499
			c-0.264-0.257-0.525-0.428-0.705-0.528c-0.129-0.073-0.183-0.227-0.132-0.366l0.03-0.083c0.05-0.137,0.188-0.22,0.332-0.195
			c0.256,0.044,0.679,0.163,1.138,0.486c0.256,0.181,0.437,0.402,0.545,0.564c0.082,0.122,0.064,0.285-0.042,0.387L141.393,77.739z"
			/>
	</g>
	<path fill="none" stroke="#613619" stroke-miterlimit="10" d="M129.275,93.291c0.634,2.308,1.036,3.769,1.67,6.077
		c3.074-0.049,6.149-0.097,9.224-0.145c0.562-2.327,0.921-3.472,1.482-5.799c-2.046-0.024-3.89-1.203-5.936-1.173
		c-0.063,1.638-0.127,3.277-0.191,4.915c-0.115-1.636-0.229-3.271-0.345-4.907C133.134,92.294,131.321,93.203,129.275,93.291z"/>
	<path fill="none" stroke="#63361A" stroke-width="2" stroke-linecap="round" stroke-linejoin="round" stroke-miterlimit="10" d="
		M118.646,91.408c8.194,4.504,16.234-0.383,17.422-0.643c7.802,6.359,12.762-0.2,12.762-0.2"/>
	<g>
		<g>
			<g>
				<path fill="#FFFFFF" d="M151.201,122.466c-0.451-0.618-0.904-1.235-1.356-1.854c-0.134,2.021-0.269,4.041-0.402,6.061
					c-2.064-0.359-3.644-2.038-3.879-4.121c-0.233-2.082,0.933-4.07,2.865-4.881s4.168-0.25,5.49,1.377
					c1.321,1.626,1.413,3.93,0.223,5.655c0.243,0.522-0.378,1.021-0.835,0.669s-0.136-1.079,0.431-0.979
					c2.242-3.297-0.925-7.574-4.731-6.392c-3.808,1.183-3.994,6.501-0.279,7.947c0.165-2.492,0.331-4.984,0.496-7.476
					c1.079,1.475,2.158,2.948,3.238,4.424c-0.441,0.127-0.882,0.256-1.323,0.383c0.619,0.846,1.237,1.69,1.855,2.535
					c-1.1-0.97-2.2-1.938-3.301-2.908C150.196,122.76,150.699,122.614,151.201,122.466z"/>
			</g>
		</g>
	</g>
	<path fill="#DEB686" stroke="#613619" stroke-miterlimit="10" d="M103.025,166.85c1.371,1.738-1.696,9.399-4.877,12.224
		c-3.18,2.823-5.289,11.026-4.444,12.269c0.845,1.243,17.737,7.758,18.9,7.358c1.164-0.4,0.694-3.021-1.591-5.361
		c-2.286-2.34-7.256-1.303-8.693-1.823c-1.438-0.52-4.129-1.498-4.352-2.602c-0.224-1.102,2.84-5.725,8.044-6.592
		c5.205-0.867,12.318-5.551,14.572-8.615s5.898-8.213-1.553-13.168s-14.272,0-14.272,0S100.525,163.684,103.025,166.85z"/>
	<path fill="#EAC08A" stroke="#63361A" stroke-miterlimit="10" d="M130.071,136.488c1.62,2.986,8.287,9.85,9.424,10.466
		c0.308,0.167,0.867-0.069,1.316-0.245c0.675-0.264,1.223-0.326,2.086-0.389c1.921-0.137,3.712,0.863,3.504,1.695
		c-0.189,0.76-1.203,0.014-1.322,0.211c-0.12,0.198,2.081,1.198,2.104,4.33c0.014,1.875-1.983,4.366-5.095,3.752
		c-4.357-0.859-3.076-3.328-7.065-6.556s-8.934-2.117-19.939-13.26c-2.581-2.613-2.471-10.372,2.497-12.399
		C122.548,122.066,129.353,135.163,130.071,136.488z"/>
</g>
</svg>
