<?xml version="1.0" encoding="utf-8"?>
<!-- Generator: Adobe Illustrator 16.0.0, SVG Export Plug-In . SVG Version: 6.00 Build 0)  -->
<!DOCTYPE svg PUBLIC "-//W3C//DTD SVG 1.1//EN" "http://www.w3.org/Graphics/SVG/1.1/DTD/svg11.dtd">
<svg version="1.1" id="图层_1" xmlns="http://www.w3.org/2000/svg" xmlns:xlink="http://www.w3.org/1999/xlink" x="0px" y="0px"
	 width="170px" height="210px" viewBox="0 0 170 210" enable-background="new 0 0 170 210" xml:space="preserve">
<ellipse fill="#C7C6C6" cx="115.316" cy="201.951" rx="10.54" ry="3.095"/>
<ellipse fill="#C7C6C6" cx="74.452" cy="201.951" rx="10.54" ry="3.095"/>
<g>
	<path fill="#EAC08A" stroke="#613619" stroke-miterlimit="10" d="M112.307,163.491c11.272-18.552,12.206-54.837,10.064-67.932
		c-9.256-56.611-33.614-72.635-59.258-78.026c-22.998-4.835-34.478-6.186-39.664-1.781c-5.188,4.405,9.246,7.919,12.473,22.97
		c3.227,15.051-22.027,48.217-25.202,68.36c-3.925,24.902,10.356,47.534,25.899,59.121c20.008,14.914,39.4,13.371,53.844,17.865
		C90.463,184.068,101.033,182.043,112.307,163.491z"/>
	<path fill="#FFFFFF" d="M105.507,142.938c8.543-14.059,9.256-41.558,7.628-51.48c-5.828-35.521-20.497-51.173-37.827-59.809
		c-8.044-4.01-28.354-8.407-28.354-4.102c0,2.831,4.826,4.356,6.351,14.516c1.731,11.536-22.233,48.255-24.639,63.52
		c-2.974,18.871,4.571,31.48,19.485,43.475c14.735,11.854,29.859,10.133,40.804,13.539
		C88.954,162.596,96.964,156.997,105.507,142.938z"/>
</g>
<path fill="#EAC08A" stroke="#63361A" stroke-miterlimit="10" d="M58.512,160.636c2.82,0.091,3.794-1.53,3.954-1.407
	s-0.144,0.453,0.048,0.612c0.191,0.16,0.662,0.064,1-0.205c0.34-0.268,0.691-0.825,0.813-2.114c0.072-0.75,0.08-1.043-0.084-1.653
	c-0.109-0.406-0.312-1.103-0.137-1.354c0.643-0.925,3.158-2.734,9.971-7.158c-10.717,24.904-10.379,26.873-10.447,28.24
	c-0.122,2.455,0.622,4.825,1.773,6.685c2.66,4.296,9.332,8.508,9.844,9.092c0.777,0.89,3.936,2.979,1.613,3.321
	c-2.322,0.341-4.742-0.818-7.187-0.9c-1.61-0.054-2.679,0.574-3.192,1.344c-0.513,0.771-1.283,2.066-1.646,2.78
	s-0.321,0.845-0.213,1.104c0.109,0.26,0.285,0.647,5.289,0.842c5.002,0.193,5.011,0.193,10.072,0.15
	c5.062-0.046,5.444-0.648,5.815-1.818c0.315-0.998-0.184-2.416-0.96-6.395l0.004-0.003c7.046,1.382,14.093,1.449,21.14,0.205
	c-0.752,3.813-1.229,5.213-0.919,6.192c0.37,1.17,0.753,1.772,5.815,1.818c5.062,0.043,5.069,0.043,10.072-0.15
	c5.003-0.194,5.18-0.582,5.288-0.842c0.11-0.26,0.152-0.391-0.212-1.104s-1.134-2.01-1.646-2.78
	c-0.514-0.77-1.581-1.397-3.192-1.344c-2.444,0.082-4.865,1.241-7.187,0.9c-2.322-0.342,0.836-2.432,1.613-3.321
	c0.512-0.584,7.185-4.795,9.845-9.092c1.149-1.859,1.895-4.229,1.772-6.685c-0.066-1.367,0.271-3.336-10.448-28.24
	c6.813,4.424,9.33,6.233,9.973,7.158c0.174,0.25-0.028,0.948-0.138,1.354c-0.163,0.61-0.154,0.903-0.085,1.653
	c0.121,1.287,0.475,1.846,0.813,2.114c0.338,0.27,0.809,0.365,1,0.205c0.19-0.159-0.112-0.489,0.048-0.612
	c0.161-0.123,1.135,1.498,3.954,1.407c1.119-0.036,3.592-2.137,2.761-4.774c-1.163-3.691-3.178-2.344-6.357-5.49
	s-2.128-4.391-15.488-17.719c-0.424-0.424-0.857-0.854-1.285-1.285l-14.896-0.85v-0.188l-1.651,0.094l-1.65-0.094v0.188
	l-14.896,0.85c-0.429,0.431-0.86,0.861-1.285,1.285c-13.36,13.33-12.309,14.572-15.487,17.719c-3.181,3.146-5.195,1.799-6.358,5.49
	C54.924,158.499,57.396,160.6,58.512,160.636z"/>
<path fill="#FFFFFF" d="M81.287,144.813c0-7.735,6.271-14.006,14.006-14.006l0,0c7.734,0,14.005,6.271,14.005,14.006l4.364,24.312
	c1.183,7.776-2.092,14.076-18.369,14.005h-2.001c-11.55,0-18.142-5.957-16.369-14.005L81.287,144.813z"/>
<polygon fill="#187FC4" points="100.354,109.689 91.618,109.689 73.377,131.202 95.71,154.387 116.936,131.384 "/>
<path fill="#EAC08A" stroke="#63361A" stroke-miterlimit="10" d="M32.783,103.949c0.683,1.978,4.396,1.385,4.979,2.592
	c0.765,1.583-3.409,0.921-2.319,3.648c6.676,16.687,26.146,24.474,47.334,23.474c3.322-0.157,4.591,2.551,8.558,3.751
	c2.096,0.595,5.335,0.773,8.813-0.182c3.161-1.032,5.102-3.727,8.423-3.569c21.189,1,40.659-6.787,47.334-23.474
	c1.091-2.728-3.083-2.065-2.318-3.648c0.583-1.208,4.297-0.614,4.979-2.592c0.729-2.112-3.24-1.739-3.342-2.66
	c-0.146-1.316,4.092-1.705,2.046-4.57c-3.779-5.289-10.025-9.556-17.539-13.99c-2.608-9.526-4.882-16.092-7.056-20.759
	c-3.34-7.168-4.896-11.734-8.024-17.727c-3.483-6.673-9.228-11.407-11.259-9.521c-1.406,1.305-1.534,1.673-3.829,11.239
	c-0.444,1.847-4.242-1.282-13.852-0.888c-9.738-0.166-13.481,2.735-13.925,0.888c-2.295-9.566-2.422-9.934-3.828-11.239
	c-2.031-1.886-7.775,2.848-11.26,9.521c-3.129,5.993-4.684,10.559-8.023,17.727c-2.174,4.666-4.447,11.233-7.057,20.759
	c-7.514,4.434-13.76,8.701-17.539,13.99c-2.045,2.865,2.193,3.254,2.047,4.57C36.021,102.21,32.054,101.837,32.783,103.949z"/>
<path fill="#613619" d="M112.726,47.062c3.116,0.671,5.707,1.619,8.014,2.853c-0.672-2.094-1.138-3.569-1.771-4.785
	c-0.964-1.85-1.52-2.435-2.237-3.52s-1.758-1.744-2.139-1.768c-0.381-0.023-0.646,0.385-1.018,2.062
	C113.304,43.133,113.113,43.687,112.726,47.062z"/>
<path fill="#613619" d="M78.458,47.062c-3.116,0.671-5.707,1.619-8.015,2.853c0.672-2.094,1.139-3.569,1.771-4.785
	c0.964-1.85,1.52-2.435,2.236-3.52c0.719-1.085,1.759-1.744,2.14-1.768c0.381-0.023,0.646,0.385,1.017,2.062
	C77.88,43.133,78.07,43.687,78.458,47.062z"/>
<g>
	<path fill="#FFFFFF" d="M42.087,106.471c0.862,14.033,15.928,27.756,41.407,27.205c2.994-0.064,4.891,2.049,7.765,3.021
		c3.054,1.012,4.828,1.147,8.394-0.102c2.874-0.971,4.475-3.522,7.501-3.324c25.031,1.637,41.475-12.767,42.337-26.799
		c0.473-7.667-0.909-12.368-6.786-15.79c-3.689-2.148-6.396-1.656-6.632-1.649c-6.36-28.94-16.455-29.349-20.179-29.622
		c-3.789-0.278-8.544,0.545-11.045,6.848c-0.928,2.34-5.175,16.249-6.002,18.773c-0.805,2.459-1.013,3.894-3.058,4.227
		c-2.044-0.333-2.252-1.769-3.057-4.227c-0.827-2.525-4.719-14.317-5.546-16.695c-2.489-7.153-5.899-9.608-11.219-9.608
		c-5.522,0-13.647,4.427-20.461,30.304c-0.235-0.007-2.942-0.499-6.632,1.649C42.998,94.105,41.617,98.805,42.087,106.471z"/>
</g>
<ellipse fill="#EE869A" cx="124.715" cy="105.803" rx="8.599" ry="2.877"/>
<ellipse fill="#EE869A" cx="65.444" cy="105.803" rx="8.599" ry="2.877"/>
<path fill="none" stroke="#63361A" stroke-width="2" stroke-linecap="round" stroke-linejoin="round" stroke-miterlimit="10" d="
	M95.505,109.923c-0.535-1.512,0.132-5.411,0.132-5.411"/>
<g>
	<path fill="#613619" d="M100.987,94.352c0.577,0.363,0.905,0.683,1.148,0.955s0.4,0.498,0.651,0.852s0.596,0.838,0.42,1.759
		c-0.177,0.921-0.872,2.28-2.322,3.897c-1.45,1.617-3.653,3.491-5.248,3.491c-1.596,0-3.798-1.874-5.248-3.491
		c-1.45-1.617-2.146-2.976-2.322-3.897s0.168-1.405,0.419-1.759s0.409-0.58,0.652-0.852s0.571-0.592,1.147-0.955
		c0.577-0.363,1.403-0.771,5.352-0.802C99.584,93.581,100.41,93.989,100.987,94.352z"/>
	<path fill="#FFFFFF" d="M101.202,96.98c-0.138,0.129-0.355,0.102-0.459-0.056c-0.098-0.151-0.234-0.334-0.404-0.505
		c-0.261-0.261-0.521-0.436-0.697-0.539c-0.128-0.075-0.18-0.23-0.127-0.368l0.032-0.082c0.053-0.135,0.191-0.216,0.335-0.189
		c0.255,0.048,0.676,0.174,1.13,0.504c0.253,0.184,0.429,0.409,0.536,0.572c0.081,0.123,0.06,0.285-0.048,0.386L101.202,96.98z"/>
</g>
<path fill="none" stroke="#613619" stroke-miterlimit="10" d="M88.977,112.342c0.598,2.318,0.977,3.785,1.575,6.104
	c3.075,0,6.148,0,9.224,0c0.6-2.319,0.977-3.459,1.574-5.776c-2.046-0.056-3.87-1.264-5.917-1.267
	c-0.089,1.638-0.179,3.274-0.268,4.912c-0.091-1.638-0.181-3.274-0.27-4.912C92.849,111.405,91.022,112.286,88.977,112.342z"/>
<path fill="none" stroke="#63361A" stroke-width="2" stroke-linecap="round" stroke-linejoin="round" stroke-miterlimit="10" d="
	M80.379,110.292c8.122,4.632,13.934,0.218,15.126-0.024c7.699,6.48,15.065-0.346,15.065-0.346"/>
<g>
	<g>
		<g>
			<path fill="#FFFFFF" d="M96.575,144.133c-0.262-0.72-0.523-1.439-0.785-2.16c-0.692,1.902-1.386,3.805-2.077,5.707
				c-1.883-0.922-2.932-2.975-2.575-5.039c0.355-2.065,2.031-3.649,4.113-3.889c2.082-0.238,4.072,0.923,4.888,2.854
				c0.813,1.932,0.259,4.168-1.365,5.494c0.087,0.568-0.647,0.873-0.989,0.408c-0.34-0.465,0.171-1.074,0.688-0.82
				c3.073-2.539,1.226-7.53-2.76-7.457c-3.985,0.072-5.649,5.129-2.485,7.554c0.855-2.347,1.709-4.694,2.563-7.041
				c0.625,1.717,1.25,3.435,1.875,5.151c-0.461,0-0.92,0-1.379,0c0.358,0.984,0.717,1.969,1.074,2.953
				c-0.786-1.238-1.571-2.478-2.357-3.716C95.527,144.132,96.052,144.132,96.575,144.133z"/>
		</g>
	</g>
</g>
<g>
	<path fill="none" stroke="#4B2C13" stroke-width="2" stroke-miterlimit="10" d="M117.423,78.535
		c10.232-0.006,12.875,5.263,12.875,8.197c0,0,0,5.161-5.541,4.25c0,0-4.959-1.432-7.59-1.29c-2.905,0.157-5.924,0.888-5.924,0.888
		c-5.194,0.51-6.677-2.031-6.319-5.462C104.924,85.118,105.654,78.541,117.423,78.535z"/>
	<path fill="#4B2C13" d="M112.082,79.284c3.016,0,5.461,2.548,5.461,5.691s-2.445,5.691-5.461,5.691c-3.017,0-6.888-0.657-6.888-3.8
		C105.194,83.723,109.065,79.284,112.082,79.284z"/>
</g>
<g>
	<path fill="none" stroke="#4B2C13" stroke-width="2" stroke-miterlimit="10" d="M73.339,78.535
		c10.233-0.006,12.875,5.263,12.875,8.197c0,0,0,5.161-5.541,4.25c0,0-4.959-1.432-7.59-1.29c-2.905,0.157-5.923,0.888-5.923,0.888
		c-5.195,0.51-6.678-2.031-6.32-5.462C60.84,85.118,61.57,78.541,73.339,78.535z"/>
	<path fill="#4B2C13" d="M67.996,79.284c3.017,0,5.462,2.548,5.462,5.691s-2.445,5.691-5.462,5.691
		c-3.016,0-7.199-1.145-7.199-4.288S64.98,79.284,67.996,79.284z"/>
</g>
</svg>
