<?xml version="1.0" encoding="utf-8"?>
<!-- Generator: Adobe Illustrator 16.0.0, SVG Export Plug-In . SVG Version: 6.00 Build 0)  -->
<!DOCTYPE svg PUBLIC "-//W3C//DTD SVG 1.1//EN" "http://www.w3.org/Graphics/SVG/1.1/DTD/svg11.dtd">
<svg version="1.1" id="图层_1" xmlns="http://www.w3.org/2000/svg" xmlns:xlink="http://www.w3.org/1999/xlink" x="0px" y="0px"
	 width="210px" height="220px" viewBox="0 0 210 220" enable-background="new 0 0 210 220" xml:space="preserve">
<g>
	<ellipse fill="#C7C6C6" cx="168.082" cy="198.564" rx="10.54" ry="3.095"/>
	<ellipse fill="#C7C6C6" cx="107.634" cy="200.229" rx="10.54" ry="3.095"/>
	<path fill="#C99F72" stroke="#613619" stroke-miterlimit="10" d="M147.018,176.457c2.211-0.125,6.72,6.788,7.204,11.013
		c0.483,4.226,5.985,10.665,7.488,10.688c1.503,0.021,16.54-10.063,16.881-11.244c0.343-1.183-2.073-2.304-5.302-1.777
		c-3.228,0.527-5.234,5.191-6.486,6.069s-3.6,2.518-4.631,2.066c-1.03-0.451-3.055-5.613-0.774-10.371
		c2.279-4.758,2.532-13.271,1.318-16.877c-1.213-3.604-3.334-9.547-11.67-6.293c-8.336,3.252-8.198,11.682-8.198,11.682
		S142.989,176.686,147.018,176.457z"/>
	<path fill="#EAC08A" stroke="#613619" stroke-miterlimit="10" d="M102.27,160.498c-1.166-3.498-10.4,1.18-10.4,1.18
		c-32.431,17.43-59.815,3.1-68.065-11.9c-8.106-14.738,1.046-47.362,5.046-64.263c4-16.901-8.48-45.836-10.48-51.224
		c-2-5.388-3.565-19.529,8.435-14.263s51.284,10.002,64.065,39.804c19.49,45.446,2.436,81.196,4.226,85.696
		c1.36,3.421,8.911-0.736,8.911-0.736"/>
	<path fill="#FFFFFF" d="M36.053,138.527c-5.5-13.135,3.24-41.944,4.574-54.304c1.334-12.36,1.926-27.195-2.498-35.965
		c-3.645-7.223-13.18-14.763-4.992-13.897c8.667,0.916,32.917,8.916,41.917,28.039c6.329,13.447-1.472,46.325,0,62.993
		c1.473,16.666,16.417,24.967,16.417,24.967C52.138,164.359,38.881,145.277,36.053,138.527z"/>
	<path fill="#E3BB88" stroke="#613619" stroke-miterlimit="10" d="M112.701,114.152l-2.341,2.002c0,0,1.186,7-7.413,25.5
		c-6.519,14.024-2.92,27.259,6.438,32.844c7.76,4.631,27.67,7.04,38.799,4.546c15.696-3.517,25.951-18.222,21.62-31.887
		c-6.899-21.765-9.452-30.771-9.452-30.771L112.701,114.152z"/>
	<path fill="#FFFFFF" d="M166.243,137.91c-3.676-11.58-7.16-23.758-7.16-23.758l-15.445,2.834c0,0-3.834,3.041,0,7.973
		c3.834,4.934,2.697,26.415,3.927,37.568c1.229,11.152,17.924,5.035,17.924,5.035C173.328,155.659,170.572,151.538,166.243,137.91z"
		/>
	<path fill="#187FC4" d="M138.604,92.277h-8.735l-23.251,22.348c0,0,24.27,4.188,34.687,8.766c7.364,3.238,20.065,11,20.065,11
		s-1.105-3.867-0.658-8.863c0.137-5.443-0.358-9.141-0.358-9.141L138.604,92.277z"/>
	<path fill="#EAC08A" stroke="#63361A" stroke-miterlimit="10" d="M71.033,86.536c0.682,1.978,4.396,1.385,4.979,2.592
		c0.764,1.583-3.41,0.921-2.319,3.649c6.674,16.686,29.461,26.036,52.334,23.473c3.305-0.37,4.419,2.46,8.385,3.66
		c2.098,0.595,6.945,0.748,10.423-0.207c3.162-1.033,3.665-3.631,6.986-3.453c16.925,0.909,35.591-7.257,40.333-25.473
		c0.74-2.844-3.083-2.066-2.319-3.649c0.583-1.208,4.297-0.614,4.979-2.592c0.728-2.112-3.24-1.739-3.342-2.66
		c-0.146-1.316,4.092-1.705,2.046-4.57c-3.779-5.289-8.025-7.556-15.539-11.99c-2.608-9.526-4.882-16.092-7.057-20.759
		c-3.34-7.168-4.895-11.734-8.023-17.727c-3.484-6.673-9.229-11.407-11.259-9.521c-1.406,1.305-1.534,1.673-3.829,11.239
		c-0.444,1.847-4.242-1.282-13.853-0.888c-9.737-0.166-13.48,2.735-13.924,0.888c-2.296-9.566-2.423-9.934-3.829-11.239
		c-2.031-1.886-7.774,2.848-11.259,9.521c-3.129,5.993-4.684,10.559-8.023,17.727c-2.174,4.666-4.447,11.233-7.057,20.759
		c-7.514,4.434-13.761,8.701-17.539,13.99c-2.045,2.865,2.192,3.254,2.047,4.57C74.271,84.797,70.304,84.424,71.033,86.536z"/>
	<path fill="#613619" d="M150.976,29.65c3.115,0.671,5.707,1.619,8.014,2.853c-0.672-2.094-1.138-3.569-1.771-4.785
		c-0.965-1.85-1.52-2.435-2.237-3.52c-0.718-1.085-1.758-1.744-2.139-1.768c-0.382-0.023-0.646,0.385-1.018,2.062
		C151.554,25.721,151.363,26.275,150.976,29.65z"/>
	<path fill="#613619" d="M116.707,29.65c-3.116,0.671-5.707,1.619-8.014,2.853c0.672-2.094,1.138-3.569,1.771-4.785
		c0.965-1.85,1.52-2.435,2.237-3.52c0.718-1.085,1.758-1.744,2.139-1.768c0.382-0.023,0.646,0.385,1.018,2.062
		C116.129,25.721,116.319,26.275,116.707,29.65z"/>
	<g>
		<path fill="#FFFFFF" d="M80.336,89.059c0.863,14.033,20.93,27.755,46.408,27.205c2.994-0.063,3.726,2.096,6.931,3.096
			c4.175,1.027,7.059,0.744,10.847-0.053c2.875-0.971,4.532-3.533,5.883-3.447c20.982,1.334,34.474-12.767,35.337-26.799
			c0.472-7.667-0.909-12.367-6.786-15.789c-3.689-2.148-4.396-1.656-4.632-1.649c-6.361-28.94-15.618-29.283-19.342-29.556
			c-3.789-0.278-6.716,1.158-9.217,7.461c-0.93,2.34-2.237,12.407-2.586,15.75c-0.248,2.377-0.423,6.723-4.375,7.455
			c-2.044-0.333-2.817-0.581-4.5-5.274c-2.276-6.348-6.04-14.154-6.867-16.532c-2.489-7.153-7.899-9.608-13.219-9.608
			c-5.523,0-13.647,4.427-20.462,30.304c-0.235-0.007-2.941-0.499-6.631,1.649C81.248,76.692,79.867,81.393,80.336,89.059z"/>
	</g>
	<ellipse fill="#EE869A" cx="173.427" cy="87.099" rx="8.599" ry="2.877"/>
	<ellipse fill="#EE869A" cx="104.005" cy="88.391" rx="8.599" ry="2.877"/>
	<path fill="none" stroke="#63361A" stroke-width="2" stroke-linecap="round" stroke-linejoin="round" stroke-miterlimit="10" d="
		M140.059,92.51c-0.535-1.512,0.132-5.411,0.132-5.411"/>
	<g>
		<path fill="#613619" d="M145.249,76.622c0.583,0.354,0.916,0.668,1.163,0.937s0.409,0.492,0.665,0.842
			c0.257,0.35,0.609,0.828,0.447,1.752c-0.162,0.924-0.837,2.294-2.261,3.933c-1.425,1.64-3.598,3.548-5.192,3.573
			c-1.595,0.025-3.827-1.814-5.302-3.408c-1.476-1.594-2.193-2.942-2.383-3.86c-0.191-0.918,0.146-1.407,0.391-1.765
			s0.399-0.586,0.638-0.862c0.239-0.276,0.563-0.601,1.133-0.973c0.571-0.372,1.392-0.793,5.339-0.886
			C143.834,75.874,144.667,76.269,145.249,76.622z"/>
		<path fill="#FFFFFF" d="M145.504,79.249c-0.136,0.131-0.354,0.108-0.459-0.049c-0.1-0.15-0.239-0.331-0.413-0.499
			c-0.264-0.257-0.525-0.428-0.704-0.528c-0.13-0.073-0.184-0.227-0.133-0.366l0.03-0.083c0.05-0.137,0.189-0.22,0.332-0.195
			c0.256,0.044,0.679,0.163,1.138,0.486c0.257,0.181,0.437,0.402,0.545,0.564c0.082,0.122,0.064,0.285-0.042,0.387L145.504,79.249z"
			/>
	</g>
	<path fill="none" stroke="#613619" stroke-miterlimit="10" d="M133.388,94.801c0.634,2.308,1.035,3.769,1.67,6.077
		c3.073-0.049,6.148-0.097,9.223-0.145c0.563-2.327,0.921-3.472,1.483-5.799c-2.046-0.024-3.891-1.203-5.937-1.173
		c-0.063,1.638-0.127,3.277-0.19,4.915c-0.115-1.636-0.23-3.271-0.346-4.907C137.245,93.804,135.434,94.713,133.388,94.801z"/>
	<path fill="none" stroke="#63361A" stroke-width="2" stroke-linecap="round" stroke-linejoin="round" stroke-miterlimit="10" d="
		M122.758,92.917c8.194,4.504,16.234-0.383,17.423-0.643c7.801,6.359,12.761-0.2,12.761-0.2"/>
	<g>
		<g>
			<g>
				<path fill="#FFFFFF" d="M155.314,123.977c-0.452-0.619-0.905-1.236-1.357-1.854c-0.134,2.021-0.268,4.04-0.401,6.06
					c-2.065-0.359-3.645-2.037-3.879-4.121c-0.234-2.082,0.932-4.069,2.864-4.881c1.934-0.81,4.168-0.25,5.49,1.377
					s1.413,3.93,0.223,5.655c0.243,0.522-0.378,1.021-0.835,0.669s-0.136-1.079,0.432-0.979c2.242-3.297-0.926-7.573-4.732-6.392
					c-3.807,1.183-3.994,6.501-0.279,7.947c0.165-2.492,0.331-4.983,0.496-7.476c1.079,1.475,2.158,2.949,3.238,4.424
					c-0.441,0.128-0.882,0.256-1.323,0.384c0.619,0.845,1.237,1.69,1.856,2.535c-1.101-0.97-2.201-1.939-3.301-2.909
					C154.309,124.27,154.812,124.124,155.314,123.977z"/>
			</g>
		</g>
	</g>
	<path fill="#DEB686" stroke="#613619" stroke-miterlimit="10" d="M107.137,168.359c1.371,1.738-1.696,9.399-4.876,12.224
		c-3.181,2.823-5.29,11.026-4.445,12.269c0.845,1.243,17.738,7.758,18.9,7.358c1.164-0.399,0.694-3.021-1.591-5.36
		c-2.286-2.341-7.256-1.304-8.693-1.824c-1.438-0.52-4.128-1.498-4.352-2.602c-0.224-1.102,2.84-5.725,8.044-6.592
		c5.205-0.867,12.318-5.551,14.572-8.615s5.899-8.213-1.552-13.168c-7.452-4.955-14.273,0-14.273,0S104.638,165.193,107.137,168.359
		z"/>
	<path fill="#EAC08A" stroke="#63361A" stroke-miterlimit="10" d="M134.185,137.998c1.62,2.986,8.287,9.85,9.423,10.466
		c0.308,0.167,0.868-0.069,1.316-0.245c0.675-0.263,1.223-0.326,2.086-0.388c1.921-0.138,3.712,0.862,3.504,1.694
		c-0.19,0.76-1.203,0.014-1.323,0.211c-0.12,0.199,2.082,1.199,2.104,4.33c0.015,1.875-1.982,4.367-5.095,3.752
		c-4.356-0.859-3.076-3.327-7.064-6.555c-3.989-3.229-8.935-2.117-19.94-13.261c-2.581-2.612-2.47-10.372,2.497-12.399
		C126.659,123.577,133.465,136.673,134.185,137.998z"/>
</g>
<g>
	<path fill="#4B2C13" d="M106.683,67.624c0-0.621,0.504-1.125,1.125-1.125h18.25c0.621,0,1.125,0.504,1.125,1.125l0,0
		c0,0.621-0.504,1.125-1.125,1.125h-18.25C107.187,68.749,106.683,68.245,106.683,67.624L106.683,67.624z"/>
	<path fill="#4B2C13" d="M106.683,69.874c0-0.621,0.504-1.125,1.125-1.125h18.25c0.621,0,1.125,0.504,1.125,1.125l0,0
		c0,0.621-0.504,1.125-1.125,1.125h-18.25C107.187,70.999,106.683,70.495,106.683,69.874L106.683,69.874z"/>
	<path fill="#4B2C13" d="M106.683,72.124c0-0.621,0.504-1.125,1.125-1.125h18.25c0.621,0,1.125,0.504,1.125,1.125l0,0
		c0,0.621-0.504,1.125-1.125,1.125h-18.25C107.187,73.249,106.683,72.745,106.683,72.124L106.683,72.124z"/>
</g>
<g>
	<path fill="#4B2C13" d="M149.877,67.624c0-0.621,0.503-1.125,1.125-1.125h18.25c0.621,0,1.125,0.504,1.125,1.125l0,0
		c0,0.621-0.504,1.125-1.125,1.125h-18.25C150.381,68.749,149.877,68.245,149.877,67.624L149.877,67.624z"/>
	<path fill="#4B2C13" d="M149.877,69.874c0-0.621,0.503-1.125,1.125-1.125h18.25c0.621,0,1.125,0.504,1.125,1.125l0,0
		c0,0.621-0.504,1.125-1.125,1.125h-18.25C150.381,70.999,149.877,70.495,149.877,69.874L149.877,69.874z"/>
	<path fill="#4B2C13" d="M149.877,72.124c0-0.621,0.503-1.125,1.125-1.125h18.25c0.621,0,1.125,0.504,1.125,1.125l0,0
		c0,0.621-0.504,1.125-1.125,1.125h-18.25C150.381,73.249,149.877,72.745,149.877,72.124L149.877,72.124z"/>
</g>
</svg>
