<?xml version="1.0" encoding="utf-8"?>
<!-- Generator: Adobe Illustrator 16.0.0, SVG Export Plug-In . SVG Version: 6.00 Build 0)  -->
<!DOCTYPE svg PUBLIC "-//W3C//DTD SVG 1.1//EN" "http://www.w3.org/Graphics/SVG/1.1/DTD/svg11.dtd">
<svg version="1.1" id="图层_1" xmlns="http://www.w3.org/2000/svg" xmlns:xlink="http://www.w3.org/1999/xlink" x="0px" y="0px"
	 width="220px" height="230px" viewBox="0 0 220 230" enable-background="new 0 0 220 230" xml:space="preserve">
<ellipse fill="#C7C6C6" cx="116.438" cy="206.538" rx="10.54" ry="3.095"/>
<path fill="#EAC08A" stroke="#63361A" stroke-miterlimit="10" d="M171.723,139.994c1.981,2.759,9.455,8.734,10.659,9.204
	c0.326,0.127,0.851-0.179,1.275-0.408c0.636-0.347,1.172-0.476,2.02-0.646c1.888-0.379,3.79,0.39,3.688,1.242
	c-0.094,0.777-1.191,0.163-1.286,0.375c-0.094,0.213,2.216,0.928,2.631,4.033c0.249,1.859-1.42,4.58-4.585,4.36
	c-4.431-0.308-3.469-2.916-7.83-5.62c-4.362-2.703-9.129-0.983-21.443-10.66c-2.888-2.27-3.749-9.98,0.926-12.614
	C162.451,126.628,170.842,138.77,171.723,139.994z"/>
<path fill="#C99F72" stroke="#613619" stroke-miterlimit="10" d="M116.958,174.361c1.372,1.738-1.696,9.398-4.876,12.223
	c-3.18,2.823-5.29,11.025-4.445,12.27c0.846,1.242,17.738,7.758,18.901,7.357c1.164-0.4,0.693-3.021-1.591-5.361
	c-2.286-2.34-7.256-1.303-8.694-1.822c-1.437-0.521-4.128-1.5-4.351-2.603c-0.225-1.102,2.84-5.725,8.044-6.592
	c5.205-0.867,12.317-5.551,14.571-8.615c2.254-3.063,5.899-8.213-1.552-13.168c-7.452-4.955-14.272,0-14.272,0
	S114.458,171.193,116.958,174.361z"/>
<ellipse fill="#C7C6C6" cx="180.555" cy="204.159" rx="10.54" ry="3.095"/>
<path fill="#EAC08A" stroke="#613619" stroke-miterlimit="10" d="M112.09,166.499c-1.166-3.498-10.4,0.181-10.4,0.181
	c-34.315,15.715-59.815,4.098-68.065-10.902c-8.106-14.737-1.5-47.361,2.5-64.262s-6.935-43.836-8.935-49.224
	s-3.565-19.529,8.435-14.263c12,5.266,52.285,8.002,65.065,37.804c19.49,45.446,2.436,81.195,4.226,85.695
	c1.361,3.422,8.911-0.735,8.911-0.735"/>
<path fill="#FFFFFF" d="M45.873,144.527c-5.5-13.135,3.241-41.943,4.575-54.303s0.925-25.195-3.499-33.965
	c-3.645-7.223-13.18-14.763-4.992-13.897c8.667,0.916,33.917,6.916,42.917,26.039c6.329,13.447-1.472,46.325,0,62.992
	c1.474,16.666,15.417,24.969,15.417,24.969C60.958,170.361,48.701,151.277,45.873,144.527z"/>
<path fill="#E3BB88" stroke="#613619" stroke-miterlimit="10" d="M122.521,120.152l-2.341,2.004c0,0-0.122,7.343-6.667,28.371
	c-4.596,14.769-1.877,23.5,5.692,29.972c6.869,5.873,27.67,7.04,38.799,4.546c15.697-3.518,25.243-18.018,21.62-31.887
	c-5.566-21.307-9.452-30.77-9.452-30.77L122.521,120.152z"/>
<path fill="#FFFFFF" d="M176.54,143.527c-3.817-14.221-7.636-23.375-7.636-23.375l-15.446,2.836c0,0-3.834,3.039,0,7.972
	s2.698,26.415,3.927,37.567c1.23,11.154,18.396,3.875,18.396,3.875C182.114,161.568,179.845,155.838,176.54,143.527z"/>
<path fill="#187FC4" d="M148.425,98.278h-8.736l-23.251,22.348c0,0,24.27,4.187,34.687,8.767c7.365,3.237,20,11,20,11
	s-1.04-3.869-0.592-8.865c0.136-5.442-0.359-9.139-0.359-9.139L148.425,98.278z"/>
<path fill="#EAC08A" stroke="#63361A" stroke-miterlimit="10" d="M80.854,91.537c0.683,1.978,4.396,1.385,4.979,2.592
	c0.765,1.583-3.409,0.921-2.319,3.649c6.674,16.686,31.146,25.473,52.334,24.473c3.322-0.155,4.419,2.46,8.386,3.66
	c2.097,0.595,6.944,0.748,10.423-0.207c3.162-1.033,3.664-3.61,6.985-3.453c21.188,1,33.658-9.786,40.333-26.473
	c1.092-2.728-3.083-2.066-2.318-3.649c0.583-1.208,4.297-0.614,4.979-2.592c0.729-2.112-3.24-1.739-3.342-2.66
	c-0.146-1.316,4.092-1.705,2.046-4.57c-3.779-5.29-8.025-6.556-15.539-10.99c-2.607-9.526-4.882-16.092-7.056-20.759
	c-3.34-7.168-4.896-11.734-8.024-17.727c-3.483-6.673-10.228-11.407-12.259-9.521c-1.406,1.305-0.534,1.673-2.829,11.239
	c-0.444,1.847-4.242-1.282-13.852-0.888c-9.738-0.166-13.481,2.735-13.925,0.888c-2.296-9.566-2.423-9.934-3.828-11.239
	c-2.031-1.886-7.775,2.848-11.26,9.521c-3.129,5.993-4.684,10.559-8.023,17.727c-2.174,4.666-4.447,11.233-7.057,20.759
	c-7.514,4.434-13.76,7.701-17.539,12.99c-2.045,2.865,2.193,3.254,2.047,4.57C84.092,89.798,80.125,89.425,80.854,91.537z"/>
<path fill="#613619" d="M160.796,35.651c3.116,0.671,5.707,1.619,8.014,2.853c-0.672-2.094-1.138-3.569-1.771-4.785
	c-0.964-1.85-1.52-2.435-2.237-3.52s-1.758-1.744-2.139-1.768c-0.381-0.023-0.646,0.385-1.018,2.062
	C161.374,31.722,161.184,32.276,160.796,35.651z"/>
<path fill="#613619" d="M126.528,35.651c-3.116,0.671-5.707,1.619-8.015,2.853c0.672-2.094,1.139-3.569,1.771-4.785
	c0.964-1.85,1.519-2.435,2.236-3.52c0.719-1.085,1.759-1.744,2.14-1.768c0.381-0.023,0.646,0.385,1.017,2.062
	C125.95,31.722,126.14,32.276,126.528,35.651z"/>
<g>
	<path fill="#FFFFFF" d="M90.157,95.06c0.862,14.033,20.929,27.756,46.407,27.206c2.994-0.064,3.726,2.094,6.932,3.094
		c4.174,1.029,7.058,0.746,10.846-0.051c2.875-0.972,4.532-3.535,5.883-3.449c20.982,1.334,34.475-12.766,35.337-26.798
		c0.473-7.667-0.908-12.367-6.785-15.789c-3.69-2.148-4.396-1.656-4.633-1.649c-6.36-28.94-15.617-29.283-19.342-29.556
		c-3.789-0.278-6.716,1.158-9.217,7.461c-0.929,2.34-2.237,12.407-2.586,15.75c-0.248,2.377-0.422,6.723-4.375,7.455
		c-2.044-0.333-2.817-0.581-4.5-5.274c-2.276-6.348-6.04-14.154-6.867-16.532c-2.489-7.153-7.898-9.608-13.219-9.608
		c-5.522,0-13.647,4.427-20.461,30.304c-0.235-0.007-2.942-0.499-6.632,1.649C91.068,82.693,89.688,87.394,90.157,95.06z"/>
</g>
<ellipse fill="#EE869A" cx="183.248" cy="93.101" rx="8.599" ry="2.877"/>
<ellipse fill="#EE869A" cx="113.826" cy="94.392" rx="8.599" ry="2.877"/>
<path fill="none" stroke="#63361A" stroke-width="2" stroke-linecap="round" stroke-linejoin="round" stroke-miterlimit="10" d="
	M149.879,98.511c-0.535-1.512,0.132-5.411,0.132-5.411"/>
<g>
	<path fill="#613619" d="M155.07,82.623c0.583,0.354,0.916,0.668,1.163,0.937c0.246,0.269,0.408,0.492,0.664,0.842
		c0.258,0.35,0.609,0.828,0.447,1.752c-0.162,0.924-0.837,2.294-2.261,3.933c-1.424,1.64-3.597,3.548-5.192,3.573
		c-1.595,0.025-3.827-1.814-5.302-3.408c-1.475-1.594-2.193-2.942-2.383-3.86c-0.191-0.918,0.146-1.407,0.391-1.765
		s0.399-0.586,0.639-0.862c0.238-0.276,0.562-0.601,1.133-0.973c0.57-0.372,1.391-0.793,5.338-0.886
		C153.655,81.875,154.488,82.27,155.07,82.623z"/>
	<path fill="#FFFFFF" d="M155.325,85.25c-0.137,0.131-0.354,0.108-0.459-0.049c-0.101-0.15-0.24-0.331-0.413-0.499
		c-0.265-0.257-0.526-0.428-0.705-0.528c-0.129-0.073-0.184-0.227-0.132-0.366l0.029-0.083c0.051-0.137,0.189-0.22,0.332-0.195
		c0.257,0.044,0.68,0.163,1.139,0.486c0.256,0.181,0.436,0.402,0.545,0.564c0.082,0.122,0.063,0.285-0.042,0.387L155.325,85.25z"/>
</g>
<g>
	<g>
		<g>
			<path fill="#FFFFFF" d="M165.135,129.977c-0.452-0.619-0.905-1.236-1.356-1.854c-0.135,2.021-0.269,4.04-0.402,6.06
				c-2.065-0.359-3.645-2.037-3.879-4.121c-0.234-2.082,0.932-4.069,2.865-4.881c1.933-0.81,4.168-0.25,5.489,1.377
				c1.322,1.627,1.413,3.93,0.224,5.655c0.243,0.522-0.378,1.021-0.835,0.669c-0.457-0.351-0.137-1.079,0.431-0.979
				c2.242-3.297-0.925-7.573-4.732-6.392c-3.807,1.183-3.993,6.501-0.278,7.947c0.165-2.492,0.331-4.983,0.496-7.476
				c1.079,1.475,2.157,2.949,3.237,4.424c-0.44,0.129-0.882,0.257-1.322,0.385c0.618,0.845,1.236,1.689,1.855,2.535
				c-1.1-0.971-2.201-1.939-3.301-2.909C164.129,130.271,164.632,130.125,165.135,129.977z"/>
		</g>
	</g>
</g>
<path fill="#DEB686" stroke="#613619" stroke-miterlimit="10" d="M156.839,182.458c2.211-0.125,6.72,6.788,7.204,11.013
	s5.986,10.665,7.489,10.688c1.503,0.021,16.54-10.063,16.881-11.244c0.342-1.182-2.074-2.303-5.302-1.777
	c-3.229,0.527-5.235,5.191-6.487,6.069s-3.599,2.519-4.63,2.067s-3.055-5.614-0.775-10.373c2.279-4.758,2.532-13.271,1.319-16.875
	c-1.213-3.605-3.334-9.547-11.67-6.295s-8.199,11.683-8.199,11.683S152.81,182.686,156.839,182.458z"/>
<path fill="#EAC08A" stroke="#63361A" stroke-miterlimit="10" d="M134.245,149.191c-2.432,2.373-7.216,10.66-7.498,11.922
	c-0.077,0.342,0.304,0.816,0.595,1.199c0.438,0.576,0.648,1.088,0.943,1.9c0.657,1.809,0.184,3.807-0.675,3.833
	c-0.782,0.025-0.341-1.153-0.564-1.215c-0.223-0.062-0.584,2.33-3.591,3.207c-1.8,0.524-4.742-0.716-5-3.878
	c-0.361-4.426,2.363-3.867,4.38-8.585s-0.401-9.173,7.316-22.802c1.809-3.195,9.304-5.205,12.609-0.98
	C146.065,138.018,135.324,148.139,134.245,149.191z"/>
<g>
	<path fill="none" stroke="#613619" stroke-miterlimit="10" d="M143.363,100.057c0.634,2.308,0.678,3.769,1.312,6.077
		c3.074-0.048,6.577-0.384,9.651-0.432c0.562-2.327,0.851-3.185,1.413-5.512c0,0-3.891-2.203-5.937-2.173
		c-0.063,1.638-0.127,4.277-0.19,5.915c-0.115-1.636-0.23-4.271-0.346-5.907C147.221,98.059,143.364,100.056,143.363,100.057z"/>
	<path fill="none" stroke="#63361A" stroke-width="2" stroke-linecap="round" stroke-linejoin="round" stroke-miterlimit="10" d="
		M138.392,101.081c0,0,10.576-3.291,11.765-3.551l10.794,4.384"/>
</g>
<g>
	<path fill="none" stroke="#63361A" stroke-width="2" stroke-linecap="round" stroke-linejoin="round" stroke-miterlimit="10" d="
		M158.847,78.416c0-1.303,2.11-4.091,7.109-4.648h6.167c5.625,0,9.542,3.485,9.542,4.648l0,0c0,1.485-2.879,5.31-10.173,4.935
		h-5.473C161.936,83.351,158.847,79.901,158.847,78.416L158.847,78.416z"/>
	
		<polyline fill="none" stroke="#63361A" stroke-width="2" stroke-linecap="round" stroke-linejoin="round" stroke-miterlimit="10" points="
		173.898,61.469 167.516,66.192 164.641,63.285 	"/>
	<path fill="#63361A" d="M164.641,76.905c0-2.219,2.487-3.138,5.555-3.138l0,0c3.067,0,5.554,0.919,5.554,3.138v2.986
		c0,2.881-2.487,3.459-5.554,3.459l0,0c-3.905,0-5.555-0.679-5.555-3.459V76.905z"/>
</g>
<g>
	<path fill="none" stroke="#63361A" stroke-width="2" stroke-linecap="round" stroke-linejoin="round" stroke-miterlimit="10" d="
		M140.322,78.416c0-1.303-2.11-4.091-7.109-4.648h-6.167c-5.625,0-9.542,3.485-9.542,4.648l0,0c0,1.485,2.879,5.31,10.173,4.935
		h5.472C137.233,83.351,140.322,79.901,140.322,78.416L140.322,78.416z"/>
	
		<polyline fill="none" stroke="#63361A" stroke-width="2" stroke-linecap="round" stroke-linejoin="round" stroke-miterlimit="10" points="
		125.269,61.469 131.653,66.192 134.527,63.285 	"/>
	<path fill="#63361A" d="M134.527,76.905c0-2.219-2.487-3.138-5.555-3.138l0,0c-3.067,0-5.554,0.919-5.554,3.138v2.986
		c0,2.881,2.487,3.459,5.554,3.459l0,0c3.905,0,5.555-0.679,5.555-3.459V76.905z"/>
</g>
</svg>
