<?xml version="1.0" encoding="utf-8"?>
<!-- Generator: Adobe Illustrator 16.0.0, SVG Export Plug-In . SVG Version: 6.00 Build 0)  -->
<!DOCTYPE svg PUBLIC "-//W3C//DTD SVG 1.1//EN" "http://www.w3.org/Graphics/SVG/1.1/DTD/svg11.dtd">
<svg version="1.1" id="图层_1" xmlns="http://www.w3.org/2000/svg" xmlns:xlink="http://www.w3.org/1999/xlink" x="0px" y="0px"
	 width="200px" height="210px" viewBox="0 0 200 210" enable-background="new 0 0 200 210" xml:space="preserve">
<g>
	<ellipse fill="#C7C6C6" cx="133.124" cy="196.21" rx="10.54" ry="3.095"/>
	<path fill="#C99F72" stroke="#613619" stroke-miterlimit="10" d="M122.221,168.648c1.926,1.095,1.961,9.348,0.076,13.16
		c-1.885,3.811-0.758,12.205,0.493,13.039s19.353,0.522,20.281-0.285c0.928-0.809-0.493-3.061-3.49-4.371
		c-2.998-1.31-7.214,1.521-8.742,1.578c-1.528,0.059-4.39,0.162-5.011-0.775s0.479-6.373,4.977-9.133s9.328-9.774,10.266-13.461
		c0.937-3.686,2.379-9.827-6.389-11.618c-8.767-1.791-13.226,5.364-13.226,5.364S118.714,166.652,122.221,168.648z"/>
	<ellipse fill="#C7C6C6" cx="112.436" cy="196.21" rx="10.54" ry="3.095"/>
	<path fill="#EAC08A" stroke="#613619" stroke-miterlimit="10" d="M89.629,156.115c-1.166-3.498-10.4,1.18-10.4,1.18
		c-34.316,15.715-59.816,3.1-68.066-11.9c-8.105-14.738,1.503-47.012,3.5-64.264c2.605-22.502-4.934-45.836-6.934-51.224
		c-2-5.388-3.566-19.529,8.434-14.263s49.285,10.002,62.066,39.804c19.49,45.446,2.435,81.196,4.225,85.696
		c1.361,3.42,8.911-0.736,8.911-0.736"/>
	<path fill="#FFFFFF" d="M23.412,134.145c-5.5-13.136,3.242-41.944,4.575-54.305c1.334-12.36,2.925-29.195-1.499-37.965
		c-3.644-7.223-13.179-14.763-4.992-13.897c8.667,0.916,31.917,10.916,40.917,30.039c6.329,13.447-1.473,46.326,0,62.992
		s16.417,24.968,16.417,24.968C39.497,159.977,26.24,140.895,23.412,134.145z"/>
	<path fill="#E3BB88" stroke="#613619" stroke-miterlimit="10" d="M100.06,109.77l-2.341,2.002c0,0,2.555,10.176-6.667,28.373
		c-8.286,16.351-1.877,23.5,5.692,29.971c6.869,5.873,27.67,7.04,38.799,4.546c15.697-3.519,26.01-19.462,22.387-33.332
		c-5.564-21.308-10.218-29.325-10.218-29.325L100.06,109.77z"/>
	<path fill="#FFFFFF" d="M154.996,132.807c-4.829-15.522-8.553-23.037-8.553-23.037l-15.446,2.834c0,0-3.834,3.039,0,7.973
		c3.834,4.933,2.697,26.415,3.927,37.568c1.23,11.152,18.396,3.875,18.396,3.875C159.653,151.186,158.958,145.538,154.996,132.807z"
		/>
	<path fill="#187FC4" d="M125.963,87.894h-8.735l-23.25,22.348c0,0,24.269,4.188,34.686,8.766c7.365,3.238,18.25,11,18.25,11
		s0.71-3.867,1.158-8.863c0.136-5.443-0.359-9.141-0.359-9.141L125.963,87.894z"/>
	<path fill="#EAC08A" stroke="#63361A" stroke-miterlimit="10" d="M58.394,82.154c0.682,1.978,4.396,1.385,4.979,2.592
		c0.764,1.583-3.41,0.921-2.318,3.649c6.674,16.686,31.145,24.473,52.333,23.473c3.322-0.156,4.419,2.46,8.386,3.659
		c2.097,0.596,6.944,0.748,10.423-0.206c3.162-1.033,3.664-3.61,6.985-3.453c21.188,1,33.658-8.787,40.333-25.473
		c1.092-2.728-3.083-2.066-2.318-3.649c0.583-1.208,4.297-0.614,4.979-2.592c0.729-2.112-3.24-1.739-3.342-2.66
		c-0.146-1.316,4.092-1.705,2.046-4.57c-3.779-5.289-8.024-7.556-15.539-11.99c-2.495-9.11-3.465-15.199-6.056-20.759
		c-3.34-7.168-5.896-11.734-9.024-17.727c-3.483-6.673-10.228-11.407-12.259-9.521c-1.406,1.305-0.534,1.673-2.829,11.239
		c-0.444,1.847-4.242-1.282-13.852-0.888c-9.738-0.166-13.481,2.735-13.924,0.888c-2.297-9.566-1.424-9.934-2.829-11.239
		c-2.031-1.886-8.775,2.848-12.259,9.521c-3.129,5.993-4.684,10.559-8.024,17.727c-2.174,4.666-4.446,11.233-7.056,20.759
		c-7.514,4.434-13.762,8.701-17.539,13.99c-2.047,2.865,2.191,3.254,2.046,4.57C61.632,80.414,57.663,80.042,58.394,82.154z"/>
	<path fill="#613619" d="M138.335,25.267c3.116,0.671,5.707,1.619,8.014,2.853c-0.672-2.094-1.138-3.569-1.771-4.785
		c-0.964-1.85-1.52-2.435-2.237-3.52s-1.758-1.744-2.139-1.768c-0.381-0.023-0.646,0.385-1.018,2.062
		C138.913,21.338,138.723,21.892,138.335,25.267z"/>
	<path fill="#613619" d="M104.067,25.267c-3.116,0.671-5.707,1.619-8.014,2.853c0.672-2.094,1.138-3.569,1.771-4.785
		c0.964-1.85,1.519-2.435,2.237-3.52c0.718-1.085,1.758-1.744,2.139-1.768c0.381-0.023,0.646,0.385,1.017,2.062
		C103.489,21.338,103.679,21.892,104.067,25.267z"/>
	<g>
		<path fill="#FFFFFF" d="M67.696,84.676c0.863,14.033,20.929,27.756,46.408,27.205c2.993-0.064,3.725,2.096,6.931,3.096
			c4.174,1.027,7.058,0.744,10.846-0.053c2.875-0.971,4.532-3.533,5.883-3.447c20.982,1.334,34.475-12.767,35.337-26.8
			c0.473-7.667-0.908-12.367-6.785-15.789c-3.69-2.148-4.396-1.656-4.633-1.649c-6.36-28.94-15.617-29.283-19.342-29.556
			c-3.789-0.278-6.716,1.158-9.217,7.461c-0.929,2.34-2.237,12.407-2.586,15.75c-0.248,2.377-0.422,6.723-4.375,7.455
			c-2.044-0.333-2.817-0.581-4.5-5.274c-2.276-6.348-6.04-14.154-6.867-16.532c-2.489-7.153-7.898-9.608-13.219-9.608
			c-5.523,0-13.646,4.427-20.461,30.304c-0.236-0.007-2.941-0.499-6.632,1.649C68.607,72.309,67.226,77.01,67.696,84.676z"/>
	</g>
	<ellipse fill="#EE869A" cx="160.787" cy="82.717" rx="8.599" ry="2.877"/>
	<ellipse fill="#EE869A" cx="91.365" cy="84.008" rx="8.599" ry="2.877"/>
	<path fill="none" stroke="#63361A" stroke-width="2" stroke-linecap="round" stroke-linejoin="round" stroke-miterlimit="10" d="
		M127.418,88.127c-0.535-1.512,0.132-5.411,0.132-5.411"/>
	<g>
		<path fill="#613619" d="M132.609,72.239c0.583,0.354,0.916,0.668,1.163,0.937c0.246,0.269,0.408,0.492,0.665,0.842
			s0.608,0.828,0.446,1.752s-0.837,2.294-2.261,3.933c-1.424,1.64-3.597,3.548-5.192,3.573c-1.595,0.025-3.826-1.814-5.302-3.408
			c-1.475-1.594-2.193-2.942-2.383-3.86c-0.191-0.918,0.146-1.407,0.391-1.765c0.245-0.358,0.399-0.586,0.639-0.862
			c0.238-0.276,0.562-0.601,1.133-0.973s1.391-0.793,5.338-0.886C131.194,71.492,132.027,71.886,132.609,72.239z"/>
		<path fill="#FFFFFF" d="M132.864,74.866c-0.137,0.131-0.354,0.108-0.459-0.049c-0.101-0.15-0.24-0.331-0.413-0.499
			c-0.265-0.257-0.526-0.428-0.705-0.528c-0.129-0.073-0.183-0.227-0.132-0.366l0.029-0.083c0.051-0.137,0.189-0.22,0.332-0.195
			c0.257,0.044,0.68,0.163,1.139,0.486c0.256,0.181,0.436,0.402,0.545,0.564c0.082,0.122,0.063,0.285-0.042,0.387L132.864,74.866z"
			/>
	</g>
	<path fill="none" stroke="#613619" stroke-miterlimit="10" d="M120.747,90.419c0.634,2.308,1.036,3.769,1.67,6.077
		c3.074-0.049,6.149-0.097,9.223-0.145c0.563-2.327,0.921-3.472,1.483-5.799c-2.046-0.024-3.89-1.203-5.936-1.173
		c-0.063,1.638-0.128,3.277-0.191,4.915c-0.115-1.636-0.23-3.271-0.345-4.907C124.605,89.421,122.793,90.33,120.747,90.419z"/>
	<path fill="none" stroke="#63361A" stroke-width="2" stroke-linecap="round" stroke-linejoin="round" stroke-miterlimit="10" d="
		M110.118,88.535c8.194,4.504,16.233-0.383,17.422-0.643c7.801,6.359,12.761-0.2,12.761-0.2"/>
	<g>
		<g>
			<g>
				<path fill="#FFFFFF" d="M142.674,119.593c-0.452-0.618-0.905-1.235-1.356-1.854c-0.135,2.02-0.269,4.04-0.402,6.06
					c-2.065-0.359-3.644-2.038-3.879-4.121c-0.234-2.082,0.932-4.07,2.865-4.881c1.933-0.811,4.168-0.25,5.489,1.377
					c1.322,1.626,1.413,3.93,0.224,5.655c0.243,0.522-0.378,1.021-0.835,0.669s-0.137-1.079,0.431-0.979
					c2.242-3.297-0.925-7.574-4.732-6.392c-3.807,1.183-3.993,6.501-0.278,7.947c0.165-2.492,0.331-4.984,0.496-7.476
					c1.079,1.475,2.157,2.948,3.237,4.424c-0.44,0.127-0.882,0.256-1.322,0.384c0.619,0.845,1.236,1.69,1.855,2.534
					c-1.1-0.969-2.201-1.938-3.301-2.908C141.668,119.887,142.171,119.741,142.674,119.593z"/>
			</g>
		</g>
	</g>
	<path fill="#DEB686" stroke="#613619" stroke-miterlimit="10" d="M102.763,168.646c1.926,1.095,1.961,9.348,0.076,13.16
		c-1.885,3.811-0.757,12.205,0.493,13.039c1.251,0.834,19.353,0.522,20.281-0.285c0.928-0.809-0.493-3.061-3.49-4.371
		c-2.998-1.31-7.214,1.521-8.742,1.578c-1.528,0.059-4.39,0.162-5.011-0.775s0.479-6.373,4.977-9.133s9.328-9.774,10.266-13.461
		c0.937-3.686,2.379-9.828-6.389-11.618c-8.767-1.791-13.226,5.364-13.226,5.364S99.256,166.65,102.763,168.646z"/>
	<path fill="#EAC08A" stroke="#63361A" stroke-miterlimit="10" d="M118.784,137.605c1.264,3.153,7.094,10.742,8.15,11.484
		c0.286,0.201,0.87,0.03,1.337-0.092c0.699-0.184,1.252-0.184,2.115-0.145c1.923,0.084,3.587,1.283,3.284,2.088
		c-0.277,0.731-1.197-0.127-1.339,0.057s1.93,1.43,1.591,4.544c-0.203,1.864-2.474,4.106-5.494,3.138
		c-4.228-1.356-2.671-3.66-6.26-7.328c-3.589-3.666-8.629-3.135-18.275-15.474c-2.262-2.894-1.256-10.588,3.912-12.028
		C112.974,122.41,118.222,136.204,118.784,137.605z"/>
</g>
<g>
	<path fill="none" stroke="#4B2C13" stroke-width="2" stroke-miterlimit="10" d="M148.334,57.408
		c9.663-0.006,12.158,5.263,12.158,8.197c0,0,0,5.161-5.232,4.25c0,0-4.683-1.432-7.168-1.29c-2.743,0.157-5.593,0.888-5.593,0.888
		c-4.907,0.51-6.306-2.031-5.969-5.462C136.53,63.991,137.221,57.414,148.334,57.408z"/>
	<path fill="#4B2C13" d="M143.29,58.158c2.848,0,5.157,2.548,5.157,5.691s-2.31,5.691-5.157,5.691s-6.504-0.657-6.504-3.8
		C136.786,62.596,140.442,58.158,143.29,58.158z"/>
</g>
<g>
	<path fill="none" stroke="#4B2C13" stroke-width="2" stroke-miterlimit="10" d="M103.948,57.408
		c10.232-0.006,12.875,5.263,12.875,8.197c0,0,0,5.161-5.541,4.25c0,0-4.959-1.432-7.59-1.29c-2.905,0.157-5.923,0.888-5.923,0.888
		c-5.195,0.51-6.677-2.031-6.32-5.462C91.449,63.991,92.18,57.414,103.948,57.408z"/>
	<path fill="#4B2C13" d="M98.607,58.158c3.016,0,5.461,2.548,5.461,5.691s-2.445,5.691-5.461,5.691c-3.016,0-7.2-1.145-7.2-4.288
		C91.407,62.108,95.591,58.158,98.607,58.158z"/>
</g>
</svg>
