<?xml version="1.0" encoding="utf-8"?>
<!-- Generator: Adobe Illustrator 16.0.0, SVG Export Plug-In . SVG Version: 6.00 Build 0)  -->
<!DOCTYPE svg PUBLIC "-//W3C//DTD SVG 1.1//EN" "http://www.w3.org/Graphics/SVG/1.1/DTD/svg11.dtd">
<svg version="1.1" id="图层_1" xmlns="http://www.w3.org/2000/svg" xmlns:xlink="http://www.w3.org/1999/xlink" x="0px" y="0px"
	 width="200px" height="230px" viewBox="0 0 200 230" enable-background="new 0 0 200 230" xml:space="preserve">
<ellipse fill="#C7C6C6" cx="134.388" cy="215.034" rx="10.54" ry="3.095"/>
<ellipse fill="#C7C6C6" cx="93.523" cy="215.034" rx="10.54" ry="3.095"/>
<g>
	<path fill="#EAC08A" stroke="#613619" stroke-miterlimit="10" d="M131.379,176.574c11.273-18.553,12.206-54.838,10.065-67.932
		c-9.256-56.612-33.614-72.635-59.259-78.026c-22.999-4.835-34.479-6.186-39.665-1.781c-5.187,4.405,9.245,7.92,12.473,22.97
		c3.228,15.051-22.026,48.217-25.202,68.36c-3.925,24.901,10.357,47.534,25.9,59.121c20.007,14.914,39.4,13.371,53.843,17.864
		C109.534,197.15,120.106,195.126,131.379,176.574z"/>
	<path fill="#FFFFFF" d="M124.578,156.02c8.543-14.059,9.256-41.558,7.628-51.48c-5.828-35.521-20.497-51.173-37.827-59.809
		c-8.043-4.01-28.354-8.407-28.354-4.102c0,2.831,4.826,4.356,6.35,14.516c1.731,11.536-22.232,48.255-24.639,63.52
		c-2.975,18.871,4.572,31.48,19.484,43.475c14.736,11.854,29.861,10.133,40.806,13.539
		C108.026,175.678,116.035,170.079,124.578,156.02z"/>
</g>
<path fill="#EAC08A" stroke="#63361A" stroke-miterlimit="10" d="M77.584,173.719c2.819,0.092,3.793-1.531,3.953-1.408
	c0.16,0.125-0.143,0.453,0.049,0.613c0.19,0.16,0.662,0.064,1-0.205c0.338-0.268,0.691-0.826,0.813-2.113
	c0.07-0.752,0.079-1.045-0.085-1.654c-0.108-0.406-0.312-1.104-0.138-1.354c0.644-0.926,3.16-2.736,9.973-7.16
	c-10.717,24.905-10.38,26.873-10.448,28.242c-0.122,2.454,0.622,4.824,1.773,6.684c2.659,4.296,9.333,8.508,9.844,9.092
	c0.778,0.89,3.937,2.98,1.614,3.32c-2.322,0.342-4.743-0.817-7.188-0.899c-1.611-0.054-2.679,0.574-3.191,1.344
	c-0.514,0.771-1.283,2.066-1.647,2.78c-0.362,0.714-0.321,0.845-0.212,1.104c0.109,0.261,0.285,0.648,5.288,0.842
	c5.003,0.195,5.011,0.195,10.073,0.15c5.061-0.045,5.443-0.647,5.814-1.818c0.316-0.997-0.183-2.416-0.96-6.394l0.005-0.003
	c7.045,1.383,14.092,1.449,21.139,0.205c-0.752,3.814-1.229,5.213-0.919,6.191c0.37,1.171,0.753,1.773,5.815,1.818
	c5.062,0.045,5.07,0.045,10.073-0.15c5.003-0.193,5.179-0.581,5.288-0.842c0.109-0.259,0.151-0.39-0.212-1.104
	c-0.364-0.714-1.135-2.01-1.647-2.78c-0.513-0.77-1.581-1.397-3.192-1.344c-2.443,0.082-4.864,1.241-7.187,0.899
	c-2.322-0.34,0.836-2.431,1.614-3.32c0.511-0.584,7.184-4.795,9.844-9.092c1.149-1.859,1.895-4.229,1.772-6.684
	c-0.066-1.367,0.271-3.337-10.447-28.242c6.813,4.424,9.33,6.234,9.972,7.16c0.174,0.25-0.028,0.947-0.137,1.354
	c-0.163,0.609-0.155,0.902-0.085,1.654c0.121,1.287,0.474,1.845,0.813,2.113c0.338,0.27,0.81,0.365,1,0.205
	c0.191-0.16-0.112-0.49,0.048-0.613c0.161-0.123,1.136,1.5,3.954,1.408c1.119-0.035,3.592-2.137,2.761-4.773
	c-1.162-3.692-3.178-2.346-6.357-5.491c-3.179-3.146-2.128-4.39-15.488-17.72c-0.424-0.422-0.856-0.854-1.285-1.284l-14.896-0.851
	v-0.188l-1.651,0.094l-1.649-0.094v0.188l-14.896,0.851c-0.429,0.431-0.861,0.862-1.285,1.284
	c-13.359,13.33-12.309,14.574-15.487,17.72c-3.181,3.146-5.195,1.799-6.358,5.491C73.996,171.582,76.469,173.684,77.584,173.719z"/>
<path fill="#FFFFFF" d="M100.359,157.895c0-7.734,6.27-14.004,14.005-14.004l0,0c7.735,0,14.005,6.27,14.005,14.004l4.365,24.313
	c1.182,7.775-2.092,14.076-18.37,14.005h-2.001c-11.549,0-18.143-5.957-16.369-14.005L100.359,157.895z"/>
<polygon fill="#187FC4" points="119.425,122.771 110.69,122.771 92.448,144.285 114.781,167.47 136.007,144.467 "/>
<path fill="#EAC08A" stroke="#63361A" stroke-miterlimit="10" d="M51.855,117.032c0.682,1.978,4.396,1.385,4.979,2.592
	c0.764,1.583-3.41,0.921-2.318,3.649c6.675,16.686,26.145,24.473,47.334,23.473c3.322-0.157,4.591,2.551,8.557,3.751
	c2.096,0.595,5.335,0.774,8.813-0.181c3.161-1.033,5.102-3.728,8.424-3.57c21.188,1,40.658-6.787,47.334-23.473
	c1.091-2.729-3.083-2.066-2.319-3.649c0.583-1.208,4.297-0.614,4.979-2.592c0.729-2.112-3.239-1.739-3.342-2.66
	c-0.146-1.316,4.092-1.705,2.046-4.57c-3.777-5.289-10.024-9.556-17.539-13.99c-2.607-9.526-4.882-16.092-7.056-20.759
	c-3.34-7.168-4.895-11.734-8.024-17.727c-3.483-6.673-9.228-11.407-11.259-9.521c-1.406,1.305-1.534,1.673-3.829,11.239
	c-0.443,1.847-4.241-1.282-13.852-0.888c-9.738-0.166-13.48,2.735-13.924,0.888c-2.296-9.566-2.423-9.934-3.829-11.239
	c-2.03-1.886-7.774,2.848-11.259,9.521c-3.129,5.993-4.684,10.559-8.023,17.727c-2.175,4.666-4.447,11.233-7.057,20.759
	c-7.514,4.434-13.762,8.701-17.539,13.99c-2.046,2.865,2.191,3.254,2.046,4.57C55.094,115.292,51.125,114.919,51.855,117.032z"/>
<path fill="#613619" d="M131.797,60.145c3.116,0.671,5.707,1.619,8.015,2.853c-0.673-2.094-1.139-3.569-1.771-4.785
	c-0.964-1.85-1.519-2.435-2.237-3.52c-0.718-1.085-1.758-1.744-2.139-1.768c-0.381-0.023-0.646,0.385-1.017,2.062
	C132.375,56.216,132.186,56.77,131.797,60.145z"/>
<path fill="#613619" d="M97.529,60.145c-3.115,0.671-5.707,1.619-8.014,2.853c0.672-2.094,1.138-3.569,1.771-4.785
	c0.964-1.85,1.519-2.435,2.237-3.52c0.718-1.085,1.758-1.744,2.139-1.768c0.381-0.023,0.646,0.385,1.018,2.062
	C96.951,56.216,97.142,56.77,97.529,60.145z"/>
<g>
	<path fill="#FFFFFF" d="M61.158,119.555c0.863,14.032,15.928,27.756,41.407,27.204c2.994-0.065,4.891,2.05,7.765,3.021
		c3.054,1.012,4.828,1.147,8.395-0.101c2.873-0.972,4.474-3.523,7.501-3.326c25.03,1.638,41.474-12.766,42.337-26.799
		c0.472-7.667-0.909-12.367-6.786-15.789c-3.69-2.148-6.396-1.656-6.632-1.649c-6.361-28.94-16.455-29.349-20.18-29.622
		c-3.789-0.278-8.544,0.545-11.045,6.848c-0.928,2.34-5.175,16.249-6.002,18.773c-0.805,2.459-1.013,3.894-3.057,4.227
		c-2.044-0.333-2.252-1.769-3.058-4.227c-0.826-2.525-4.719-14.317-5.546-16.695c-2.488-7.153-5.898-9.608-11.219-9.608
		c-5.522,0-13.646,4.427-20.461,30.304c-0.236-0.007-2.941-0.499-6.632,1.649C62.069,107.187,60.688,111.888,61.158,119.555z"/>
</g>
<ellipse fill="#EE869A" cx="143.787" cy="118.886" rx="8.599" ry="2.878"/>
<ellipse fill="#EE869A" cx="84.515" cy="118.886" rx="8.599" ry="2.878"/>
<path fill="none" stroke="#63361A" stroke-width="2" stroke-linecap="round" stroke-linejoin="round" stroke-miterlimit="10" d="
	M114.576,123.005c-0.535-1.512,0.132-5.411,0.132-5.411"/>
<g>
	<path fill="#613619" d="M120.06,107.434c0.576,0.363,0.904,0.683,1.147,0.955s0.401,0.498,0.652,0.852s0.595,0.838,0.419,1.759
		s-0.872,2.28-2.322,3.897s-3.653,3.492-5.248,3.492c-1.596,0-3.798-1.875-5.248-3.492s-2.146-2.976-2.322-3.897
		c-0.176-0.921,0.168-1.405,0.42-1.759c0.251-0.354,0.408-0.58,0.651-0.852s0.571-0.592,1.148-0.955
		c0.577-0.363,1.402-0.771,5.351-0.802C118.655,106.664,119.482,107.071,120.06,107.434z"/>
	<path fill="#FFFFFF" d="M120.274,110.063c-0.139,0.129-0.356,0.102-0.459-0.056c-0.099-0.151-0.235-0.334-0.405-0.505
		c-0.26-0.261-0.521-0.436-0.697-0.539c-0.128-0.075-0.18-0.23-0.127-0.368l0.032-0.082c0.053-0.135,0.192-0.216,0.335-0.189
		c0.255,0.048,0.676,0.174,1.13,0.504c0.253,0.184,0.429,0.409,0.536,0.572c0.081,0.123,0.06,0.285-0.048,0.386L120.274,110.063z"/>
</g>
<path fill="none" stroke="#613619" stroke-miterlimit="10" d="M108.048,125.424c0.599,2.318,0.978,3.785,1.575,6.104
	c3.075,0,6.149,0,9.224,0c0.6-2.319,0.977-3.459,1.574-5.776c-2.046-0.056-3.87-1.265-5.917-1.267
	c-0.089,1.638-0.179,3.274-0.268,4.912c-0.09-1.638-0.181-3.274-0.27-4.912C111.92,124.488,110.094,125.369,108.048,125.424z"/>
<path fill="none" stroke="#63361A" stroke-width="2" stroke-linecap="round" stroke-linejoin="round" stroke-miterlimit="10" d="
	M102.832,126.407c7.64-2.177,10.552-2.814,11.744-3.056c9.882,3.598,10.872,3.873,10.872,3.873"/>
<g>
	<g>
		<g>
			<path fill="#FFFFFF" d="M115.647,157.215c-0.263-0.72-0.524-1.439-0.786-2.16c-0.692,1.902-1.385,3.805-2.077,5.707
				c-1.882-0.922-2.931-2.975-2.575-5.039c0.356-2.065,2.031-3.649,4.113-3.889c2.082-0.238,4.073,0.923,4.888,2.854
				c0.814,1.932,0.259,4.168-1.365,5.494c0.088,0.568-0.647,0.873-0.988,0.408c-0.34-0.465,0.171-1.074,0.688-0.82
				c3.073-2.539,1.227-7.53-2.76-7.457c-3.985,0.072-5.649,5.129-2.485,7.554c0.855-2.347,1.709-4.694,2.563-7.041
				c0.625,1.717,1.25,3.435,1.875,5.151c-0.46,0-0.919,0-1.378,0c0.357,0.984,0.716,1.969,1.074,2.953
				c-0.786-1.238-1.572-2.478-2.358-3.716C114.6,157.214,115.123,157.214,115.647,157.215z"/>
		</g>
	</g>
</g>
<g>
	<path fill="#4B2C13" d="M124.458,101.178c0-1.04,0.843-1.883,1.883-1.883h19.333c1.04,0,1.884,0.843,1.884,1.883l0,0
		c0,2.047-4.256,1.883-1.884,1.883h-19.333C125.301,103.061,124.458,102.218,124.458,101.178L124.458,101.178z"/>
	<path fill="#5DC4E7" d="M130.582,103.063c0,0-0.166,1.426,0.667,1.926s2.167,3,1.519,5.155c-0.649,2.155,2.314,5.345,4.084,7.045
		c1.769,1.701,0.397,5.134,0.064,7.295c-0.333,2.162,0.409,5.774,2,7.043c2.883,2.296,1.872,5.718,1,7.463
		c-1.5,3,0.643,6.845,0.643,6.845s4.26-0.715,8.038-1.714c3.27-0.864,6.43-2.18,6.417-2.173c-0.025,0.012,0.156-0.923-0.113-2.085
		c-0.551-2.374-3.651-4.04-2.515-6.207c1.138-2.166,1.964-5.65,1.029-9.082c-1.155-4.243-5-5.418-4.995-8.11
		c0.005-2.692-0.339-5.975-0.862-8.146c-0.524-2.171-2.852-5.254-2.852-5.254"/>
</g>
<g>
	<path fill="#4B2C13" d="M105.299,101.178c0-1.04-0.844-1.883-1.883-1.883H84.082c-1.039,0-1.883,0.843-1.883,1.883l0,0
		c0,2.047,4.256,1.883,1.883,1.883h19.334C104.455,103.061,105.299,102.218,105.299,101.178L105.299,101.178z"/>
	<path fill="#5DC4E7" d="M99.174,103.063c0,0,0.166,1.426-0.666,1.926c-0.834,0.5-2.168,3-1.519,5.155s-2.315,5.345-4.084,7.045
		c-1.769,1.701-0.397,5.134-0.065,7.295c0.334,2.162-0.408,5.774-2,7.043c-2.883,2.296-1.871,5.718-1,7.463
		c1.5,3-0.642,6.845-0.642,6.845s-4.26-0.715-8.039-1.714c-3.271-0.864-6.43-2.18-6.418-2.173c0.026,0.012-0.155-0.923,0.114-2.085
		c0.551-2.374,3.65-4.041,2.514-6.207s-1.963-5.65-1.029-9.082c1.156-4.243,5-5.418,4.996-8.11
		c-0.006-2.692,0.338-5.975,0.862-8.146c0.524-2.171,2.851-5.254,2.851-5.254"/>
</g>
</svg>
