<?xml version="1.0" encoding="utf-8"?>
<!-- Generator: Adobe Illustrator 16.0.0, SVG Export Plug-In . SVG Version: 6.00 Build 0)  -->
<!DOCTYPE svg PUBLIC "-//W3C//DTD SVG 1.1//EN" "http://www.w3.org/Graphics/SVG/1.1/DTD/svg11.dtd">
<svg version="1.1" id="图层_1" xmlns="http://www.w3.org/2000/svg" xmlns:xlink="http://www.w3.org/1999/xlink" x="0px" y="0px"
	 width="200px" height="230px" viewBox="0 0 200 230" enable-background="new 0 0 200 230" xml:space="preserve">
<ellipse fill="#C7C6C6" cx="130.731" cy="209.092" rx="10.54" ry="3.096"/>
<ellipse fill="#C7C6C6" cx="89.867" cy="209.092" rx="10.54" ry="3.096"/>
<g>
	<path fill="#EAC08A" stroke="#613619" stroke-miterlimit="10" d="M127.723,170.631c11.273-18.552,12.206-54.837,10.065-67.932
		c-9.257-56.612-33.614-72.635-59.26-78.026c-22.998-4.835-34.478-6.186-39.664-1.781c-5.188,4.405,9.244,7.92,12.473,22.97
		c3.227,15.051-22.027,48.217-25.202,68.36c-3.925,24.902,10.356,47.534,25.899,59.121c20.008,14.914,39.4,13.371,53.844,17.865
		C105.878,191.208,116.449,189.184,127.723,170.631z"/>
	<path fill="#FFFFFF" d="M120.922,150.078c8.543-14.059,9.256-41.558,7.628-51.481c-5.828-35.521-20.497-51.173-37.827-59.809
		c-8.044-4.01-28.354-8.407-28.354-4.102c0,2.831,4.825,4.356,6.35,14.516c1.731,11.536-22.233,48.255-24.639,63.52
		c-2.974,18.871,4.571,31.48,19.485,43.475c14.735,11.853,29.859,10.133,40.805,13.539
		C104.37,169.736,112.379,164.137,120.922,150.078z"/>
</g>
<path fill="#EAC08A" stroke="#63361A" stroke-miterlimit="10" d="M73.927,167.775c2.82,0.092,3.794-1.53,3.954-1.407
	c0.16,0.124-0.144,0.452,0.048,0.612s0.662,0.064,1-0.205c0.34-0.268,0.692-0.825,0.813-2.113c0.072-0.751,0.08-1.044-0.084-1.654
	c-0.109-0.406-0.312-1.103-0.137-1.354c0.643-0.926,3.158-2.735,9.971-7.159c-10.717,24.905-10.379,26.873-10.447,28.241
	c-0.122,2.455,0.622,4.824,1.773,6.684c2.66,4.296,9.332,8.508,9.844,9.092c0.777,0.891,3.936,2.98,1.613,3.321
	c-2.321,0.34-4.742-0.819-7.187-0.901c-1.61-0.054-2.679,0.574-3.192,1.344c-0.513,0.771-1.283,2.066-1.646,2.781
	c-0.363,0.713-0.321,0.844-0.212,1.104c0.108,0.26,0.284,0.648,5.288,0.842c5.003,0.193,5.011,0.193,10.072,0.15
	c5.062-0.045,5.444-0.648,5.815-1.818c0.315-0.998-0.184-2.416-0.96-6.395l0.004-0.002c7.046,1.381,14.093,1.448,21.14,0.205
	c-0.752,3.813-1.229,5.213-0.919,6.191c0.37,1.17,0.753,1.773,5.815,1.818c5.062,0.043,5.069,0.043,10.072-0.15
	c5.004-0.193,5.18-0.582,5.288-0.842c0.11-0.26,0.152-0.391-0.212-1.104c-0.363-0.715-1.134-2.011-1.646-2.781
	c-0.514-0.77-1.581-1.397-3.192-1.344c-2.444,0.084-4.865,1.242-7.187,0.901c-2.322-0.341,0.836-2.431,1.613-3.321
	c0.512-0.584,7.185-4.795,9.845-9.092c1.149-1.859,1.895-4.229,1.772-6.684c-0.066-1.367,0.271-3.336-10.448-28.241
	c6.813,4.424,9.33,6.233,9.973,7.159c0.174,0.25-0.028,0.947-0.138,1.354c-0.162,0.61-0.154,0.903-0.085,1.654
	c0.121,1.287,0.475,1.845,0.813,2.113c0.338,0.27,0.809,0.365,1,0.205s-0.112-0.489,0.048-0.612
	c0.161-0.123,1.135,1.499,3.954,1.407c1.119-0.035,3.592-2.137,2.761-4.773c-1.163-3.691-3.178-2.345-6.357-5.491
	c-3.18-3.146-2.128-4.39-15.488-17.719c-0.424-0.423-0.857-0.854-1.285-1.285l-14.896-0.85v-0.188l-1.651,0.094l-1.65-0.094v0.188
	l-14.896,0.85c-0.429,0.431-0.86,0.862-1.284,1.285c-13.361,13.33-12.31,14.573-15.488,17.719c-3.181,3.146-5.195,1.8-6.358,5.491
	C70.339,165.639,72.812,167.74,73.927,167.775z"/>
<path fill="#FFFFFF" d="M96.703,151.952c0-7.735,6.27-14.005,14.005-14.005l0,0c7.734,0,14.005,6.27,14.005,14.005l4.365,24.312
	c1.182,7.776-2.093,14.076-18.37,14.006h-2.001c-11.55,0-18.142-5.957-16.369-14.006L96.703,151.952z"/>
<polygon fill="#187FC4" points="115.769,116.829 107.033,116.829 88.791,138.343 111.125,161.527 132.351,138.523 "/>
<path fill="#EAC08A" stroke="#63361A" stroke-miterlimit="10" d="M48.198,111.089c0.682,1.978,4.396,1.385,4.979,2.592
	c0.764,1.583-3.41,0.921-2.318,3.649c6.674,16.686,26.145,24.473,47.334,23.473c3.321-0.156,4.59,2.551,8.557,3.752
	c2.096,0.594,5.335,0.773,8.813-0.182c3.161-1.033,5.102-3.727,8.423-3.57c21.189,1,40.659-6.785,47.334-23.473
	c1.091-2.728-3.083-2.066-2.318-3.649c0.583-1.208,4.297-0.614,4.979-2.592c0.729-2.112-3.24-1.739-3.342-2.66
	c-0.146-1.316,4.092-1.705,2.046-4.57c-3.779-5.289-10.025-9.556-17.539-13.99c-2.607-9.526-4.882-16.092-7.056-20.759
	c-3.34-7.168-4.896-11.734-8.024-17.727c-3.483-6.673-9.228-11.407-11.259-9.521c-1.406,1.305-1.534,1.673-3.829,11.239
	c-0.444,1.847-4.242-1.282-13.852-0.888c-9.738-0.166-13.48,2.735-13.924,0.888c-2.297-9.566-2.424-9.934-3.829-11.239
	c-2.031-1.886-7.775,2.848-11.259,9.521c-3.129,5.993-4.685,10.559-8.024,17.727c-2.174,4.666-4.446,11.233-7.056,20.759
	c-7.514,4.434-13.762,8.701-17.539,13.99c-2.047,2.865,2.191,3.254,2.046,4.57C51.437,109.35,47.469,108.977,48.198,111.089z"/>
<path fill="#613619" d="M128.141,54.202c3.116,0.671,5.707,1.619,8.014,2.853c-0.672-2.094-1.138-3.569-1.771-4.785
	c-0.964-1.85-1.52-2.435-2.237-3.52s-1.758-1.744-2.139-1.768c-0.381-0.023-0.646,0.385-1.018,2.062
	C128.719,50.273,128.528,50.827,128.141,54.202z"/>
<path fill="#613619" d="M93.873,54.202c-3.116,0.671-5.707,1.619-8.015,2.853c0.672-2.094,1.139-3.569,1.771-4.785
	c0.964-1.85,1.52-2.435,2.236-3.52c0.719-1.085,1.759-1.744,2.14-1.768c0.381-0.023,0.646,0.385,1.017,2.062
	C93.295,50.273,93.485,50.827,93.873,54.202z"/>
<g>
	<path fill="#FFFFFF" d="M57.503,113.611c0.863,14.034,15.928,27.756,41.406,27.206c2.994-0.065,4.892,2.049,7.766,3.021
		c3.054,1.013,4.828,1.147,8.394-0.101c2.874-0.971,4.475-3.523,7.501-3.325c25.031,1.637,41.475-12.767,42.337-26.799
		c0.473-7.667-0.908-12.367-6.785-15.789c-3.69-2.148-6.396-1.656-6.633-1.649c-6.36-28.94-16.455-29.349-20.179-29.622
		c-3.789-0.278-8.544,0.545-11.045,6.848c-0.929,2.34-5.176,16.248-6.003,18.773c-0.805,2.459-1.013,3.894-3.057,4.227
		c-2.044-0.333-2.252-1.769-3.058-4.227c-0.827-2.525-4.719-14.317-5.546-16.695c-2.489-7.153-5.898-9.608-11.219-9.608
		c-5.522,0-13.647,4.427-20.461,30.304c-0.235-0.007-2.942-0.499-6.632,1.649C58.413,101.245,57.032,105.945,57.503,113.611z"/>
</g>
<ellipse fill="#EE869A" cx="140.13" cy="112.943" rx="8.599" ry="2.877"/>
<ellipse fill="#EE869A" cx="80.859" cy="112.943" rx="8.599" ry="2.877"/>
<path fill="none" stroke="#63361A" stroke-width="2" stroke-linecap="round" stroke-linejoin="round" stroke-miterlimit="10" d="
	M110.92,117.063c-0.535-1.512,0.132-5.411,0.132-5.411"/>
<g>
	<path fill="#613619" d="M116.402,101.492c0.577,0.363,0.905,0.683,1.148,0.955c0.243,0.271,0.4,0.498,0.652,0.852
		c0.251,0.354,0.595,0.838,0.419,1.759c-0.177,0.921-0.872,2.28-2.322,3.897s-3.653,3.491-5.248,3.491
		c-1.596,0-3.798-1.874-5.248-3.491s-2.146-2.976-2.322-3.897s0.168-1.405,0.419-1.759s0.409-0.58,0.652-0.852
		c0.243-0.272,0.571-0.592,1.147-0.955c0.577-0.363,1.403-0.771,5.352-0.802C114.999,100.721,115.825,101.129,116.402,101.492z"/>
	<path fill="#FFFFFF" d="M116.617,104.12c-0.138,0.129-0.355,0.102-0.459-0.056c-0.098-0.151-0.234-0.334-0.404-0.505
		c-0.26-0.261-0.521-0.436-0.697-0.539c-0.128-0.075-0.18-0.23-0.127-0.368l0.032-0.082c0.053-0.135,0.191-0.216,0.335-0.189
		c0.255,0.048,0.676,0.174,1.13,0.504c0.253,0.184,0.429,0.409,0.536,0.572c0.081,0.123,0.06,0.285-0.048,0.386L116.617,104.12z"/>
</g>
<path fill="none" stroke="#613619" stroke-miterlimit="10" d="M104.391,119.482c0.598,2.317,0.977,3.785,1.575,6.103
	c3.075,0,6.148,0,9.224,0c0.6-2.319,0.977-3.458,1.574-5.776c-2.046-0.056-3.87-1.264-5.917-1.266
	c-0.089,1.637-0.179,3.273-0.268,4.911c-0.091-1.638-0.181-3.274-0.27-4.911C108.264,118.545,106.438,119.426,104.391,119.482z"/>
<path fill="none" stroke="#63361A" stroke-width="2" stroke-linecap="round" stroke-linejoin="round" stroke-miterlimit="10" d="
	M95.794,117.432c8.122,4.633,13.934,0.219,15.126-0.023c7.7,6.48,15.065-0.346,15.065-0.346"/>
<g>
	<g>
		<g>
			<path fill="#FFFFFF" d="M111.99,151.273c-0.262-0.721-0.523-1.44-0.785-2.16c-0.692,1.902-1.386,3.805-2.077,5.707
				c-1.882-0.922-2.932-2.975-2.575-5.04c0.355-2.065,2.031-3.649,4.113-3.888c2.082-0.24,4.072,0.922,4.888,2.854
				c0.813,1.931,0.259,4.168-1.365,5.493c0.087,0.569-0.647,0.874-0.989,0.409c-0.34-0.465,0.172-1.074,0.688-0.82
				c3.073-2.54,1.226-7.531-2.76-7.458s-5.649,5.129-2.485,7.554c0.855-2.347,1.709-4.693,2.563-7.041
				c0.625,1.717,1.25,3.436,1.875,5.152c-0.46,0-0.919,0-1.378,0c0.357,0.984,0.716,1.968,1.073,2.951
				c-0.786-1.237-1.571-2.477-2.357-3.715C110.942,151.271,111.467,151.271,111.99,151.273z"/>
		</g>
	</g>
</g>
<circle fill="#63361A" cx="130.284" cy="94.534" r="6.153"/>
<circle fill="#63361A" cx="90.867" cy="94.534" r="6.153"/>
</svg>
