<?xml version="1.0" encoding="utf-8"?>
<!-- Generator: Adobe Illustrator 16.0.0, SVG Export Plug-In . SVG Version: 6.00 Build 0)  -->
<!DOCTYPE svg PUBLIC "-//W3C//DTD SVG 1.1//EN" "http://www.w3.org/Graphics/SVG/1.1/DTD/svg11.dtd">
<svg version="1.1" id="图层_1" xmlns="http://www.w3.org/2000/svg" xmlns:xlink="http://www.w3.org/1999/xlink" x="0px" y="0px"
	 width="220px" height="230px" viewBox="0 0 220 230" enable-background="new 0 0 220 230" xml:space="preserve">
<ellipse fill="#C7C6C6" cx="190.631" cy="217.718" rx="10.54" ry="3.095"/>
<ellipse fill="#C7C6C6" cx="130.183" cy="219.382" rx="10.54" ry="3.095"/>
<path fill="#C99F72" stroke="#613619" stroke-miterlimit="10" d="M169.566,195.611c2.211-0.125,6.72,6.787,7.203,11.013
	c0.484,4.226,5.986,10.665,7.489,10.687c1.503,0.022,16.54-10.062,16.881-11.244c0.343-1.182-2.073-2.303-5.302-1.776
	c-3.228,0.526-5.235,5.19-6.487,6.069c-1.252,0.877-3.599,2.518-4.63,2.066c-1.03-0.451-3.055-5.613-0.774-10.372
	c2.278-4.758,2.531-13.271,1.318-16.876c-1.213-3.604-3.334-9.546-11.67-6.294s-8.199,11.683-8.199,11.683
	S165.537,195.839,169.566,195.611z"/>
<path fill="#EAC08A" stroke="#613619" stroke-miterlimit="10" d="M124.818,179.652c-1.166-3.498-10.4,1.18-10.4,1.18
	c-32.431,17.429-59.816,3.1-68.066-11.9c-8.105-14.738,1.047-47.363,5.047-64.264c4-16.901-8.48-45.836-10.48-51.224
	c-2-5.388-3.566-19.529,8.434-14.263s51.285,10.002,64.066,39.804c19.49,45.447,2.436,81.197,4.225,85.697
	c1.361,3.42,8.912-0.736,8.912-0.736"/>
<path fill="#FFFFFF" d="M58.602,157.682c-5.5-13.136,3.242-41.945,4.574-54.305c1.334-12.36,1.926-27.195-2.498-35.965
	c-3.645-7.223-13.18-14.763-4.992-13.897c8.666,0.916,32.916,8.916,41.916,28.039c6.33,13.447-1.471,46.325,0,62.992
	c1.474,16.666,16.418,24.968,16.418,24.968C74.686,183.514,61.43,164.432,58.602,157.682z"/>
<path fill="#E3BB88" stroke="#613619" stroke-miterlimit="10" d="M135.25,133.307l-2.341,2.002c0,0,1.187,7-7.413,25.5
	c-6.52,14.024-2.92,27.258,6.438,32.844c7.761,4.631,27.67,7.039,38.8,4.546c15.696-3.517,25.95-18.222,21.619-31.888
	c-6.898-21.765-9.451-30.77-9.451-30.77L135.25,133.307z"/>
<path fill="#FFFFFF" d="M188.791,157.064c-3.676-11.58-7.16-23.758-7.16-23.758l-15.446,2.834c0,0-3.834,3.039,0,7.973
	c3.834,4.933,2.698,26.414,3.928,37.568c1.229,11.152,17.924,5.035,17.924,5.035C195.876,174.814,193.12,170.693,188.791,157.064z"
	/>
<path fill="#187FC4" d="M161.152,111.43h-8.735l-23.251,22.349c0,0,24.269,4.187,34.686,8.766c7.365,3.238,20.066,11,20.066,11
	s-1.106-3.868-0.658-8.863c0.137-5.443-0.358-9.141-0.358-9.141L161.152,111.43z"/>
<path fill="#EAC08A" stroke="#63361A" stroke-miterlimit="10" d="M93.581,105.691c0.683,1.978,4.396,1.385,4.979,2.592
	c0.764,1.583-3.41,0.921-2.319,3.649c6.674,16.686,29.461,26.035,52.334,23.473c3.305-0.37,4.419,2.46,8.385,3.659
	c2.097,0.596,6.945,0.748,10.423-0.207c3.162-1.032,3.665-3.631,6.986-3.452c16.925,0.909,35.591-7.257,40.333-25.473
	c0.74-2.844-3.083-2.066-2.319-3.649c0.583-1.208,4.297-0.614,4.979-2.592c0.728-2.112-3.24-1.739-3.343-2.66
	c-0.146-1.316,4.093-1.705,2.047-4.57c-3.779-5.289-8.025-7.556-15.539-11.99c-2.608-9.526-4.883-16.092-7.057-20.759
	c-3.34-7.168-4.895-11.734-8.023-17.727c-3.484-6.673-9.229-11.407-11.259-9.521c-1.406,1.305-1.534,1.673-3.829,11.239
	c-0.444,1.847-4.242-1.282-13.853-0.888c-9.738-0.166-13.48,2.735-13.924,0.888c-2.296-9.566-2.423-9.934-3.829-11.239
	c-2.031-1.886-7.774,2.848-11.259,9.521c-3.129,5.993-4.685,10.559-8.024,17.727c-2.174,4.666-4.446,11.233-7.056,20.759
	c-7.514,4.434-13.761,8.701-17.538,13.99c-2.047,2.865,2.191,3.254,2.045,4.57C96.82,103.952,92.852,103.579,93.581,105.691z"/>
<path fill="#613619" d="M173.524,48.804c3.115,0.671,5.707,1.619,8.014,2.853c-0.672-2.094-1.138-3.569-1.771-4.785
	c-0.964-1.85-1.519-2.435-2.236-3.52c-0.719-1.085-1.758-1.744-2.14-1.768c-0.381-0.023-0.646,0.385-1.017,2.062
	C174.102,44.875,173.912,45.429,173.524,48.804z"/>
<path fill="#613619" d="M139.256,48.804c-3.115,0.671-5.707,1.619-8.014,2.853c0.672-2.094,1.139-3.569,1.771-4.785
	c0.963-1.85,1.519-2.435,2.236-3.52c0.719-1.085,1.758-1.744,2.139-1.768c0.381-0.023,0.646,0.385,1.018,2.062
	C138.678,44.875,138.868,45.429,139.256,48.804z"/>
<g>
	<path fill="#FFFFFF" d="M102.885,108.213c0.862,14.033,20.929,27.756,46.407,27.205c2.994-0.064,3.725,2.096,6.931,3.096
		c4.175,1.027,7.059,0.744,10.847-0.053c2.875-0.971,4.531-3.534,5.883-3.447c20.981,1.334,34.474-12.767,35.337-26.8
		c0.472-7.667-0.909-12.367-6.786-15.789c-3.689-2.148-4.396-1.656-4.632-1.649c-6.361-28.94-15.618-29.283-19.342-29.556
		c-3.789-0.278-6.716,1.158-9.218,7.461c-0.929,2.34-2.236,12.407-2.586,15.75c-0.248,2.377-0.422,6.723-4.375,7.455
		c-2.044-0.333-2.816-0.581-4.5-5.274c-2.275-6.348-6.04-14.154-6.866-16.532c-2.489-7.153-7.898-9.608-13.219-9.608
		c-5.523,0-13.647,4.427-20.461,30.304c-0.236-0.007-2.942-0.499-6.633,1.649C103.795,95.847,102.414,100.547,102.885,108.213z"/>
</g>
<ellipse fill="#EE869A" cx="195.975" cy="106.254" rx="8.599" ry="2.877"/>
<ellipse fill="#EE869A" cx="126.554" cy="107.545" rx="8.599" ry="2.877"/>
<path fill="none" stroke="#63361A" stroke-width="2" stroke-linecap="round" stroke-linejoin="round" stroke-miterlimit="10" d="
	M162.606,111.665c-0.535-1.512,0.132-5.411,0.132-5.411"/>
<g>
	<path fill="#613619" d="M167.798,95.776c0.583,0.354,0.916,0.668,1.163,0.937s0.409,0.492,0.665,0.842
		c0.257,0.35,0.609,0.828,0.447,1.752c-0.162,0.924-0.837,2.294-2.262,3.933c-1.424,1.64-3.597,3.548-5.191,3.573
		s-3.827-1.814-5.302-3.408c-1.476-1.594-2.193-2.942-2.384-3.86s0.146-1.407,0.392-1.765c0.245-0.358,0.398-0.586,0.638-0.862
		s0.563-0.601,1.133-0.973c0.571-0.372,1.392-0.793,5.338-0.886C166.382,95.029,167.215,95.423,167.798,95.776z"/>
	<path fill="#FFFFFF" d="M168.053,98.403c-0.136,0.131-0.354,0.108-0.459-0.049c-0.1-0.15-0.24-0.331-0.413-0.499
		c-0.264-0.257-0.525-0.428-0.705-0.528c-0.129-0.073-0.183-0.227-0.132-0.366l0.03-0.083c0.05-0.137,0.189-0.22,0.332-0.195
		c0.256,0.044,0.679,0.163,1.138,0.486c0.256,0.181,0.437,0.402,0.545,0.564c0.082,0.122,0.064,0.285-0.042,0.387L168.053,98.403z"
		/>
</g>
<g>
	<g>
		<g>
			<path fill="#FFFFFF" d="M177.862,143.13c-0.452-0.618-0.905-1.235-1.357-1.854c-0.134,2.021-0.268,4.041-0.402,6.061
				c-2.064-0.359-3.644-2.038-3.879-4.121c-0.233-2.082,0.933-4.07,2.865-4.881c1.934-0.811,4.168-0.25,5.49,1.377
				c1.322,1.626,1.413,3.93,0.223,5.655c0.243,0.522-0.378,1.02-0.835,0.669c-0.457-0.352-0.136-1.079,0.432-0.979
				c2.241-3.297-0.926-7.574-4.732-6.392s-3.994,6.501-0.279,7.946c0.165-2.491,0.331-4.983,0.496-7.476
				c1.079,1.476,2.158,2.949,3.238,4.425c-0.441,0.127-0.882,0.256-1.323,0.383c0.619,0.846,1.237,1.69,1.856,2.535
				c-1.101-0.97-2.201-1.938-3.302-2.908C176.856,143.424,177.359,143.277,177.862,143.13z"/>
		</g>
	</g>
</g>
<path fill="#DEB686" stroke="#613619" stroke-miterlimit="10" d="M129.686,187.514c1.371,1.738-1.696,9.399-4.877,12.223
	c-3.18,2.824-5.289,11.027-4.444,12.27c0.845,1.243,17.737,7.758,18.901,7.358c1.164-0.4,0.693-3.021-1.592-5.361
	s-7.256-1.303-8.693-1.823c-1.438-0.52-4.129-1.498-4.352-2.602c-0.224-1.102,2.84-5.725,8.045-6.592s12.317-5.551,14.571-8.615
	s5.899-8.213-1.552-13.168c-7.452-4.955-14.273,0-14.273,0S127.186,184.348,129.686,187.514z"/>
<path fill="#EAC08A" stroke="#63361A" stroke-miterlimit="10" d="M156.731,157.152c1.619,2.986,8.286,9.85,9.423,10.466
	c0.308,0.167,0.868-0.069,1.316-0.245c0.675-0.264,1.224-0.326,2.086-0.389c1.921-0.137,3.712,0.863,3.504,1.695
	c-0.189,0.76-1.202,0.014-1.322,0.211c-0.12,0.198,2.082,1.198,2.104,4.33c0.015,1.875-1.982,4.366-5.095,3.752
	c-4.356-0.859-3.075-3.328-7.064-6.556c-3.988-3.228-8.934-2.117-19.939-13.26c-2.581-2.613-2.47-10.372,2.497-12.399
	C149.207,142.73,156.013,155.827,156.731,157.152z"/>
<g>
	<path fill="none" stroke="#613619" stroke-miterlimit="10" d="M156.09,114.941c0.634,2.308,0.678,3.769,1.313,6.077
		c3.073-0.048,6.576-0.384,9.65-0.432c0.563-2.327,0.852-3.186,1.413-5.512c0,0-3.89-2.203-5.936-2.173
		c-0.063,1.638-0.127,4.277-0.191,5.916c-0.115-1.637-0.229-4.271-0.345-5.907C159.948,112.944,156.091,114.941,156.09,114.941z"/>
	<path fill="none" stroke="#63361A" stroke-width="2" stroke-linecap="round" stroke-linejoin="round" stroke-miterlimit="10" d="
		M151.119,115.966c0,0,10.576-3.291,11.764-3.551l10.794,4.384"/>
</g>
<g>
	<path fill="none" stroke="#63361A" stroke-width="2" stroke-linecap="round" stroke-linejoin="round" stroke-miterlimit="10" d="
		M170.515,90.816c0-1.302,2.11-4.09,7.109-4.648h6.167c5.625,0,9.542,3.485,9.542,4.648l0,0c0,1.485-2.879,5.31-10.173,4.935h-5.472
		C173.604,95.751,170.515,92.301,170.515,90.816L170.515,90.816z"/>
	
		<polyline fill="none" stroke="#63361A" stroke-width="2" stroke-linecap="round" stroke-linejoin="round" stroke-miterlimit="10" points="
		185.567,73.869 179.184,78.593 176.31,75.686 	"/>
	<path fill="#63361A" d="M176.31,89.306c0-2.219,2.487-3.138,5.555-3.138l0,0c3.067,0,5.554,0.919,5.554,3.138v2.986
		c0,2.881-2.487,3.459-5.554,3.459l0,0c-3.905,0-5.555-0.679-5.555-3.459V89.306z"/>
</g>
<g>
	<path fill="none" stroke="#63361A" stroke-width="2" stroke-linecap="round" stroke-linejoin="round" stroke-miterlimit="10" d="
		M151.99,90.816c0-1.302-2.11-4.09-7.109-4.648h-6.166c-5.625,0-9.543,3.485-9.543,4.648l0,0c0,1.485,2.879,5.31,10.174,4.935h5.472
		C148.901,95.751,151.99,92.301,151.99,90.816L151.99,90.816z"/>
	
		<polyline fill="none" stroke="#63361A" stroke-width="2" stroke-linecap="round" stroke-linejoin="round" stroke-miterlimit="10" points="
		136.938,73.869 143.321,78.593 146.196,75.686 	"/>
	<path fill="#63361A" d="M146.196,89.306c0-2.219-2.487-3.138-5.554-3.138l0,0c-3.068,0-5.555,0.919-5.555,3.138v2.986
		c0,2.881,2.487,3.459,5.555,3.459l0,0c3.904,0,5.554-0.679,5.554-3.459V89.306z"/>
</g>
</svg>
