<?xml version="1.0" encoding="utf-8"?>
<!-- Generator: Adobe Illustrator 16.0.0, SVG Export Plug-In . SVG Version: 6.00 Build 0)  -->
<!DOCTYPE svg PUBLIC "-//W3C//DTD SVG 1.1//EN" "http://www.w3.org/Graphics/SVG/1.1/DTD/svg11.dtd">
<svg version="1.1" id="图层_1" xmlns="http://www.w3.org/2000/svg" xmlns:xlink="http://www.w3.org/1999/xlink" x="0px" y="0px"
	 width="220px" height="220px" viewBox="0 0 220 220" enable-background="new 0 0 220 220" xml:space="preserve">
<g>
	<ellipse fill="#C7C6C6" cx="120.528" cy="211.381" rx="10.54" ry="3.096"/>
	<path fill="#EAC08A" stroke="#63361A" stroke-miterlimit="10" d="M175.812,144.837c1.981,2.759,9.455,8.735,10.659,9.204
		c0.326,0.127,0.851-0.178,1.275-0.408c0.636-0.346,1.172-0.476,2.02-0.646c1.888-0.377,3.79,0.391,3.688,1.244
		c-0.094,0.776-1.191,0.162-1.286,0.375c-0.095,0.211,2.216,0.928,2.631,4.033c0.249,1.858-1.42,4.579-4.585,4.359
		c-4.432-0.307-3.469-2.916-7.83-5.62c-4.362-2.703-9.129-0.983-21.443-10.66c-2.888-2.269-3.749-9.981,0.925-12.614
		C166.54,131.471,174.931,143.611,175.812,144.837z"/>
	<path fill="#C99F72" stroke="#613619" stroke-miterlimit="10" d="M121.047,179.204c1.372,1.737-1.695,9.399-4.876,12.223
		s-5.29,11.026-4.444,12.27c0.844,1.243,17.736,7.758,18.9,7.358c1.164-0.4,0.693-3.021-1.591-5.361
		c-2.286-2.34-7.257-1.303-8.694-1.823s-4.127-1.5-4.352-2.603c-0.223-1.102,2.841-5.725,8.045-6.592s12.317-5.551,14.571-8.615
		c2.254-3.063,5.899-8.213-1.552-13.168c-7.452-4.955-14.273,0-14.273,0S118.547,176.038,121.047,179.204z"/>
	<ellipse fill="#C7C6C6" cx="184.644" cy="209.002" rx="10.54" ry="3.096"/>
	<path fill="#EAC08A" stroke="#613619" stroke-miterlimit="10" d="M116.18,171.342c-1.166-3.498-10.4,0.18-10.4,0.18
		c-34.315,15.715-59.815,4.1-68.065-10.9c-8.106-14.738-1.5-47.362,2.5-64.263s-6.935-43.836-8.935-49.224
		c-2-5.388-3.565-19.529,8.435-14.263c12,5.266,52.285,8.002,65.065,37.804c19.49,45.446,2.436,81.196,4.226,85.696
		c1.36,3.421,8.911-0.736,8.911-0.736"/>
	<path fill="#FFFFFF" d="M49.962,149.371c-5.5-13.135,3.242-41.944,4.575-54.304c1.334-12.36,0.925-25.195-3.499-33.965
		c-3.644-7.223-13.179-14.763-4.992-13.897c8.667,0.916,33.917,6.916,42.917,26.039c6.329,13.447-1.473,46.324,0,62.992
		c1.473,16.666,15.417,24.968,15.417,24.968C65.047,175.204,52.79,156.121,49.962,149.371z"/>
	<path fill="#E3BB88" stroke="#613619" stroke-miterlimit="10" d="M126.611,124.996l-2.342,2.003c0,0-0.121,7.343-6.666,28.372
		c-4.597,14.768-1.877,23.5,5.691,29.971c6.869,5.873,27.67,7.04,38.799,4.547c15.697-3.518,25.243-18.018,21.62-31.888
		c-5.566-21.308-9.452-30.771-9.452-30.771L126.611,124.996z"/>
	<path fill="#FFFFFF" d="M180.629,148.371c-3.817-14.223-7.637-23.375-7.637-23.375l-15.445,2.835c0,0-3.834,3.04,0,7.972
		c3.834,4.934,2.698,26.415,3.927,37.568c1.23,11.152,18.396,3.875,18.396,3.875C186.203,166.413,183.934,160.682,180.629,148.371z"
		/>
	<path fill="#187FC4" d="M152.513,103.12h-8.735l-23.25,22.349c0,0,24.269,4.188,34.686,8.766c7.365,3.238,20,11,20,11
		s-1.04-3.867-0.592-8.863c0.136-5.443-0.359-9.141-0.359-9.141L152.513,103.12z"/>
	<path fill="#EAC08A" stroke="#63361A" stroke-miterlimit="10" d="M84.943,96.381c0.682,1.978,4.396,1.385,4.979,2.592
		c0.764,1.583-3.41,0.921-2.318,3.649c6.674,16.687,31.145,25.473,52.333,24.473c3.322-0.155,4.419,2.46,8.385,3.66
		c2.098,0.595,6.945,0.748,10.424-0.207c3.161-1.032,3.663-3.61,6.985-3.452c21.188,0.999,33.658-9.787,40.333-26.474
		c1.091-2.728-3.083-2.066-2.318-3.649c0.583-1.208,4.297-0.614,4.979-2.592c0.728-2.112-3.24-1.739-3.342-2.66
		c-0.146-1.316,4.092-1.705,2.046-4.57c-3.779-5.29-8.025-6.556-15.539-10.99c-2.608-9.526-4.882-16.092-7.056-20.759
		c-3.341-7.168-4.896-11.734-8.024-17.727c-3.484-6.673-10.228-11.407-12.259-9.521c-1.406,1.305-0.534,1.673-2.829,11.239
		c-0.444,1.847-4.242-1.282-13.852-0.888c-9.738-0.166-13.481,2.735-13.925,0.888c-2.296-9.566-2.423-9.934-3.829-11.239
		c-2.03-1.886-7.774,2.848-11.258,9.521c-3.129,5.993-4.685,10.559-8.024,17.727c-2.175,4.666-4.447,11.233-7.056,20.759
		c-7.515,4.434-13.762,7.701-17.539,12.99c-2.047,2.865,2.191,3.254,2.045,4.57C88.182,94.642,84.214,94.269,84.943,96.381z"/>
	<path fill="#613619" d="M164.885,40.494c3.116,0.671,5.707,1.619,8.014,2.853c-0.672-2.094-1.138-3.569-1.771-4.785
		c-0.964-1.85-1.52-2.435-2.237-3.52s-1.758-1.744-2.139-1.768c-0.381-0.023-0.646,0.385-1.018,2.062
		C165.463,36.565,165.272,37.119,164.885,40.494z"/>
	<path fill="#613619" d="M130.616,40.494c-3.115,0.671-5.706,1.619-8.013,2.853c0.672-2.094,1.137-3.569,1.771-4.785
		c0.964-1.85,1.519-2.435,2.237-3.52c0.718-1.085,1.758-1.744,2.139-1.768c0.381-0.023,0.646,0.385,1.017,2.062
		C130.04,36.565,130.229,37.119,130.616,40.494z"/>
	<g>
		<path fill="#FFFFFF" d="M94.246,99.903c0.863,14.033,20.929,27.756,46.407,27.205c2.994-0.063,3.726,2.096,6.932,3.096
			c4.174,1.027,7.058,0.745,10.846-0.053c2.875-0.971,4.532-3.533,5.883-3.447c20.982,1.334,34.475-12.766,35.337-26.799
			c0.473-7.667-0.909-12.367-6.786-15.789c-3.689-2.148-4.396-1.656-4.632-1.649c-6.36-28.94-15.618-29.283-19.342-29.556
			c-3.789-0.278-6.716,1.158-9.217,7.461c-0.929,2.34-2.237,12.407-2.586,15.75c-0.248,2.377-0.422,6.723-4.375,7.455
			c-2.044-0.333-2.817-0.581-4.5-5.274c-2.276-6.348-6.04-14.154-6.867-16.532c-2.489-7.153-7.899-9.608-13.219-9.608
			c-5.523,0-13.646,4.427-20.461,30.304c-0.236-0.007-2.941-0.499-6.633,1.649C95.156,87.537,93.775,92.237,94.246,99.903z"/>
	</g>
	<ellipse fill="#EE869A" cx="187.336" cy="97.944" rx="8.599" ry="2.877"/>
	<ellipse fill="#EE869A" cx="117.916" cy="99.235" rx="8.599" ry="2.877"/>
	<path fill="none" stroke="#63361A" stroke-width="2" stroke-linecap="round" stroke-linejoin="round" stroke-miterlimit="10" d="
		M153.968,103.355c-0.535-1.512,0.132-5.411,0.132-5.411"/>
	<g>
		<path fill="#613619" d="M159.159,87.466c0.583,0.354,0.916,0.668,1.163,0.937s0.409,0.492,0.665,0.842
			c0.258,0.35,0.609,0.828,0.447,1.752s-0.837,2.294-2.261,3.933c-1.424,1.64-3.598,3.548-5.192,3.573s-3.827-1.814-5.302-3.408
			c-1.475-1.594-2.193-2.942-2.383-3.86c-0.191-0.918,0.146-1.407,0.391-1.765c0.245-0.358,0.399-0.586,0.638-0.862
			c0.239-0.276,0.563-0.601,1.134-0.973c0.57-0.372,1.391-0.793,5.338-0.886C157.743,86.719,158.576,87.113,159.159,87.466z"/>
		<path fill="#FFFFFF" d="M159.414,90.093c-0.137,0.131-0.354,0.108-0.459-0.049c-0.101-0.15-0.24-0.331-0.413-0.499
			c-0.265-0.257-0.526-0.428-0.705-0.528c-0.129-0.073-0.184-0.227-0.132-0.366l0.029-0.083c0.05-0.137,0.189-0.22,0.332-0.195
			c0.256,0.044,0.68,0.163,1.139,0.486c0.256,0.181,0.436,0.402,0.545,0.564c0.082,0.122,0.063,0.285-0.042,0.387L159.414,90.093z"
			/>
	</g>
	<path fill="none" stroke="#613619" stroke-miterlimit="10" d="M147.297,105.646c0.634,2.308,1.036,3.769,1.67,6.077
		c3.074-0.049,6.148-0.097,9.223-0.145c0.563-2.327,0.921-3.472,1.483-5.799c-2.046-0.024-3.891-1.203-5.937-1.173
		c-0.063,1.638-0.127,3.277-0.19,4.915c-0.115-1.636-0.23-3.271-0.346-4.907C151.154,104.648,149.343,105.557,147.297,105.646z"/>
	<path fill="none" stroke="#63361A" stroke-width="2" stroke-linecap="round" stroke-linejoin="round" stroke-miterlimit="10" d="
		M136.669,103.762c8.193,4.504,16.233-0.383,17.422-0.643c7.801,6.359,12.761-0.2,12.761-0.2"/>
	<g>
		<g>
			<g>
				<path fill="#FFFFFF" d="M169.224,134.82c-0.452-0.617-0.905-1.235-1.357-1.854c-0.134,2.02-0.268,4.04-0.401,6.061
					c-2.065-0.36-3.645-2.038-3.879-4.121c-0.234-2.082,0.932-4.07,2.864-4.881c1.934-0.811,4.168-0.25,5.49,1.377
					c1.322,1.625,1.413,3.929,0.224,5.654c0.242,0.523-0.378,1.021-0.835,0.67c-0.457-0.352-0.137-1.08,0.431-0.979
					c2.242-3.296-0.925-7.573-4.732-6.392c-3.807,1.183-3.994,6.502-0.278,7.947c0.165-2.492,0.331-4.984,0.496-7.476
					c1.078,1.475,2.157,2.948,3.237,4.424c-0.44,0.128-0.882,0.256-1.323,0.384c0.619,0.846,1.237,1.69,1.856,2.535
					c-1.1-0.97-2.201-1.939-3.301-2.909C168.218,135.114,168.721,134.968,169.224,134.82z"/>
			</g>
		</g>
	</g>
	<path fill="#DEB686" stroke="#613619" stroke-miterlimit="10" d="M160.928,187.301c2.211-0.125,6.72,6.788,7.204,11.014
		c0.483,4.225,5.985,10.664,7.489,10.687c1.503,0.022,16.539-10.062,16.881-11.244c0.342-1.182-2.074-2.303-5.303-1.776
		c-3.228,0.526-5.234,5.19-6.486,6.068s-3.6,2.518-4.63,2.067c-1.031-0.451-3.055-5.614-0.775-10.372s2.532-13.271,1.319-16.876
		s-3.334-9.546-11.67-6.294s-8.199,11.682-8.199,11.682S156.898,187.529,160.928,187.301z"/>
	<path fill="#EAC08A" stroke="#63361A" stroke-miterlimit="10" d="M138.334,154.035c-2.432,2.373-7.217,10.66-7.498,11.921
		c-0.077,0.342,0.304,0.815,0.595,1.2c0.438,0.576,0.648,1.087,0.943,1.9c0.656,1.809,0.184,3.805-0.676,3.832
		c-0.781,0.025-0.34-1.152-0.563-1.215c-0.223-0.063-0.584,2.33-3.591,3.207c-1.8,0.525-4.742-0.716-5-3.878
		c-0.36-4.426,2.362-3.867,4.38-8.585c2.017-4.718-0.4-9.172,7.315-22.801c1.81-3.196,9.305-5.206,12.61-0.981
		C150.155,142.861,139.413,152.982,138.334,154.035z"/>
</g>
<g>
	<path fill="none" stroke="#4B2C13" stroke-miterlimit="10" d="M174.98,71.514c6.849,0,12.399,4.778,12.399,6.932
		c0,2.189-5.551,6.932-12.399,6.932c-6.848,0-12.398-4.337-12.398-6.932C162.582,76.292,168.133,71.514,174.98,71.514z"/>
	<path fill="#4B2C13" d="M174.98,71.514c6.03,0,7.453,2.366,7.453,6.932c0,4.566-1.559,6.932-7.453,6.932
		c-6.437,0-7.453-2.367-7.453-6.932S168.408,71.514,174.98,71.514z"/>
</g>
<g>
	<path fill="none" stroke="#4B2C13" stroke-miterlimit="10" d="M131.201,71.514c6.849,0,12.399,4.778,12.399,6.932
		c0,2.189-5.551,6.932-12.399,6.932c-6.848,0-12.398-4.337-12.398-6.932C118.803,76.292,124.354,71.514,131.201,71.514z"/>
	<path fill="#4B2C13" d="M131.201,71.514c6.03,0,7.453,2.366,7.453,6.932c0,4.566-1.559,6.932-7.453,6.932
		c-6.437,0-7.452-2.367-7.452-6.932S124.63,71.514,131.201,71.514z"/>
</g>
</svg>
