<?xml version="1.0" encoding="utf-8"?>
<!-- Generator: Adobe Illustrator 16.0.0, SVG Export Plug-In . SVG Version: 6.00 Build 0)  -->
<!DOCTYPE svg PUBLIC "-//W3C//DTD SVG 1.1//EN" "http://www.w3.org/Graphics/SVG/1.1/DTD/svg11.dtd">
<svg version="1.1" id="图层_1" xmlns="http://www.w3.org/2000/svg" xmlns:xlink="http://www.w3.org/1999/xlink" x="0px" y="0px"
	 width="220px" height="230px" viewBox="0 0 220 230" enable-background="new 0 0 220 230" xml:space="preserve">
<g>
	<ellipse fill="#C7C6C6" cx="154.535" cy="211.283" rx="10.54" ry="3.095"/>
	<path fill="#C99F72" stroke="#613619" stroke-miterlimit="10" d="M143.632,183.72c1.926,1.095,1.962,9.349,0.076,13.16
		c-1.885,3.812-0.757,12.206,0.493,13.04c1.251,0.834,19.354,0.521,20.281-0.286s-0.492-3.06-3.49-4.37
		c-2.998-1.31-7.214,1.521-8.742,1.578c-1.527,0.059-4.39,0.162-5.011-0.775c-0.621-0.938,0.48-6.373,4.977-9.133
		c4.497-2.761,9.328-9.774,10.266-13.461c0.937-3.686,2.379-9.828-6.388-11.619c-8.768-1.791-13.227,5.365-13.227,5.365
		S140.125,181.725,143.632,183.72z"/>
	<ellipse fill="#C7C6C6" cx="133.847" cy="211.283" rx="10.54" ry="3.095"/>
	<path fill="#EAC08A" stroke="#613619" stroke-miterlimit="10" d="M111.041,171.188c-1.166-3.498-10.4,1.181-10.4,1.181
		c-34.316,15.715-59.816,3.099-68.066-11.901c-8.105-14.738,1.504-47.011,3.5-64.263c2.605-22.502-4.934-45.836-6.934-51.224
		s-3.566-19.529,8.434-14.263c12,5.266,49.285,10.002,62.066,39.804c19.49,45.446,2.436,81.196,4.225,85.696
		c1.361,3.422,8.911-0.736,8.911-0.736"/>
	<path fill="#FFFFFF" d="M44.824,149.217c-5.5-13.135,3.241-41.944,4.574-54.304c1.334-12.36,2.926-29.195-1.499-37.965
		c-3.644-7.223-13.179-14.763-4.991-13.897c8.666,0.916,31.916,10.916,40.916,30.039c6.329,13.447-1.472,46.325,0,62.992
		c1.473,16.666,16.418,24.968,16.418,24.968C60.908,175.05,47.65,155.967,44.824,149.217z"/>
	<path fill="#E3BB88" stroke="#613619" stroke-miterlimit="10" d="M121.471,124.841l-2.342,2.003c0,0,2.556,10.176-6.666,28.372
		c-8.286,16.351-1.877,23.5,5.691,29.972c6.869,5.873,27.67,7.039,38.799,4.545c15.697-3.518,26.01-19.461,22.387-33.332
		c-5.564-21.307-10.218-29.324-10.218-29.324L121.471,124.841z"/>
	<path fill="#FFFFFF" d="M176.406,147.878c-4.829-15.522-8.553-23.037-8.553-23.037l-15.446,2.835c0,0-3.834,3.039,0,7.973
		c3.834,4.933,2.698,26.414,3.927,37.567c1.23,11.153,18.396,3.875,18.396,3.875C181.064,166.258,180.369,160.609,176.406,147.878z"
		/>
	<path fill="#187FC4" d="M147.373,102.965h-8.734l-23.251,22.35c0,0,24.269,4.187,34.686,8.766c7.365,3.238,18.25,11,18.25,11
		s0.71-3.868,1.158-8.864c0.136-5.442-0.359-9.14-0.359-9.14L147.373,102.965z"/>
	<path fill="#EAC08A" stroke="#63361A" stroke-miterlimit="10" d="M79.804,97.226c0.682,1.978,4.396,1.385,4.979,2.592
		c0.764,1.583-3.41,0.921-2.32,3.649c6.675,16.686,31.146,24.473,52.334,23.473c3.322-0.155,4.42,2.461,8.386,3.66
		c2.097,0.596,6.944,0.748,10.423-0.207c3.162-1.033,3.664-3.609,6.986-3.453c21.188,1,33.657-8.785,40.332-25.473
		c1.092-2.728-3.083-2.066-2.318-3.649c0.583-1.208,4.297-0.614,4.979-2.592c0.729-2.112-3.239-1.739-3.342-2.66
		c-0.146-1.316,4.092-1.705,2.046-4.57c-3.778-5.289-8.024-7.556-15.539-11.99c-2.495-9.11-3.465-15.199-6.056-20.759
		c-3.34-7.168-5.896-11.734-9.024-17.727c-3.483-6.673-10.228-11.407-12.259-9.521c-1.406,1.305-0.534,1.673-2.829,11.239
		c-0.443,1.847-4.242-1.282-13.852-0.888c-9.738-0.166-13.481,2.735-13.924,0.888c-2.296-9.566-1.424-9.934-2.829-11.239
		c-2.031-1.886-8.775,2.848-12.259,9.521c-3.13,5.993-4.685,10.559-8.024,17.727c-2.174,4.666-4.447,11.233-7.056,20.759
		c-7.515,4.434-13.761,8.701-17.539,13.99c-2.046,2.865,2.192,3.254,2.046,4.57C83.043,95.487,79.074,95.114,79.804,97.226z"/>
	<path fill="#613619" d="M159.745,40.339c3.116,0.671,5.707,1.619,8.015,2.853c-0.673-2.094-1.139-3.569-1.771-4.785
		c-0.964-1.85-1.519-2.435-2.237-3.52c-0.718-1.085-1.758-1.744-2.139-1.768c-0.381-0.023-0.646,0.385-1.017,2.062
		C160.323,36.411,160.134,36.964,159.745,40.339z"/>
	<path fill="#613619" d="M125.479,40.339c-3.116,0.671-5.707,1.619-8.014,2.853c0.672-2.094,1.138-3.569,1.771-4.785
		c0.964-1.85,1.519-2.435,2.237-3.52c0.718-1.085,1.758-1.744,2.139-1.768c0.381-0.023,0.646,0.385,1.017,2.062
		C124.9,36.411,125.09,36.964,125.479,40.339z"/>
	<g>
		<path fill="#FFFFFF" d="M89.106,99.748c0.863,14.033,20.929,27.756,46.408,27.205c2.994-0.064,3.725,2.095,6.931,3.095
			c4.174,1.028,7.058,0.745,10.846-0.052c2.875-0.971,4.532-3.534,5.883-3.448c20.982,1.334,34.475-12.766,35.338-26.799
			c0.472-7.667-0.909-12.367-6.786-15.789c-3.69-2.148-4.396-1.656-4.632-1.649c-6.361-28.94-15.618-29.283-19.343-29.556
			c-3.789-0.278-6.716,1.158-9.217,7.461c-0.929,2.34-2.237,12.407-2.586,15.75c-0.248,2.377-0.422,6.723-4.375,7.455
			c-2.044-0.333-2.817-0.581-4.5-5.274c-2.276-6.348-6.04-14.154-6.867-16.532c-2.488-7.153-7.898-9.608-13.219-9.608
			c-5.522,0-13.647,4.427-20.461,30.304c-0.235-0.007-2.942-0.499-6.632,1.649C90.018,87.382,88.637,92.083,89.106,99.748z"/>
	</g>
	<ellipse fill="#EE869A" cx="182.197" cy="97.789" rx="8.599" ry="2.877"/>
	<ellipse fill="#EE869A" cx="112.776" cy="99.081" rx="8.599" ry="2.877"/>
	<path fill="none" stroke="#63361A" stroke-width="2" stroke-linecap="round" stroke-linejoin="round" stroke-miterlimit="10" d="
		M148.828,103.2c-0.535-1.512,0.132-5.411,0.132-5.411"/>
	<g>
		<path fill="#613619" d="M154.021,87.311c0.583,0.354,0.916,0.668,1.163,0.937s0.409,0.492,0.665,0.842
			c0.257,0.35,0.608,0.828,0.446,1.752c-0.161,0.924-0.837,2.294-2.261,3.933c-1.424,1.64-3.597,3.548-5.191,3.573
			c-1.596,0.025-3.827-1.814-5.303-3.408c-1.475-1.594-2.192-2.942-2.383-3.86c-0.191-0.918,0.146-1.407,0.391-1.765
			c0.245-0.358,0.399-0.586,0.639-0.862c0.239-0.276,0.562-0.601,1.133-0.973s1.391-0.793,5.338-0.886
			C152.604,86.564,153.438,86.958,154.021,87.311z"/>
		<path fill="#FFFFFF" d="M154.275,89.938c-0.136,0.131-0.354,0.108-0.459-0.049c-0.1-0.15-0.24-0.331-0.413-0.499
			c-0.264-0.257-0.526-0.428-0.705-0.528c-0.129-0.073-0.183-0.227-0.132-0.366l0.03-0.083c0.05-0.137,0.188-0.22,0.332-0.195
			c0.256,0.044,0.679,0.163,1.138,0.486c0.256,0.181,0.436,0.402,0.545,0.564c0.082,0.122,0.064,0.285-0.042,0.387L154.275,89.938z"
			/>
	</g>
	<path fill="none" stroke="#613619" stroke-miterlimit="10" d="M142.157,105.491c0.634,2.308,1.036,3.769,1.67,6.077
		c3.074-0.049,6.149-0.097,9.224-0.145c0.562-2.327,0.921-3.472,1.482-5.799c-2.046-0.024-3.89-1.203-5.936-1.173
		c-0.063,1.638-0.127,3.277-0.191,4.915c-0.115-1.636-0.229-3.271-0.345-4.907C146.016,104.493,144.203,105.403,142.157,105.491z"/>
	<path fill="none" stroke="#63361A" stroke-width="2" stroke-linecap="round" stroke-linejoin="round" stroke-miterlimit="10" d="
		M131.529,103.607c8.194,4.504,16.234-0.383,17.422-0.643c7.801,6.359,12.761-0.2,12.761-0.2"/>
	<g>
		<g>
			<g>
				<path fill="#FFFFFF" d="M164.084,134.666c-0.452-0.618-0.904-1.236-1.356-1.854c-0.134,2.02-0.269,4.039-0.402,6.06
					c-2.064-0.36-3.644-2.038-3.879-4.121c-0.234-2.082,0.932-4.069,2.865-4.881c1.933-0.81,4.168-0.25,5.49,1.377
					c1.321,1.626,1.412,3.929,0.223,5.655c0.243,0.522-0.378,1.02-0.835,0.668c-0.457-0.351-0.136-1.078,0.431-0.979
					c2.242-3.296-0.925-7.572-4.731-6.391c-3.808,1.182-3.994,6.501-0.279,7.947c0.165-2.492,0.331-4.984,0.496-7.477
					c1.079,1.475,2.158,2.949,3.238,4.424c-0.441,0.129-0.883,0.256-1.323,0.385c0.619,0.845,1.236,1.689,1.855,2.535
					c-1.1-0.971-2.2-1.939-3.301-2.91C163.078,134.96,163.581,134.813,164.084,134.666z"/>
			</g>
		</g>
	</g>
	<path fill="#DEB686" stroke="#613619" stroke-miterlimit="10" d="M124.173,183.718c1.926,1.095,1.962,9.349,0.076,13.16
		c-1.885,3.812-0.758,12.206,0.493,13.04s19.354,0.521,20.281-0.286s-0.492-3.06-3.49-4.37c-2.998-1.31-7.214,1.521-8.742,1.578
		c-1.527,0.059-4.39,0.162-5.011-0.775c-0.621-0.938,0.48-6.373,4.977-9.133c4.497-2.761,9.328-9.774,10.266-13.461
		c0.937-3.686,2.379-9.828-6.388-11.619c-8.768-1.791-13.227,5.365-13.227,5.365S120.666,181.723,124.173,183.718z"/>
	<path fill="#EAC08A" stroke="#63361A" stroke-miterlimit="10" d="M140.194,152.68c1.264,3.152,7.094,10.74,8.151,11.483
		c0.285,0.201,0.869,0.03,1.336-0.093c0.699-0.184,1.252-0.182,2.115-0.145c1.924,0.084,3.588,1.284,3.284,2.088
		c-0.276,0.732-1.196-0.125-1.339,0.057c-0.142,0.184,1.93,1.431,1.591,4.545c-0.203,1.863-2.474,4.107-5.494,3.138
		c-4.228-1.356-2.671-3.661-6.26-7.328s-8.629-3.135-18.274-15.474c-2.263-2.893-1.257-10.588,3.911-12.028
		C134.385,137.482,139.632,151.277,140.194,152.68z"/>
</g>
<circle fill="#63361A" cx="167.889" cy="81.074" r="6.153"/>
<circle fill="#63361A" cx="126.471" cy="81.074" r="6.153"/>
</svg>
