<?xml version="1.0" encoding="utf-8"?>
<!-- Generator: Adobe Illustrator 16.0.0, SVG Export Plug-In . SVG Version: 6.00 Build 0)  -->
<!DOCTYPE svg PUBLIC "-//W3C//DTD SVG 1.1//EN" "http://www.w3.org/Graphics/SVG/1.1/DTD/svg11.dtd">
<svg version="1.1" id="图层_1" xmlns="http://www.w3.org/2000/svg" xmlns:xlink="http://www.w3.org/1999/xlink" x="0px" y="0px"
	 width="170px" height="210px" viewBox="0 0 170 210" enable-background="new 0 0 170 210" xml:space="preserve">
<g>
	<ellipse fill="#C7C6C6" cx="114.137" cy="196.799" rx="10.54" ry="3.096"/>
	<ellipse fill="#C7C6C6" cx="73.272" cy="196.799" rx="10.54" ry="3.096"/>
	<g>
		<g>
			<path fill="#EAC08A" stroke="#613619" stroke-miterlimit="10" d="M111.127,158.339c11.273-18.552,12.206-54.837,10.065-67.932
				c-9.255-56.612-33.614-72.635-59.258-78.026C38.936,7.546,27.457,6.195,22.27,10.6c-5.188,4.405,9.246,7.919,12.473,22.97
				c3.227,15.051-22.027,48.217-25.201,68.36c-3.926,24.901,10.356,47.534,25.899,59.121c20.007,14.914,39.399,13.371,53.843,17.865
				C89.283,178.916,99.854,176.891,111.127,158.339z"/>
			<path fill="#FFFFFF" d="M104.329,137.784c8.543-14.06,9.256-41.558,7.628-51.481C106.129,50.782,91.46,35.13,74.129,26.495
				c-8.045-4.01-28.354-8.407-28.354-4.102c0,2.831,4.826,4.356,6.351,14.516c1.73,11.536-22.233,48.255-24.64,63.52
				c-2.974,18.871,4.572,31.48,19.485,43.475c14.736,11.853,29.859,10.133,40.805,13.539
				C87.775,157.443,95.786,151.843,104.329,137.784z"/>
		</g>
		<path fill="#EAC08A" stroke="#63361A" stroke-miterlimit="10" d="M57.332,155.482c2.82,0.092,3.795-1.53,3.955-1.407
			c0.159,0.124-0.144,0.452,0.047,0.612c0.191,0.16,0.662,0.064,1-0.205c0.34-0.268,0.692-0.825,0.813-2.113
			c0.071-0.751,0.079-1.044-0.085-1.654c-0.109-0.406-0.311-1.104-0.137-1.354c0.643-0.926,3.158-2.735,9.972-7.159
			c-10.717,24.905-10.38,26.873-10.448,28.241c-0.121,2.455,0.622,4.824,1.773,6.684c2.66,4.296,9.333,8.508,9.844,9.092
			c0.777,0.891,3.936,2.98,1.614,3.321c-2.322,0.34-4.743-0.819-7.187-0.901c-1.611-0.054-2.68,0.574-3.193,1.344
			c-0.512,0.771-1.282,2.066-1.646,2.781c-0.363,0.713-0.32,0.844-0.212,1.104s0.285,0.648,5.288,0.842s5.011,0.193,10.072,0.15
			c5.062-0.045,5.445-0.648,5.816-1.818c0.316-0.998-0.183-2.416-0.96-6.395l0.004-0.002c7.045,1.381,14.092,1.448,21.139,0.205
			c-0.752,3.813-1.229,5.213-0.919,6.191c0.37,1.17,0.753,1.773,5.815,1.818c5.062,0.043,5.07,0.043,10.073-0.15
			s5.179-0.582,5.288-0.842s0.151-0.391-0.212-1.104c-0.364-0.715-1.135-2.011-1.647-2.781c-0.513-0.77-1.581-1.397-3.192-1.344
			c-2.443,0.084-4.864,1.242-7.187,0.901s0.836-2.431,1.614-3.321c0.511-0.584,7.184-4.795,9.844-9.092
			c1.149-1.859,1.895-4.229,1.772-6.684c-0.066-1.367,0.271-3.336-10.447-28.241c6.813,4.424,9.33,6.233,9.972,7.159
			c0.174,0.25-0.028,0.947-0.137,1.354c-0.163,0.61-0.155,0.903-0.085,1.654c0.121,1.287,0.474,1.845,0.813,2.113
			c0.338,0.27,0.81,0.365,1,0.205c0.191-0.16-0.111-0.489,0.048-0.612c0.161-0.123,1.136,1.499,3.954,1.407
			c1.119-0.035,3.592-2.137,2.762-4.773c-1.163-3.691-3.179-2.345-6.358-5.491c-3.179-3.146-2.128-4.39-15.488-17.719
			c-0.424-0.423-0.856-0.854-1.285-1.285l-14.896-0.85v-0.188l-1.651,0.094l-1.649-0.094v0.188l-14.896,0.85
			c-0.43,0.431-0.861,0.862-1.285,1.285c-13.36,13.33-12.31,14.573-15.488,17.719c-3.18,3.146-5.195,1.8-6.358,5.491
			C53.746,153.348,56.217,155.448,57.332,155.482z"/>
		<path fill="#FFFFFF" d="M80.108,139.659c0-7.735,6.27-14.005,14.005-14.005l0,0c7.735,0,14.005,6.27,14.005,14.005l4.365,24.312
			c1.182,7.776-2.092,14.076-18.37,14.006h-2.001c-11.549,0-18.142-5.957-16.368-14.006L80.108,139.659z"/>
		<polygon fill="#187FC4" points="99.175,104.536 90.44,104.536 72.197,126.05 94.531,149.234 115.757,126.232 		"/>
		<path fill="#EAC08A" stroke="#63361A" stroke-miterlimit="10" d="M31.604,98.796c0.683,1.978,4.396,1.385,4.979,2.592
			c0.764,1.583-3.41,0.921-2.319,3.649c6.675,16.686,26.145,24.473,47.334,23.473c3.322-0.156,4.591,2.551,8.557,3.751
			c2.096,0.595,5.335,0.774,8.813-0.181c3.161-1.033,5.102-3.727,8.424-3.57c21.188,1,40.658-6.787,47.334-23.473
			c1.091-2.728-3.083-2.066-2.319-3.649c0.583-1.208,4.297-0.614,4.979-2.592c0.729-2.112-3.239-1.739-3.342-2.66
			c-0.146-1.316,4.092-1.705,2.046-4.57c-3.778-5.289-10.024-9.556-17.539-13.99c-2.607-9.526-4.882-16.092-7.056-20.759
			c-3.34-7.168-4.895-11.734-8.024-17.727c-3.483-6.673-9.228-11.407-11.259-9.521c-1.405,1.305-1.534,1.673-3.829,11.239
			c-0.443,1.847-4.241-1.282-13.852-0.888c-9.738-0.166-13.481,2.735-13.924,0.888c-2.296-9.566-2.423-9.934-3.829-11.239
			c-2.031-1.886-7.775,2.848-11.259,9.521c-3.129,5.993-4.685,10.559-8.024,17.727c-2.174,4.666-4.447,11.233-7.056,20.759
			c-7.515,4.434-13.761,8.701-17.539,13.99c-2.046,2.865,2.192,3.254,2.046,4.57C34.844,97.057,30.875,96.684,31.604,98.796z"/>
		<path fill="#613619" d="M111.547,41.909c3.116,0.671,5.707,1.619,8.015,2.853c-0.672-2.094-1.139-3.569-1.771-4.785
			c-0.964-1.85-1.519-2.435-2.237-3.52c-0.718-1.085-1.758-1.744-2.139-1.768c-0.381-0.023-0.646,0.385-1.017,2.062
			C112.125,37.981,111.935,38.534,111.547,41.909z"/>
		<path fill="#613619" d="M77.279,41.909c-3.115,0.671-5.707,1.619-8.014,2.853c0.672-2.094,1.138-3.569,1.771-4.785
			c0.963-1.85,1.519-2.435,2.236-3.52s1.758-1.744,2.139-1.768c0.381-0.023,0.646,0.385,1.018,2.062
			C76.701,37.981,76.892,38.534,77.279,41.909z"/>
		<g>
			<path fill="#FFFFFF" d="M40.907,101.318c0.863,14.034,15.929,27.756,41.407,27.206c2.994-0.065,4.891,2.049,7.765,3.021
				c3.054,1.013,4.828,1.147,8.395-0.101c2.874-0.971,4.474-3.523,7.501-3.325c25.03,1.637,41.474-12.767,42.337-26.799
				c0.472-7.667-0.909-12.367-6.786-15.789c-3.69-2.148-6.396-1.656-6.632-1.649c-6.361-28.94-16.455-29.349-20.18-29.622
				c-3.789-0.278-8.544,0.545-11.045,6.848c-0.928,2.34-5.175,16.249-6.002,18.773c-0.805,2.459-1.013,3.894-3.057,4.227
				c-2.044-0.333-2.252-1.769-3.058-4.227c-0.826-2.525-4.719-14.317-5.546-16.695c-2.488-7.153-5.898-9.608-11.218-9.608
				c-5.523,0-13.647,4.427-20.461,30.304c-0.236-0.007-2.943-0.499-6.633,1.649C41.818,88.952,40.438,93.653,40.907,101.318z"/>
		</g>
		<ellipse fill="#EE869A" cx="123.536" cy="100.651" rx="8.599" ry="2.877"/>
		<ellipse fill="#EE869A" cx="64.265" cy="100.651" rx="8.599" ry="2.877"/>
		<g>
			<path fill="none" stroke="#613619" stroke-width="2" stroke-miterlimit="10" d="M73.229,66.99
				c7.582,0,12.591,6.224,12.591,13.805c0,7.582-5.009,13.649-12.591,13.649c-7.581,0-12.505-6.144-12.505-13.726
				S65.648,66.99,73.229,66.99z"/>
			<path fill="#613619" d="M73.244,71.439c5.254,0,8.724,4.314,8.724,9.567c0,5.254-3.47,9.458-8.724,9.458
				c-5.255,0-8.666-4.258-8.666-9.512S67.989,71.439,73.244,71.439z"/>
			<circle fill="#FFFFFF" cx="76.656" cy="79.397" r="3.738"/>
			<circle fill="#FFFFFF" cx="68.918" cy="85.992" r="2.012"/>
		</g>
		<g>
			<path fill="none" stroke="#613619" stroke-width="2" stroke-miterlimit="10" d="M115.8,66.99
				c-7.582,0-12.591,6.224-12.591,13.805c0,7.582,5.01,13.649,12.591,13.649s12.506-6.144,12.506-13.726S123.382,66.99,115.8,66.99z
				"/>
			<path fill="#613619" d="M115.786,71.439c-5.254,0-8.725,4.314-8.725,9.567c0,5.254,3.471,9.458,8.725,9.458
				s8.666-4.258,8.666-9.512S121.04,71.439,115.786,71.439z"/>
			<circle fill="#FFFFFF" cx="112.373" cy="79.397" r="3.738"/>
			<circle fill="#FFFFFF" cx="120.111" cy="85.992" r="2.012"/>
		</g>
		<path fill="none" stroke="#63361A" stroke-width="2" stroke-linecap="round" stroke-linejoin="round" stroke-miterlimit="10" d="
			M94.325,104.77c-0.535-1.512,0.132-5.411,0.132-5.411"/>
		<g>
			<path fill="#613619" d="M99.809,89.199c0.576,0.363,0.904,0.683,1.147,0.955s0.401,0.498,0.652,0.852s0.595,0.838,0.419,1.759
				c-0.176,0.921-0.872,2.28-2.322,3.897c-1.45,1.617-3.653,3.491-5.248,3.491c-1.596,0-3.798-1.874-5.248-3.491
				c-1.45-1.617-2.146-2.976-2.322-3.897c-0.176-0.921,0.169-1.405,0.42-1.759s0.408-0.58,0.651-0.852s0.571-0.592,1.148-0.955
				c0.577-0.363,1.402-0.771,5.351-0.802C98.405,88.429,99.231,88.836,99.809,89.199z"/>
			<path fill="#FFFFFF" d="M100.024,91.827c-0.139,0.129-0.356,0.102-0.459-0.056c-0.099-0.151-0.235-0.334-0.405-0.505
				c-0.26-0.261-0.52-0.436-0.697-0.539c-0.128-0.075-0.18-0.23-0.127-0.368l0.032-0.082c0.053-0.135,0.192-0.216,0.335-0.189
				c0.255,0.048,0.676,0.174,1.13,0.504c0.253,0.184,0.429,0.409,0.536,0.572c0.081,0.123,0.06,0.285-0.048,0.386L100.024,91.827z"
				/>
		</g>
		<path fill="none" stroke="#613619" stroke-miterlimit="10" d="M87.797,107.189c0.599,2.317,0.978,3.785,1.575,6.103
			c3.075,0,6.149,0,9.224,0c0.6-2.319,0.977-3.458,1.574-5.776c-2.046-0.056-3.87-1.264-5.917-1.266
			c-0.089,1.637-0.179,3.273-0.268,4.911c-0.09-1.638-0.18-3.274-0.27-4.911C91.67,106.253,89.843,107.133,87.797,107.189z"/>
		<path fill="none" stroke="#63361A" stroke-width="2" stroke-linecap="round" stroke-linejoin="round" stroke-miterlimit="10" d="
			M79.199,105.14c8.122,4.631,13.934,0.218,15.126-0.024c7.7,6.479,15.066-0.346,15.066-0.346"/>
		<g>
			<g>
				<g>
					<path fill="#FFFFFF" d="M95.397,138.98c-0.263-0.721-0.524-1.44-0.786-2.16c-0.692,1.902-1.385,3.805-2.077,5.707
						c-1.882-0.922-2.931-2.976-2.575-5.041c0.356-2.064,2.031-3.648,4.113-3.887c2.082-0.24,4.073,0.922,4.888,2.854
						c0.814,1.931,0.259,4.168-1.365,5.493c0.088,0.569-0.647,0.874-0.988,0.409c-0.34-0.465,0.171-1.074,0.688-0.82
						c3.073-2.54,1.227-7.531-2.76-7.458c-3.985,0.073-5.649,5.129-2.485,7.554c0.855-2.347,1.709-4.693,2.563-7.041
						c0.625,1.717,1.25,3.436,1.875,5.152c-0.46,0-0.919,0-1.378,0c0.357,0.984,0.716,1.968,1.074,2.951
						c-0.786-1.237-1.572-2.477-2.358-3.715C94.35,138.979,94.873,138.979,95.397,138.98z"/>
				</g>
			</g>
		</g>
	</g>
</g>
</svg>
