<?xml version="1.0" encoding="utf-8"?>
<!-- Generator: Adobe Illustrator 16.0.0, SVG Export Plug-In . SVG Version: 6.00 Build 0)  -->
<!DOCTYPE svg PUBLIC "-//W3C//DTD SVG 1.1//EN" "http://www.w3.org/Graphics/SVG/1.1/DTD/svg11.dtd">
<svg version="1.1" id="图层_1" xmlns="http://www.w3.org/2000/svg" xmlns:xlink="http://www.w3.org/1999/xlink" x="0px" y="0px"
	 width="220px" height="230px" viewBox="0 0 220 230" enable-background="new 0 0 220 230" xml:space="preserve">
<ellipse fill="#C7C6C6" cx="158.644" cy="221.059" rx="10.54" ry="3.096"/>
<path fill="#C99F72" stroke="#613619" stroke-miterlimit="10" d="M147.741,193.497c1.925,1.095,1.961,9.348,0.076,13.16
	c-1.886,3.811-0.759,12.206,0.492,13.04c1.252,0.834,19.354,0.521,20.281-0.286c0.929-0.808-0.492-3.06-3.49-4.37
	c-2.997-1.311-7.214,1.52-8.741,1.578c-1.528,0.058-4.391,0.162-5.012-0.776c-0.62-0.938,0.48-6.373,4.978-9.133
	s9.328-9.774,10.265-13.46c0.938-3.686,2.379-9.828-6.388-11.619c-8.768-1.791-13.227,5.365-13.227,5.365
	S144.234,191.502,147.741,193.497z"/>
<ellipse fill="#C7C6C6" cx="137.956" cy="221.059" rx="10.54" ry="3.096"/>
<path fill="#EAC08A" stroke="#613619" stroke-miterlimit="10" d="M115.149,180.965c-1.166-3.498-10.399,1.18-10.399,1.18
	c-34.316,15.715-59.816,3.1-68.066-11.9c-8.106-14.738,1.503-47.012,3.5-64.263c2.604-22.502-4.934-45.836-6.934-51.224
	c-2-5.388-3.566-19.529,8.434-14.263c12,5.266,49.285,10.002,62.066,39.804c19.489,45.446,2.434,81.196,4.225,85.696
	c1.361,3.421,8.91-0.736,8.91-0.736"/>
<path fill="#FFFFFF" d="M48.932,158.994c-5.5-13.135,3.242-41.944,4.576-54.304s2.924-29.195-1.5-37.965
	c-3.644-7.223-13.179-14.763-4.992-13.897c8.668,0.916,31.918,10.916,40.918,30.039c6.328,13.447-1.473,46.324,0,62.992
	c1.473,16.666,16.416,24.968,16.416,24.968C65.016,184.827,51.76,165.743,48.932,158.994z"/>
<path fill="#E3BB88" stroke="#613619" stroke-miterlimit="10" d="M125.58,134.618l-2.341,2.003c0,0,2.556,10.175-6.667,28.372
	c-8.286,16.351-1.877,23.5,5.691,29.971c6.869,5.873,27.67,7.04,38.8,4.546c15.696-3.518,26.01-19.462,22.387-33.332
	c-5.565-21.307-10.218-29.324-10.218-29.324L125.58,134.618z"/>
<path fill="#FFFFFF" d="M180.515,157.654c-4.828-15.521-8.553-23.036-8.553-23.036l-15.446,2.835c0,0-3.834,3.04,0,7.972
	c3.834,4.933,2.698,26.415,3.928,37.568s18.396,3.875,18.396,3.875C185.173,176.035,184.479,170.387,180.515,157.654z"/>
<path fill="#187FC4" d="M151.483,112.742h-8.735l-23.251,22.349c0,0,24.269,4.187,34.686,8.767c7.365,3.237,18.25,11,18.25,11
	s0.71-3.868,1.158-8.864c0.137-5.443-0.358-9.14-0.358-9.14L151.483,112.742z"/>
<path fill="#EAC08A" stroke="#63361A" stroke-miterlimit="10" d="M83.912,107.003c0.682,1.978,4.396,1.385,4.979,2.592
	c0.765,1.583-3.409,0.921-2.318,3.649c6.674,16.686,31.145,24.473,52.334,23.473c3.322-0.156,4.419,2.46,8.385,3.66
	c2.097,0.596,6.945,0.748,10.423-0.207c3.162-1.033,3.664-3.609,6.986-3.453c21.188,1,33.658-8.787,40.333-25.473
	c1.091-2.728-3.083-2.066-2.319-3.649c0.583-1.208,4.297-0.614,4.979-2.592c0.728-2.112-3.24-1.739-3.343-2.66
	c-0.146-1.316,4.093-1.705,2.047-4.57c-3.779-5.289-8.025-7.556-15.539-11.99c-2.495-9.11-3.466-15.199-6.057-20.759
	c-3.34-7.168-5.895-11.734-9.023-17.727c-3.484-6.673-10.229-11.407-12.259-9.521c-1.406,1.305-0.534,1.673-2.829,11.239
	c-0.444,1.847-4.242-1.282-13.853-0.888c-9.738-0.166-13.48,2.735-13.924,0.888c-2.296-9.566-1.423-9.934-2.829-11.239
	c-2.03-1.886-8.774,2.848-12.259,9.521c-3.129,5.993-4.684,10.559-8.023,17.727c-2.174,4.666-4.447,11.233-7.057,20.759
	c-7.514,4.434-13.761,8.701-17.539,13.99c-2.046,2.865,2.192,3.254,2.047,4.57C87.151,105.264,83.184,104.891,83.912,107.003z"/>
<path fill="#613619" d="M163.855,50.116c3.115,0.671,5.707,1.619,8.014,2.853c-0.672-2.094-1.138-3.569-1.771-4.785
	c-0.964-1.85-1.519-2.435-2.236-3.52c-0.719-1.085-1.758-1.744-2.14-1.768c-0.381-0.023-0.646,0.385-1.017,2.062
	C164.433,46.188,164.243,46.741,163.855,50.116z"/>
<path fill="#613619" d="M129.587,50.116c-3.116,0.671-5.706,1.619-8.014,2.853c0.672-2.094,1.138-3.569,1.771-4.785
	c0.965-1.85,1.52-2.435,2.237-3.52s1.759-1.744,2.14-1.768c0.381-0.023,0.646,0.385,1.017,2.062
	C129.01,46.188,129.199,46.741,129.587,50.116z"/>
<g>
	<path fill="#FFFFFF" d="M93.215,109.525c0.863,14.034,20.93,27.756,46.408,27.206c2.994-0.064,3.725,2.095,6.931,3.095
		c4.175,1.028,7.059,0.745,10.847-0.052c2.875-0.972,4.531-3.534,5.883-3.448c20.981,1.334,34.474-12.767,35.337-26.799
		c0.472-7.667-0.909-12.367-6.786-15.789c-3.689-2.148-4.396-1.656-4.632-1.649c-6.361-28.94-15.618-29.283-19.342-29.556
		c-3.789-0.278-6.716,1.158-9.218,7.461c-0.929,2.34-2.236,12.407-2.586,15.75c-0.248,2.377-0.422,6.723-4.375,7.455
		c-2.044-0.333-2.816-0.581-4.5-5.274c-2.275-6.348-6.04-14.154-6.866-16.532c-2.489-7.153-7.899-9.608-13.22-9.608
		c-5.522,0-13.646,4.427-20.461,30.304c-0.235-0.007-2.941-0.499-6.631,1.649C94.127,97.159,92.745,101.86,93.215,109.525z"/>
</g>
<ellipse fill="#EE869A" cx="186.306" cy="107.566" rx="8.599" ry="2.877"/>
<ellipse fill="#EE869A" cx="116.885" cy="108.857" rx="8.599" ry="2.877"/>
<path fill="none" stroke="#63361A" stroke-width="2" stroke-linecap="round" stroke-linejoin="round" stroke-miterlimit="10" d="
	M152.938,112.977c-0.535-1.512,0.132-5.411,0.132-5.411"/>
<g>
	<path fill="#613619" d="M158.129,97.088c0.583,0.354,0.916,0.668,1.163,0.937s0.409,0.492,0.665,0.842
		c0.257,0.35,0.609,0.828,0.447,1.752c-0.162,0.924-0.837,2.294-2.262,3.933c-1.424,1.64-3.597,3.548-5.191,3.573
		s-3.827-1.814-5.302-3.408c-1.476-1.594-2.193-2.942-2.384-3.86s0.146-1.407,0.392-1.765c0.245-0.358,0.398-0.586,0.638-0.862
		s0.563-0.601,1.133-0.973c0.571-0.372,1.392-0.793,5.338-0.886C156.713,96.341,157.546,96.735,158.129,97.088z"/>
	<path fill="#FFFFFF" d="M158.384,99.715c-0.136,0.131-0.354,0.108-0.459-0.049c-0.1-0.15-0.239-0.331-0.413-0.499
		c-0.264-0.257-0.525-0.428-0.705-0.528c-0.129-0.073-0.183-0.227-0.132-0.366l0.03-0.083c0.05-0.137,0.189-0.22,0.332-0.195
		c0.256,0.044,0.679,0.163,1.138,0.486c0.256,0.181,0.437,0.402,0.545,0.564c0.082,0.122,0.064,0.285-0.042,0.387L158.384,99.715z"
		/>
</g>
<g>
	<g>
		<g>
			<path fill="#FFFFFF" d="M168.193,144.441c-0.452-0.617-0.905-1.235-1.357-1.854c-0.134,2.02-0.268,4.04-0.402,6.061
				c-2.064-0.36-3.644-2.039-3.879-4.121c-0.233-2.082,0.933-4.07,2.865-4.881c1.934-0.811,4.168-0.25,5.49,1.377
				c1.322,1.625,1.413,3.929,0.223,5.654c0.243,0.523-0.378,1.021-0.835,0.67c-0.457-0.352-0.136-1.08,0.432-0.979
				c2.241-3.296-0.926-7.573-4.732-6.392c-3.807,1.183-3.994,6.502-0.279,7.947c0.165-2.492,0.331-4.984,0.496-7.476
				c1.079,1.475,2.158,2.948,3.238,4.424c-0.441,0.129-0.882,0.257-1.323,0.385c0.619,0.845,1.237,1.69,1.856,2.535
				c-1.101-0.97-2.201-1.938-3.302-2.909C167.188,144.736,167.69,144.59,168.193,144.441z"/>
		</g>
	</g>
</g>
<path fill="#DEB686" stroke="#613619" stroke-miterlimit="10" d="M128.283,193.495c1.925,1.095,1.961,9.349,0.076,13.16
	c-1.885,3.811-0.757,12.206,0.493,13.04c1.251,0.834,19.353,0.521,20.28-0.286c0.929-0.808-0.492-3.06-3.49-4.37
	c-2.997-1.311-7.214,1.52-8.741,1.578c-1.528,0.058-4.391,0.162-5.012-0.776c-0.62-0.938,0.48-6.373,4.978-9.133
	s9.328-9.774,10.265-13.46c0.938-3.686,2.379-9.828-6.388-11.619s-13.227,5.365-13.227,5.365S124.775,191.5,128.283,193.495z"/>
<path fill="#EAC08A" stroke="#63361A" stroke-miterlimit="10" d="M144.304,162.456c1.265,3.153,7.095,10.741,8.151,11.483
	c0.286,0.201,0.87,0.03,1.336-0.092c0.7-0.184,1.252-0.183,2.116-0.145c1.923,0.084,3.587,1.283,3.284,2.088
	c-0.277,0.732-1.197-0.126-1.339,0.057c-0.143,0.184,1.93,1.43,1.591,4.545c-0.203,1.863-2.475,4.106-5.494,3.138
	c-4.229-1.357-2.671-3.661-6.26-7.328c-3.59-3.667-8.63-3.136-18.275-15.474c-2.262-2.894-1.256-10.588,3.912-12.028
	C138.493,147.259,143.741,161.055,144.304,162.456z"/>
<g>
	<path fill="none" stroke="#613619" stroke-miterlimit="10" d="M146.48,116.011c0.634,2.308,0.678,3.769,1.312,6.077
		c3.074-0.048,6.577-0.384,9.651-0.432c0.562-2.327,0.851-3.186,1.413-5.512c0,0-3.891-2.204-5.937-2.173
		c-0.063,1.638-0.127,4.277-0.19,5.915c-0.115-1.636-0.23-4.271-0.346-5.907C150.338,114.013,146.481,116.01,146.48,116.011z"/>
	<path fill="none" stroke="#63361A" stroke-width="2" stroke-linecap="round" stroke-linejoin="round" stroke-miterlimit="10" d="
		M141.51,117.035c0,0,10.576-3.291,11.765-3.551l10.794,4.384"/>
</g>
<g>
	<g>
		<path fill="none" stroke="#613619" stroke-width="2" stroke-miterlimit="10" d="M180.703,85.54
			c-2.313-0.81-8.008-3.103-10.296-4.67c-5.113-3.503-6.236,1.516-6.236,7.628c0,6.113,4.378,11.005,11.005,11.005
			s10.931-4.955,10.931-11.068C186.106,86.336,184.533,86.881,180.703,85.54z"/>
		<path fill="#613619" d="M174.423,82.876c-3.972-2.126-6.884,1.556-6.884,5.792s3.034,7.626,7.626,7.626s7.574-3.434,7.574-7.67
			S178.202,84.898,174.423,82.876z"/>
		<ellipse fill="#FFFFFF" cx="172.181" cy="87.37" rx="3.267" ry="3.014"/>
		<ellipse fill="#FFFFFF" cx="178.944" cy="92.688" rx="1.759" ry="1.623"/>
	</g>
	<path fill="none" stroke="#63361A" stroke-width="4" stroke-linecap="round" stroke-linejoin="round" stroke-miterlimit="10" d="
		M187.181,87.37c-12.043-1.273-20.758-8.66-20.758-8.66"/>
</g>
<g>
	<g>
		<path fill="none" stroke="#613619" stroke-width="2" stroke-miterlimit="10" d="M123.162,85.54
			c2.313-0.81,8.008-3.103,10.296-4.67c5.113-3.503,6.236,1.516,6.236,7.628c0,6.113-4.378,11.005-11.005,11.005
			s-10.93-4.955-10.93-11.068C117.76,86.336,119.332,86.881,123.162,85.54z"/>
		<path fill="#613619" d="M129.443,82.876c3.972-2.126,6.884,1.556,6.884,5.792s-3.034,7.626-7.626,7.626s-7.574-3.434-7.574-7.67
			S125.663,84.898,129.443,82.876z"/>
		<ellipse fill="#FFFFFF" cx="131.685" cy="87.37" rx="3.267" ry="3.014"/>
		<ellipse fill="#FFFFFF" cx="124.921" cy="92.688" rx="1.759" ry="1.623"/>
	</g>
	<path fill="none" stroke="#63361A" stroke-width="4" stroke-linecap="round" stroke-linejoin="round" stroke-miterlimit="10" d="
		M116.684,87.37c12.044-1.273,20.759-8.66,20.759-8.66"/>
</g>
</svg>
