<?xml version="1.0" encoding="utf-8"?>
<!-- Generator: Adobe Illustrator 16.0.0, SVG Export Plug-In . SVG Version: 6.00 Build 0)  -->
<!DOCTYPE svg PUBLIC "-//W3C//DTD SVG 1.1//EN" "http://www.w3.org/Graphics/SVG/1.1/DTD/svg11.dtd">
<svg version="1.1" id="图层_1" xmlns="http://www.w3.org/2000/svg" xmlns:xlink="http://www.w3.org/1999/xlink" x="0px" y="0px"
	 width="200px" height="230px" viewBox="0 0 200 230" enable-background="new 0 0 200 230" xml:space="preserve">
<g>
	<ellipse fill="#C7C6C6" cx="135.775" cy="211.404" rx="10.54" ry="3.095"/>
	<ellipse fill="#C7C6C6" cx="94.911" cy="211.404" rx="10.54" ry="3.095"/>
	<g>
		<path fill="#EAC08A" stroke="#613619" stroke-miterlimit="10" d="M132.766,172.943c11.272-18.551,12.206-54.836,10.064-67.931
			c-9.256-56.612-33.613-72.635-59.258-78.026c-22.998-4.835-34.478-6.186-39.664-1.781c-5.188,4.405,9.246,7.919,12.473,22.97
			c3.227,15.051-22.027,48.217-25.202,68.36c-3.925,24.902,10.356,47.533,25.899,59.121c20.008,14.914,39.4,13.371,53.844,17.865
			C110.922,193.521,121.492,191.496,132.766,172.943z"/>
		<path fill="#FFFFFF" d="M125.966,152.391c8.543-14.06,9.256-41.559,7.628-51.481c-5.828-35.521-20.497-51.173-37.827-59.809
			c-8.044-4.01-28.354-8.407-28.354-4.102c0,2.831,4.826,4.356,6.351,14.516c1.731,11.536-22.233,48.255-24.64,63.52
			c-2.973,18.871,4.572,31.479,19.486,43.475c14.735,11.853,29.859,10.134,40.804,13.539
			C109.413,172.048,117.423,166.449,125.966,152.391z"/>
	</g>
	<path fill="#EAC08A" stroke="#63361A" stroke-miterlimit="10" d="M78.971,170.089c2.82,0.091,3.794-1.53,3.954-1.407
		s-0.144,0.452,0.048,0.612s0.662,0.063,1-0.205c0.339-0.269,0.691-0.825,0.813-2.114c0.072-0.75,0.08-1.043-0.084-1.654
		c-0.109-0.405-0.312-1.103-0.137-1.354c0.643-0.925,3.158-2.734,9.971-7.158c-10.717,24.904-10.379,26.873-10.447,28.24
		c-0.122,2.455,0.622,4.825,1.773,6.684c2.66,4.297,9.332,8.509,9.844,9.093c0.777,0.89,3.936,2.979,1.613,3.321
		c-2.322,0.34-4.742-0.819-7.187-0.901c-1.61-0.054-2.679,0.573-3.192,1.344c-0.513,0.771-1.283,2.065-1.646,2.78
		c-0.363,0.714-0.321,0.844-0.213,1.104c0.109,0.26,0.285,0.648,5.289,0.842c5.002,0.194,5.011,0.194,10.072,0.15
		c5.062-0.045,5.444-0.648,5.815-1.818c0.315-0.998-0.183-2.416-0.96-6.394l0.004-0.003c7.046,1.382,14.093,1.449,21.14,0.205
		c-0.752,3.814-1.229,5.213-0.919,6.191c0.37,1.17,0.753,1.773,5.815,1.818c5.062,0.044,5.069,0.044,10.072-0.15
		c5.003-0.193,5.18-0.582,5.288-0.842c0.11-0.259,0.152-0.39-0.212-1.104c-0.364-0.715-1.134-2.01-1.646-2.78
		c-0.514-0.771-1.581-1.397-3.192-1.344c-2.444,0.083-4.865,1.241-7.187,0.901c-2.322-0.342,0.836-2.432,1.613-3.321
		c0.512-0.584,7.185-4.795,9.845-9.093c1.149-1.858,1.895-4.229,1.772-6.684c-0.066-1.367,0.271-3.336-10.448-28.24
		c6.813,4.424,9.33,6.233,9.973,7.158c0.174,0.25-0.028,0.948-0.138,1.354c-0.163,0.611-0.154,0.904-0.085,1.654
		c0.121,1.287,0.475,1.846,0.813,2.114c0.338,0.269,0.809,0.365,1,0.205c0.19-0.16-0.112-0.489,0.048-0.612
		c0.161-0.123,1.135,1.498,3.954,1.407c1.119-0.036,3.592-2.137,2.761-4.774c-1.163-3.691-3.178-2.345-6.357-5.49
		c-3.18-3.146-2.128-4.391-15.488-17.719c-0.424-0.424-0.857-0.854-1.285-1.285l-14.896-0.851v-0.188l-1.651,0.094l-1.65-0.094
		v0.188l-14.896,0.851c-0.429,0.431-0.86,0.861-1.285,1.285c-13.36,13.33-12.309,14.572-15.487,17.719
		c-3.181,3.146-5.195,1.799-6.358,5.49C75.384,167.952,77.855,170.053,78.971,170.089z"/>
	<path fill="#FFFFFF" d="M101.746,154.266c0-7.735,6.271-14.006,14.006-14.006l0,0c7.734,0,14.005,6.271,14.005,14.006l4.364,24.312
		c1.183,7.776-2.092,14.075-18.369,14.005h-2.001c-11.55,0-18.142-5.957-16.369-14.005L101.746,154.266z"/>
	<polygon fill="#187FC4" points="120.813,119.143 112.077,119.143 93.836,140.655 116.17,163.84 137.396,140.837 	"/>
	<path fill="#EAC08A" stroke="#63361A" stroke-miterlimit="10" d="M53.242,113.402c0.683,1.978,4.396,1.385,4.979,2.592
		c0.765,1.583-3.41,0.921-2.319,3.648c6.676,16.687,26.146,24.474,47.334,23.474c3.322-0.157,4.592,2.551,8.558,3.751
		c2.096,0.595,5.335,0.773,8.813-0.182c3.161-1.033,5.102-3.727,8.423-3.569c21.189,1,40.659-6.786,47.334-23.474
		c1.091-2.728-3.083-2.065-2.318-3.648c0.583-1.208,4.297-0.614,4.979-2.592c0.729-2.112-3.24-1.739-3.342-2.66
		c-0.146-1.316,4.092-1.705,2.046-4.57c-3.778-5.289-10.025-9.556-17.539-13.99c-2.608-9.526-4.882-16.092-7.056-20.759
		c-3.34-7.168-4.896-11.734-8.024-17.727c-3.483-6.673-9.228-11.407-11.259-9.521c-1.406,1.305-1.534,1.673-3.829,11.239
		c-0.444,1.847-4.242-1.282-13.852-0.888c-9.738-0.166-13.481,2.735-13.925,0.888c-2.295-9.566-2.422-9.934-3.828-11.239
		c-2.031-1.886-7.775,2.848-11.26,9.521c-3.129,5.993-4.684,10.559-8.023,17.727c-2.174,4.666-4.447,11.233-7.057,20.759
		c-7.514,4.434-13.76,8.701-17.539,13.99c-2.045,2.865,2.193,3.254,2.047,4.57C56.482,111.662,52.514,111.289,53.242,113.402z"/>
	<path fill="#613619" d="M133.185,56.515c3.116,0.671,5.707,1.619,8.014,2.853c-0.672-2.094-1.138-3.569-1.771-4.785
		c-0.964-1.85-1.52-2.435-2.237-3.52s-1.758-1.744-2.139-1.768c-0.381-0.023-0.646,0.385-1.018,2.062
		C133.763,52.586,133.572,53.14,133.185,56.515z"/>
	<path fill="#613619" d="M98.917,56.515c-3.116,0.671-5.707,1.619-8.015,2.853c0.672-2.094,1.139-3.569,1.771-4.785
		c0.964-1.85,1.52-2.435,2.236-3.52c0.719-1.085,1.759-1.744,2.14-1.768c0.381-0.023,0.646,0.385,1.017,2.062
		C98.339,52.586,98.529,53.14,98.917,56.515z"/>
	<g>
		<path fill="#FFFFFF" d="M62.546,115.924c0.862,14.033,15.928,27.756,41.407,27.205c2.994-0.064,4.891,2.049,7.765,3.021
			c3.054,1.012,4.828,1.147,8.394-0.102c2.874-0.971,4.475-3.523,7.501-3.324c25.031,1.637,41.475-12.767,42.337-26.8
			c0.473-7.667-0.909-12.367-6.786-15.789c-3.689-2.148-6.396-1.656-6.632-1.649c-6.36-28.94-16.455-29.349-20.179-29.622
			c-3.789-0.278-8.544,0.545-11.045,6.848c-0.928,2.34-5.175,16.249-6.002,18.773c-0.805,2.459-1.013,3.894-3.058,4.227
			c-2.044-0.333-2.252-1.769-3.057-4.227c-0.827-2.525-4.719-14.317-5.545-16.695c-2.49-7.153-5.9-9.608-11.22-9.608
			c-5.522,0-13.647,4.427-20.461,30.304c-0.235-0.007-2.942-0.499-6.632,1.649C63.457,103.557,62.076,108.258,62.546,115.924z"/>
	</g>
	<ellipse fill="#EE869A" cx="145.174" cy="115.256" rx="8.599" ry="2.877"/>
	<ellipse fill="#EE869A" cx="85.903" cy="115.256" rx="8.599" ry="2.877"/>
	<path fill="none" stroke="#63361A" stroke-width="2" stroke-linecap="round" stroke-linejoin="round" stroke-miterlimit="10" d="
		M115.964,119.375c-0.535-1.512,0.132-5.411,0.132-5.411"/>
	<g>
		<path fill="#613619" d="M121.446,103.804c0.577,0.363,0.905,0.683,1.148,0.955c0.243,0.272,0.4,0.498,0.651,0.852
			s0.596,0.838,0.419,1.759c-0.176,0.921-0.871,2.28-2.321,3.897c-1.45,1.617-3.653,3.491-5.248,3.491
			c-1.596,0-3.798-1.874-5.248-3.491c-1.45-1.617-2.146-2.976-2.322-3.897s0.168-1.405,0.42-1.759
			c0.25-0.354,0.408-0.58,0.651-0.852c0.243-0.272,0.571-0.592,1.147-0.955c0.577-0.363,1.403-0.771,5.352-0.802
			C120.044,103.034,120.869,103.441,121.446,103.804z"/>
		<path fill="#FFFFFF" d="M121.661,106.433c-0.138,0.129-0.355,0.102-0.459-0.056c-0.098-0.151-0.234-0.334-0.404-0.505
			c-0.261-0.261-0.521-0.436-0.697-0.539c-0.128-0.075-0.18-0.23-0.127-0.368l0.032-0.082c0.053-0.135,0.191-0.216,0.335-0.189
			c0.255,0.048,0.676,0.174,1.13,0.504c0.253,0.184,0.429,0.409,0.536,0.572c0.081,0.123,0.06,0.285-0.048,0.386L121.661,106.433z"
			/>
	</g>
	<g>
		<g>
			<g>
				<path fill="#FFFFFF" d="M117.035,153.585c-0.262-0.72-0.523-1.44-0.785-2.16c-0.692,1.902-1.386,3.806-2.077,5.707
					c-1.883-0.922-2.932-2.975-2.575-5.04c0.355-2.064,2.031-3.648,4.113-3.888s4.072,0.923,4.888,2.854
					c0.813,1.931,0.259,4.168-1.365,5.492c0.087,0.569-0.647,0.874-0.989,0.409c-0.34-0.465,0.172-1.074,0.688-0.819
					c3.073-2.541,1.226-7.531-2.76-7.459c-3.985,0.073-5.649,5.129-2.485,7.555c0.855-2.348,1.709-4.694,2.563-7.041
					c0.625,1.717,1.25,3.435,1.875,5.152c-0.46,0-0.92,0-1.379,0c0.358,0.983,0.717,1.967,1.074,2.951
					c-0.786-1.238-1.571-2.477-2.357-3.715C115.987,153.584,116.512,153.584,117.035,153.585z"/>
			</g>
		</g>
	</g>
	<g>
		<ellipse fill="#E5E5E4" cx="137.113" cy="104.178" rx="9.75" ry="2.511"/>
		<path fill="#63361A" d="M127.363,92.917c0-0.414,0.336-0.75,0.75-0.75h17c0.414,0,0.75,0.336,0.75,0.75l0,0
			c0,0.414-0.336,0.75-0.75,0.75h-17C127.699,93.667,127.363,93.331,127.363,92.917L127.363,92.917z"/>
		<path fill="#63361A" d="M127.363,102.667c0-0.414,0.336-0.75,0.75-0.75h17c0.414,0,0.75,0.336,0.75,0.75l0,0
			c0,0.414-0.336,0.75-0.75,0.75h-17C127.699,103.417,127.363,103.081,127.363,102.667L127.363,102.667z"/>
		<circle fill="#63361A" cx="136.577" cy="97.834" r="1.735"/>
		<path fill="none" stroke="#613619" stroke-width="2" stroke-linecap="round" stroke-linejoin="round" stroke-miterlimit="10" d="
			M138.03,83.568c-4.25-0.25-7.001-4.25-7.001-4.25"/>
	</g>
	<g>
		<ellipse fill="#E5E5E4" cx="95.779" cy="104.178" rx="9.75" ry="2.511"/>
		<path fill="#63361A" d="M105.529,92.917c0-0.414-0.336-0.75-0.75-0.75h-17c-0.414,0-0.75,0.336-0.75,0.75l0,0
			c0,0.414,0.336,0.75,0.75,0.75h17C105.193,93.667,105.529,93.331,105.529,92.917L105.529,92.917z"/>
		<path fill="#63361A" d="M105.529,102.667c0-0.414-0.336-0.75-0.75-0.75h-17c-0.414,0-0.75,0.336-0.75,0.75l0,0
			c0,0.414,0.336,0.75,0.75,0.75h17C105.193,103.417,105.529,103.081,105.529,102.667L105.529,102.667z"/>
		<circle fill="#63361A" cx="96.315" cy="97.834" r="1.735"/>
		<path fill="none" stroke="#613619" stroke-width="2" stroke-linecap="round" stroke-linejoin="round" stroke-miterlimit="10" d="
			M94.861,83.568c4.25-0.25,7.002-4.25,7.002-4.25"/>
	</g>
	<g>
		<polygon fill="#FFFFFF" points="117.625,120.6 114.336,120.457 111.84,120.928 109.117,121.662 110.875,127.464 119.917,127.464 
			121.155,122.221 		"/>
		<path fill="none" stroke="#613619" stroke-miterlimit="10" d="M109.117,121.361c0.599,2.318,0.978,3.785,1.575,6.104
			c3.075,0,6.149,0,9.225,0c0.599-2.318,0.976-3.458,1.573-5.775c-2.046-0.057-3.87-1.265-5.917-1.267
			c-0.089,1.638-0.179,3.274-0.268,4.911c-0.09-1.637-0.18-3.273-0.27-4.911C112.989,120.425,111.163,121.307,109.117,121.361z"/>
		<path fill="none" stroke="#63361A" stroke-width="2" stroke-linecap="round" stroke-linejoin="round" stroke-miterlimit="10" d="
			M126.863,123.277c0,0-1.336-0.392-11.218-3.989c-1.192,0.241-3.808,0.979-11.448,3.155"/>
	</g>
</g>
</svg>
