<?xml version="1.0" encoding="utf-8"?>
<!-- Generator: Adobe Illustrator 16.0.0, SVG Export Plug-In . SVG Version: 6.00 Build 0)  -->
<!DOCTYPE svg PUBLIC "-//W3C//DTD SVG 1.1//EN" "http://www.w3.org/Graphics/SVG/1.1/DTD/svg11.dtd">
<svg version="1.1" id="图层_1" xmlns="http://www.w3.org/2000/svg" xmlns:xlink="http://www.w3.org/1999/xlink" x="0px" y="0px"
	 width="220px" height="220px" viewBox="0 0 220 220" enable-background="new 0 0 220 220" xml:space="preserve">
<g>
	<ellipse fill="#C7C6C6" cx="183.226" cy="210.564" rx="10.54" ry="3.095"/>
	<ellipse fill="#C7C6C6" cx="122.778" cy="212.229" rx="10.54" ry="3.095"/>
	<path fill="#C99F72" stroke="#613619" stroke-miterlimit="10" d="M162.16,188.457c2.211-0.125,6.721,6.788,7.204,11.013
		c0.484,4.226,5.986,10.665,7.489,10.688c1.503,0.021,16.54-10.063,16.881-11.244c0.342-1.183-2.074-2.304-5.302-1.777
		c-3.229,0.527-5.235,5.191-6.487,6.069s-3.599,2.518-4.63,2.066s-3.055-5.613-0.775-10.371s2.532-13.271,1.319-16.877
		c-1.213-3.604-3.334-9.547-11.67-6.293c-8.336,3.252-8.199,11.682-8.199,11.682S158.132,188.686,162.16,188.457z"/>
	<path fill="#EAC08A" stroke="#613619" stroke-miterlimit="10" d="M117.412,172.498c-1.166-3.498-10.399,1.18-10.399,1.18
		c-32.431,17.43-59.815,3.1-68.065-11.9c-8.106-14.738,1.045-47.362,5.045-64.263c4-16.901-8.479-45.836-10.479-51.224
		c-2-5.388-3.565-19.529,8.435-14.263s51.284,10.002,64.065,39.804c19.49,45.446,2.435,81.196,4.226,85.696
		c1.36,3.421,8.91-0.736,8.91-0.736"/>
	<path fill="#FFFFFF" d="M51.195,150.527c-5.5-13.135,3.241-41.944,4.575-54.304c1.334-12.36,1.925-27.195-2.499-35.965
		c-3.644-7.223-13.179-14.763-4.992-13.897c8.668,0.916,32.918,8.916,41.918,28.039c6.328,13.447-1.473,46.325,0,62.993
		c1.473,16.666,16.416,24.967,16.416,24.967C67.281,176.359,54.023,157.277,51.195,150.527z"/>
	<path fill="#E3BB88" stroke="#613619" stroke-miterlimit="10" d="M127.845,126.152l-2.341,2.003c0,0,1.186,6.999-7.413,25.499
		c-6.519,14.024-2.92,27.259,6.438,32.844c7.759,4.631,27.669,7.04,38.798,4.546c15.697-3.517,25.951-18.222,21.62-31.887
		c-6.898-21.765-9.452-30.771-9.452-30.771L127.845,126.152z"/>
	<path fill="#FFFFFF" d="M181.386,149.91c-3.677-11.58-7.16-23.758-7.16-23.758l-15.446,2.834c0,0-3.834,3.041,0,7.973
		c3.834,4.934,2.698,26.415,3.927,37.568c1.23,11.152,17.925,5.035,17.925,5.035C188.471,167.659,185.715,163.538,181.386,149.91z"
		/>
	<path fill="#187FC4" d="M153.746,104.276h-8.734l-23.251,22.349c0,0,24.269,4.188,34.686,8.766c7.365,3.238,20.066,11,20.066,11
		s-1.106-3.867-0.658-8.863c0.136-5.443-0.359-9.141-0.359-9.141L153.746,104.276z"/>
	<path fill="#EAC08A" stroke="#63361A" stroke-miterlimit="10" d="M86.176,98.536c0.682,1.978,4.396,1.385,4.979,2.592
		c0.764,1.583-3.41,0.921-2.318,3.649c6.674,16.686,29.461,26.036,52.334,23.473c3.305-0.37,4.419,2.46,8.385,3.66
		c2.097,0.595,6.944,0.748,10.423-0.207c3.162-1.033,3.665-3.631,6.986-3.453c16.925,0.909,35.591-7.257,40.333-25.473
		c0.739-2.844-3.083-2.066-2.319-3.649c0.583-1.208,4.297-0.614,4.979-2.592c0.729-2.112-3.239-1.739-3.342-2.66
		c-0.146-1.316,4.092-1.705,2.046-4.57c-3.778-5.289-8.024-7.556-15.539-11.99c-2.607-9.526-4.882-16.092-7.056-20.759
		c-3.34-7.168-4.895-11.734-8.024-17.727c-3.483-6.673-9.228-11.407-11.259-9.521c-1.406,1.305-1.534,1.673-3.829,11.239
		c-0.443,1.847-4.241-1.282-13.852-0.888c-9.738-0.166-13.481,2.735-13.924,0.888c-2.296-9.566-2.423-9.934-3.829-11.239
		c-2.03-1.886-7.774,2.848-11.259,9.521c-3.129,5.993-4.684,10.559-8.023,17.727c-2.175,4.666-4.447,11.233-7.057,20.759
		c-7.514,4.434-13.762,8.701-17.539,13.99c-2.046,2.865,2.191,3.254,2.046,4.57C89.414,96.797,85.447,96.424,86.176,98.536z"/>
	<path fill="#613619" d="M166.118,41.65c3.116,0.671,5.707,1.619,8.015,2.853c-0.673-2.094-1.139-3.569-1.771-4.785
		c-0.964-1.85-1.519-2.435-2.237-3.52c-0.718-1.085-1.758-1.744-2.139-1.768c-0.381-0.023-0.646,0.385-1.017,2.062
		C166.696,37.721,166.507,38.275,166.118,41.65z"/>
	<path fill="#613619" d="M131.851,41.65c-3.116,0.671-5.707,1.619-8.014,2.853c0.672-2.094,1.138-3.569,1.771-4.785
		c0.965-1.85,1.52-2.435,2.237-3.52c0.718-1.085,1.758-1.744,2.14-1.768c0.381-0.023,0.646,0.385,1.016,2.062
		C131.272,37.721,131.463,38.275,131.851,41.65z"/>
	<g>
		<path fill="#FFFFFF" d="M95.479,101.059c0.863,14.033,20.93,27.755,46.408,27.205c2.994-0.063,3.725,2.096,6.931,3.096
			c4.174,1.027,7.058,0.744,10.846-0.053c2.875-0.971,4.532-3.533,5.884-3.447c20.981,1.334,34.474-12.767,35.337-26.799
			c0.472-7.667-0.909-12.367-6.786-15.789c-3.69-2.148-4.396-1.656-4.632-1.649c-6.361-28.94-15.618-29.283-19.343-29.556
			c-3.789-0.278-6.716,1.158-9.217,7.461c-0.929,2.34-2.236,12.407-2.586,15.75c-0.248,2.377-0.422,6.723-4.375,7.455
			c-2.044-0.333-2.816-0.581-4.5-5.274c-2.275-6.348-6.04-14.154-6.867-16.532c-2.488-7.153-7.898-9.608-13.219-9.608
			c-5.522,0-13.646,4.427-20.461,30.304c-0.236-0.007-2.941-0.499-6.632,1.649C96.39,88.692,95.009,93.393,95.479,101.059z"/>
	</g>
	<ellipse fill="#EE869A" cx="188.569" cy="99.099" rx="8.599" ry="2.877"/>
	<ellipse fill="#EE869A" cx="119.149" cy="100.391" rx="8.599" ry="2.877"/>
	<path fill="none" stroke="#63361A" stroke-width="2" stroke-linecap="round" stroke-linejoin="round" stroke-miterlimit="10" d="
		M155.2,104.51c-0.535-1.512,0.132-5.411,0.132-5.411"/>
	<g>
		<path fill="#613619" d="M160.393,88.622c0.583,0.354,0.916,0.668,1.163,0.937s0.409,0.492,0.665,0.842
			c0.257,0.35,0.608,0.828,0.446,1.752c-0.161,0.924-0.837,2.294-2.261,3.933c-1.424,1.64-3.597,3.548-5.191,3.573
			c-1.596,0.025-3.827-1.814-5.303-3.408c-1.475-1.594-2.192-2.942-2.383-3.86s0.146-1.407,0.392-1.765
			c0.244-0.358,0.398-0.586,0.638-0.862c0.239-0.276,0.562-0.601,1.133-0.973s1.391-0.793,5.338-0.886
			C158.977,87.874,159.81,88.269,160.393,88.622z"/>
		<path fill="#FFFFFF" d="M160.647,91.249c-0.136,0.131-0.354,0.108-0.459-0.049c-0.1-0.15-0.24-0.331-0.413-0.499
			c-0.264-0.257-0.526-0.428-0.705-0.528c-0.129-0.073-0.183-0.227-0.132-0.366l0.03-0.083c0.05-0.137,0.188-0.22,0.332-0.195
			c0.256,0.044,0.679,0.163,1.138,0.486c0.256,0.181,0.436,0.402,0.545,0.564c0.082,0.122,0.064,0.285-0.042,0.387L160.647,91.249z"
			/>
	</g>
	<path fill="none" stroke="#613619" stroke-miterlimit="10" d="M148.53,106.801c0.634,2.308,1.036,3.77,1.67,6.077
		c3.074-0.049,6.149-0.097,9.224-0.146c0.562-2.326,0.921-3.472,1.482-5.798c-2.046-0.024-3.89-1.203-5.936-1.173
		c-0.063,1.638-0.127,3.277-0.191,4.915c-0.115-1.636-0.229-3.271-0.345-4.907C152.388,105.804,150.575,106.713,148.53,106.801z"/>
	<path fill="none" stroke="#63361A" stroke-width="2" stroke-linecap="round" stroke-linejoin="round" stroke-miterlimit="10" d="
		M137.901,104.917c8.194,4.504,16.234-0.383,17.422-0.643c7.801,6.359,12.761-0.2,12.761-0.2"/>
	<g>
		<g>
			<g>
				<path fill="#FFFFFF" d="M170.456,135.977c-0.451-0.619-0.904-1.236-1.356-1.854c-0.134,2.021-0.269,4.04-0.402,6.06
					c-2.064-0.359-3.644-2.037-3.879-4.121c-0.234-2.082,0.932-4.069,2.865-4.881c1.933-0.81,4.168-0.25,5.49,1.377
					c1.321,1.627,1.413,3.93,0.223,5.655c0.243,0.522-0.378,1.021-0.835,0.669c-0.457-0.351-0.136-1.079,0.431-0.979
					c2.242-3.297-0.925-7.573-4.731-6.392c-3.808,1.183-3.994,6.501-0.279,7.947c0.165-2.492,0.331-4.983,0.496-7.476
					c1.079,1.475,2.158,2.949,3.238,4.424c-0.441,0.128-0.883,0.256-1.323,0.384c0.619,0.845,1.237,1.69,1.855,2.535
					c-1.1-0.97-2.2-1.939-3.301-2.909C169.45,136.27,169.954,136.124,170.456,135.977z"/>
			</g>
		</g>
	</g>
	<path fill="#DEB686" stroke="#613619" stroke-miterlimit="10" d="M122.279,180.359c1.373,1.738-1.695,9.399-4.875,12.224
		c-3.181,2.823-5.291,11.026-4.445,12.269c0.845,1.243,17.738,7.758,18.9,7.358c1.164-0.399,0.694-3.021-1.591-5.36
		c-2.286-2.341-7.256-1.304-8.694-1.824c-1.437-0.52-4.127-1.498-4.351-2.602c-0.224-1.102,2.84-5.725,8.044-6.592
		c5.205-0.867,12.318-5.551,14.572-8.615s5.898-8.213-1.553-13.168s-14.272,0-14.272,0S119.779,177.193,122.279,180.359z"/>
	<path fill="#EAC08A" stroke="#63361A" stroke-miterlimit="10" d="M149.325,149.998c1.62,2.986,8.287,9.85,9.423,10.466
		c0.309,0.167,0.868-0.069,1.317-0.245c0.675-0.263,1.223-0.326,2.086-0.388c1.921-0.138,3.712,0.862,3.504,1.694
		c-0.189,0.76-1.203,0.014-1.323,0.211c-0.119,0.199,2.082,1.199,2.105,4.33c0.014,1.875-1.983,4.367-5.095,3.752
		c-4.356-0.859-3.075-3.327-7.064-6.555c-3.989-3.229-8.934-2.117-19.939-13.261c-2.581-2.612-2.471-10.372,2.496-12.399
		C141.802,135.577,148.607,148.673,149.325,149.998z"/>
</g>
<g>
	<path fill="#4B2C13" d="M165.02,80.33c0-0.621,0.504-1.125,1.125-1.125h18.25c0.621,0,1.125,0.504,1.125,1.125l0,0
		c0,0.621-0.504,1.125-1.125,1.125h-18.25C165.523,81.455,165.02,80.951,165.02,80.33L165.02,80.33z"/>
	<path fill="#4B2C13" d="M179.836,81.668c0,2.522-2.045,4.566-4.566,4.566c-2.522,0-4.566-2.044-4.566-4.566
		S179.836,79.146,179.836,81.668z"/>
</g>
<g>
	<path fill="#4B2C13" d="M122.125,80.33c0-0.621,0.505-1.125,1.125-1.125h18.25c0.621,0,1.125,0.504,1.125,1.125l0,0
		c0,0.621-0.504,1.125-1.125,1.125h-18.25C122.63,81.455,122.125,80.951,122.125,80.33L122.125,80.33z"/>
	<path fill="#4B2C13" d="M136.941,81.668c0,2.522-2.044,4.566-4.566,4.566c-2.521,0-4.565-2.044-4.565-4.566
		S136.941,79.146,136.941,81.668z"/>
</g>
</svg>
