<?xml version="1.0" encoding="utf-8"?>
<!-- Generator: Adobe Illustrator 16.0.0, SVG Export Plug-In . SVG Version: 6.00 Build 0)  -->
<!DOCTYPE svg PUBLIC "-//W3C//DTD SVG 1.1//EN" "http://www.w3.org/Graphics/SVG/1.1/DTD/svg11.dtd">
<svg version="1.1" id="图层_1" xmlns="http://www.w3.org/2000/svg" xmlns:xlink="http://www.w3.org/1999/xlink" x="0px" y="0px"
	 width="220px" height="230px" viewBox="0 0 220 230" enable-background="new 0 0 220 230" xml:space="preserve">
<g>
	<ellipse fill="#C7C6C6" cx="162.342" cy="218.906" rx="10.54" ry="3.095"/>
	<path fill="#C99F72" stroke="#613619" stroke-miterlimit="10" d="M151.438,191.344c1.925,1.096,1.961,9.35,0.076,13.16
		s-0.757,12.206,0.493,13.04c1.251,0.834,19.353,0.522,20.281-0.286c0.928-0.808-0.492-3.06-3.49-4.369
		c-2.998-1.311-7.214,1.52-8.742,1.577s-4.39,0.162-5.011-0.776c-0.621-0.938,0.479-6.373,4.977-9.133s9.328-9.773,10.265-13.459
		c0.938-3.687,2.38-9.828-6.388-11.619c-8.767-1.791-13.226,5.364-13.226,5.364S147.932,189.35,151.438,191.344z"/>
	<ellipse fill="#C7C6C6" cx="141.653" cy="218.906" rx="10.54" ry="3.095"/>
	<path fill="#EAC08A" stroke="#613619" stroke-miterlimit="10" d="M118.847,178.811c-1.166-3.498-10.399,1.181-10.399,1.181
		c-34.316,15.715-59.816,3.099-68.066-11.901c-8.105-14.738,1.503-47.011,3.5-64.263c2.605-22.502-4.934-45.836-6.934-51.224
		s-3.566-19.529,8.434-14.263c12,5.266,49.285,10.002,62.066,39.804c19.49,45.446,2.435,81.196,4.225,85.696
		c1.361,3.421,8.911-0.736,8.911-0.736"/>
	<path fill="#FFFFFF" d="M52.63,156.84c-5.5-13.135,3.242-41.944,4.575-54.304c1.334-12.36,2.925-29.195-1.499-37.965
		c-3.644-7.223-13.179-14.763-4.992-13.897c8.667,0.916,31.917,10.916,40.917,30.039c6.329,13.447-1.473,46.325,0,62.992
		c1.473,16.666,16.417,24.968,16.417,24.968C68.715,182.673,55.458,163.59,52.63,156.84z"/>
	<path fill="#E3BB88" stroke="#613619" stroke-miterlimit="10" d="M129.277,132.465l-2.34,2.003c0,0,2.555,10.175-6.668,28.372
		c-8.285,16.352-1.877,23.5,5.692,29.971c6.869,5.873,27.67,7.041,38.799,4.547c15.697-3.519,26.01-19.463,22.387-33.332
		c-5.564-21.308-10.218-29.325-10.218-29.325L129.277,132.465z"/>
	<path fill="#FFFFFF" d="M184.214,155.502c-4.829-15.521-8.554-23.037-8.554-23.037l-15.445,2.835c0,0-3.834,3.039,0,7.972
		c3.834,4.934,2.697,26.416,3.927,37.568c1.23,11.153,18.396,3.875,18.396,3.875C188.87,173.882,188.176,168.234,184.214,155.502z"
		/>
	<path fill="#187FC4" d="M155.181,110.589h-8.735l-23.25,22.349c0,0,24.269,4.188,34.686,8.767c7.364,3.237,18.25,11,18.25,11
		s0.71-3.868,1.158-8.864c0.136-5.443-0.359-9.14-0.359-9.14L155.181,110.589z"/>
	<path fill="#EAC08A" stroke="#63361A" stroke-miterlimit="10" d="M87.609,104.85c0.683,1.978,4.396,1.385,4.979,2.592
		c0.765,1.583-3.41,0.921-2.319,3.649c6.674,16.687,31.146,24.474,52.334,23.474c3.322-0.156,4.419,2.459,8.385,3.66
		c2.098,0.594,6.945,0.748,10.423-0.207c3.162-1.033,3.664-3.61,6.986-3.453c21.188,1,33.658-8.787,40.333-25.474
		c1.091-2.728-3.083-2.066-2.319-3.649c0.583-1.208,4.298-0.614,4.979-2.592c0.728-2.112-3.24-1.739-3.342-2.66
		c-0.146-1.316,4.092-1.705,2.046-4.57c-3.779-5.289-8.025-7.556-15.539-11.99c-2.495-9.11-3.465-15.199-6.056-20.759
		c-3.341-7.168-5.896-11.734-9.024-17.727c-3.484-6.673-10.228-11.407-12.259-9.521c-1.406,1.305-0.534,1.673-2.829,11.239
		c-0.444,1.847-4.242-1.282-13.853-0.888c-9.737-0.166-13.48,2.735-13.924,0.888c-2.295-9.566-1.422-9.934-2.828-11.239
		c-2.031-1.886-8.775,2.848-12.26,9.521c-3.129,5.993-4.684,10.559-8.023,17.727c-2.174,4.666-4.447,11.233-7.057,20.759
		c-7.514,4.434-13.761,8.701-17.539,13.99c-2.045,2.865,2.192,3.254,2.047,4.57C90.849,103.111,86.881,102.738,87.609,104.85z"/>
	<path fill="#613619" d="M167.553,47.963c3.116,0.671,5.707,1.619,8.014,2.853c-0.672-2.094-1.138-3.569-1.771-4.785
		c-0.964-1.85-1.52-2.435-2.237-3.521c-0.718-1.085-1.758-1.744-2.139-1.768c-0.381-0.023-0.646,0.385-1.018,2.062
		C168.131,44.034,167.94,44.588,167.553,47.963z"/>
	<path fill="#613619" d="M133.285,47.963c-3.116,0.671-5.707,1.619-8.014,2.853c0.672-2.094,1.137-3.569,1.771-4.785
		c0.964-1.85,1.519-2.435,2.237-3.521c0.718-1.085,1.758-1.744,2.139-1.768c0.381-0.023,0.646,0.385,1.018,2.062
		C132.707,44.034,132.896,44.588,133.285,47.963z"/>
	<g>
		<path fill="#FFFFFF" d="M96.912,107.372c0.863,14.033,20.93,27.756,46.408,27.205c2.994-0.063,3.726,2.095,6.932,3.095
			c4.174,1.028,7.058,0.745,10.846-0.052c2.875-0.972,4.532-3.534,5.883-3.448c20.982,1.334,34.474-12.766,35.337-26.799
			c0.473-7.667-0.909-12.367-6.786-15.789c-3.689-2.148-4.396-1.656-4.632-1.649c-6.36-28.94-15.618-29.283-19.342-29.556
			c-3.789-0.278-6.716,1.158-9.217,7.461c-0.93,2.34-2.237,12.407-2.586,15.75c-0.248,2.377-0.422,6.723-4.375,7.455
			c-2.044-0.333-2.817-0.581-4.5-5.274c-2.276-6.348-6.04-14.154-6.867-16.532c-2.489-7.153-7.899-9.608-13.219-9.608
			c-5.522,0-13.647,4.427-20.461,30.304c-0.236-0.007-2.942-0.499-6.632,1.649C97.824,95.006,96.443,99.706,96.912,107.372z"/>
	</g>
	<ellipse fill="#EE869A" cx="190.003" cy="105.413" rx="8.599" ry="2.877"/>
	<ellipse fill="#EE869A" cx="120.583" cy="106.704" rx="8.599" ry="2.877"/>
	<path fill="none" stroke="#63361A" stroke-width="2" stroke-linecap="round" stroke-linejoin="round" stroke-miterlimit="10" d="
		M156.635,110.824c-0.535-1.512,0.132-5.411,0.132-5.411"/>
	<g>
		<path fill="#613619" d="M161.826,94.935c0.583,0.354,0.916,0.668,1.163,0.937s0.409,0.492,0.665,0.842
			c0.257,0.35,0.609,0.828,0.447,1.752c-0.162,0.924-0.837,2.294-2.261,3.933c-1.424,1.64-3.598,3.548-5.192,3.573
			s-3.827-1.814-5.302-3.408s-2.193-2.942-2.383-3.86c-0.191-0.918,0.146-1.407,0.391-1.765s0.399-0.586,0.638-0.862
			c0.239-0.276,0.563-0.601,1.134-0.973c0.57-0.372,1.391-0.793,5.338-0.886C160.41,94.188,161.243,94.582,161.826,94.935z"/>
		<path fill="#FFFFFF" d="M162.082,97.562c-0.137,0.131-0.354,0.108-0.459-0.049c-0.101-0.15-0.24-0.331-0.413-0.499
			c-0.265-0.257-0.526-0.428-0.705-0.528c-0.129-0.073-0.184-0.227-0.132-0.366l0.029-0.083c0.05-0.137,0.189-0.22,0.332-0.195
			c0.256,0.044,0.68,0.163,1.139,0.486c0.256,0.181,0.436,0.402,0.545,0.564c0.082,0.122,0.063,0.285-0.042,0.387L162.082,97.562z"
			/>
	</g>
	<path fill="none" stroke="#613619" stroke-miterlimit="10" d="M149.965,113.115c0.634,2.308,1.036,3.769,1.67,6.076
		c3.074-0.049,6.148-0.097,9.223-0.145c0.563-2.327,0.921-3.472,1.483-5.799c-2.046-0.024-3.891-1.203-5.937-1.173
		c-0.063,1.638-0.127,3.277-0.19,4.915c-0.115-1.636-0.23-3.271-0.346-4.907C153.821,112.117,152.01,113.026,149.965,113.115z"/>
	<path fill="none" stroke="#63361A" stroke-width="2" stroke-linecap="round" stroke-linejoin="round" stroke-miterlimit="10" d="
		M139.336,111.231c8.193,4.503,16.233-0.383,17.422-0.643c7.801,6.359,12.761-0.2,12.761-0.2"/>
	<g>
		<g>
			<g>
				<path fill="#FFFFFF" d="M171.891,142.29c-0.452-0.618-0.905-1.236-1.357-1.854c-0.134,2.021-0.268,4.041-0.401,6.061
					c-2.065-0.36-3.645-2.038-3.879-4.121c-0.234-2.082,0.932-4.07,2.864-4.881c1.934-0.811,4.168-0.25,5.49,1.377
					c1.322,1.626,1.413,3.929,0.224,5.654c0.242,0.523-0.379,1.021-0.836,0.67c-0.456-0.352-0.136-1.079,0.432-0.979
					c2.242-3.296-0.925-7.573-4.732-6.391c-3.807,1.182-3.994,6.501-0.278,7.946c0.165-2.492,0.331-4.983,0.495-7.476
					c1.079,1.476,2.158,2.949,3.238,4.424c-0.44,0.128-0.882,0.257-1.323,0.384c0.619,0.846,1.237,1.69,1.856,2.535
					c-1.1-0.97-2.201-1.938-3.301-2.908C170.885,142.583,171.389,142.438,171.891,142.29z"/>
			</g>
		</g>
	</g>
	<path fill="#DEB686" stroke="#613619" stroke-miterlimit="10" d="M131.98,191.342c1.926,1.096,1.961,9.35,0.076,13.16
		s-0.758,12.206,0.493,13.04s19.353,0.522,20.281-0.286c0.928-0.808-0.492-3.061-3.49-4.37s-7.214,1.521-8.742,1.578
		s-4.39,0.162-5.011-0.776c-0.621-0.938,0.48-6.373,4.977-9.133c4.497-2.76,9.328-9.773,10.265-13.46
		c0.938-3.686,2.38-9.827-6.388-11.618c-8.767-1.791-13.226,5.364-13.226,5.364S128.474,189.348,131.98,191.342z"/>
	<path fill="#EAC08A" stroke="#63361A" stroke-miterlimit="10" d="M148.002,160.302c1.264,3.153,7.094,10.741,8.15,11.484
		c0.286,0.2,0.87,0.03,1.336-0.093c0.7-0.184,1.252-0.183,2.116-0.145c1.923,0.084,3.587,1.284,3.284,2.088
		c-0.277,0.732-1.197-0.126-1.339,0.057c-0.143,0.184,1.93,1.431,1.591,4.545c-0.203,1.863-2.474,4.106-5.494,3.138
		c-4.228-1.356-2.671-3.661-6.26-7.328s-8.629-3.135-18.275-15.474c-2.262-2.893-1.256-10.588,3.912-12.028
		C142.19,145.105,147.439,158.9,148.002,160.302z"/>
</g>
<g>
	<path fill="#63361A" d="M169.674,91.345c-0.422-0.862-0.03-1.919,0.875-2.363l12.167-5.96c0.904-0.444,1.98-0.105,2.402,0.756l0,0
		c0.423,0.861,0.029,1.918-0.876,2.362l-12.166,5.961C171.172,92.545,170.096,92.206,169.674,91.345L169.674,91.345z"/>
	<path fill="#63361A" d="M184.858,96.682c0.457-0.879,0.107-1.922-0.781-2.33l-11.935-5.49c-0.889-0.408-1.979-0.027-2.436,0.851
		l0,0c-0.457,0.878-0.107,1.921,0.78,2.33l11.936,5.49C183.312,97.941,184.401,97.56,184.858,96.682L184.858,96.682z"/>
</g>
<g>
	<path fill="#63361A" d="M142.634,91.345c0.422-0.862,0.03-1.919-0.876-2.362l-12.166-5.961c-0.904-0.444-1.98-0.105-2.402,0.756
		l0,0c-0.423,0.861-0.029,1.918,0.875,2.362l12.166,5.961C141.136,92.545,142.212,92.206,142.634,91.345L142.634,91.345z"/>
	<path fill="#63361A" d="M127.449,96.682c-0.457-0.879-0.107-1.922,0.781-2.33l11.935-5.49c0.888-0.408,1.979-0.027,2.436,0.851l0,0
		c0.457,0.878,0.107,1.921-0.781,2.33l-11.935,5.49C128.997,97.941,127.906,97.56,127.449,96.682L127.449,96.682z"/>
</g>
</svg>
