<?xml version="1.0" encoding="utf-8"?>
<!-- Generator: Adobe Illustrator 16.0.0, SVG Export Plug-In . SVG Version: 6.00 Build 0)  -->
<!DOCTYPE svg PUBLIC "-//W3C//DTD SVG 1.1//EN" "http://www.w3.org/Graphics/SVG/1.1/DTD/svg11.dtd">
<svg version="1.1" id="图层_1" xmlns="http://www.w3.org/2000/svg" xmlns:xlink="http://www.w3.org/1999/xlink" x="0px" y="0px"
	 width="200px" height="220px" viewBox="0 0 200 220" enable-background="new 0 0 200 220" xml:space="preserve">
<ellipse fill="#C7C6C6" cx="132.548" cy="216.087" rx="10.54" ry="3.095"/>
<ellipse fill="#C7C6C6" cx="91.683" cy="216.087" rx="10.54" ry="3.095"/>
<g>
	<path fill="#EAC08A" stroke="#613619" stroke-miterlimit="10" d="M129.538,177.627c11.273-18.552,12.206-54.837,10.065-67.932
		c-9.256-56.612-33.614-72.635-59.259-78.026c-22.999-4.835-34.478-6.186-39.665-1.781c-5.188,4.405,9.246,7.919,12.473,22.97
		c3.228,15.051-22.026,48.217-25.201,68.36c-3.926,24.902,10.356,47.534,25.899,59.121c20.007,14.914,39.4,13.371,53.843,17.865
		C107.693,198.204,118.266,196.179,129.538,177.627z"/>
	<path fill="#FFFFFF" d="M122.737,157.073c8.543-14.06,9.256-41.558,7.628-51.481c-5.828-35.521-20.497-51.173-37.826-59.809
		c-8.045-4.01-28.354-8.407-28.354-4.102c0,2.831,4.826,4.356,6.351,14.516c1.73,11.536-22.233,48.255-24.64,63.52
		c-2.974,18.871,4.572,31.48,19.485,43.475c14.736,11.854,29.859,10.134,40.805,13.539
		C106.186,176.73,114.197,171.131,122.737,157.073z"/>
</g>
<path fill="#EAC08A" stroke="#63361A" stroke-miterlimit="10" d="M75.742,174.771c2.82,0.09,3.795-1.531,3.955-1.408
	s-0.144,0.453,0.047,0.613c0.191,0.159,0.662,0.063,1-0.205c0.34-0.269,0.692-0.826,0.813-2.114
	c0.071-0.751,0.079-1.044-0.085-1.654c-0.109-0.405-0.311-1.103-0.137-1.354c0.643-0.924,3.158-2.734,9.972-7.158
	c-10.717,24.904-10.38,26.873-10.448,28.24c-0.121,2.455,0.623,4.826,1.773,6.685c2.66,4.296,9.333,8.508,9.844,9.092
	c0.778,0.89,3.936,2.979,1.614,3.321c-2.322,0.34-4.743-0.819-7.187-0.901c-1.611-0.054-2.68,0.574-3.192,1.345
	c-0.513,0.77-1.283,2.065-1.647,2.779c-0.363,0.715-0.32,0.846-0.212,1.104c0.109,0.261,0.285,0.648,5.288,0.843
	s5.012,0.194,10.073,0.149s5.444-0.647,5.814-1.817c0.316-0.998-0.183-2.416-0.96-6.394l0.004-0.004
	c7.046,1.383,14.093,1.449,21.141,0.205c-0.752,3.814-1.229,5.213-0.919,6.192c0.369,1.17,0.753,1.772,5.814,1.817
	c5.063,0.045,5.07,0.045,10.073-0.149s5.179-0.582,5.288-0.843c0.109-0.258,0.151-0.389-0.212-1.104
	c-0.364-0.714-1.135-2.01-1.647-2.779c-0.513-0.771-1.581-1.398-3.191-1.345c-2.444,0.083-4.865,1.242-7.188,0.901
	c-2.322-0.342,0.836-2.432,1.614-3.321c0.511-0.584,7.184-4.795,9.844-9.092c1.15-1.858,1.896-4.229,1.773-6.685
	c-0.067-1.366,0.27-3.336-10.448-28.24c6.813,4.424,9.33,6.234,9.972,7.158c0.174,0.25-0.027,0.949-0.137,1.354
	c-0.163,0.61-0.155,0.903-0.085,1.654c0.121,1.286,0.474,1.845,0.813,2.114c0.338,0.269,0.81,0.364,1,0.205
	c0.191-0.16-0.111-0.49,0.049-0.613s1.135,1.498,3.953,1.408c1.119-0.037,3.593-2.138,2.762-4.774
	c-1.163-3.692-3.179-2.345-6.358-5.491c-3.179-3.146-2.128-4.39-15.488-17.719c-0.424-0.423-0.856-0.854-1.284-1.285l-14.896-0.85
	v-0.188l-1.651,0.095l-1.649-0.095v0.188l-14.896,0.85c-0.43,0.432-0.861,0.862-1.285,1.285
	c-13.36,13.33-12.309,14.572-15.488,17.719s-5.195,1.799-6.357,5.491C72.156,172.635,74.628,174.736,75.742,174.771z"/>
<path fill="#FFFFFF" d="M98.519,158.947c0-7.735,6.27-14.006,14.005-14.006l0,0c7.735,0,14.005,6.271,14.005,14.006l4.365,24.312
	c1.182,7.776-2.092,14.076-18.37,14.005h-2.001c-11.549,0-18.142-5.957-16.368-14.005L98.519,158.947z"/>
<polygon fill="#187FC4" points="117.586,123.824 108.851,123.824 90.607,145.338 112.941,168.521 134.168,145.52 "/>
<path fill="#EAC08A" stroke="#63361A" stroke-miterlimit="10" d="M50.015,118.084c0.683,1.979,4.396,1.385,4.979,2.592
	c0.764,1.583-3.41,0.922-2.319,3.649c6.675,16.686,26.146,24.473,47.334,23.473c3.321-0.157,4.591,2.552,8.557,3.751
	c2.096,0.596,5.335,0.774,8.813-0.181c3.16-1.033,5.101-3.728,8.423-3.57c21.188,1,40.659-6.787,47.334-23.473
	c1.091-2.728-3.083-2.066-2.319-3.649c0.583-1.208,4.297-0.613,4.979-2.592c0.728-2.111-3.24-1.738-3.343-2.66
	c-0.146-1.316,4.093-1.705,2.046-4.57c-3.777-5.289-10.024-9.556-17.538-13.989c-2.608-9.526-4.883-16.092-7.057-20.759
	c-3.34-7.168-4.895-11.734-8.023-17.727c-3.484-6.673-9.229-11.407-11.26-9.521c-1.405,1.305-1.533,1.673-3.828,11.239
	c-0.444,1.847-4.242-1.282-13.853-0.888c-9.738-0.166-13.48,2.735-13.924,0.888c-2.296-9.566-2.423-9.934-3.829-11.239
	c-2.031-1.886-7.775,2.848-11.259,9.521c-3.129,5.993-4.685,10.559-8.024,17.727c-2.174,4.666-4.447,11.233-7.056,20.759
	c-7.514,4.434-13.761,8.701-17.539,13.989c-2.046,2.865,2.192,3.254,2.046,4.57C53.254,116.345,49.285,115.973,50.015,118.084z"/>
<path fill="#613619" d="M129.956,61.197c3.116,0.671,5.707,1.619,8.015,2.853c-0.672-2.094-1.139-3.569-1.771-4.785
	c-0.964-1.85-1.519-2.435-2.236-3.52c-0.719-1.085-1.759-1.744-2.14-1.768c-0.381-0.023-0.646,0.385-1.017,2.062
	C130.534,57.269,130.345,57.822,129.956,61.197z"/>
<path fill="#613619" d="M95.689,61.197c-3.117,0.671-5.707,1.619-8.015,2.853c0.672-2.094,1.138-3.569,1.771-4.785
	c0.965-1.85,1.52-2.435,2.237-3.52s1.759-1.744,2.14-1.768c0.381-0.023,0.646,0.385,1.017,2.062
	C95.111,57.269,95.302,57.822,95.689,61.197z"/>
<g>
	<path fill="#FFFFFF" d="M59.318,120.605c0.862,14.033,15.928,27.756,41.406,27.205c2.994-0.064,4.891,2.049,7.765,3.021
		c3.055,1.012,4.828,1.148,8.395-0.102c2.874-0.971,4.474-3.522,7.501-3.324c25.03,1.637,41.474-12.766,42.337-26.799
		c0.472-7.668-0.909-12.367-6.786-15.79c-3.69-2.148-6.396-1.656-6.632-1.649c-6.361-28.94-16.455-29.349-20.18-29.622
		c-3.788-0.278-8.544,0.545-11.045,6.848c-0.928,2.34-5.175,16.249-6.002,18.773c-0.805,2.459-1.013,3.894-3.057,4.227
		c-2.044-0.333-2.252-1.769-3.057-4.227c-0.827-2.525-4.72-14.317-5.546-16.695c-2.489-7.153-5.899-9.608-11.219-9.608
		c-5.523,0-13.647,4.427-20.461,30.304c-0.236-0.007-2.942-0.499-6.633,1.649C60.229,108.24,58.848,112.941,59.318,120.605z"/>
</g>
<ellipse fill="#EE869A" cx="141.947" cy="119.939" rx="8.599" ry="2.877"/>
<ellipse fill="#EE869A" cx="82.675" cy="119.939" rx="8.599" ry="2.877"/>
<path fill="none" stroke="#63361A" stroke-width="2" stroke-linecap="round" stroke-linejoin="round" stroke-miterlimit="10" d="
	M112.735,124.059c-0.535-1.513,0.132-5.412,0.132-5.412"/>
<g>
	<path fill="#613619" d="M118.219,108.487c0.577,0.363,0.904,0.683,1.147,0.955s0.401,0.498,0.652,0.852
		c0.251,0.354,0.595,0.838,0.419,1.759c-0.176,0.922-0.872,2.28-2.322,3.897c-1.45,1.616-3.652,3.491-5.248,3.491
		s-3.798-1.875-5.248-3.491c-1.449-1.617-2.146-2.976-2.321-3.897c-0.177-0.921,0.168-1.404,0.419-1.759
		c0.251-0.354,0.409-0.58,0.651-0.852c0.243-0.272,0.571-0.592,1.148-0.955c0.577-0.363,1.403-0.771,5.351-0.802
		C116.815,107.717,117.642,108.124,118.219,108.487z"/>
	<path fill="#FFFFFF" d="M118.435,111.115c-0.138,0.129-0.356,0.102-0.459-0.057c-0.098-0.15-0.235-0.334-0.405-0.504
		c-0.26-0.262-0.52-0.437-0.697-0.54c-0.128-0.075-0.18-0.23-0.127-0.368l0.032-0.082c0.053-0.135,0.192-0.216,0.335-0.189
		c0.255,0.048,0.676,0.174,1.13,0.504c0.253,0.184,0.43,0.409,0.536,0.572c0.081,0.123,0.061,0.284-0.048,0.386L118.435,111.115z"/>
</g>
<path fill="none" stroke="#613619" stroke-miterlimit="10" d="M106.207,126.477c0.599,2.318,0.978,3.785,1.575,6.104
	c3.075,0,6.149,0,9.225,0c0.599-2.319,0.976-3.458,1.573-5.775c-2.046-0.057-3.869-1.265-5.917-1.267
	c-0.089,1.637-0.179,3.274-0.268,4.911c-0.09-1.637-0.18-3.274-0.269-4.911C110.079,125.541,108.254,126.421,106.207,126.477z"/>
<path fill="none" stroke="#63361A" stroke-width="2" stroke-linecap="round" stroke-linejoin="round" stroke-miterlimit="10" d="
	M97.609,124.427c8.122,4.632,13.935,0.218,15.126-0.024c7.7,6.48,15.066-0.346,15.066-0.346"/>
<g>
	<g>
		<g>
			<path fill="#FFFFFF" d="M113.808,158.268c-0.262-0.72-0.524-1.439-0.786-2.16c-0.692,1.902-1.385,3.806-2.077,5.707
				c-1.882-0.922-2.931-2.975-2.575-5.039c0.356-2.065,2.031-3.649,4.113-3.889c2.082-0.238,4.073,0.924,4.888,2.854
				s0.26,4.168-1.364,5.493c0.087,0.568-0.648,0.873-0.989,0.408c-0.34-0.465,0.171-1.074,0.688-0.819
				c3.073-2.54,1.227-7.531-2.76-7.458c-3.984,0.072-5.648,5.129-2.484,7.554c0.854-2.347,1.709-4.694,2.563-7.041
				c0.625,1.717,1.25,3.435,1.875,5.152c-0.46,0-0.919,0-1.378,0c0.358,0.983,0.716,1.968,1.074,2.952
				c-0.786-1.238-1.572-2.478-2.358-3.715C112.76,158.268,113.283,158.268,113.808,158.268z"/>
		</g>
	</g>
</g>
<path fill="#4B2C13" d="M123.918,100.239c0-0.621,0.503-1.125,1.125-1.125h18.25c0.62,0,1.125,0.504,1.125,1.125l0,0
	c0,0.621-0.505,1.125-1.125,1.125h-18.25C124.422,101.364,123.918,100.86,123.918,100.239L123.918,100.239z"/>
<path fill="#4B2C13" d="M138.733,101.577c0,2.522-2.044,4.566-4.565,4.566c-2.522,0-4.566-2.044-4.566-4.566
	S138.733,99.055,138.733,101.577z"/>
<path fill="#4B2C13" d="M81.023,100.239c0-0.621,0.504-1.125,1.125-1.125h18.25c0.621,0,1.125,0.504,1.125,1.125l0,0
	c0,0.621-0.504,1.125-1.125,1.125h-18.25C81.527,101.364,81.023,100.86,81.023,100.239L81.023,100.239z"/>
<path fill="#4B2C13" d="M95.84,101.577c0,2.522-2.044,4.566-4.566,4.566c-2.521,0-4.566-2.044-4.566-4.566
	S95.84,99.055,95.84,101.577z"/>
</svg>
