<?xml version="1.0" encoding="utf-8"?>
<!-- Generator: Adobe Illustrator 16.0.0, SVG Export Plug-In . SVG Version: 6.00 Build 0)  -->
<!DOCTYPE svg PUBLIC "-//W3C//DTD SVG 1.1//EN" "http://www.w3.org/Graphics/SVG/1.1/DTD/svg11.dtd">
<svg version="1.1" id="图层_1" xmlns="http://www.w3.org/2000/svg" xmlns:xlink="http://www.w3.org/1999/xlink" x="0px" y="0px"
	 width="210px" height="220px" viewBox="0 0 210 220" enable-background="new 0 0 210 220" xml:space="preserve">
<g>
	<ellipse fill="#C7C6C6" cx="112.726" cy="205.344" rx="10.54" ry="3.096"/>
	<path fill="#EAC08A" stroke="#63361A" stroke-miterlimit="10" d="M168.011,138.8c1.981,2.759,9.455,8.735,10.659,9.204
		c0.326,0.127,0.852-0.178,1.275-0.408c0.636-0.346,1.172-0.476,2.02-0.646c1.889-0.378,3.79,0.39,3.688,1.243
		c-0.094,0.776-1.191,0.162-1.286,0.375c-0.094,0.212,2.216,0.928,2.631,4.033c0.249,1.858-1.42,4.58-4.585,4.359
		c-4.431-0.307-3.469-2.916-7.83-5.62c-4.362-2.702-9.129-0.983-21.443-10.659c-2.888-2.27-3.749-9.981,0.926-12.615
		C158.739,125.434,167.13,137.575,168.011,138.8z"/>
	<path fill="#C99F72" stroke="#613619" stroke-miterlimit="10" d="M113.245,173.167c1.372,1.738-1.696,9.399-4.876,12.224
		c-3.18,2.822-5.29,11.025-4.445,12.269c0.846,1.243,17.738,7.758,18.901,7.358c1.164-0.4,0.694-3.021-1.591-5.361
		c-2.286-2.34-7.256-1.303-8.694-1.823c-1.437-0.521-4.128-1.499-4.351-2.603c-0.225-1.102,2.84-5.725,8.044-6.592
		c5.205-0.867,12.317-5.551,14.571-8.615c2.254-3.063,5.899-8.213-1.552-13.168c-7.452-4.955-14.272,0-14.272,0
		S110.746,170,113.245,173.167z"/>
	<ellipse fill="#C7C6C6" cx="176.842" cy="202.965" rx="10.54" ry="3.096"/>
	<path fill="#EAC08A" stroke="#613619" stroke-miterlimit="10" d="M108.379,165.305c-1.166-3.498-10.4,0.18-10.4,0.18
		c-34.316,15.716-59.816,4.1-68.066-10.9c-8.105-14.738-1.5-47.362,2.5-64.263c4-16.901-6.934-43.836-8.934-49.224
		c-2-5.388-3.566-19.529,8.434-14.263s52.285,8.002,65.066,37.804c19.49,45.446,2.435,81.196,4.225,85.696
		c1.361,3.421,8.911-0.736,8.911-0.736"/>
	<path fill="#FFFFFF" d="M42.161,143.334c-5.5-13.135,3.241-41.944,4.575-54.304c1.334-12.36,0.925-25.195-3.499-33.965
		c-3.644-7.223-13.179-14.763-4.992-13.897c8.667,0.916,33.917,6.916,42.917,26.039c6.329,13.447-1.472,46.325,0,62.992
		c1.473,16.666,15.417,24.968,15.417,24.968C57.246,169.167,44.989,150.084,42.161,143.334z"/>
	<path fill="#E3BB88" stroke="#613619" stroke-miterlimit="10" d="M118.81,118.959l-2.341,2.003c0,0-0.121,7.343-6.666,28.372
		c-4.597,14.768-1.877,23.5,5.691,29.971c6.869,5.873,27.67,7.04,38.799,4.547c15.697-3.518,25.243-18.018,21.62-31.888
		c-5.566-21.307-9.452-30.771-9.452-30.771L118.81,118.959z"/>
	<path fill="#FFFFFF" d="M172.828,142.334c-3.817-14.223-7.636-23.375-7.636-23.375l-15.446,2.835c0,0-3.834,3.04,0,7.972
		c3.834,4.934,2.698,26.416,3.927,37.568c1.23,11.152,18.396,3.875,18.396,3.875C178.402,160.375,176.133,154.645,172.828,142.334z"
		/>
	<path fill="#187FC4" d="M144.712,97.084h-8.735l-23.25,22.348c0,0,24.269,4.188,34.686,8.767c7.365,3.237,20,11,20,11
		s-1.04-3.868-0.592-8.864c0.136-5.443-0.359-9.141-0.359-9.141L144.712,97.084z"/>
	<path fill="#EAC08A" stroke="#63361A" stroke-miterlimit="10" d="M77.143,90.344c0.682,1.979,4.396,1.385,4.979,2.592
		c0.764,1.583-3.41,0.921-2.318,3.649c6.674,16.687,31.145,25.474,52.333,24.474c3.322-0.156,4.419,2.459,8.386,3.659
		c2.097,0.595,6.944,0.748,10.423-0.207c3.162-1.032,3.664-3.61,6.985-3.452c21.188,1,33.658-9.787,40.333-26.474
		c1.092-2.728-3.083-2.066-2.318-3.649c0.583-1.208,4.297-0.614,4.979-2.592c0.729-2.112-3.24-1.739-3.342-2.66
		c-0.146-1.316,4.092-1.705,2.046-4.57c-3.779-5.29-8.025-6.556-15.539-10.99c-2.607-9.526-4.882-16.092-7.056-20.759
		c-3.34-7.168-4.896-11.734-8.024-17.727c-3.483-6.673-10.228-11.407-12.259-9.521c-1.406,1.305-0.534,1.673-2.829,11.239
		c-0.444,1.847-4.242-1.282-13.852-0.888c-9.738-0.166-13.481,2.735-13.925,0.888c-2.296-9.566-2.423-9.934-3.828-11.239
		c-2.031-1.886-7.775,2.848-11.259,9.521c-3.129,5.993-4.685,10.559-8.024,17.727c-2.174,4.666-4.446,11.233-7.056,20.759
		c-7.514,4.434-13.762,7.701-17.539,12.99c-2.047,2.865,2.191,3.254,2.046,4.57C80.381,88.604,76.412,88.231,77.143,90.344z"/>
	<path fill="#613619" d="M157.084,34.457c3.116,0.671,5.707,1.619,8.014,2.853c-0.672-2.094-1.138-3.569-1.771-4.785
		c-0.964-1.85-1.52-2.435-2.237-3.52s-1.758-1.744-2.139-1.768c-0.381-0.023-0.646,0.385-1.018,2.062
		C157.662,30.528,157.472,31.082,157.084,34.457z"/>
	<path fill="#613619" d="M122.816,34.457c-3.116,0.671-5.707,1.619-8.014,2.853c0.672-2.094,1.138-3.569,1.771-4.785
		c0.964-1.85,1.519-2.435,2.236-3.52c0.719-1.085,1.759-1.744,2.14-1.768c0.381-0.023,0.646,0.385,1.017,2.062
		C122.238,30.528,122.428,31.082,122.816,34.457z"/>
	<g>
		<path fill="#FFFFFF" d="M86.446,93.867c0.862,14.033,20.929,27.756,46.408,27.205c2.993-0.064,3.725,2.095,6.931,3.095
			c4.174,1.028,7.058,0.745,10.846-0.052c2.875-0.971,4.532-3.534,5.883-3.448c20.982,1.333,34.474-12.767,35.336-26.8
			c0.473-7.667-0.908-12.367-6.785-15.789c-3.69-2.148-4.396-1.656-4.633-1.649c-6.36-28.94-15.617-29.283-19.342-29.556
			c-3.789-0.278-6.716,1.158-9.217,7.461c-0.929,2.34-2.237,12.407-2.586,15.75c-0.248,2.377-0.422,6.723-4.375,7.455
			c-2.044-0.333-2.817-0.581-4.5-5.274c-2.276-6.348-6.04-14.154-6.867-16.532c-2.489-7.153-7.898-9.608-13.219-9.608
			c-5.523,0-13.646,4.427-20.461,30.304c-0.236-0.007-2.941-0.499-6.632,1.649C87.356,81.499,85.975,86.2,86.446,93.867z"/>
	</g>
	<ellipse fill="#EE869A" cx="179.535" cy="91.907" rx="8.599" ry="2.877"/>
	<ellipse fill="#EE869A" cx="110.114" cy="93.198" rx="8.599" ry="2.877"/>
	<path fill="none" stroke="#63361A" stroke-width="2" stroke-linecap="round" stroke-linejoin="round" stroke-miterlimit="10" d="
		M146.167,97.317c-0.535-1.512,0.132-5.411,0.132-5.411"/>
	<g>
		<path fill="#613619" d="M151.358,81.429c0.583,0.354,0.916,0.668,1.163,0.937c0.246,0.269,0.408,0.492,0.665,0.842
			s0.608,0.828,0.446,1.752s-0.837,2.294-2.261,3.933c-1.424,1.64-3.597,3.548-5.192,3.573c-1.595,0.025-3.826-1.814-5.302-3.408
			c-1.475-1.594-2.193-2.942-2.383-3.86c-0.191-0.918,0.146-1.407,0.391-1.765s0.399-0.586,0.639-0.862
			c0.238-0.276,0.562-0.601,1.133-0.973c0.571-0.372,1.391-0.793,5.338-0.886C149.943,80.681,150.775,81.076,151.358,81.429z"/>
		<path fill="#FFFFFF" d="M151.613,84.056c-0.137,0.131-0.354,0.108-0.459-0.049c-0.101-0.15-0.24-0.331-0.413-0.499
			c-0.265-0.257-0.526-0.428-0.705-0.528c-0.129-0.073-0.183-0.227-0.132-0.366l0.029-0.083c0.051-0.137,0.189-0.22,0.332-0.195
			c0.257,0.044,0.68,0.163,1.139,0.486c0.256,0.181,0.436,0.402,0.545,0.563c0.082,0.122,0.063,0.285-0.042,0.387L151.613,84.056z"
			/>
	</g>
	<path fill="none" stroke="#613619" stroke-miterlimit="10" d="M139.496,99.608c0.634,2.308,1.036,3.769,1.67,6.077
		c3.074-0.049,6.149-0.097,9.223-0.145c0.563-2.327,0.921-3.472,1.483-5.799c-2.046-0.024-3.89-1.203-5.936-1.173
		c-0.063,1.638-0.128,3.277-0.191,4.915c-0.115-1.636-0.23-3.271-0.345-4.907C143.354,98.611,141.542,99.52,139.496,99.608z"/>
	<path fill="none" stroke="#63361A" stroke-width="2" stroke-linecap="round" stroke-linejoin="round" stroke-miterlimit="10" d="
		M128.867,97.725c8.194,4.504,16.233-0.383,17.422-0.643c7.801,6.359,12.761-0.2,12.761-0.2"/>
	<g>
		<g>
			<g>
				<path fill="#FFFFFF" d="M161.422,128.783c-0.452-0.618-0.905-1.236-1.356-1.854c-0.135,2.02-0.269,4.039-0.402,6.06
					c-2.065-0.36-3.645-2.038-3.879-4.121c-0.234-2.082,0.932-4.07,2.865-4.882c1.933-0.81,4.168-0.25,5.489,1.378
					c1.322,1.626,1.413,3.929,0.224,5.655c0.243,0.522-0.378,1.02-0.835,0.668c-0.457-0.351-0.137-1.078,0.431-0.979
					c2.242-3.296-0.925-7.573-4.732-6.391c-3.807,1.182-3.993,6.5-0.278,7.947c0.165-2.492,0.331-4.984,0.496-7.477
					c1.079,1.475,2.157,2.949,3.237,4.424c-0.44,0.128-0.882,0.256-1.322,0.385c0.618,0.844,1.236,1.689,1.855,2.534
					c-1.1-0.97-2.201-1.938-3.301-2.909C160.417,129.077,160.92,128.932,161.422,128.783z"/>
			</g>
		</g>
	</g>
	<path fill="#DEB686" stroke="#613619" stroke-miterlimit="10" d="M153.126,181.264c2.211-0.125,6.72,6.788,7.204,11.014
		c0.484,4.225,5.986,10.664,7.489,10.687s16.54-10.062,16.881-11.244c0.342-1.182-2.074-2.303-5.302-1.776
		c-3.229,0.526-5.235,5.19-6.487,6.068c-1.252,0.879-3.599,2.518-4.63,2.067c-1.031-0.451-3.055-5.614-0.775-10.372
		s2.532-13.271,1.319-16.876s-3.334-9.546-11.67-6.294s-8.199,11.682-8.199,11.682S149.097,181.492,153.126,181.264z"/>
	<path fill="#EAC08A" stroke="#63361A" stroke-miterlimit="10" d="M130.532,147.998c-2.432,2.373-7.216,10.66-7.498,11.921
		c-0.077,0.342,0.304,0.815,0.595,1.2c0.438,0.576,0.648,1.087,0.943,1.9c0.657,1.809,0.184,3.806-0.675,3.832
		c-0.782,0.025-0.341-1.152-0.564-1.215c-0.223-0.062-0.584,2.33-3.591,3.207c-1.8,0.525-4.742-0.716-5-3.878
		c-0.361-4.426,2.363-3.866,4.38-8.585c2.017-4.718-0.401-9.172,7.316-22.801c1.809-3.196,9.304-5.206,12.609-0.98
		C142.354,136.824,131.612,146.945,130.532,147.998z"/>
</g>
<g>
	<path fill="#4B2C13" d="M113.85,72.548c0-0.622,0.505-1.125,1.125-1.125h18.25c0.621,0,1.125,0.504,1.125,1.125l0,0
		c0,0.621-0.504,1.125-1.125,1.125h-18.25C114.354,73.673,113.85,73.169,113.85,72.548L113.85,72.548z"/>
	<path fill="#4B2C13" d="M113.85,74.798c0-0.622,0.505-1.125,1.125-1.125h18.25c0.621,0,1.125,0.504,1.125,1.125l0,0
		c0,0.621-0.504,1.125-1.125,1.125h-18.25C114.354,75.923,113.85,75.419,113.85,74.798L113.85,74.798z"/>
	<path fill="#4B2C13" d="M113.85,77.048c0-0.622,0.505-1.125,1.125-1.125h18.25c0.621,0,1.125,0.504,1.125,1.125l0,0
		c0,0.621-0.504,1.125-1.125,1.125h-18.25C114.354,78.173,113.85,77.669,113.85,77.048L113.85,77.048z"/>
</g>
<g>
	<path fill="#4B2C13" d="M157.045,72.548c0-0.622,0.503-1.125,1.125-1.125h18.25c0.621,0,1.125,0.504,1.125,1.125l0,0
		c0,0.621-0.504,1.125-1.125,1.125h-18.25C157.549,73.673,157.045,73.169,157.045,72.548L157.045,72.548z"/>
	<path fill="#4B2C13" d="M157.045,74.798c0-0.622,0.503-1.125,1.125-1.125h18.25c0.621,0,1.125,0.504,1.125,1.125l0,0
		c0,0.621-0.504,1.125-1.125,1.125h-18.25C157.549,75.923,157.045,75.419,157.045,74.798L157.045,74.798z"/>
	<path fill="#4B2C13" d="M157.045,77.048c0-0.622,0.503-1.125,1.125-1.125h18.25c0.621,0,1.125,0.504,1.125,1.125l0,0
		c0,0.621-0.504,1.125-1.125,1.125h-18.25C157.549,78.173,157.045,77.669,157.045,77.048L157.045,77.048z"/>
</g>
</svg>
