<?xml version="1.0" encoding="utf-8"?>
<!-- Generator: Adobe Illustrator 16.0.0, SVG Export Plug-In . SVG Version: 6.00 Build 0)  -->
<!DOCTYPE svg PUBLIC "-//W3C//DTD SVG 1.1//EN" "http://www.w3.org/Graphics/SVG/1.1/DTD/svg11.dtd">
<svg version="1.1" id="图层_1" xmlns="http://www.w3.org/2000/svg" xmlns:xlink="http://www.w3.org/1999/xlink" x="0px" y="0px"
	 width="220px" height="220px" viewBox="0 0 220 220" enable-background="new 0 0 220 220" xml:space="preserve">
<g>
	<ellipse fill="#C7C6C6" cx="148.782" cy="211.122" rx="10.54" ry="3.095"/>
	<path fill="#C99F72" stroke="#613619" stroke-miterlimit="10" d="M137.88,183.561c1.925,1.095,1.961,9.349,0.075,13.159
		c-1.885,3.812-0.757,12.206,0.493,13.04c1.251,0.834,19.354,0.522,20.281-0.285c0.928-0.809-0.493-3.061-3.49-4.371
		c-2.998-1.31-7.214,1.521-8.742,1.578c-1.527,0.059-4.39,0.162-5.011-0.775c-0.621-0.938,0.48-6.373,4.978-9.133
		c4.496-2.76,9.327-9.774,10.265-13.461c0.937-3.686,2.379-9.828-6.388-11.619c-8.768-1.791-13.227,5.365-13.227,5.365
		S134.372,181.564,137.88,183.561z"/>
	<ellipse fill="#C7C6C6" cx="128.095" cy="211.122" rx="10.54" ry="3.095"/>
	<path fill="#EAC08A" stroke="#613619" stroke-miterlimit="10" d="M105.288,171.027c-1.166-3.497-10.4,1.181-10.4,1.181
		c-34.316,15.715-59.816,3.099-68.066-11.901c-8.105-14.738,1.504-47.011,3.5-64.263c2.605-22.502-4.934-45.836-6.934-51.224
		c-2-5.388-3.566-19.529,8.434-14.263s49.285,10.002,62.066,39.804c19.489,45.446,2.436,81.196,4.225,85.696
		c1.361,3.422,8.911-0.736,8.911-0.736"/>
	<path fill="#FFFFFF" d="M39.071,149.057c-5.5-13.136,3.241-41.945,4.574-54.305c1.334-12.36,2.926-29.195-1.499-37.965
		c-3.644-7.223-13.179-14.763-4.991-13.897c8.666,0.916,31.916,10.916,40.916,30.039c6.33,13.447-1.472,46.325,0,62.992
		c1.473,16.666,16.418,24.968,16.418,24.968C55.155,174.889,41.898,155.807,39.071,149.057z"/>
	<path fill="#E3BB88" stroke="#613619" stroke-miterlimit="10" d="M115.719,124.682l-2.342,2.002c0,0,2.556,10.176-6.667,28.373
		c-8.285,16.351-1.877,23.5,5.692,29.971c6.869,5.873,27.67,7.039,38.799,4.546c15.697-3.519,26.01-19.462,22.388-33.332
		c-5.565-21.308-10.219-29.325-10.219-29.325L115.719,124.682z"/>
	<path fill="#FFFFFF" d="M170.654,147.718c-4.829-15.521-8.553-23.036-8.553-23.036l-15.446,2.834c0,0-3.834,3.041,0,7.973
		c3.834,4.933,2.698,26.414,3.927,37.568c1.23,11.152,18.396,3.875,18.396,3.875C175.312,166.098,174.616,160.45,170.654,147.718z"
		/>
	<path fill="#187FC4" d="M141.621,102.805h-8.734l-23.251,22.349c0,0,24.269,4.187,34.686,8.766c7.365,3.238,18.25,11,18.25,11
		s0.71-3.868,1.158-8.863c0.136-5.443-0.359-9.141-0.359-9.141L141.621,102.805z"/>
	<path fill="#EAC08A" stroke="#63361A" stroke-miterlimit="10" d="M74.052,97.066c0.682,1.978,4.396,1.385,4.979,2.592
		c0.764,1.583-3.41,0.921-2.318,3.649c6.674,16.686,31.145,24.473,52.334,23.473c3.321-0.156,4.419,2.46,8.385,3.659
		c2.097,0.596,6.944,0.748,10.423-0.207c3.162-1.032,3.664-3.609,6.986-3.452c21.188,1,33.657-8.787,40.333-25.473
		c1.091-2.728-3.083-2.066-2.319-3.649c0.583-1.208,4.297-0.614,4.979-2.592c0.729-2.112-3.239-1.739-3.342-2.66
		c-0.146-1.316,4.092-1.705,2.046-4.57c-3.778-5.289-8.024-7.556-15.539-11.99c-2.495-9.11-3.465-15.199-6.056-20.759
		c-3.34-7.168-5.895-11.734-9.024-17.727c-3.483-6.673-10.228-11.407-12.259-9.521c-1.406,1.305-0.534,1.673-2.829,11.239
		c-0.443,1.847-4.241-1.282-13.852-0.888c-9.738-0.166-13.481,2.735-13.924,0.888c-2.296-9.566-1.423-9.934-2.829-11.239
		c-2.031-1.886-8.775,2.848-12.259,9.521c-3.129,5.993-4.684,10.559-8.023,17.727c-2.175,4.666-4.447,11.233-7.057,20.759
		c-7.514,4.434-13.762,8.701-17.539,13.99c-2.046,2.865,2.191,3.254,2.046,4.57C77.29,95.327,73.321,94.954,74.052,97.066z"/>
	<path fill="#613619" d="M153.993,40.179c3.116,0.671,5.707,1.619,8.015,2.853c-0.673-2.094-1.139-3.569-1.771-4.785
		c-0.964-1.85-1.519-2.435-2.237-3.52c-0.718-1.085-1.758-1.744-2.139-1.768c-0.381-0.023-0.646,0.385-1.017,2.062
		C154.571,36.251,154.382,36.804,153.993,40.179z"/>
	<path fill="#613619" d="M119.726,40.179c-3.116,0.671-5.707,1.619-8.015,2.853c0.673-2.094,1.139-3.569,1.771-4.785
		c0.964-1.85,1.519-2.435,2.237-3.52c0.718-1.085,1.758-1.744,2.139-1.768c0.381-0.023,0.646,0.385,1.017,2.062
		C119.147,36.251,119.338,36.804,119.726,40.179z"/>
	<g>
		<path fill="#FFFFFF" d="M83.354,99.588c0.863,14.033,20.93,27.756,46.408,27.205c2.994-0.064,3.725,2.096,6.931,3.096
			c4.174,1.027,7.058,0.744,10.846-0.053c2.875-0.971,4.532-3.534,5.884-3.447c20.981,1.334,34.474-12.767,35.337-26.8
			c0.472-7.667-0.909-12.367-6.786-15.789c-3.69-2.148-4.396-1.656-4.632-1.649c-6.361-28.94-15.618-29.283-19.343-29.556
			c-3.789-0.278-6.716,1.158-9.217,7.461c-0.929,2.34-2.236,12.407-2.586,15.75c-0.248,2.377-0.422,6.723-4.375,7.455
			c-2.044-0.333-2.816-0.581-4.5-5.274c-2.275-6.348-6.04-14.154-6.867-16.532c-2.488-7.153-7.898-9.608-13.219-9.608
			c-5.522,0-13.646,4.427-20.461,30.304c-0.236-0.007-2.941-0.499-6.632,1.649C84.266,87.222,82.885,91.922,83.354,99.588z"/>
	</g>
	<ellipse fill="#EE869A" cx="176.445" cy="97.629" rx="8.599" ry="2.877"/>
	<ellipse fill="#EE869A" cx="107.023" cy="98.92" rx="8.599" ry="2.877"/>
	<path fill="none" stroke="#63361A" stroke-width="2" stroke-linecap="round" stroke-linejoin="round" stroke-miterlimit="10" d="
		M143.076,103.04c-0.535-1.512,0.132-5.411,0.132-5.411"/>
	<g>
		<path fill="#613619" d="M148.268,87.151c0.583,0.354,0.916,0.668,1.163,0.937s0.409,0.492,0.665,0.842
			c0.257,0.35,0.608,0.828,0.446,1.752c-0.161,0.924-0.837,2.294-2.261,3.933c-1.424,1.64-3.597,3.548-5.191,3.573
			c-1.596,0.025-3.827-1.814-5.303-3.408c-1.475-1.594-2.192-2.942-2.383-3.86s0.146-1.407,0.392-1.765
			c0.244-0.358,0.398-0.586,0.638-0.862s0.562-0.601,1.133-0.973c0.571-0.372,1.391-0.793,5.338-0.886
			C146.853,86.404,147.685,86.798,148.268,87.151z"/>
		<path fill="#FFFFFF" d="M148.522,89.778c-0.136,0.131-0.354,0.108-0.459-0.049c-0.1-0.15-0.24-0.331-0.413-0.499
			c-0.264-0.257-0.526-0.428-0.705-0.528c-0.129-0.073-0.183-0.227-0.132-0.366l0.03-0.083c0.05-0.137,0.188-0.22,0.332-0.195
			c0.256,0.044,0.679,0.163,1.138,0.486c0.256,0.181,0.436,0.402,0.545,0.564c0.082,0.122,0.064,0.285-0.042,0.387L148.522,89.778z"
			/>
	</g>
	<path fill="none" stroke="#613619" stroke-miterlimit="10" d="M136.405,105.331c0.634,2.308,1.036,3.769,1.67,6.077
		c3.074-0.049,6.149-0.098,9.224-0.145c0.562-2.328,0.921-3.473,1.482-5.8c-2.046-0.024-3.89-1.203-5.936-1.173
		c-0.063,1.638-0.127,3.277-0.191,4.915c-0.115-1.636-0.229-3.271-0.345-4.907C140.264,104.333,138.451,105.243,136.405,105.331z"/>
	<path fill="none" stroke="#63361A" stroke-width="2" stroke-linecap="round" stroke-linejoin="round" stroke-miterlimit="10" d="
		M125.776,103.447c8.194,4.504,16.234-0.383,17.422-0.643c7.801,6.359,12.761-0.2,12.761-0.2"/>
	<g>
		<g>
			<g>
				<path fill="#FFFFFF" d="M158.331,134.506c-0.451-0.617-0.904-1.236-1.356-1.854c-0.134,2.02-0.269,4.039-0.402,6.06
					c-2.064-0.36-3.644-2.038-3.879-4.121c-0.234-2.082,0.932-4.069,2.865-4.881c1.933-0.81,4.168-0.25,5.49,1.377
					c1.321,1.626,1.412,3.929,0.223,5.655c0.243,0.523-0.378,1.02-0.835,0.669s-0.136-1.079,0.431-0.979
					c2.242-3.296-0.925-7.572-4.731-6.391c-3.808,1.182-3.994,6.501-0.279,7.947c0.165-2.492,0.331-4.984,0.496-7.477
					c1.079,1.475,2.158,2.949,3.238,4.424c-0.441,0.129-0.883,0.256-1.323,0.385c0.619,0.845,1.237,1.689,1.855,2.535
					c-1.1-0.971-2.2-1.939-3.301-2.91C157.326,134.799,157.829,134.652,158.331,134.506z"/>
			</g>
		</g>
	</g>
	<path fill="#DEB686" stroke="#613619" stroke-miterlimit="10" d="M118.422,183.559c1.925,1.094,1.961,9.349,0.075,13.159
		c-1.885,3.812-0.758,12.206,0.493,13.04s19.354,0.522,20.281-0.285c0.928-0.809-0.492-3.061-3.49-4.371
		c-2.998-1.31-7.214,1.521-8.742,1.578c-1.527,0.059-4.39,0.162-5.011-0.775c-0.621-0.938,0.48-6.373,4.978-9.133
		c4.496-2.761,9.327-9.774,10.265-13.461c0.937-3.686,2.379-9.828-6.388-11.619c-8.768-1.791-13.227,5.365-13.227,5.365
		S114.914,181.563,118.422,183.559z"/>
	<path fill="#EAC08A" stroke="#63361A" stroke-miterlimit="10" d="M134.442,152.52c1.264,3.152,7.094,10.74,8.151,11.483
		c0.286,0.201,0.87,0.03,1.336-0.092c0.7-0.185,1.252-0.183,2.116-0.146c1.923,0.084,3.587,1.284,3.283,2.088
		c-0.276,0.732-1.196-0.125-1.339,0.058c-0.142,0.183,1.931,1.43,1.591,4.544c-0.202,1.863-2.474,4.107-5.493,3.138
		c-4.229-1.356-2.672-3.661-6.261-7.327c-3.589-3.668-8.629-3.136-18.274-15.475c-2.263-2.893-1.256-10.588,3.912-12.027
		C128.633,137.322,133.881,151.117,134.442,152.52z"/>
</g>
<g>
	<path fill="#4B2C13" d="M153.954,78.78c0-0.621,0.503-1.125,1.125-1.125h18.25c0.621,0,1.125,0.504,1.125,1.125l0,0
		c0,0.621-0.504,1.125-1.125,1.125h-18.25C154.458,79.905,153.954,79.401,153.954,78.78L153.954,78.78z"/>
	<path fill="#4B2C13" d="M168.771,80.118c0,2.522-2.044,4.566-4.566,4.566c-2.521,0-4.565-2.044-4.565-4.566
		S168.771,77.596,168.771,80.118z"/>
</g>
<g>
	<path fill="#4B2C13" d="M111.061,78.78c0-0.621,0.503-1.125,1.125-1.125h18.25c0.621,0,1.125,0.504,1.125,1.125l0,0
		c0,0.621-0.504,1.125-1.125,1.125h-18.25C111.564,79.905,111.061,79.401,111.061,78.78L111.061,78.78z"/>
	<path fill="#4B2C13" d="M125.876,80.118c0,2.522-2.044,4.566-4.565,4.566c-2.522,0-4.566-2.044-4.566-4.566
		S125.876,77.596,125.876,80.118z"/>
</g>
</svg>
