<?xml version="1.0" encoding="utf-8"?>
<!-- Generator: Adobe Illustrator 16.0.0, SVG Export Plug-In . SVG Version: 6.00 Build 0)  -->
<!DOCTYPE svg PUBLIC "-//W3C//DTD SVG 1.1//EN" "http://www.w3.org/Graphics/SVG/1.1/DTD/svg11.dtd">
<svg version="1.1" id="图层_1" xmlns="http://www.w3.org/2000/svg" xmlns:xlink="http://www.w3.org/1999/xlink" x="0px" y="0px"
	 width="220px" height="230px" viewBox="0 0 220 230" enable-background="new 0 0 220 230" xml:space="preserve">
<ellipse fill="#C7C6C6" cx="120.35" cy="221.801" rx="10.54" ry="3.096"/>
<path fill="#EAC08A" stroke="#63361A" stroke-miterlimit="10" d="M175.635,155.257c1.981,2.759,9.455,8.735,10.659,9.204
	c0.326,0.127,0.852-0.178,1.275-0.408c0.636-0.346,1.172-0.476,2.02-0.646c1.889-0.378,3.79,0.39,3.688,1.243
	c-0.093,0.776-1.191,0.162-1.286,0.375c-0.094,0.211,2.216,0.928,2.631,4.033c0.249,1.858-1.42,4.58-4.585,4.359
	c-4.431-0.307-3.469-2.916-7.83-5.62c-4.362-2.703-9.129-0.983-21.443-10.659c-2.888-2.27-3.748-9.981,0.926-12.615
	C166.363,141.891,174.754,154.032,175.635,155.257z"/>
<path fill="#C99F72" stroke="#613619" stroke-miterlimit="10" d="M120.869,189.624c1.372,1.737-1.695,9.399-4.876,12.224
	c-3.18,2.822-5.29,11.025-4.444,12.269c0.845,1.243,17.737,7.758,18.9,7.358c1.164-0.4,0.694-3.021-1.591-5.361
	c-2.286-2.34-7.256-1.303-8.694-1.823c-1.437-0.521-4.128-1.499-4.351-2.603c-0.224-1.102,2.84-5.725,8.044-6.592
	c5.205-0.867,12.317-5.551,14.571-8.615c2.255-3.063,5.899-8.213-1.552-13.168c-7.452-4.955-14.272,0-14.272,0
	S118.371,186.457,120.869,189.624z"/>
<ellipse fill="#C7C6C6" cx="184.467" cy="219.422" rx="10.54" ry="3.096"/>
<path fill="#EAC08A" stroke="#613619" stroke-miterlimit="10" d="M116.002,181.762c-1.166-3.498-10.399,0.18-10.399,0.18
	c-34.316,15.716-59.816,4.1-68.066-10.9c-8.106-14.738-1.5-47.362,2.5-64.263s-6.934-43.836-8.934-49.224
	c-2-5.388-3.566-19.529,8.434-14.263s52.285,8.002,65.066,37.804c19.489,45.446,2.435,81.196,4.225,85.696
	c1.361,3.421,8.911-0.736,8.911-0.736"/>
<path fill="#FFFFFF" d="M49.785,159.791c-5.5-13.135,3.241-41.943,4.575-54.304c1.334-12.36,0.925-25.195-3.499-33.965
	c-3.645-7.223-13.179-14.763-4.992-13.897c8.667,0.916,33.917,6.916,42.917,26.039c6.329,13.447-1.472,46.325,0,62.992
	c1.474,16.666,15.417,24.968,15.417,24.968C64.871,185.624,52.613,166.541,49.785,159.791z"/>
<path fill="#E3BB88" stroke="#613619" stroke-miterlimit="10" d="M126.435,135.416l-2.341,2.003c0,0-0.123,7.343-6.668,28.372
	c-4.596,14.768-1.877,23.5,5.692,29.971c6.869,5.873,27.67,7.04,38.799,4.547c15.697-3.518,25.243-18.018,21.62-31.888
	c-5.566-21.307-9.452-30.771-9.452-30.771L126.435,135.416z"/>
<path fill="#FFFFFF" d="M180.452,158.791c-3.817-14.223-7.636-23.375-7.636-23.375l-15.446,2.835c0,0-3.834,3.04,0,7.972
	c3.834,4.934,2.697,26.416,3.927,37.568c1.23,11.152,18.396,3.875,18.396,3.875C186.026,176.832,183.757,171.102,180.452,158.791z"
	/>
<path fill="#187FC4" d="M152.336,113.54h-8.734l-23.251,22.349c0,0,24.269,4.188,34.686,8.767c7.365,3.237,20,11,20,11
	s-1.04-3.868-0.592-8.864c0.136-5.443-0.359-9.141-0.359-9.141L152.336,113.54z"/>
<path fill="#EAC08A" stroke="#63361A" stroke-miterlimit="10" d="M84.767,106.8c0.682,1.978,4.396,1.385,4.979,2.592
	c0.764,1.583-3.41,0.921-2.32,3.649c6.675,16.686,31.146,25.473,52.334,24.473c3.322-0.156,4.419,2.461,8.386,3.66
	c2.097,0.596,6.944,0.748,10.423-0.207c3.162-1.033,3.664-3.609,6.985-3.453c21.188,1,33.658-9.787,40.333-26.473
	c1.092-2.728-3.083-2.066-2.318-3.649c0.583-1.208,4.297-0.614,4.979-2.592c0.729-2.112-3.239-1.739-3.342-2.66
	c-0.146-1.316,4.092-1.705,2.046-4.57c-3.779-5.29-8.024-6.556-15.539-10.99c-2.607-9.526-4.882-16.092-7.056-20.759
	c-3.34-7.168-4.896-11.734-8.024-17.727c-3.483-6.673-10.228-11.407-12.259-9.521c-1.406,1.305-0.534,1.673-2.829,11.239
	c-0.443,1.847-4.242-1.282-13.852-0.888c-9.738-0.166-13.481,2.735-13.924,0.888c-2.297-9.566-2.424-9.934-3.829-11.239
	c-2.031-1.886-7.775,2.848-11.26,9.521c-3.129,5.993-4.684,10.559-8.023,17.727c-2.174,4.666-4.447,11.233-7.056,20.759
	c-7.515,4.434-13.761,7.701-17.539,12.99c-2.046,2.865,2.192,3.254,2.046,4.57C88.004,105.061,84.036,104.688,84.767,106.8z"/>
<path fill="#613619" d="M164.708,50.914c3.116,0.671,5.707,1.619,8.014,2.853c-0.672-2.094-1.138-3.569-1.771-4.785
	c-0.964-1.85-1.519-2.435-2.237-3.52c-0.718-1.085-1.758-1.744-2.139-1.768c-0.381-0.023-0.646,0.385-1.017,2.062
	C165.286,46.985,165.096,47.539,164.708,50.914z"/>
<path fill="#613619" d="M130.44,50.914c-3.116,0.671-5.707,1.619-8.015,2.853c0.672-2.094,1.139-3.569,1.771-4.785
	c0.964-1.85,1.52-2.435,2.237-3.52s1.758-1.744,2.139-1.768c0.381-0.023,0.646,0.385,1.017,2.062
	C129.862,46.985,130.052,47.539,130.44,50.914z"/>
<g>
	<path fill="#FFFFFF" d="M94.069,110.323c0.863,14.032,20.929,27.756,46.408,27.204c2.993-0.063,3.725,2.096,6.931,3.096
		c4.174,1.027,7.058,0.745,10.846-0.053c2.875-0.971,4.532-3.533,5.883-3.447c20.982,1.334,34.475-12.766,35.338-26.799
		c0.472-7.667-0.909-12.367-6.786-15.789c-3.69-2.148-4.396-1.656-4.633-1.649c-6.36-28.94-15.617-29.283-19.342-29.556
		c-3.789-0.278-6.716,1.158-9.217,7.461c-0.929,2.34-2.237,12.407-2.586,15.75c-0.248,2.377-0.422,6.723-4.375,7.455
		c-2.044-0.333-2.817-0.581-4.5-5.274c-2.276-6.348-6.04-14.154-6.867-16.532c-2.489-7.153-7.898-9.608-13.219-9.608
		c-5.522,0-13.647,4.427-20.461,30.304c-0.235-0.007-2.942-0.499-6.632,1.649C94.98,97.956,93.6,102.657,94.069,110.323z"/>
</g>
<ellipse fill="#EE869A" cx="187.16" cy="108.364" rx="8.599" ry="2.877"/>
<ellipse fill="#EE869A" cx="117.738" cy="109.655" rx="8.6" ry="2.877"/>
<path fill="none" stroke="#63361A" stroke-width="2" stroke-linecap="round" stroke-linejoin="round" stroke-miterlimit="10" d="
	M153.791,113.774c-0.535-1.512,0.132-5.411,0.132-5.411"/>
<g>
	<path fill="#613619" d="M158.982,97.886c0.583,0.354,0.916,0.668,1.163,0.938c0.247,0.269,0.408,0.492,0.665,0.842
		s0.608,0.828,0.446,1.752s-0.837,2.294-2.261,3.933c-1.424,1.64-3.597,3.548-5.192,3.573c-1.595,0.025-3.826-1.814-5.302-3.408
		c-1.475-1.594-2.192-2.942-2.383-3.86c-0.191-0.918,0.146-1.407,0.391-1.765s0.399-0.586,0.639-0.862
		c0.238-0.276,0.562-0.601,1.133-0.973c0.571-0.372,1.391-0.793,5.338-0.886C157.567,97.138,158.4,97.533,158.982,97.886z"/>
	<path fill="#FFFFFF" d="M159.237,100.513c-0.136,0.131-0.354,0.108-0.459-0.049c-0.101-0.15-0.24-0.331-0.413-0.499
		c-0.264-0.257-0.526-0.428-0.705-0.528c-0.129-0.073-0.183-0.227-0.132-0.366l0.03-0.083c0.05-0.137,0.188-0.22,0.331-0.195
		c0.257,0.044,0.68,0.163,1.139,0.486c0.256,0.181,0.436,0.402,0.545,0.564c0.082,0.122,0.063,0.285-0.042,0.387L159.237,100.513z"
		/>
</g>
<g>
	<g>
		<g>
			<path fill="#FFFFFF" d="M169.047,145.24c-0.452-0.618-0.904-1.236-1.356-1.854c-0.135,2.021-0.269,4.04-0.402,6.06
				c-2.065-0.359-3.644-2.037-3.879-4.12c-0.234-2.082,0.932-4.07,2.865-4.882c1.933-0.81,4.168-0.25,5.489,1.377
				c1.322,1.627,1.413,3.93,0.224,5.656c0.243,0.522-0.378,1.02-0.835,0.668c-0.457-0.351-0.136-1.078,0.431-0.979
				c2.242-3.296-0.925-7.573-4.731-6.391c-3.808,1.182-3.994,6.5-0.279,7.947c0.165-2.492,0.331-4.984,0.496-7.477
				c1.079,1.475,2.158,2.949,3.237,4.424c-0.44,0.128-0.882,0.256-1.322,0.384c0.619,0.845,1.236,1.69,1.855,2.535
				c-1.1-0.97-2.201-1.938-3.301-2.909C168.041,145.534,168.544,145.389,169.047,145.24z"/>
		</g>
	</g>
</g>
<path fill="#DEB686" stroke="#613619" stroke-miterlimit="10" d="M160.75,197.721c2.211-0.125,6.72,6.788,7.204,11.014
	c0.484,4.225,5.986,10.664,7.489,10.687s16.54-10.062,16.881-11.244c0.342-1.182-2.074-2.303-5.302-1.776
	c-3.229,0.526-5.235,5.19-6.487,6.068c-1.252,0.879-3.599,2.518-4.63,2.067c-1.031-0.451-3.054-5.614-0.775-10.372
	c2.279-4.758,2.532-13.271,1.319-16.876s-3.334-9.546-11.67-6.294s-8.199,11.682-8.199,11.682S156.722,197.949,160.75,197.721z"/>
<path fill="#EAC08A" stroke="#63361A" stroke-miterlimit="10" d="M138.157,164.455c-2.431,2.373-7.216,10.66-7.498,11.921
	c-0.077,0.342,0.304,0.815,0.595,1.2c0.438,0.576,0.648,1.087,0.943,1.9c0.657,1.809,0.184,3.806-0.675,3.832
	c-0.782,0.025-0.34-1.152-0.564-1.215c-0.223-0.062-0.584,2.33-3.591,3.207c-1.8,0.525-4.742-0.716-5-3.878
	c-0.361-4.426,2.363-3.866,4.381-8.585c2.016-4.718-0.402-9.172,7.315-22.801c1.809-3.196,9.304-5.206,12.609-0.98
	C149.979,153.281,139.236,163.402,138.157,164.455z"/>
<g>
	<path fill="none" stroke="#613619" stroke-miterlimit="10" d="M147.325,116.104c0.634,2.308,0.678,3.769,1.312,6.076
		c3.074-0.048,6.577-0.384,9.651-0.432c0.563-2.327,0.851-3.186,1.413-5.512c0,0-3.89-2.203-5.936-2.173
		c-0.063,1.638-0.128,4.277-0.191,5.916c-0.115-1.637-0.23-4.271-0.345-5.908C151.184,114.105,147.326,116.102,147.325,116.104z"/>
	<path fill="none" stroke="#63361A" stroke-width="2" stroke-linecap="round" stroke-linejoin="round" stroke-miterlimit="10" d="
		M142.354,117.127c0,0,10.575-3.291,11.764-3.551l10.794,4.384"/>
	<g>
		<path fill="#4B2C13" d="M161.515,91.305c0-1.04,0.844-1.883,1.885-1.883h19.333c1.04,0,1.883,0.843,1.883,1.883l0,0
			c0,2.047-4.255,1.883-1.883,1.883h-19.334C162.358,93.188,161.515,92.345,161.515,91.305L161.515,91.305z"/>
		<path fill="#5DC4E7" d="M167.639,93.19c0,0-0.166,1.426,0.667,1.926s2.167,3,1.519,5.155c-0.649,2.155,2.314,5.345,4.084,7.046
			c1.769,1.701,0.397,5.133,0.064,7.295c-0.332,2.162,0.409,5.774,2,7.042c2.884,2.296,1.872,5.718,1,7.463
			c-1.5,3,0.643,6.845,0.643,6.845s4.011-1.351,7.437-3.296c3.557-2.02,6.016-4.496,6.016-4.496c-0.12-2.434-2.76-2.221-1.623-4.387
			s1.963-5.65,1.028-9.082c-1.154-4.243-5-5.418-4.994-8.11c0.005-2.692-0.34-5.974-0.863-8.146
			c-0.524-2.171-2.852-5.254-2.852-5.254"/>
	</g>
	<g>
		<path fill="#4B2C13" d="M142.355,91.305c0-1.04-0.844-1.883-1.884-1.883h-19.333c-1.039,0-1.883,0.843-1.883,1.883l0,0
			c0,2.047,4.256,1.883,1.883,1.883h19.333C141.512,93.188,142.355,92.345,142.355,91.305L142.355,91.305z"/>
		<path fill="#5DC4E7" d="M136.231,93.188c0,0,0.166,1.426-0.667,1.926s-2.167,3-1.519,5.155c0.649,2.155-2.314,5.345-4.084,7.046
			c-1.769,1.701-0.397,5.133-0.064,7.295s-0.409,5.774-2,7.042c-2.884,2.296-1.872,5.718-1,7.463c1.5,3-0.884,7.15-0.884,7.15
			s-3.125-0.525-7.832-2.154c-3.537-1.223-6.348-2.545-6.346-2.557c0,0-0.193-0.402,0.076-1.564c0.551-2.374,3.651-4.04,2.514-6.207
			c-1.137-2.166-1.963-5.65-1.028-9.082c1.155-4.243,5-5.418,4.995-8.11c-0.006-2.692,0.339-5.975,0.863-8.146
			c0.523-2.171,2.851-5.254,2.851-5.254"/>
	</g>
</g>
</svg>
