<?xml version="1.0" encoding="utf-8"?>
<!-- Generator: Adobe Illustrator 16.0.0, SVG Export Plug-In . SVG Version: 6.00 Build 0)  -->
<!DOCTYPE svg PUBLIC "-//W3C//DTD SVG 1.1//EN" "http://www.w3.org/Graphics/SVG/1.1/DTD/svg11.dtd">
<svg version="1.1" id="图层_1" xmlns="http://www.w3.org/2000/svg" xmlns:xlink="http://www.w3.org/1999/xlink" x="0px" y="0px"
	 width="200px" height="210px" viewBox="0 0 200 210" enable-background="new 0 0 200 210" xml:space="preserve">
<g>
	<ellipse fill="#C7C6C6" cx="145.631" cy="207.314" rx="10.54" ry="3.095"/>
	<path fill="#C99F72" stroke="#613619" stroke-miterlimit="10" d="M134.728,179.752c1.925,1.096,1.961,9.35,0.076,13.16
		s-0.757,12.206,0.493,13.04c1.251,0.834,19.353,0.522,20.281-0.286c0.928-0.809-0.492-3.061-3.49-4.37s-7.214,1.521-8.742,1.578
		s-4.39,0.162-5.011-0.776c-0.621-0.938,0.479-6.373,4.977-9.133s9.328-9.773,10.266-13.46c0.937-3.687,2.379-9.828-6.389-11.619
		c-8.767-1.791-13.226,5.365-13.226,5.365S131.221,177.756,134.728,179.752z"/>
	<ellipse fill="#C7C6C6" cx="124.941" cy="207.314" rx="10.54" ry="3.095"/>
	<path fill="#EAC08A" stroke="#613619" stroke-miterlimit="10" d="M102.136,167.219c-1.166-3.498-10.399,1.18-10.399,1.18
		c-34.316,15.716-59.816,3.1-68.066-11.9c-8.105-14.738,1.503-47.012,3.5-64.263c2.605-22.502-4.934-45.836-6.934-51.224
		c-2-5.388-3.566-19.529,8.434-14.263S77.955,36.75,90.736,66.552c19.49,45.446,2.435,81.196,4.225,85.696
		c1.361,3.421,8.911-0.736,8.911-0.736"/>
	<path fill="#FFFFFF" d="M35.919,145.248c-5.5-13.135,3.242-41.944,4.575-54.304c1.334-12.36,2.925-29.195-1.499-37.965
		c-3.644-7.223-13.179-14.763-4.992-13.897C42.67,39.998,65.92,49.998,74.92,69.121c6.329,13.447-1.473,46.326,0,62.992
		s16.417,24.968,16.417,24.968C52.004,171.081,38.747,151.998,35.919,145.248z"/>
	<path fill="#E3BB88" stroke="#613619" stroke-miterlimit="10" d="M112.566,120.873l-2.34,2.003c0,0,2.555,10.175-6.668,28.372
		c-8.285,16.352-1.877,23.5,5.692,29.971c6.869,5.873,27.67,7.04,38.799,4.547c15.697-3.519,26.01-19.463,22.387-33.332
		c-5.564-21.308-10.218-29.326-10.218-29.326L112.566,120.873z"/>
	<path fill="#FFFFFF" d="M167.503,143.91c-4.829-15.521-8.553-23.037-8.553-23.037l-15.446,2.835c0,0-3.834,3.04,0,7.972
		c3.834,4.934,2.698,26.415,3.927,37.568c1.23,11.152,18.396,3.875,18.396,3.875C172.16,162.289,171.465,156.643,167.503,143.91z"/>
	<path fill="#187FC4" d="M138.47,98.998h-8.735l-23.25,22.348c0,0,24.269,4.188,34.686,8.766c7.365,3.238,18.25,11,18.25,11
		s0.71-3.867,1.158-8.863c0.136-5.443-0.359-9.141-0.359-9.141L138.47,98.998z"/>
	<path fill="#EAC08A" stroke="#63361A" stroke-miterlimit="10" d="M70.898,93.257c0.683,1.978,4.396,1.385,4.979,2.592
		c0.765,1.583-3.41,0.921-2.319,3.649c6.674,16.686,31.146,24.473,52.334,23.473c3.322-0.156,4.419,2.461,8.385,3.66
		c2.098,0.596,6.945,0.748,10.424-0.207c3.161-1.033,3.663-3.609,6.985-3.453c21.188,1,33.658-8.787,40.333-25.473
		c1.091-2.728-3.083-2.066-2.318-3.649c0.583-1.208,4.297-0.614,4.979-2.592c0.729-2.112-3.24-1.739-3.342-2.66
		c-0.146-1.316,4.092-1.705,2.046-4.57c-3.779-5.289-8.025-7.556-15.539-11.99c-2.495-9.11-3.465-15.199-6.056-20.759
		c-3.341-7.168-5.896-11.734-9.024-17.727c-3.484-6.673-10.228-11.407-12.259-9.521c-1.406,1.305-0.534,1.673-2.829,11.239
		c-0.444,1.847-4.242-1.282-13.852-0.888c-9.738-0.166-13.481,2.735-13.925,0.888c-2.296-9.566-1.423-9.934-2.829-11.239
		c-2.03-1.886-8.774,2.848-12.259,9.521c-3.129,5.993-4.684,10.559-8.023,17.727c-2.174,4.666-4.447,11.233-7.057,20.759
		c-7.514,4.434-13.76,8.701-17.539,13.99c-2.045,2.865,2.192,3.254,2.047,4.57C74.139,91.518,70.17,91.145,70.898,93.257z"/>
	<path fill="#613619" d="M150.842,36.371c3.116,0.671,5.707,1.619,8.014,2.853c-0.672-2.094-1.138-3.569-1.771-4.785
		c-0.964-1.85-1.52-2.435-2.237-3.52s-1.758-1.744-2.139-1.768c-0.381-0.023-0.646,0.385-1.018,2.062
		C151.42,32.442,151.229,32.996,150.842,36.371z"/>
	<path fill="#613619" d="M116.573,36.371c-3.115,0.671-5.706,1.619-8.013,2.853c0.672-2.094,1.137-3.569,1.771-4.785
		c0.964-1.85,1.519-2.435,2.237-3.52c0.718-1.085,1.758-1.744,2.139-1.768c0.381-0.023,0.646,0.385,1.017,2.062
		C115.996,32.442,116.186,32.996,116.573,36.371z"/>
	<g>
		<path fill="#FFFFFF" d="M80.203,95.78c0.863,14.032,20.929,27.756,46.407,27.204c2.994-0.063,3.726,2.096,6.932,3.096
			c4.174,1.027,7.058,0.745,10.846-0.053c2.875-0.971,4.532-3.533,5.883-3.447c20.982,1.334,34.475-12.766,35.337-26.799
			c0.473-7.667-0.909-12.367-6.786-15.789c-3.689-2.148-4.396-1.656-4.632-1.649c-6.36-28.94-15.618-29.283-19.342-29.556
			c-3.789-0.278-6.716,1.158-9.217,7.461c-0.929,2.34-2.237,12.407-2.586,15.75c-0.248,2.377-0.422,6.723-4.375,7.455
			c-2.044-0.333-2.817-0.581-4.5-5.274c-2.276-6.348-6.04-14.154-6.867-16.532c-2.489-7.153-7.899-9.608-13.219-9.608
			c-5.523,0-13.646,4.427-20.461,30.304c-0.236-0.007-2.941-0.499-6.633,1.649C81.113,83.413,79.732,88.114,80.203,95.78z"/>
	</g>
	<ellipse fill="#EE869A" cx="173.292" cy="93.82" rx="8.599" ry="2.877"/>
	<ellipse fill="#EE869A" cx="103.872" cy="95.112" rx="8.599" ry="2.877"/>
	<g>
		<path fill="none" stroke="#613619" stroke-width="2" stroke-miterlimit="10" d="M115.524,60.451
			c7.582,0,12.591,6.224,12.591,13.805c0,7.582-5.009,13.649-12.591,13.649c-7.581,0-12.505-6.145-12.505-13.726
			C103.02,66.597,107.943,60.451,115.524,60.451z"/>
		<path fill="#613619" d="M115.538,64.9c5.254,0,8.725,4.314,8.725,9.567c0,5.254-3.471,9.458-8.725,9.458s-8.666-4.258-8.666-9.512
			S110.284,64.9,115.538,64.9z"/>
		<circle fill="#FFFFFF" cx="118.952" cy="72.858" r="3.738"/>
		<circle fill="#FFFFFF" cx="111.214" cy="79.453" r="2.012"/>
	</g>
	<g>
		<path fill="none" stroke="#613619" stroke-width="2" stroke-miterlimit="10" d="M158.652,61.451
			c-7.242,0-12.027,5.947-12.027,13.189c0,7.243,4.785,13.039,12.027,13.039c7.243,0,11.947-5.87,11.947-13.113
			C170.6,67.323,165.896,61.451,158.652,61.451z"/>
		<path fill="#613619" d="M158.641,65.701c-5.019,0-8.335,4.12-8.335,9.139s3.316,9.036,8.335,9.036c5.02,0,8.279-4.068,8.279-9.087
			S163.66,65.701,158.641,65.701z"/>
		<circle fill="#FFFFFF" cx="155.38" cy="73.304" r="3.571"/>
		<circle fill="#FFFFFF" cx="162.771" cy="79.604" r="1.923"/>
	</g>
	<path fill="none" stroke="#63361A" stroke-width="2" stroke-linecap="round" stroke-linejoin="round" stroke-miterlimit="10" d="
		M139.925,99.231c-0.535-1.512,0.132-5.411,0.132-5.411"/>
	<g>
		<path fill="#613619" d="M145.115,83.343c0.583,0.354,0.916,0.668,1.163,0.938c0.247,0.269,0.409,0.492,0.665,0.842
			c0.258,0.35,0.609,0.828,0.447,1.752s-0.837,2.294-2.261,3.933c-1.424,1.64-3.597,3.548-5.192,3.573
			c-1.595,0.025-3.827-1.814-5.302-3.408c-1.475-1.594-2.193-2.942-2.383-3.86c-0.191-0.918,0.146-1.407,0.391-1.765
			s0.399-0.586,0.638-0.862c0.239-0.276,0.563-0.601,1.134-0.973c0.57-0.372,1.391-0.793,5.338-0.886
			C143.7,82.595,144.532,82.99,145.115,83.343z"/>
		<path fill="#FFFFFF" d="M145.371,85.97c-0.137,0.131-0.354,0.108-0.459-0.049c-0.101-0.15-0.24-0.331-0.413-0.499
			c-0.265-0.257-0.526-0.428-0.705-0.528c-0.129-0.073-0.184-0.227-0.132-0.366l0.029-0.083c0.051-0.137,0.189-0.22,0.332-0.195
			c0.256,0.044,0.68,0.163,1.139,0.486c0.256,0.181,0.436,0.402,0.545,0.564c0.082,0.122,0.063,0.285-0.042,0.387L145.371,85.97z"/>
	</g>
	<path fill="none" stroke="#613619" stroke-miterlimit="10" d="M133.254,101.522c0.634,2.308,1.036,3.769,1.67,6.078
		c3.074-0.05,6.148-0.098,9.223-0.146c0.563-2.327,0.921-3.472,1.483-5.799c-2.046-0.024-3.891-1.203-5.937-1.173
		c-0.063,1.638-0.127,3.277-0.19,4.915c-0.115-1.636-0.23-3.271-0.346-4.907C137.111,100.525,135.3,101.434,133.254,101.522z"/>
	<path fill="none" stroke="#63361A" stroke-width="2" stroke-linecap="round" stroke-linejoin="round" stroke-miterlimit="10" d="
		M122.625,99.639c8.193,4.504,16.233-0.383,17.422-0.643c7.801,6.359,12.761-0.2,12.761-0.2"/>
	<g>
		<g>
			<g>
				<path fill="#FFFFFF" d="M155.18,130.697c-0.452-0.618-0.905-1.236-1.357-1.854c-0.134,2.021-0.268,4.04-0.401,6.06
					c-2.065-0.359-3.645-2.037-3.879-4.12c-0.234-2.082,0.932-4.07,2.864-4.882c1.934-0.81,4.169-0.25,5.49,1.377
					c1.322,1.627,1.413,3.93,0.224,5.656c0.242,0.522-0.378,1.02-0.835,0.668c-0.457-0.351-0.137-1.078,0.431-0.979
					c2.242-3.296-0.925-7.573-4.732-6.391c-3.807,1.182-3.994,6.5-0.278,7.946c0.165-2.491,0.331-4.983,0.496-7.476
					c1.078,1.475,2.157,2.949,3.237,4.424c-0.44,0.128-0.882,0.256-1.323,0.384c0.619,0.845,1.237,1.69,1.856,2.535
					c-1.1-0.97-2.201-1.938-3.301-2.909C154.175,130.991,154.678,130.845,155.18,130.697z"/>
			</g>
		</g>
	</g>
	<path fill="#DEB686" stroke="#613619" stroke-miterlimit="10" d="M115.27,179.75c1.925,1.095,1.961,9.35,0.076,13.16
		s-0.757,12.206,0.493,13.04c1.251,0.834,19.353,0.522,20.281-0.286c0.928-0.809-0.492-3.061-3.49-4.37s-7.214,1.521-8.742,1.578
		s-4.39,0.162-5.011-0.776c-0.621-0.938,0.479-6.373,4.977-9.133s9.328-9.773,10.266-13.46c0.937-3.687,2.379-9.828-6.389-11.619
		c-8.767-1.791-13.226,5.365-13.226,5.365S111.764,177.754,115.27,179.75z"/>
	<path fill="#EAC08A" stroke="#63361A" stroke-miterlimit="10" d="M131.291,148.71c1.264,3.153,7.094,10.741,8.15,11.483
		c0.286,0.201,0.87,0.031,1.336-0.092c0.7-0.184,1.252-0.183,2.116-0.145c1.923,0.084,3.587,1.284,3.284,2.088
		c-0.277,0.732-1.197-0.126-1.339,0.057c-0.143,0.184,1.93,1.431,1.591,4.545c-0.203,1.863-2.474,4.106-5.494,3.138
		c-4.228-1.357-2.671-3.661-6.26-7.328s-8.629-3.136-18.275-15.474c-2.262-2.894-1.256-10.588,3.912-12.028
		S130.729,147.309,131.291,148.71z"/>
</g>
</svg>
