<?xml version="1.0" encoding="utf-8"?>
<!-- Generator: Adobe Illustrator 16.0.0, SVG Export Plug-In . SVG Version: 6.00 Build 0)  -->
<!DOCTYPE svg PUBLIC "-//W3C//DTD SVG 1.1//EN" "http://www.w3.org/Graphics/SVG/1.1/DTD/svg11.dtd">
<svg version="1.1" id="图层_1" xmlns="http://www.w3.org/2000/svg" xmlns:xlink="http://www.w3.org/1999/xlink" x="0px" y="0px"
	 width="220px" height="230px" viewBox="0 0 220 230" enable-background="new 0 0 220 230" xml:space="preserve">
<ellipse fill="#C7C6C6" cx="126.782" cy="209.908" rx="10.54" ry="3.095"/>
<path fill="#EAC08A" stroke="#63361A" stroke-miterlimit="10" d="M182.065,143.364c1.981,2.759,9.455,8.735,10.659,9.204
	c0.326,0.127,0.851-0.178,1.274-0.408c0.637-0.346,1.173-0.477,2.021-0.646c1.888-0.378,3.79,0.391,3.688,1.243
	c-0.093,0.777-1.19,0.163-1.285,0.375s2.216,0.929,2.631,4.033c0.249,1.858-1.42,4.58-4.585,4.36c-4.432-0.308-3.47-2.916-7.83-5.62
	c-4.362-2.703-9.129-0.983-21.443-10.66c-2.888-2.269-3.749-9.981,0.925-12.614C172.794,129.998,181.186,142.139,182.065,143.364z"
	/>
<path fill="#C99F72" stroke="#613619" stroke-miterlimit="10" d="M127.301,177.73c1.372,1.738-1.696,9.399-4.876,12.224
	c-3.181,2.823-5.29,11.026-4.445,12.269c0.845,1.243,17.738,7.758,18.901,7.358c1.164-0.399,0.693-3.021-1.592-5.361
	c-2.285-2.34-7.256-1.303-8.693-1.823c-1.438-0.52-4.128-1.498-4.352-2.602c-0.224-1.102,2.841-5.725,8.045-6.592
	c5.205-0.867,12.317-5.551,14.571-8.615s5.899-8.213-1.552-13.168s-14.273,0-14.273,0S124.801,174.564,127.301,177.73z"/>
<ellipse fill="#C7C6C6" cx="190.897" cy="207.529" rx="10.54" ry="3.095"/>
<path fill="#EAC08A" stroke="#613619" stroke-miterlimit="10" d="M122.434,169.869c-1.166-3.498-10.4,0.18-10.4,0.18
	c-34.315,15.715-59.815,4.1-68.065-10.9c-8.106-14.738-1.5-47.362,2.5-64.264c4-16.901-6.935-43.836-8.935-49.224
	c-2-5.388-3.565-19.529,8.435-14.263s52.285,8.002,65.065,37.804c19.49,45.446,2.436,81.196,4.226,85.696
	c1.36,3.42,8.911-0.736,8.911-0.736"/>
<path fill="#FFFFFF" d="M56.217,147.898c-5.5-13.135,3.242-41.944,4.574-54.305c1.335-12.36,0.926-25.195-3.498-33.965
	c-3.645-7.223-13.18-14.763-4.992-13.897c8.667,0.916,33.917,6.916,42.917,26.039c6.329,13.447-1.472,46.325,0,62.993
	c1.474,16.666,15.417,24.967,15.417,24.967C71.301,173.73,59.045,154.648,56.217,147.898z"/>
<path fill="#E3BB88" stroke="#613619" stroke-miterlimit="10" d="M132.865,123.523l-2.34,2.002c0,0-0.123,7.344-6.668,28.373
	c-4.596,14.768-1.877,23.5,5.692,29.971c6.869,5.873,27.67,7.04,38.799,4.546c15.697-3.517,25.243-18.017,21.62-31.888
	c-5.566-21.307-9.452-30.77-9.452-30.77L132.865,123.523z"/>
<path fill="#FFFFFF" d="M186.883,146.898c-3.817-14.223-7.637-23.375-7.637-23.375l-15.445,2.834c0,0-3.834,3.041,0,7.973
	c3.834,4.934,2.696,26.415,3.927,37.568c1.229,11.152,18.396,3.875,18.396,3.875C192.457,164.939,190.188,159.208,186.883,146.898z"
	/>
<path fill="#187FC4" d="M158.768,101.647h-8.735l-23.251,22.349c0,0,24.27,4.188,34.687,8.766c7.364,3.238,20,11,20,11
	s-1.04-3.867-0.593-8.863c0.137-5.443-0.358-9.141-0.358-9.141L158.768,101.647z"/>
<path fill="#EAC08A" stroke="#63361A" stroke-miterlimit="10" d="M91.197,94.908c0.682,1.978,4.396,1.385,4.979,2.592
	c0.764,1.583-3.41,0.921-2.318,3.649c6.674,16.686,31.145,25.473,52.333,24.473c3.322-0.156,4.419,2.46,8.385,3.66
	c2.098,0.595,6.945,0.748,10.423-0.207c3.162-1.033,3.664-3.61,6.986-3.453c21.188,1,33.658-9.787,40.333-26.473
	c1.091-2.728-3.083-2.066-2.319-3.649c0.583-1.208,4.298-0.614,4.979-2.592c0.728-2.112-3.24-1.739-3.342-2.66
	c-0.146-1.316,4.092-1.705,2.046-4.57c-3.779-5.29-8.025-6.556-15.539-10.99c-2.608-9.526-4.882-16.092-7.056-20.759
	c-3.341-7.168-4.896-11.734-8.024-17.727c-3.484-6.673-10.229-11.407-12.259-9.521c-1.406,1.305-0.534,1.673-2.829,11.239
	c-0.444,1.847-4.242-1.282-13.853-0.888c-9.737-0.166-13.48,2.735-13.923,0.888c-2.297-9.566-2.424-9.934-3.83-11.239
	c-2.03-1.886-7.774,2.848-11.258,9.521c-3.129,5.993-4.685,10.559-8.024,17.727c-2.175,4.666-4.447,11.233-7.056,20.759
	c-7.515,4.434-13.762,7.701-17.539,12.99c-2.047,2.865,2.191,3.254,2.045,4.57C94.436,93.169,90.468,92.796,91.197,94.908z"/>
<path fill="#613619" d="M171.14,39.021c3.116,0.671,5.707,1.619,8.014,2.853c-0.672-2.094-1.138-3.569-1.771-4.785
	c-0.964-1.85-1.52-2.435-2.237-3.52s-1.758-1.744-2.139-1.768c-0.382-0.023-0.646,0.385-1.018,2.062
	C171.718,35.092,171.527,35.646,171.14,39.021z"/>
<path fill="#613619" d="M136.871,39.021c-3.115,0.671-5.707,1.619-8.014,2.853c0.672-2.094,1.139-3.569,1.771-4.785
	c0.964-1.85,1.519-2.435,2.236-3.52c0.719-1.085,1.758-1.744,2.14-1.768c0.381-0.023,0.646,0.385,1.017,2.062
	C136.294,35.092,136.484,35.646,136.871,39.021z"/>
<g>
	<path fill="#FFFFFF" d="M100.5,98.43c0.863,14.033,20.929,27.755,46.407,27.205c2.994-0.064,3.726,2.096,6.932,3.096
		c4.174,1.027,7.058,0.744,10.846-0.053c2.875-0.971,4.532-3.533,5.883-3.447c20.982,1.334,34.474-12.767,35.337-26.799
		c0.472-7.667-0.909-12.367-6.786-15.789c-3.689-2.148-4.396-1.656-4.632-1.649c-6.361-28.94-15.618-29.283-19.342-29.556
		c-3.789-0.278-6.716,1.158-9.217,7.461c-0.93,2.34-2.237,12.407-2.586,15.75c-0.248,2.377-0.422,6.723-4.375,7.455
		c-2.044-0.333-2.817-0.581-4.5-5.274c-2.276-6.348-6.04-14.154-6.867-16.532c-2.489-7.153-7.898-9.608-13.219-9.608
		c-5.523,0-13.646,4.427-20.461,30.304c-0.236-0.007-2.942-0.499-6.633,1.649C101.41,86.064,100.029,90.764,100.5,98.43z"/>
</g>
<ellipse fill="#EE869A" cx="193.59" cy="96.471" rx="8.599" ry="2.877"/>
<ellipse fill="#EE869A" cx="124.169" cy="97.762" rx="8.599" ry="2.877"/>
<path fill="none" stroke="#63361A" stroke-width="2" stroke-linecap="round" stroke-linejoin="round" stroke-miterlimit="10" d="
	M160.222,101.882c-0.535-1.512,0.132-5.411,0.132-5.411"/>
<g>
	<path fill="#613619" d="M165.413,85.993c0.583,0.354,0.916,0.668,1.163,0.937s0.409,0.492,0.665,0.842
		c0.257,0.35,0.609,0.828,0.447,1.752c-0.162,0.924-0.837,2.294-2.261,3.933c-1.424,1.64-3.598,3.548-5.192,3.573
		c-1.595,0.025-3.827-1.814-5.302-3.408c-1.476-1.594-2.193-2.942-2.383-3.86c-0.191-0.918,0.146-1.407,0.391-1.765
		s0.399-0.586,0.638-0.862c0.239-0.276,0.563-0.601,1.134-0.973c0.57-0.372,1.391-0.793,5.338-0.886
		C163.997,85.246,164.83,85.64,165.413,85.993z"/>
	<path fill="#FFFFFF" d="M165.669,88.62c-0.137,0.131-0.354,0.108-0.46-0.049c-0.1-0.15-0.239-0.331-0.412-0.499
		c-0.265-0.257-0.526-0.428-0.705-0.528c-0.129-0.073-0.184-0.227-0.133-0.366l0.03-0.083c0.05-0.137,0.189-0.22,0.332-0.195
		c0.256,0.044,0.679,0.163,1.138,0.486c0.257,0.181,0.437,0.402,0.546,0.564c0.082,0.122,0.063,0.285-0.042,0.387L165.669,88.62z"/>
</g>
<g>
	<g>
		<g>
			<path fill="#FFFFFF" d="M175.478,133.348c-0.452-0.617-0.905-1.236-1.357-1.854c-0.134,2.02-0.268,4.04-0.401,6.06
				c-2.065-0.36-3.645-2.038-3.879-4.12s0.932-4.07,2.864-4.882c1.934-0.81,4.168-0.25,5.49,1.377
				c1.322,1.626,1.413,3.929,0.223,5.655c0.243,0.523-0.378,1.02-0.835,0.669s-0.136-1.079,0.432-0.979
				c2.242-3.295-0.925-7.572-4.732-6.391c-3.807,1.182-3.994,6.501-0.278,7.947c0.164-2.492,0.33-4.984,0.495-7.477
				c1.079,1.476,2.158,2.949,3.238,4.424c-0.44,0.129-0.882,0.257-1.323,0.385c0.619,0.845,1.237,1.689,1.856,2.535
				c-1.1-0.971-2.201-1.939-3.301-2.909C174.472,133.641,174.976,133.495,175.478,133.348z"/>
		</g>
	</g>
</g>
<path fill="#DEB686" stroke="#613619" stroke-miterlimit="10" d="M167.182,185.828c2.211-0.125,6.72,6.788,7.204,11.013
	c0.483,4.226,5.985,10.665,7.488,10.687c1.504,0.022,16.54-10.062,16.882-11.243c0.342-1.183-2.074-2.304-5.303-1.777
	c-3.228,0.527-5.234,5.191-6.486,6.069s-3.6,2.518-4.63,2.066c-1.031-0.451-3.055-5.613-0.775-10.371s2.532-13.271,1.319-16.877
	c-1.214-3.604-3.334-9.545-11.67-6.293c-8.337,3.252-8.199,11.682-8.199,11.682S163.152,186.057,167.182,185.828z"/>
<path fill="#EAC08A" stroke="#63361A" stroke-miterlimit="10" d="M144.588,152.563c-2.432,2.373-7.217,10.66-7.498,11.92
	c-0.077,0.343,0.304,0.816,0.595,1.201c0.438,0.575,0.647,1.086,0.943,1.899c0.657,1.81,0.184,3.806-0.675,3.833
	c-0.782,0.025-0.34-1.152-0.564-1.215c-0.223-0.063-0.584,2.33-3.591,3.207c-1.8,0.525-4.742-0.717-5-3.878
	c-0.361-4.427,2.362-3.867,4.38-8.585c2.018-4.719-0.4-9.172,7.316-22.801c1.809-3.196,9.304-5.207,12.609-0.981
	S145.667,151.509,144.588,152.563z"/>
<g>
	<path fill="none" stroke="#613619" stroke-miterlimit="10" d="M153.765,104.916c0.634,2.308,0.678,3.769,1.312,6.077
		c3.074-0.048,6.577-0.384,9.651-0.432c0.562-2.327,0.851-3.185,1.413-5.512c0,0-3.891-2.203-5.937-2.173
		c-0.063,1.638-0.127,4.277-0.19,5.915c-0.115-1.636-0.23-4.271-0.345-5.907C157.622,102.918,153.766,104.915,153.765,104.916z"/>
	<path fill="none" stroke="#63361A" stroke-width="2" stroke-linecap="round" stroke-linejoin="round" stroke-miterlimit="10" d="
		M148.795,105.94c0,0,10.575-3.291,11.764-3.551l10.794,4.384"/>
</g>
<g>
	<g>
		<path fill="none" stroke="#613619" stroke-width="2" stroke-miterlimit="10" d="M187.987,73.963
			c-2.312-0.81-8.008-3.103-10.296-4.67c-5.113-3.503-6.236,1.516-6.236,7.628c0,6.113,4.378,11.005,11.006,11.005
			c6.627,0,10.93-4.955,10.93-11.068C193.391,74.759,191.817,75.304,187.987,73.963z"/>
		<path fill="#613619" d="M181.707,71.299c-3.972-2.126-6.884,1.556-6.884,5.792c0,4.236,3.034,7.626,7.626,7.626
			s7.574-3.434,7.574-7.67C190.023,72.811,185.486,73.321,181.707,71.299z"/>
		<ellipse fill="#FFFFFF" cx="179.465" cy="75.793" rx="3.267" ry="3.014"/>
		<ellipse fill="#FFFFFF" cx="186.229" cy="81.11" rx="1.759" ry="1.623"/>
	</g>
	<path fill="none" stroke="#63361A" stroke-width="4" stroke-linecap="round" stroke-linejoin="round" stroke-miterlimit="10" d="
		M194.466,75.793c-12.043-1.273-20.759-8.66-20.759-8.66"/>
</g>
<g>
	<g>
		<path fill="none" stroke="#613619" stroke-width="2" stroke-miterlimit="10" d="M130.447,73.963
			c2.313-0.81,8.008-3.103,10.296-4.67c5.113-3.503,6.236,1.516,6.236,7.628c0,6.113-4.378,11.005-11.005,11.005
			s-10.93-4.955-10.93-11.068C125.045,74.759,126.617,75.304,130.447,73.963z"/>
		<path fill="#613619" d="M136.728,71.299c3.972-2.126,6.884,1.556,6.884,5.792c0,4.236-3.033,7.626-7.625,7.626
			c-4.593,0-7.574-3.434-7.574-7.67C128.412,72.811,132.947,73.321,136.728,71.299z"/>
		<ellipse fill="#FFFFFF" cx="138.97" cy="75.793" rx="3.267" ry="3.014"/>
		<ellipse fill="#FFFFFF" cx="132.207" cy="81.11" rx="1.759" ry="1.623"/>
	</g>
	<path fill="none" stroke="#63361A" stroke-width="4" stroke-linecap="round" stroke-linejoin="round" stroke-miterlimit="10" d="
		M123.969,75.793c12.043-1.273,20.758-8.66,20.758-8.66"/>
</g>
</svg>
