<?xml version="1.0" encoding="utf-8"?>
<!-- Generator: Adobe Illustrator 16.0.0, SVG Export Plug-In . SVG Version: 6.00 Build 0)  -->
<!DOCTYPE svg PUBLIC "-//W3C//DTD SVG 1.1//EN" "http://www.w3.org/Graphics/SVG/1.1/DTD/svg11.dtd">
<svg version="1.1" id="图层_1" xmlns="http://www.w3.org/2000/svg" xmlns:xlink="http://www.w3.org/1999/xlink" x="0px" y="0px"
	 width="220px" height="220px" viewBox="0 0 220 220" enable-background="new 0 0 220 220" xml:space="preserve">
<g>
	<ellipse fill="#C7C6C6" cx="122.608" cy="220.1" rx="10.54" ry="3.094"/>
	<path fill="#EAC08A" stroke="#63361A" stroke-miterlimit="10" d="M177.893,153.555c1.981,2.76,9.455,8.735,10.659,9.204
		c0.326,0.127,0.851-0.178,1.275-0.407c0.636-0.347,1.172-0.477,2.02-0.646c1.888-0.378,3.79,0.39,3.688,1.243
		c-0.094,0.776-1.191,0.163-1.286,0.375s2.216,0.928,2.631,4.032c0.249,1.859-1.42,4.58-4.585,4.36
		c-4.432-0.307-3.469-2.916-7.83-5.62c-4.362-2.703-9.129-0.982-21.443-10.66c-2.888-2.269-3.749-9.98,0.925-12.613
		S177.012,152.33,177.893,153.555z"/>
	<path fill="#C99F72" stroke="#613619" stroke-miterlimit="10" d="M123.127,187.922c1.372,1.738-1.695,9.398-4.876,12.223
		c-3.181,2.823-5.29,11.026-4.444,12.27c0.844,1.243,17.737,7.758,18.9,7.357c1.164-0.399,0.693-3.021-1.591-5.36
		c-2.286-2.341-7.257-1.304-8.694-1.823s-4.128-1.499-4.352-2.602c-0.223-1.103,2.841-5.726,8.045-6.592
		c5.205-0.867,12.317-5.552,14.571-8.615c2.254-3.064,5.899-8.213-1.552-13.168s-14.273,0-14.273,0S120.627,184.756,123.127,187.922
		z"/>
	<ellipse fill="#C7C6C6" cx="186.724" cy="217.72" rx="10.54" ry="3.095"/>
	<path fill="#EAC08A" stroke="#613619" stroke-miterlimit="10" d="M118.26,180.061c-1.166-3.498-10.4,0.18-10.4,0.18
		c-34.315,15.715-59.815,4.099-68.065-10.901c-8.106-14.737-1.5-47.362,2.5-64.263c4-16.901-6.935-43.836-8.935-49.224
		s-3.565-19.529,8.435-14.263c12,5.266,52.285,8.002,65.065,37.804c19.49,45.446,2.436,81.196,4.226,85.696
		c1.36,3.421,8.911-0.735,8.911-0.735"/>
	<path fill="#FFFFFF" d="M52.043,158.089c-5.5-13.135,3.241-41.944,4.575-54.304c1.334-12.36,0.925-25.195-3.499-33.965
		c-3.645-7.223-13.18-14.763-4.992-13.897c8.667,0.916,33.917,6.916,42.917,26.039c6.329,13.447-1.472,46.325,0,62.992
		c1.474,16.666,15.417,24.968,15.417,24.968C67.128,183.922,54.871,164.839,52.043,158.089z"/>
	<path fill="#E3BB88" stroke="#613619" stroke-miterlimit="10" d="M128.691,133.714l-2.34,2.003c0,0-0.123,7.344-6.668,28.372
		c-4.596,14.769-1.877,23.5,5.692,29.972c6.869,5.873,27.67,7.039,38.799,4.545c15.697-3.517,25.243-18.017,21.62-31.887
		c-5.566-21.307-9.452-30.77-9.452-30.77L128.691,133.714z"/>
	<path fill="#FFFFFF" d="M182.711,157.089c-3.817-14.222-7.636-23.375-7.636-23.375l-15.447,2.835c0,0-3.834,3.04,0,7.973
		s2.698,26.414,3.927,37.567c1.23,11.153,18.396,3.875,18.396,3.875C188.284,175.131,186.015,169.398,182.711,157.089z"/>
	<path fill="#187FC4" d="M154.594,111.838h-8.735l-23.251,22.35c0,0,24.27,4.187,34.687,8.766c7.365,3.238,20,11,20,11
		s-1.04-3.868-0.592-8.864c0.136-5.442-0.359-9.14-0.359-9.14L154.594,111.838z"/>
	<path fill="#EAC08A" stroke="#63361A" stroke-miterlimit="10" d="M87.023,105.099c0.682,1.978,4.396,1.385,4.979,2.592
		c0.764,1.583-3.41,0.921-2.318,3.649c6.674,16.686,31.145,25.473,52.333,24.473c3.322-0.155,4.419,2.461,8.385,3.66
		c2.098,0.596,6.945,0.748,10.424-0.207c3.161-1.033,3.663-3.609,6.985-3.453c21.188,1,33.658-9.787,40.333-26.473
		c1.091-2.728-3.083-2.066-2.318-3.649c0.583-1.208,4.297-0.614,4.979-2.592c0.729-2.112-3.24-1.739-3.342-2.66
		c-0.146-1.316,4.092-1.705,2.046-4.57c-3.779-5.29-8.025-6.556-15.539-10.99c-2.608-9.526-4.882-16.092-7.056-20.759
		c-3.34-7.168-4.896-11.734-8.024-17.727c-3.484-6.673-10.228-11.407-12.259-9.521c-1.406,1.305-0.534,1.673-2.829,11.239
		c-0.444,1.847-4.242-1.282-13.852-0.888c-9.738-0.166-13.481,2.735-13.925,0.888c-2.296-9.566-2.423-9.934-3.829-11.239
		c-2.03-1.886-7.774,2.848-11.258,9.521c-3.129,5.993-4.685,10.559-8.024,17.727c-2.175,4.666-4.447,11.233-7.056,20.759
		c-7.515,4.434-13.762,7.701-17.539,12.99c-2.047,2.865,2.191,3.254,2.045,4.57C90.262,103.36,86.294,102.987,87.023,105.099z"/>
	<path fill="#613619" d="M166.966,49.212c3.116,0.671,5.707,1.619,8.014,2.853c-0.672-2.094-1.138-3.569-1.771-4.785
		c-0.964-1.85-1.52-2.436-2.237-3.521s-1.758-1.744-2.139-1.768c-0.381-0.023-0.646,0.385-1.018,2.062
		C167.544,45.283,167.354,45.837,166.966,49.212z"/>
	<path fill="#613619" d="M132.698,49.212c-3.116,0.671-5.707,1.619-8.015,2.853c0.672-2.094,1.139-3.569,1.771-4.785
		c0.964-1.85,1.52-2.436,2.236-3.521c0.719-1.085,1.759-1.744,2.14-1.768c0.381-0.023,0.646,0.385,1.017,2.062
		C132.12,45.283,132.311,45.837,132.698,49.212z"/>
	<g>
		<path fill="#FFFFFF" d="M96.327,108.621c0.862,14.033,20.929,27.756,46.407,27.205c2.994-0.064,3.726,2.095,6.932,3.095
			c4.174,1.028,7.058,0.745,10.846-0.052c2.875-0.971,4.532-3.534,5.883-3.448c20.982,1.334,34.475-12.766,35.337-26.799
			c0.473-7.667-0.908-12.367-6.786-15.789c-3.689-2.148-4.396-1.656-4.632-1.649c-6.36-28.94-15.618-29.283-19.342-29.556
			c-3.789-0.278-6.716,1.158-9.217,7.461c-0.929,2.34-2.237,12.407-2.586,15.75c-0.248,2.377-0.422,6.723-4.375,7.455
			c-2.044-0.333-2.817-0.581-4.5-5.274c-2.276-6.348-6.04-14.154-6.867-16.532c-2.489-7.153-7.899-9.608-13.219-9.608
			c-5.522,0-13.647,4.427-20.461,30.304c-0.235-0.007-2.942-0.499-6.632,1.649C97.238,96.255,95.857,100.955,96.327,108.621z"/>
	</g>
	<ellipse fill="#EE869A" cx="189.417" cy="106.662" rx="8.599" ry="2.877"/>
	<ellipse fill="#EE869A" cx="119.996" cy="107.953" rx="8.6" ry="2.877"/>
	<path fill="none" stroke="#63361A" stroke-width="2" stroke-linecap="round" stroke-linejoin="round" stroke-miterlimit="10" d="
		M156.049,112.073c-0.535-1.513,0.132-5.411,0.132-5.411"/>
	<g>
		<path fill="#613619" d="M161.24,96.184c0.583,0.354,0.916,0.668,1.162,0.937c0.247,0.269,0.409,0.492,0.665,0.842
			c0.258,0.35,0.609,0.828,0.447,1.752c-0.162,0.924-0.837,2.294-2.261,3.933c-1.424,1.64-3.597,3.548-5.192,3.573
			c-1.595,0.025-3.827-1.814-5.302-3.408s-2.193-2.942-2.383-3.86c-0.191-0.918,0.146-1.407,0.391-1.765s0.399-0.586,0.638-0.862
			c0.239-0.276,0.563-0.601,1.134-0.973c0.57-0.372,1.391-0.793,5.338-0.886C159.824,95.437,160.657,95.831,161.24,96.184z"/>
		<path fill="#FFFFFF" d="M161.495,98.811c-0.137,0.131-0.354,0.108-0.459-0.049c-0.101-0.15-0.24-0.331-0.413-0.499
			c-0.265-0.257-0.526-0.428-0.705-0.528c-0.129-0.073-0.184-0.227-0.132-0.366l0.029-0.083c0.051-0.137,0.189-0.22,0.332-0.195
			c0.256,0.044,0.68,0.163,1.139,0.486c0.256,0.181,0.436,0.402,0.545,0.564c0.082,0.122,0.063,0.285-0.042,0.387L161.495,98.811z"
			/>
	</g>
	<path fill="none" stroke="#613619" stroke-miterlimit="10" d="M149.378,114.364c0.634,2.308,1.036,3.769,1.67,6.077
		c3.074-0.049,6.148-0.098,9.223-0.146c0.563-2.327,0.921-3.472,1.483-5.799c-2.046-0.024-3.891-1.203-5.937-1.173
		c-0.063,1.638-0.127,3.277-0.19,4.915c-0.115-1.636-0.23-3.271-0.345-4.907C153.235,113.366,151.424,114.275,149.378,114.364z"/>
	<path fill="none" stroke="#63361A" stroke-width="2" stroke-linecap="round" stroke-linejoin="round" stroke-miterlimit="10" d="
		M138.749,112.48c8.193,4.504,16.233-0.383,17.422-0.644c7.801,6.358,12.761-0.2,12.761-0.2"/>
	<g>
		<g>
			<g>
				<path fill="#FFFFFF" d="M171.304,143.539c-0.452-0.618-0.905-1.236-1.357-1.854c-0.134,2.02-0.268,4.039-0.401,6.06
					c-2.065-0.36-3.645-2.038-3.879-4.121c-0.234-2.082,0.932-4.069,2.864-4.881c1.934-0.81,4.169-0.25,5.49,1.377
					c1.322,1.626,1.413,3.929,0.224,5.655c0.242,0.522-0.378,1.02-0.835,0.668c-0.457-0.351-0.137-1.078,0.431-0.979
					c2.242-3.296-0.925-7.572-4.732-6.391c-3.807,1.182-3.994,6.501-0.278,7.947c0.165-2.492,0.331-4.984,0.496-7.477
					c1.078,1.475,2.157,2.949,3.237,4.424c-0.44,0.129-0.882,0.256-1.322,0.385c0.618,0.845,1.236,1.689,1.855,2.535
					c-1.1-0.971-2.201-1.939-3.301-2.91C170.299,143.832,170.802,143.686,171.304,143.539z"/>
			</g>
		</g>
	</g>
	<path fill="#DEB686" stroke="#613619" stroke-miterlimit="10" d="M163.008,196.02c2.211-0.125,6.72,6.787,7.204,11.013
		c0.483,4.225,5.985,10.665,7.489,10.687c1.503,0.022,16.54-10.062,16.881-11.244c0.342-1.182-2.074-2.303-5.303-1.776
		c-3.228,0.526-5.234,5.19-6.486,6.069c-1.252,0.877-3.6,2.518-4.63,2.066c-1.031-0.451-3.056-5.614-0.775-10.372
		c2.279-4.758,2.532-13.271,1.319-16.876s-3.334-9.546-11.67-6.294s-8.199,11.683-8.199,11.683S158.979,196.247,163.008,196.02z"/>
	<path fill="#EAC08A" stroke="#63361A" stroke-miterlimit="10" d="M140.414,162.754c-2.432,2.373-7.216,10.66-7.498,11.921
		c-0.077,0.343,0.304,0.816,0.595,1.2c0.438,0.576,0.648,1.087,0.943,1.9c0.656,1.809,0.184,3.806-0.676,3.832
		c-0.781,0.025-0.34-1.152-0.563-1.215c-0.223-0.062-0.584,2.33-3.591,3.207c-1.8,0.525-4.742-0.716-5-3.877
		c-0.36-4.427,2.362-3.867,4.38-8.586c2.018-4.718-0.4-9.172,7.315-22.801c1.81-3.195,9.305-5.206,12.61-0.98
		C152.235,151.58,141.494,161.701,140.414,162.754z"/>
</g>
<g>
	<path fill="#4B2C13" d="M166.927,88.164c0-0.621,0.503-1.125,1.125-1.125h18.25c0.621,0,1.125,0.504,1.125,1.125l0,0
		c0,0.621-0.504,1.125-1.125,1.125h-18.25C167.431,89.289,166.927,88.785,166.927,88.164L166.927,88.164z"/>
	<path fill="#4B2C13" d="M181.743,89.501c0,2.522-2.044,4.566-4.566,4.566s-4.566-2.044-4.566-4.566
		C172.61,86.98,181.743,86.979,181.743,89.501z"/>
</g>
<g>
	<path fill="#4B2C13" d="M124.032,88.164c0-0.621,0.504-1.125,1.125-1.125h18.25c0.62,0,1.125,0.504,1.125,1.125l0,0
		c0,0.621-0.505,1.125-1.125,1.125h-18.25C124.536,89.289,124.032,88.785,124.032,88.164L124.032,88.164z"/>
	<path fill="#4B2C13" d="M138.849,89.501c0,2.522-2.044,4.566-4.565,4.566s-4.566-2.044-4.566-4.566
		C129.717,86.98,138.849,86.979,138.849,89.501z"/>
</g>
</svg>
