<?xml version="1.0" encoding="utf-8"?>
<!-- Generator: Adobe Illustrator 16.0.0, SVG Export Plug-In . SVG Version: 6.00 Build 0)  -->
<!DOCTYPE svg PUBLIC "-//W3C//DTD SVG 1.1//EN" "http://www.w3.org/Graphics/SVG/1.1/DTD/svg11.dtd">
<svg version="1.1" id="图层_1" xmlns="http://www.w3.org/2000/svg" xmlns:xlink="http://www.w3.org/1999/xlink" x="0px" y="0px"
	 width="220px" height="220px" viewBox="0 0 220 220" enable-background="new 0 0 220 220" xml:space="preserve">
<g>
	<ellipse fill="#C7C6C6" cx="186.554" cy="209.848" rx="10.54" ry="3.096"/>
	<ellipse fill="#C7C6C6" cx="126.106" cy="211.512" rx="10.54" ry="3.096"/>
	<path fill="#C99F72" stroke="#613619" stroke-miterlimit="10" d="M165.489,187.741c2.211-0.125,6.721,6.788,7.204,11.013
		c0.484,4.225,5.986,10.665,7.489,10.688c1.503,0.021,16.54-10.063,16.881-11.244c0.342-1.182-2.074-2.303-5.302-1.777
		c-3.229,0.527-5.235,5.191-6.487,6.069s-3.599,2.518-4.63,2.067c-1.031-0.451-3.055-5.615-0.774-10.373
		c2.278-4.758,2.531-13.271,1.318-16.875c-1.213-3.605-3.334-9.547-11.67-6.295s-8.199,11.682-8.199,11.682
		S161.461,187.968,165.489,187.741z"/>
	<path fill="#EAC08A" stroke="#613619" stroke-miterlimit="10" d="M120.742,171.782c-1.166-3.498-10.4,1.18-10.4,1.18
		c-32.432,17.429-59.816,3.099-68.066-11.901c-8.105-14.737,1.047-47.361,5.047-64.263c4-16.901-8.48-45.836-10.48-51.224
		c-2-5.388-3.566-19.529,8.434-14.263s51.285,10.002,64.066,39.804c19.49,45.445,2.436,81.195,4.225,85.695
		c1.361,3.422,8.912-0.735,8.912-0.735"/>
	<path fill="#FFFFFF" d="M54.523,149.811c-5.5-13.135,3.242-41.943,4.576-54.304c1.334-12.36,1.924-27.195-2.5-35.965
		c-3.644-7.223-13.179-14.763-4.992-13.897c8.668,0.916,32.918,8.916,41.918,28.039c6.328,13.447-1.473,46.325,0,62.992
		c1.473,16.666,16.416,24.969,16.416,24.969C70.609,175.645,57.352,156.561,54.523,149.811z"/>
	<path fill="#E3BB88" stroke="#613619" stroke-miterlimit="10" d="M131.173,125.436l-2.341,2.002c0,0,1.186,7-7.413,25.5
		c-6.519,14.024-2.92,27.258,6.438,32.844c7.76,4.631,27.669,7.039,38.798,4.546c15.697-3.517,25.951-18.222,21.62-31.888
		c-6.898-21.765-9.452-30.77-9.452-30.77L131.173,125.436z"/>
	<path fill="#FFFFFF" d="M184.715,149.193c-3.676-11.58-7.16-23.758-7.16-23.758l-15.446,2.834c0,0-3.834,3.041,0,7.973
		c3.834,4.933,2.698,26.415,3.928,37.568c1.229,11.152,17.924,5.035,17.924,5.035C191.8,166.943,189.044,162.822,184.715,149.193z"
		/>
	<path fill="#187FC4" d="M157.074,103.559h-8.734l-23.251,22.349c0,0,24.269,4.187,34.686,8.766c7.365,3.238,20.066,11,20.066,11
		s-1.106-3.867-0.658-8.863c0.136-5.443-0.359-9.141-0.359-9.141L157.074,103.559z"/>
	<path fill="#EAC08A" stroke="#63361A" stroke-miterlimit="10" d="M89.505,97.82c0.683,1.978,4.396,1.385,4.979,2.592
		c0.764,1.583-3.41,0.921-2.319,3.649c6.674,16.686,29.461,26.035,52.334,23.473c3.305-0.37,4.419,2.46,8.385,3.659
		c2.097,0.596,6.945,0.748,10.423-0.207c3.162-1.032,3.665-3.631,6.986-3.452c16.925,0.909,35.591-7.257,40.333-25.473
		c0.739-2.844-3.083-2.066-2.319-3.649c0.583-1.208,4.297-0.614,4.979-2.592c0.728-2.112-3.24-1.739-3.343-2.66
		c-0.146-1.316,4.093-1.705,2.046-4.57c-3.778-5.289-8.024-7.556-15.539-11.99c-2.607-9.526-4.882-16.092-7.056-20.759
		c-3.34-7.168-4.895-11.734-8.023-17.727c-3.484-6.673-9.229-11.407-11.26-9.521c-1.405,1.305-1.533,1.673-3.829,11.239
		c-0.443,1.847-4.241-1.282-13.852-0.888c-9.738-0.166-13.481,2.735-13.924,0.888c-2.296-9.566-2.423-9.934-3.829-11.239
		c-2.031-1.886-7.775,2.848-11.259,9.521c-3.129,5.993-4.685,10.559-8.024,17.727c-2.174,4.666-4.447,11.233-7.056,20.759
		c-7.515,4.434-13.761,8.701-17.539,13.99c-2.046,2.865,2.192,3.254,2.046,4.57C92.744,96.081,88.775,95.708,89.505,97.82z"/>
	<path fill="#613619" d="M169.446,40.933c3.116,0.671,5.707,1.619,8.015,2.853c-0.672-2.094-1.139-3.569-1.771-4.785
		c-0.964-1.85-1.519-2.435-2.236-3.52c-0.719-1.085-1.759-1.744-2.14-1.768c-0.381-0.023-0.646,0.385-1.017,2.062
		C170.024,37.005,169.835,37.558,169.446,40.933z"/>
	<path fill="#613619" d="M135.179,40.933c-3.116,0.671-5.707,1.619-8.014,2.853c0.672-2.094,1.138-3.569,1.771-4.785
		c0.965-1.85,1.52-2.435,2.237-3.52s1.758-1.744,2.14-1.768c0.381-0.023,0.646,0.385,1.017,2.062
		C134.602,37.005,134.791,37.558,135.179,40.933z"/>
	<g>
		<path fill="#FFFFFF" d="M98.809,100.342c0.862,14.033,20.928,27.756,46.407,27.205c2.994-0.064,3.725,2.096,6.931,3.096
			c4.174,1.027,7.059,0.744,10.846-0.053c2.875-0.971,4.532-3.533,5.884-3.447c20.981,1.334,34.474-12.767,35.337-26.8
			c0.472-7.667-0.909-12.367-6.786-15.789c-3.69-2.148-4.396-1.656-4.632-1.649c-6.361-28.94-15.618-29.283-19.342-29.556
			c-3.789-0.278-6.717,1.158-9.218,7.461c-0.929,2.34-2.236,12.407-2.586,15.75c-0.248,2.377-0.422,6.723-4.375,7.455
			c-2.044-0.333-2.816-0.581-4.5-5.274c-2.275-6.348-6.04-14.154-6.867-16.532c-2.488-7.153-7.898-9.608-13.218-9.608
			c-5.523,0-13.647,4.427-20.461,30.304c-0.236-0.007-2.942-0.499-6.633,1.649C99.719,87.976,98.338,92.677,98.809,100.342z"/>
	</g>
	<ellipse fill="#EE869A" cx="191.899" cy="98.383" rx="8.599" ry="2.877"/>
	<ellipse fill="#EE869A" cx="122.478" cy="99.675" rx="8.599" ry="2.877"/>
	<path fill="none" stroke="#63361A" stroke-width="2" stroke-linecap="round" stroke-linejoin="round" stroke-miterlimit="10" d="
		M158.529,103.794c-0.534-1.512,0.133-5.411,0.133-5.411"/>
	<g>
		<path fill="#613619" d="M163.721,87.905c0.583,0.354,0.916,0.668,1.163,0.937c0.247,0.269,0.409,0.492,0.665,0.842
			c0.257,0.35,0.608,0.828,0.447,1.752c-0.162,0.924-0.838,2.294-2.262,3.933c-1.424,1.64-3.597,3.548-5.191,3.573
			c-1.596,0.025-3.827-1.814-5.303-3.408c-1.475-1.594-2.192-2.942-2.383-3.86s0.146-1.407,0.392-1.765
			c0.244-0.358,0.398-0.586,0.638-0.862c0.239-0.276,0.562-0.601,1.133-0.973c0.571-0.372,1.392-0.793,5.338-0.886
			C162.306,87.158,163.139,87.552,163.721,87.905z"/>
		<path fill="#FFFFFF" d="M163.976,90.532c-0.136,0.131-0.354,0.108-0.459-0.049c-0.1-0.15-0.24-0.331-0.413-0.499
			c-0.264-0.257-0.525-0.428-0.705-0.528c-0.129-0.073-0.183-0.227-0.132-0.366l0.03-0.083c0.05-0.137,0.188-0.22,0.332-0.195
			c0.256,0.044,0.679,0.163,1.138,0.486c0.256,0.181,0.437,0.402,0.545,0.564c0.082,0.122,0.064,0.285-0.042,0.387L163.976,90.532z"
			/>
	</g>
	<path fill="none" stroke="#613619" stroke-miterlimit="10" d="M151.858,106.085c0.634,2.308,1.036,3.769,1.67,6.077
		c3.074-0.049,6.149-0.098,9.224-0.145c0.562-2.328,0.921-3.473,1.482-5.8c-2.046-0.024-3.89-1.203-5.936-1.173
		c-0.063,1.638-0.127,3.277-0.191,4.915c-0.115-1.636-0.229-3.271-0.345-4.907C155.717,105.087,153.904,105.997,151.858,106.085z"/>
	<path fill="none" stroke="#63361A" stroke-width="2" stroke-linecap="round" stroke-linejoin="round" stroke-miterlimit="10" d="
		M141.229,104.201c8.194,4.504,16.234-0.383,17.422-0.643c7.802,6.359,12.762-0.2,12.762-0.2"/>
	<g>
		<g>
			<g>
				<path fill="#FFFFFF" d="M173.786,135.26c-0.452-0.617-0.905-1.236-1.357-1.854c-0.134,2.02-0.268,4.039-0.402,6.06
					c-2.064-0.36-3.644-2.038-3.879-4.121c-0.233-2.081,0.933-4.069,2.865-4.881c1.933-0.81,4.168-0.25,5.49,1.377
					c1.321,1.626,1.413,3.929,0.223,5.655c0.243,0.523-0.378,1.02-0.835,0.669s-0.136-1.079,0.431-0.979
					c2.242-3.295-0.925-7.572-4.731-6.391c-3.808,1.182-3.994,6.501-0.279,7.947c0.165-2.492,0.331-4.984,0.496-7.477
					c1.079,1.476,2.158,2.949,3.238,4.424c-0.441,0.129-0.882,0.256-1.323,0.385c0.619,0.845,1.237,1.689,1.856,2.535
					c-1.101-0.971-2.201-1.939-3.302-2.909C172.779,135.555,173.282,135.407,173.786,135.26z"/>
			</g>
		</g>
	</g>
	<path fill="#DEB686" stroke="#613619" stroke-miterlimit="10" d="M125.609,179.643c1.371,1.738-1.696,9.399-4.877,12.224
		c-3.18,2.823-5.289,11.026-4.444,12.269c0.845,1.243,17.737,7.758,18.901,7.358c1.164-0.4,0.693-3.021-1.592-5.361
		c-2.285-2.34-7.257-1.303-8.693-1.823c-1.438-0.52-4.129-1.498-4.352-2.602c-0.224-1.102,2.84-5.725,8.044-6.592
		c5.205-0.867,12.318-5.551,14.572-8.615s5.898-8.213-1.553-13.168s-14.272,0-14.272,0S123.109,176.477,125.609,179.643z"/>
	<path fill="#EAC08A" stroke="#63361A" stroke-miterlimit="10" d="M152.653,149.282c1.62,2.985,8.287,9.85,9.423,10.466
		c0.309,0.167,0.868-0.069,1.317-0.245c0.675-0.263,1.223-0.326,2.086-0.388c1.921-0.139,3.712,0.861,3.504,1.695
		c-0.189,0.758-1.203,0.013-1.322,0.211c-0.12,0.197,2.081,1.197,2.104,4.33c0.014,1.875-1.983,4.365-5.095,3.752
		c-4.356-0.86-3.075-3.328-7.064-6.557s-8.934-2.117-19.939-13.26c-2.581-2.613-2.47-10.372,2.497-12.398
		C145.131,134.859,151.937,147.957,152.653,149.282z"/>
</g>
<g>
	<path fill="none" stroke="#4B2C13" stroke-miterlimit="10" d="M178.483,71.557c6.849,0,12.399,4.778,12.399,6.932
		c0,2.188-5.551,6.932-12.399,6.932c-6.848,0-12.398-4.337-12.398-6.932C166.085,76.335,171.636,71.557,178.483,71.557z"/>
	<path fill="#4B2C13" d="M178.483,71.557c6.03,0,7.453,2.367,7.453,6.932c0,4.566-1.559,6.932-7.453,6.932
		c-6.437,0-7.453-2.367-7.453-6.932C171.03,73.924,171.912,71.557,178.483,71.557z"/>
</g>
<g>
	<path fill="none" stroke="#4B2C13" stroke-miterlimit="10" d="M134.705,71.557c6.848,0,12.398,4.778,12.398,6.932
		c0,2.188-5.551,6.932-12.398,6.932s-12.399-4.337-12.399-6.932C122.306,76.335,127.857,71.557,134.705,71.557z"/>
	<path fill="#4B2C13" d="M134.705,71.557c6.029,0,7.452,2.367,7.452,6.932c0,4.566-1.559,6.932-7.452,6.932
		c-6.438,0-7.453-2.367-7.453-6.932C127.252,73.924,128.133,71.557,134.705,71.557z"/>
</g>
</svg>
