<?xml version="1.0" encoding="utf-8"?>
<!-- Generator: Adobe Illustrator 16.0.0, SVG Export Plug-In . SVG Version: 6.00 Build 0)  -->
<!DOCTYPE svg PUBLIC "-//W3C//DTD SVG 1.1//EN" "http://www.w3.org/Graphics/SVG/1.1/DTD/svg11.dtd">
<svg version="1.1" id="图层_1" xmlns="http://www.w3.org/2000/svg" xmlns:xlink="http://www.w3.org/1999/xlink" x="0px" y="0px"
	 width="220px" height="230px" viewBox="0 0 220 230" enable-background="new 0 0 220 230" xml:space="preserve">
<g>
	<ellipse fill="#C7C6C6" cx="118.126" cy="204.509" rx="10.54" ry="3.095"/>
	<path fill="#EAC08A" stroke="#63361A" stroke-miterlimit="10" d="M173.411,137.965c1.98,2.76,9.455,8.735,10.659,9.204
		c0.325,0.127,0.851-0.178,1.274-0.408c0.636-0.346,1.172-0.476,2.021-0.646c1.888-0.379,3.79,0.39,3.688,1.242
		c-0.093,0.777-1.19,0.164-1.286,0.375c-0.094,0.213,2.216,0.929,2.631,4.033c0.249,1.859-1.42,4.58-4.585,4.36
		c-4.431-0.308-3.469-2.916-7.83-5.62c-4.361-2.703-9.129-0.982-21.442-10.66c-2.888-2.269-3.749-9.98,0.925-12.613
		S172.53,136.74,173.411,137.965z"/>
	<path fill="#C99F72" stroke="#613619" stroke-miterlimit="10" d="M118.645,172.332c1.373,1.738-1.695,9.398-4.875,12.223
		c-3.181,2.823-5.291,11.026-4.445,12.27c0.845,1.242,17.737,7.758,18.9,7.357c1.164-0.399,0.694-3.021-1.591-5.361
		c-2.286-2.34-7.256-1.303-8.694-1.822c-1.437-0.52-4.127-1.499-4.351-2.602s2.841-5.726,8.044-6.592
		c5.205-0.867,12.318-5.552,14.572-8.615c2.254-3.064,5.898-8.213-1.552-13.168c-7.452-4.955-14.273,0-14.273,0
		S116.146,169.166,118.645,172.332z"/>
	<ellipse fill="#C7C6C6" cx="182.243" cy="202.13" rx="10.54" ry="3.095"/>
	<path fill="#EAC08A" stroke="#613619" stroke-miterlimit="10" d="M113.778,164.47c-1.166-3.497-10.4,0.181-10.4,0.181
		c-34.315,15.715-59.815,4.099-68.065-10.901c-8.106-14.738-1.5-47.363,2.5-64.263s-6.935-43.836-8.935-49.224
		c-2-5.388-3.565-19.529,8.435-14.263s52.285,8.002,65.065,37.805c19.49,45.446,2.435,81.196,4.226,85.696
		c1.36,3.421,8.91-0.736,8.91-0.736"/>
	<path fill="#FFFFFF" d="M47.561,142.5c-5.5-13.135,3.242-41.944,4.576-54.304c1.334-12.36,0.924-25.195-3.5-33.965
		c-3.644-7.223-13.179-14.763-4.992-13.897c8.668,0.916,33.918,6.916,42.918,26.039c6.328,13.447-1.473,46.325,0,62.992
		c1.473,16.666,15.416,24.968,15.416,24.968C62.646,168.333,50.389,149.249,47.561,142.5z"/>
	<path fill="#E3BB88" stroke="#613619" stroke-miterlimit="10" d="M124.21,118.124l-2.341,2.003c0,0-0.122,7.343-6.667,28.372
		c-4.597,14.767-1.877,23.5,5.692,29.971c6.868,5.873,27.669,7.04,38.798,4.546c15.697-3.517,25.243-18.017,21.62-31.887
		c-5.565-21.307-9.451-30.77-9.451-30.77L124.21,118.124z"/>
	<path fill="#FFFFFF" d="M178.228,141.499c-3.816-14.222-7.636-23.375-7.636-23.375l-15.446,2.835c0,0-3.834,3.04,0,7.973
		s2.698,26.414,3.928,37.567s18.396,3.875,18.396,3.875C183.802,159.541,181.533,153.809,178.228,141.499z"/>
	<path fill="#187FC4" d="M150.112,96.249h-8.735l-23.251,22.349c0,0,24.269,4.187,34.686,8.766c7.365,3.238,20,11,20,11
		s-1.04-3.868-0.592-8.864c0.136-5.442-0.358-9.14-0.358-9.14L150.112,96.249z"/>
	<path fill="#EAC08A" stroke="#63361A" stroke-miterlimit="10" d="M82.542,89.509c0.683,1.978,4.396,1.385,4.979,2.592
		c0.764,1.583-3.41,0.921-2.319,3.649c6.674,16.686,31.146,25.473,52.334,24.473c3.321-0.156,4.419,2.461,8.385,3.66
		c2.097,0.596,6.945,0.748,10.423-0.207c3.162-1.033,3.664-3.609,6.986-3.453c21.188,1,33.658-9.786,40.333-26.473
		c1.091-2.728-3.083-2.066-2.319-3.649c0.583-1.208,4.297-0.614,4.979-2.592c0.728-2.112-3.24-1.739-3.343-2.66
		c-0.146-1.316,4.093-1.705,2.047-4.57c-3.779-5.29-8.025-6.556-15.539-10.99c-2.608-9.526-4.883-16.092-7.057-20.759
		c-3.34-7.168-4.895-11.734-8.023-17.728c-3.484-6.673-10.229-11.407-12.26-9.521c-1.405,1.305-0.533,1.673-2.828,11.239
		c-0.444,1.847-4.242-1.282-13.853-0.888c-9.738-0.166-13.48,2.735-13.924,0.888c-2.296-9.566-2.423-9.934-3.829-11.239
		c-2.031-1.886-7.775,2.848-11.259,9.521c-3.129,5.993-4.685,10.559-8.024,17.728c-2.174,4.666-4.447,11.233-7.056,20.759
		c-7.514,4.434-13.761,7.701-17.539,12.99c-2.046,2.865,2.192,3.254,2.046,4.57C85.78,87.77,81.813,87.397,82.542,89.509z"/>
	<path fill="#613619" d="M162.483,33.622c3.116,0.671,5.707,1.619,8.015,2.853c-0.672-2.094-1.138-3.569-1.771-4.785
		c-0.964-1.85-1.519-2.435-2.236-3.52c-0.719-1.085-1.759-1.744-2.14-1.768c-0.381-0.023-0.646,0.385-1.017,2.062
		C163.062,29.694,162.872,30.247,162.483,33.622z"/>
	<path fill="#613619" d="M128.216,33.622c-3.116,0.671-5.706,1.619-8.014,2.853c0.672-2.094,1.138-3.569,1.771-4.785
		c0.965-1.85,1.52-2.435,2.237-3.52s1.758-1.744,2.139-1.768c0.381-0.023,0.646,0.385,1.018,2.062
		C127.638,29.694,127.828,30.247,128.216,33.622z"/>
	<g>
		<path fill="#FFFFFF" d="M91.846,93.031c0.862,14.033,20.928,27.756,46.407,27.205c2.994-0.064,3.725,2.095,6.931,3.095
			c4.174,1.028,7.059,0.745,10.847-0.052c2.875-0.971,4.531-3.534,5.883-3.448c20.981,1.334,34.474-12.766,35.337-26.799
			c0.472-7.667-0.909-12.367-6.786-15.789c-3.69-2.148-4.396-1.656-4.632-1.649c-6.361-28.94-15.618-29.283-19.342-29.556
			c-3.789-0.278-6.717,1.158-9.218,7.461c-0.929,2.34-2.236,12.407-2.586,15.75c-0.248,2.377-0.422,6.723-4.375,7.455
			c-2.044-0.333-2.816-0.581-4.5-5.274c-2.275-6.348-6.04-14.154-6.866-16.532c-2.489-7.153-7.899-9.608-13.22-9.608
			c-5.522,0-13.646,4.427-20.46,30.304c-0.236-0.007-2.942-0.499-6.633,1.649C92.756,80.665,91.375,85.366,91.846,93.031z"/>
	</g>
	<ellipse fill="#EE869A" cx="184.936" cy="91.072" rx="8.599" ry="2.877"/>
	<ellipse fill="#EE869A" cx="115.514" cy="92.363" rx="8.599" ry="2.877"/>
	<path fill="none" stroke="#63361A" stroke-width="2" stroke-linecap="round" stroke-linejoin="round" stroke-miterlimit="10" d="
		M151.566,96.483c-0.534-1.512,0.133-5.411,0.133-5.411"/>
	<g>
		<path fill="#613619" d="M156.758,80.594c0.583,0.354,0.916,0.668,1.163,0.938c0.247,0.269,0.409,0.492,0.665,0.842
			c0.257,0.35,0.609,0.828,0.447,1.752s-0.837,2.294-2.262,3.933c-1.424,1.64-3.597,3.548-5.191,3.573
			c-1.595,0.025-3.827-1.814-5.302-3.408c-1.476-1.594-2.193-2.942-2.384-3.86c-0.19-0.918,0.146-1.407,0.392-1.765
			s0.398-0.586,0.638-0.862c0.239-0.276,0.563-0.601,1.133-0.973c0.571-0.372,1.392-0.793,5.338-0.886
			C155.343,79.847,156.175,80.241,156.758,80.594z"/>
		<path fill="#FFFFFF" d="M157.013,83.221c-0.136,0.131-0.354,0.108-0.459-0.049c-0.1-0.15-0.24-0.331-0.413-0.499
			c-0.264-0.257-0.525-0.428-0.705-0.528c-0.129-0.073-0.183-0.227-0.132-0.366l0.03-0.083c0.05-0.137,0.188-0.22,0.332-0.195
			c0.256,0.044,0.679,0.163,1.138,0.486c0.256,0.181,0.437,0.402,0.545,0.564c0.082,0.122,0.064,0.285-0.042,0.387L157.013,83.221z"
			/>
	</g>
	<path fill="none" stroke="#613619" stroke-miterlimit="10" d="M144.896,98.774c0.635,2.308,1.036,3.769,1.67,6.077
		c3.074-0.049,6.149-0.097,9.224-0.145c0.562-2.327,0.921-3.472,1.482-5.799c-2.046-0.024-3.89-1.203-5.936-1.173
		c-0.063,1.638-0.127,3.277-0.191,4.915c-0.114-1.636-0.229-3.271-0.345-4.907C148.754,97.776,146.941,98.686,144.896,98.774z"/>
	<path fill="none" stroke="#63361A" stroke-width="2" stroke-linecap="round" stroke-linejoin="round" stroke-miterlimit="10" d="
		M134.267,96.89c8.194,4.504,16.234-0.383,17.422-0.643c7.802,6.359,12.762-0.2,12.762-0.2"/>
	<g>
		<g>
			<g>
				<path fill="#FFFFFF" d="M166.822,127.949c-0.452-0.618-0.905-1.236-1.357-1.854c-0.134,2.021-0.268,4.04-0.402,6.061
					c-2.064-0.36-3.644-2.038-3.879-4.121c-0.233-2.082,0.933-4.07,2.865-4.882c1.933-0.81,4.168-0.25,5.49,1.378
					c1.322,1.626,1.413,3.929,0.223,5.655c0.243,0.522-0.378,1.02-0.835,0.668c-0.457-0.351-0.136-1.078,0.431-0.979
					c2.242-3.296-0.925-7.573-4.731-6.391c-3.807,1.182-3.994,6.5-0.279,7.947c0.165-2.492,0.331-4.984,0.496-7.477
					c1.079,1.475,2.158,2.949,3.238,4.424c-0.441,0.128-0.882,0.256-1.323,0.385c0.619,0.844,1.237,1.689,1.856,2.534
					c-1.101-0.97-2.201-1.938-3.302-2.909C165.816,128.243,166.32,128.096,166.822,127.949z"/>
			</g>
		</g>
	</g>
	<path fill="#DEB686" stroke="#613619" stroke-miterlimit="10" d="M158.525,180.43c2.212-0.125,6.721,6.788,7.204,11.014
		c0.484,4.225,5.986,10.664,7.489,10.687s16.54-10.062,16.881-11.244c0.342-1.182-2.074-2.303-5.302-1.776s-5.235,5.19-6.487,6.068
		c-1.252,0.879-3.599,2.518-4.63,2.067c-1.031-0.451-3.054-5.614-0.774-10.372c2.278-4.758,2.531-13.271,1.318-16.876
		s-3.334-9.546-11.67-6.294s-8.199,11.682-8.199,11.682S154.497,180.657,158.525,180.43z"/>
	<path fill="#EAC08A" stroke="#63361A" stroke-miterlimit="10" d="M135.932,147.164c-2.431,2.373-7.216,10.66-7.498,11.921
		c-0.077,0.342,0.305,0.815,0.596,1.2c0.438,0.576,0.647,1.087,0.942,1.9c0.657,1.809,0.185,3.806-0.675,3.832
		c-0.782,0.025-0.34-1.152-0.564-1.215c-0.223-0.062-0.584,2.33-3.591,3.207c-1.8,0.525-4.741-0.716-4.999-3.878
		c-0.361-4.426,2.362-3.866,4.379-8.585c2.018-4.718-0.4-9.172,7.316-22.801c1.809-3.196,9.304-5.206,12.61-0.98
		C147.754,135.99,137.012,146.111,135.932,147.164z"/>
</g>
<g>
	<path fill="#63361A" d="M164.604,76.983c-0.422-0.861-0.029-1.919,0.876-2.362l12.166-5.961c0.905-0.444,1.981-0.105,2.403,0.756
		l0,0c0.422,0.861,0.029,1.918-0.876,2.362l-12.166,5.961C166.103,78.183,165.027,77.844,164.604,76.983L164.604,76.983z"/>
	<path fill="#63361A" d="M179.79,82.32c0.457-0.878,0.106-1.921-0.781-2.33l-11.935-5.49c-0.89-0.408-1.979-0.027-2.437,0.851l0,0
		c-0.457,0.878-0.106,1.921,0.781,2.33l11.935,5.49C178.243,83.579,179.333,83.198,179.79,82.32L179.79,82.32z"/>
</g>
<g>
	<path fill="#63361A" d="M137.564,76.983c0.423-0.861,0.03-1.919-0.876-2.362l-12.166-5.961c-0.904-0.444-1.98-0.105-2.402,0.756
		l0,0c-0.422,0.861-0.028,1.918,0.876,2.362l12.166,5.961C136.066,78.183,137.143,77.844,137.564,76.983L137.564,76.983z"/>
	<path fill="#63361A" d="M122.38,82.32c-0.456-0.878-0.106-1.921,0.781-2.33l11.935-5.49c0.89-0.408,1.979-0.027,2.437,0.851l0,0
		c0.457,0.878,0.106,1.921-0.781,2.33l-11.936,5.49C123.927,83.579,122.837,83.198,122.38,82.32L122.38,82.32z"/>
</g>
</svg>
