<?xml version="1.0" encoding="utf-8"?>
<!-- Generator: Adobe Illustrator 16.0.0, SVG Export Plug-In . SVG Version: 6.00 Build 0)  -->
<!DOCTYPE svg PUBLIC "-//W3C//DTD SVG 1.1//EN" "http://www.w3.org/Graphics/SVG/1.1/DTD/svg11.dtd">
<svg version="1.1" id="图层_1" xmlns="http://www.w3.org/2000/svg" xmlns:xlink="http://www.w3.org/1999/xlink" x="0px" y="0px"
	 width="200px" height="230px" viewBox="0 0 200 230" enable-background="new 0 0 200 230" xml:space="preserve">
<g>
	<ellipse fill="#C7C6C6" cx="136.729" cy="222.458" rx="10.54" ry="3.095"/>
	<ellipse fill="#C7C6C6" cx="95.865" cy="222.458" rx="10.54" ry="3.095"/>
	<g>
		<path fill="#EAC08A" stroke="#613619" stroke-miterlimit="10" d="M132.868,184.229c11.287-18.576,12.222-54.91,10.078-68.022
			c-9.269-56.687-33.659-72.732-59.339-78.13c-23.029-4.841-34.524-6.195-39.717-1.783c-5.193,4.412,9.258,7.931,12.489,23.001
			c3.232,15.07-22.056,48.281-25.235,68.451c-3.93,24.935,10.371,47.598,25.936,59.2c20.033,14.934,39.453,13.389,53.915,17.889
			C110.995,204.834,121.581,202.805,132.868,184.229z"/>
		<path fill="#FFFFFF" d="M126.061,163.648c8.555-14.078,9.269-41.614,7.639-51.55c-5.836-35.568-20.525-51.241-37.878-59.889
			c-8.056-4.014-28.392-8.418-28.392-4.107c0,2.835,4.832,4.361,6.357,14.535c1.732,11.551-22.264,48.32-24.672,63.605
			c-2.979,18.896,4.578,31.523,19.511,43.533c14.755,11.869,29.899,10.147,40.858,13.558
			C109.484,183.333,117.507,177.725,126.061,163.648z"/>
	</g>
	<path fill="#EAC08A" stroke="#63361A" stroke-miterlimit="10" d="M95.089,168.758c-10.731,24.938-10.394,26.91-10.462,28.279
		c-0.121,2.459,0.624,4.832,1.776,6.693c2.663,4.303,9.346,8.52,9.856,9.104c0.779,0.892,3.941,2.983,1.616,3.325
		c-2.325,0.341-4.75-0.819-7.196-0.902c-1.613-0.054-2.683,0.575-3.197,1.346c-0.514,0.771-1.284,2.069-1.648,2.784
		c-0.365,0.716-0.322,0.847-0.213,1.106s0.285,0.648,5.295,0.843c5.01,0.195,5.018,0.195,10.086,0.149
		c5.068-0.043,5.452-0.647,5.823-1.819c0.317-0.998-0.183-2.418-0.961-6.401l0.004-0.004c7.057,1.383,14.112,1.45,21.169,0.205
		c-0.754,3.819-1.232,5.219-0.921,6.2c0.371,1.171,0.755,1.774,5.822,1.819c5.068,0.045,5.076,0.045,10.086-0.149
		c5.011-0.194,5.187-0.583,5.296-0.843c0.108-0.26,0.15-0.391-0.214-1.106c-0.363-0.715-1.135-2.013-1.648-2.784
		c-0.513-0.771-1.583-1.399-3.196-1.346c-2.448,0.083-4.872,1.243-7.197,0.902c-2.324-0.342,0.838-2.434,1.616-3.325
		c0.511-0.585,7.193-4.802,9.857-9.104c1.152-1.861,1.897-4.234,1.775-6.693c-0.066-1.37,0.271-3.342-10.462-28.279l-3.525-14.722
		c-0.424-0.425-0.857-0.856-1.286-1.287l-14.916-0.851v-0.189l-1.653,0.094l-1.653-0.094v0.189l-14.915,0.851
		c-0.428,0.431-0.862,0.864-1.286,1.287L95.089,168.758z"/>
	<path fill="#FFFFFF" d="M102.309,166.212c0-7.745,6.278-14.022,14.023-14.022l0,0c7.745,0,14.022,6.277,14.022,14.022l4.371,24.345
		c1.184,7.785-2.095,14.094-18.395,14.023h-2.003c-11.564,0-18.166-5.964-16.391-14.023L102.309,166.212z"/>
	<polygon fill="#187FC4" points="122.134,129.331 113.387,129.331 95.12,150.873 117.483,174.089 138.738,151.055 	"/>
	<path fill="#EAC08A" stroke="#63361A" stroke-miterlimit="10" d="M54.471,123.585c0.684,1.979,4.403,1.386,4.986,2.595
		c0.766,1.586-3.415,0.922-2.322,3.654c6.684,16.709,26.18,24.507,47.397,23.505c3.327-0.157,4.598,2.554,8.568,3.757
		c2.1,0.594,5.342,0.773,8.825-0.183c3.165-1.035,5.107-3.731,8.435-3.575c21.217,1.001,40.714-6.796,47.396-23.505
		c1.093-2.731-3.087-2.069-2.322-3.653c0.584-1.21,4.304-0.615,4.986-2.596c0.729-2.115-3.244-1.742-3.346-2.664
		c-0.146-1.318,4.098-1.708,2.049-4.576c-3.783-5.297-10.038-9.569-17.563-14.009c-2.611-9.539-4.889-16.114-7.065-20.787
		c-3.344-7.178-4.901-11.75-8.035-17.751c-3.489-6.682-9.24-11.422-11.274-9.534c-1.407,1.307-1.536,1.676-3.834,11.254
		c-0.443,1.849-4.248-1.283-13.87-0.889c-9.75-0.166-13.498,2.739-13.942,0.889c-2.299-9.578-2.426-9.947-3.834-11.254
		c-2.034-1.888-7.785,2.852-11.274,9.534c-3.134,6.001-4.69,10.574-8.035,17.751c-2.176,4.673-4.453,11.248-7.065,20.787
		c-7.524,4.44-13.778,8.712-17.562,14.009c-2.049,2.869,2.194,3.258,2.049,4.576C57.717,121.842,53.743,121.468,54.471,123.585z"/>
	<path fill="#613619" d="M134.521,66.62c3.121,0.672,5.716,1.622,8.025,2.857c-0.673-2.096-1.139-3.574-1.773-4.791
		c-0.966-1.853-1.521-2.439-2.239-3.525c-0.72-1.086-1.762-1.746-2.143-1.77c-0.382-0.023-0.646,0.386-1.019,2.065
		C135.101,62.687,134.911,63.241,134.521,66.62z"/>
	<path fill="#613619" d="M100.208,66.62c-3.121,0.672-5.715,1.622-8.024,2.857c0.672-2.096,1.139-3.574,1.772-4.791
		c0.966-1.853,1.521-2.439,2.24-3.525c0.719-1.086,1.761-1.746,2.142-1.77c0.383-0.023,0.646,0.386,1.02,2.065
		C99.63,62.687,99.82,63.241,100.208,66.62z"/>
	<g>
		<path fill="#FFFFFF" d="M63.787,126.109c0.865,14.052,15.95,27.793,41.463,27.242c2.998-0.065,4.898,2.051,7.775,3.024
			c3.059,1.013,4.834,1.149,8.405-0.101c2.878-0.974,4.479-3.528,7.511-3.33c25.065,1.639,41.53-12.783,42.395-26.836
			c0.473-7.676-0.91-12.383-6.795-15.81c-3.695-2.152-6.404-1.659-6.642-1.652c-6.368-28.979-16.477-29.389-20.205-29.662
			c-3.795-0.278-8.557,0.546-11.061,6.857c-0.93,2.343-5.182,16.271-6.01,18.798c-0.807,2.461-1.015,3.899-3.062,4.232
			c-2.047-0.333-2.255-1.77-3.061-4.232c-0.828-2.528-4.724-14.336-5.553-16.717c-2.492-7.162-5.907-9.621-11.234-9.621
			c-5.531,0-13.666,4.434-20.488,30.345c-0.237-0.006-2.946-0.499-6.642,1.652C64.701,113.726,63.318,118.434,63.787,126.109z"/>
	</g>
	<ellipse fill="#EE869A" cx="146.528" cy="125.439" rx="8.61" ry="2.881"/>
	<ellipse fill="#EE869A" cx="87.176" cy="125.439" rx="8.61" ry="2.881"/>
	<path fill="none" stroke="#63361A" stroke-width="2" stroke-linecap="round" stroke-linejoin="round" stroke-miterlimit="10" d="
		M117.278,129.564c-0.536-1.514,0.132-5.418,0.132-5.418"/>
	<g>
		<path fill="#613619" d="M122.769,113.974c0.578,0.364,0.906,0.684,1.149,0.957s0.4,0.498,0.652,0.853
			c0.252,0.354,0.596,0.838,0.42,1.761c-0.177,0.922-0.873,2.283-2.325,3.902c-1.452,1.617-3.658,3.494-5.255,3.494
			c-1.599,0-3.804-1.875-5.255-3.494s-2.149-2.98-2.325-3.902s0.169-1.406,0.42-1.761c0.252-0.355,0.41-0.58,0.653-0.853
			c0.242-0.273,0.57-0.593,1.148-0.957c0.577-0.364,1.405-0.772,5.358-0.803C121.363,113.202,122.19,113.61,122.769,113.974z"/>
		<path fill="#FFFFFF" d="M122.982,116.605c-0.138,0.129-0.355,0.103-0.459-0.057c-0.098-0.15-0.234-0.335-0.405-0.506
			c-0.262-0.26-0.521-0.436-0.698-0.539c-0.128-0.074-0.18-0.23-0.127-0.368l0.032-0.082c0.052-0.136,0.191-0.217,0.335-0.19
			c0.255,0.048,0.678,0.174,1.132,0.505c0.254,0.186,0.43,0.408,0.537,0.572c0.081,0.123,0.06,0.285-0.048,0.387L122.982,116.605z"
			/>
	</g>
	<path fill="none" stroke="#613619" stroke-miterlimit="10" d="M110.742,131.986c0.599,2.322,0.978,3.791,1.577,6.111
		c3.077,0,6.156,0,9.235,0c0.6-2.32,0.978-3.462,1.576-5.783c-2.049-0.056-3.876-1.266-5.925-1.268
		c-0.09,1.639-0.18,3.279-0.27,4.918c-0.09-1.639-0.179-3.279-0.269-4.918C114.618,131.05,112.79,131.932,110.742,131.986z"/>
	<path fill="none" stroke="#63361A" stroke-width="2" stroke-linecap="round" stroke-linejoin="round" stroke-miterlimit="10" d="
		M102.133,129.936c8.133,4.638,13.951,0.217,15.146-0.024c7.71,6.489,15.086-0.347,15.086-0.347"/>
	<g>
		<g>
			<g>
				<path fill="#FFFFFF" d="M118.351,163.82c-0.262-0.721-0.524-1.442-0.787-2.163c-0.692,1.905-1.387,3.81-2.08,5.715
					c-1.884-0.923-2.934-2.979-2.577-5.047c0.356-2.068,2.033-3.653,4.118-3.894c2.085-0.238,4.078,0.926,4.895,2.858
					c0.815,1.933,0.26,4.173-1.366,5.5c0.087,0.571-0.648,0.875-0.99,0.41c-0.342-0.466,0.17-1.076,0.688-0.821
					c3.077-2.543,1.227-7.541-2.764-7.468c-3.991,0.073-5.657,5.135-2.489,7.563c0.854-2.35,1.711-4.699,2.565-7.05
					c0.626,1.72,1.252,3.439,1.878,5.159c-0.46,0-0.92,0-1.38,0c0.359,0.984,0.718,1.971,1.076,2.956
					c-0.787-1.24-1.574-2.479-2.361-3.72C117.301,163.82,117.826,163.82,118.351,163.82z"/>
			</g>
		</g>
	</g>
	<g>
		<path fill="none" stroke="#040000" stroke-width="3" stroke-linecap="round" stroke-linejoin="round" stroke-miterlimit="10" d="
			M105.289,109.125c-5.361-5.713-14.625-5.713-20.714,0"/>
		<path fill="none" stroke="#040000" stroke-width="3" stroke-linecap="round" stroke-linejoin="round" stroke-miterlimit="10" d="
			M103.805,110.961c-4.593-4.895-12.529-4.895-17.746,0"/>
		<path fill="none" stroke="#FFFFFF" stroke-width="2" stroke-linecap="round" stroke-linejoin="round" stroke-miterlimit="10" d="
			M103.105,108.256c-2.631-1.81-4.644-2.228-7.508-2.25"/>
		<path fill="none" stroke="#FFFFFF" stroke-linecap="round" stroke-linejoin="round" stroke-miterlimit="10" d="M92.451,107.768
			c-2.061,0.087-2.76,0.371-4.059,1.223"/>
	</g>
	<g>
		<path fill="none" stroke="#040000" stroke-width="3" stroke-linecap="round" stroke-linejoin="round" stroke-miterlimit="10" d="
			M150.554,109.125c-5.361-5.713-14.625-5.713-20.714,0"/>
		<path fill="none" stroke="#040000" stroke-width="3" stroke-linecap="round" stroke-linejoin="round" stroke-miterlimit="10" d="
			M149.069,110.961c-4.593-4.895-12.529-4.895-17.746,0"/>
		<path fill="none" stroke="#FFFFFF" stroke-width="2" stroke-linecap="round" stroke-linejoin="round" stroke-miterlimit="10" d="
			M148.371,108.256c-2.632-1.81-4.645-2.228-7.508-2.25"/>
		<path fill="none" stroke="#FFFFFF" stroke-linecap="round" stroke-linejoin="round" stroke-miterlimit="10" d="M137.716,107.768
			c-2.06,0.087-2.759,0.371-4.059,1.223"/>
	</g>
	<g>
		
			<rect x="97.88" y="152.845" transform="matrix(0.48 -0.8773 0.8773 0.48 -66.2108 205.4529)" fill="#F4DF28" stroke="#613619" stroke-miterlimit="10" width="84.634" height="11.463"/>
		<line fill="none" stroke="#613619" stroke-miterlimit="10" x1="158.66" y1="126.682" x2="152.849" y2="123.503"/>
		<line fill="none" stroke="#613619" stroke-miterlimit="10" x1="155.12" y1="133.152" x2="149.309" y2="129.975"/>
		<line fill="none" stroke="#613619" stroke-miterlimit="10" x1="151.794" y1="139.23" x2="145.983" y2="136.052"/>
		<line fill="none" stroke="#613619" stroke-miterlimit="10" x1="148.737" y1="144.818" x2="142.926" y2="141.641"/>
		<line fill="none" stroke="#613619" stroke-miterlimit="10" x1="145.143" y1="151.387" x2="139.333" y2="148.208"/>
		<line fill="none" stroke="#613619" stroke-miterlimit="10" x1="142.192" y1="156.779" x2="136.383" y2="153.6"/>
	</g>
	<g>
		<path fill="#EFBA4D" stroke="#613619" stroke-miterlimit="10" d="M122.713,143.033l-32.18,48.479
			c13.193,8.758,31.094,5.006,39.979-8.382C139.398,169.743,135.907,151.791,122.713,143.033z M121.775,154.532
			c7.088,4.704,7.103,17.153,2.328,24.344c-4.772,7.192-16.516,12.413-23.604,7.708L121.775,154.532z"/>
		<line fill="none" stroke="#613619" stroke-miterlimit="10" x1="101.604" y1="189.913" x2="100.271" y2="195.607"/>
		<line fill="none" stroke="#613619" stroke-miterlimit="10" x1="109.71" y1="191.254" x2="110.036" y2="195.511"/>
		<line fill="none" stroke="#613619" stroke-miterlimit="10" x1="116.134" y1="188.881" x2="118.878" y2="193.318"/>
		<line fill="none" stroke="#613619" stroke-miterlimit="10" x1="124.472" y1="184.893" x2="127.023" y2="187.443"/>
		<line fill="none" stroke="#613619" stroke-miterlimit="10" x1="128.966" y1="176.331" x2="133.133" y2="178.24"/>
		<line fill="none" stroke="#613619" stroke-miterlimit="10" x1="130.894" y1="166.645" x2="135.427" y2="166.598"/>
		<line fill="none" stroke="#613619" stroke-miterlimit="10" x1="130.054" y1="160.604" x2="134.535" y2="159.768"/>
		<line fill="none" stroke="#613619" stroke-miterlimit="10" x1="126.415" y1="154.377" x2="130.864" y2="151.294"/>
	</g>
	<path fill="#85C254" stroke="#613619" stroke-miterlimit="10" d="M82.23,147.15c1.08-1.797,5.639,14.629,13.123,9.978
		c6.252-3.886-4.359-16.269-2.205-16.317c4.355-0.096,8.576,2.026,10.888,5.944c2.847,4.824,1.912,10.865-1.897,14.845
		c-0.814,0.85,22.021,34.354,16.309,37.726c-7.319,4.319-22.375-34.005-24.059-33.779c-4.84,0.647-9.748-1.489-12.312-5.833
		C79.734,155.741,79.954,150.943,82.23,147.15z"/>
	<path fill="#EAC08A" stroke="#63361A" stroke-miterlimit="10" d="M96.708,163.023c7.837-2.178,10.784-3.15,11.677-3.84
		c0.241-0.188,0.258-0.914,0.275-1.336c0.027-0.631,0.123-0.908,0.416-1.604c0.502-1.193,1.008-1.62,1.412-1.775
		c0.403-0.155,0.883-0.104,1.017,0.105c0.135,0.211-0.254,0.434-0.138,0.6c0.115,0.166,1.535-1.091,4.199-0.157
		c1.06,0.371,2.789,3.121,1.203,5.391c-2.22,3.177-3.739,1.285-7.723,3.334c-3.982,2.049-4.836,6.39-17.609,11.257
		c-2.996,1.142-9.153-1.679-9.024-6.358C82.542,163.957,96.709,163.025,96.708,163.023z"/>
	<path fill="#EAC08A" stroke="#63361A" stroke-miterlimit="10" d="M129.563,164.654c-8.098,0.768-11.198,0.912-12.277,0.586
		c-0.293-0.088-0.568-0.762-0.735-1.148c-0.251-0.58-0.439-0.806-0.962-1.351c-0.896-0.937-1.52-1.154-1.953-1.154
		c-0.432,0-0.862,0.218-0.912,0.462c-0.05,0.245,0.394,0.315,0.344,0.512c-0.049,0.195-1.821-0.472-3.978,1.354
		c-0.855,0.725-1.488,3.911,0.803,5.464c3.21,2.174,3.953-0.137,8.405,0.354c4.452,0.49,6.8,4.238,20.47,4.22
		c3.205-0.004,7.948-4.839,6.155-9.164C143.129,160.463,129.563,164.655,129.563,164.654z"/>
</g>
</svg>
