<?xml version="1.0" encoding="utf-8"?>
<!-- Generator: Adobe Illustrator 16.0.0, SVG Export Plug-In . SVG Version: 6.00 Build 0)  -->
<!DOCTYPE svg PUBLIC "-//W3C//DTD SVG 1.1//EN" "http://www.w3.org/Graphics/SVG/1.1/DTD/svg11.dtd">
<svg version="1.1" id="图层_1" xmlns="http://www.w3.org/2000/svg" xmlns:xlink="http://www.w3.org/1999/xlink" x="0px" y="0px"
	 width="210px" height="210px" viewBox="0 0 210 210" enable-background="new 0 0 210 210" xml:space="preserve">
<g>
	<ellipse fill="#C7C6C6" cx="112.429" cy="202.357" rx="10.54" ry="3.096"/>
	<path fill="#EAC08A" stroke="#63361A" stroke-miterlimit="10" d="M167.712,135.814c1.981,2.759,9.455,8.734,10.659,9.203
		c0.326,0.127,0.852-0.178,1.275-0.408c0.636-0.346,1.172-0.476,2.02-0.646c1.889-0.378,3.79,0.39,3.688,1.243
		c-0.093,0.777-1.191,0.163-1.286,0.375c-0.094,0.212,2.216,0.928,2.631,4.033c0.249,1.859-1.42,4.58-4.585,4.359
		c-4.431-0.307-3.469-2.916-7.83-5.619s-9.129-0.983-21.442-10.66c-2.889-2.27-3.749-9.981,0.925-12.614
		C158.44,122.447,166.832,134.589,167.712,135.814z"/>
	<path fill="#C99F72" stroke="#613619" stroke-miterlimit="10" d="M112.947,170.182c1.373,1.737-1.695,9.398-4.875,12.223
		c-3.181,2.822-5.291,11.025-4.445,12.269c0.845,1.243,17.736,7.759,18.9,7.358s0.694-3.021-1.591-5.361
		c-2.286-2.34-7.257-1.303-8.694-1.822c-1.437-0.521-4.127-1.5-4.351-2.603s2.84-5.726,8.044-6.593
		c5.205-0.866,12.317-5.551,14.572-8.614c2.254-3.063,5.898-8.213-1.553-13.168c-7.452-4.955-14.272,0-14.272,0
		S110.447,167.014,112.947,170.182z"/>
	<ellipse fill="#C7C6C6" cx="176.544" cy="199.979" rx="10.54" ry="3.096"/>
	<path fill="#EAC08A" stroke="#613619" stroke-miterlimit="10" d="M108.08,162.318c-1.166-3.498-10.399,0.181-10.399,0.181
		c-34.315,15.715-59.815,4.099-68.065-10.901c-8.106-14.738-1.5-47.362,2.5-64.263s-6.935-43.836-8.935-49.224
		c-2-5.388-3.565-19.529,8.435-14.263s52.284,8.002,65.065,37.804c19.489,45.446,2.435,81.196,4.226,85.696
		c1.36,3.422,8.91-0.736,8.91-0.736"/>
	<path fill="#FFFFFF" d="M41.863,140.348c-5.5-13.135,3.242-41.944,4.575-54.304c1.334-12.36,0.925-25.195-3.499-33.965
		c-3.645-7.223-13.179-14.763-4.992-13.897c8.668,0.916,33.918,6.916,42.918,26.039c6.328,13.447-1.473,46.325,0,62.992
		c1.473,16.666,15.416,24.969,15.416,24.969C56.949,166.182,44.691,147.098,41.863,140.348z"/>
	<path fill="#E3BB88" stroke="#613619" stroke-miterlimit="10" d="M118.513,115.973l-2.341,2.004c0,0-0.122,7.342-6.668,28.371
		c-4.596,14.769-1.877,23.5,5.693,29.971c6.868,5.873,27.669,7.041,38.798,4.547c15.697-3.518,25.243-18.018,21.62-31.887
		c-5.565-21.308-9.452-30.771-9.452-30.771L118.513,115.973z"/>
	<path fill="#FFFFFF" d="M172.53,139.348c-3.816-14.222-7.636-23.375-7.636-23.375l-15.446,2.836c0,0-3.834,3.039,0,7.972
		s2.697,26.415,3.927,37.567c1.23,11.153,18.396,3.875,18.396,3.875C178.104,157.389,175.834,151.658,172.53,139.348z"/>
	<path fill="#187FC4" d="M144.414,94.098h-8.734l-23.251,22.347c0,0,24.269,4.188,34.686,8.767c7.365,3.238,20,11,20,11
		s-1.04-3.868-0.592-8.864c0.136-5.442-0.359-9.14-0.359-9.14L144.414,94.098z"/>
	<path fill="#EAC08A" stroke="#63361A" stroke-miterlimit="10" d="M76.844,87.357c0.682,1.978,4.396,1.385,4.979,2.592
		c0.764,1.583-3.41,0.921-2.318,3.649c6.674,16.686,31.145,25.472,52.333,24.472c3.322-0.155,4.42,2.461,8.386,3.66
		c2.097,0.596,6.944,0.748,10.423-0.207c3.162-1.032,3.664-3.609,6.986-3.453c21.188,1,33.657-9.786,40.333-26.472
		c1.091-2.728-3.083-2.066-2.319-3.649c0.583-1.208,4.297-0.614,4.979-2.592c0.729-2.112-3.239-1.739-3.342-2.66
		c-0.146-1.316,4.092-1.705,2.046-4.57c-3.778-5.29-8.024-6.556-15.539-10.99c-2.607-9.526-4.882-16.092-7.056-20.759
		c-3.34-7.168-4.895-11.734-8.024-17.727c-3.483-6.673-10.228-11.407-12.259-9.521c-1.406,1.305-0.534,1.673-2.829,11.239
		c-0.443,1.847-4.241-1.282-13.852-0.888c-9.738-0.166-13.481,2.735-13.924,0.888c-2.296-9.566-2.423-9.934-3.829-11.239
		c-2.031-1.886-7.774,2.848-11.259,9.521c-3.129,5.993-4.684,10.559-8.024,17.727c-2.174,4.666-4.446,11.233-7.056,20.759
		c-7.514,4.434-13.762,7.701-17.539,12.99c-2.046,2.865,2.191,3.254,2.046,4.57C80.082,85.618,76.115,85.245,76.844,87.357z"/>
	<path fill="#613619" d="M156.786,31.471c3.116,0.671,5.707,1.619,8.015,2.853c-0.673-2.094-1.139-3.569-1.771-4.785
		c-0.964-1.85-1.519-2.435-2.237-3.52c-0.718-1.085-1.758-1.744-2.139-1.768c-0.381-0.023-0.646,0.385-1.017,2.062
		C157.364,27.542,157.175,28.096,156.786,31.471z"/>
	<path fill="#613619" d="M122.519,31.471c-3.116,0.671-5.707,1.619-8.015,2.853c0.673-2.094,1.139-3.569,1.771-4.785
		c0.964-1.85,1.519-2.435,2.237-3.52c0.718-1.085,1.758-1.744,2.139-1.768c0.381-0.023,0.646,0.385,1.017,2.062
		C121.94,27.542,122.131,28.096,122.519,31.471z"/>
	<g>
		<path fill="#FFFFFF" d="M86.146,90.88c0.863,14.033,20.93,27.756,46.408,27.205c2.994-0.063,3.725,2.095,6.931,3.095
			c4.174,1.028,7.058,0.745,10.846-0.052c2.875-0.971,4.532-3.534,5.884-3.448c20.981,1.334,34.474-12.766,35.337-26.799
			c0.472-7.667-0.909-12.367-6.786-15.789c-3.69-2.148-4.396-1.656-4.632-1.649c-6.361-28.94-15.618-29.283-19.343-29.556
			c-3.789-0.278-6.716,1.158-9.217,7.461c-0.929,2.34-2.237,12.407-2.586,15.75c-0.248,2.377-0.422,6.723-4.375,7.455
			c-2.044-0.333-2.816-0.581-4.5-5.274c-2.276-6.348-6.04-14.154-6.867-16.532c-2.488-7.153-7.898-9.608-13.219-9.608
			c-5.522,0-13.646,4.427-20.461,30.304c-0.236-0.007-2.941-0.499-6.632,1.649C87.058,78.513,85.678,83.214,86.146,90.88z"/>
	</g>
	<ellipse fill="#EE869A" cx="179.237" cy="88.921" rx="8.599" ry="2.877"/>
	<ellipse fill="#EE869A" cx="109.816" cy="90.212" rx="8.599" ry="2.877"/>
	<path fill="none" stroke="#63361A" stroke-width="2" stroke-linecap="round" stroke-linejoin="round" stroke-miterlimit="10" d="
		M145.868,94.331C145.333,92.819,146,88.92,146,88.92"/>
	<g>
		<path fill="#613619" d="M151.061,78.443c0.583,0.354,0.916,0.668,1.163,0.937s0.409,0.492,0.665,0.842
			c0.257,0.35,0.608,0.828,0.446,1.752c-0.161,0.924-0.837,2.294-2.261,3.933c-1.424,1.64-3.597,3.548-5.191,3.573
			c-1.596,0.025-3.827-1.814-5.303-3.408c-1.475-1.594-2.192-2.942-2.383-3.86s0.146-1.407,0.392-1.765
			c0.244-0.358,0.398-0.586,0.638-0.862s0.562-0.601,1.133-0.973c0.571-0.372,1.391-0.793,5.338-0.886
			C149.645,77.695,150.478,78.09,151.061,78.443z"/>
		<path fill="#FFFFFF" d="M151.315,81.07c-0.136,0.131-0.354,0.108-0.459-0.049c-0.1-0.15-0.24-0.331-0.413-0.499
			c-0.264-0.257-0.526-0.428-0.705-0.528c-0.129-0.073-0.183-0.227-0.132-0.366l0.03-0.083c0.05-0.137,0.188-0.22,0.332-0.195
			c0.256,0.044,0.679,0.163,1.138,0.486c0.256,0.181,0.436,0.402,0.545,0.564c0.082,0.122,0.064,0.285-0.042,0.387L151.315,81.07z"
			/>
	</g>
	<path fill="none" stroke="#613619" stroke-miterlimit="10" d="M139.198,96.622c0.634,2.308,1.036,3.769,1.67,6.077
		c3.074-0.049,6.149-0.097,9.224-0.146c0.562-2.327,0.921-3.472,1.482-5.799c-2.046-0.024-3.89-1.203-5.936-1.173
		c-0.063,1.638-0.127,3.277-0.191,4.915c-0.115-1.636-0.229-3.271-0.345-4.907C143.056,95.625,141.243,96.534,139.198,96.622z"/>
	<path fill="none" stroke="#63361A" stroke-width="2" stroke-linecap="round" stroke-linejoin="round" stroke-miterlimit="10" d="
		M128.569,94.739c8.194,4.504,16.234-0.383,17.422-0.643c7.801,6.359,12.761-0.2,12.761-0.2"/>
	<g>
		<g>
			<g>
				<path fill="#FFFFFF" d="M161.124,125.797c-0.451-0.617-0.904-1.236-1.356-1.854c-0.134,2.02-0.269,4.039-0.402,6.06
					c-2.064-0.36-3.644-2.038-3.879-4.121c-0.234-2.082,0.932-4.069,2.865-4.881c1.933-0.81,4.168-0.25,5.49,1.377
					c1.321,1.626,1.412,3.929,0.223,5.655c0.243,0.523-0.378,1.02-0.835,0.669s-0.136-1.079,0.431-0.979
					c2.242-3.296-0.925-7.572-4.731-6.391c-3.808,1.182-3.994,6.501-0.279,7.947c0.165-2.492,0.331-4.984,0.496-7.477
					c1.079,1.475,2.158,2.949,3.238,4.424c-0.441,0.129-0.883,0.256-1.323,0.385c0.619,0.845,1.237,1.689,1.855,2.535
					c-1.1-0.971-2.2-1.939-3.301-2.91C160.118,126.091,160.622,125.945,161.124,125.797z"/>
			</g>
		</g>
	</g>
	<path fill="#DEB686" stroke="#613619" stroke-miterlimit="10" d="M152.828,178.277c2.211-0.125,6.721,6.789,7.204,11.014
		c0.484,4.225,5.986,10.665,7.489,10.688c1.503,0.021,16.54-10.063,16.881-11.244c0.342-1.183-2.074-2.303-5.302-1.777
		c-3.229,0.527-5.235,5.191-6.487,6.068c-1.252,0.879-3.599,2.519-4.63,2.067c-1.031-0.45-3.054-5.614-0.775-10.372
		c2.279-4.758,2.532-13.271,1.319-16.876c-1.213-3.604-3.334-9.546-11.67-6.294s-8.199,11.682-8.199,11.682
		S148.8,178.506,152.828,178.277z"/>
	<path fill="#EAC08A" stroke="#63361A" stroke-miterlimit="10" d="M130.234,145.012c-2.431,2.373-7.216,10.66-7.498,11.922
		c-0.077,0.342,0.304,0.815,0.595,1.199c0.438,0.576,0.648,1.088,0.943,1.9c0.657,1.809,0.184,3.806-0.675,3.833
		c-0.782,0.024-0.34-1.153-0.564-1.216c-0.223-0.062-0.584,2.33-3.591,3.207c-1.8,0.525-4.741-0.715-4.999-3.877
		c-0.361-4.426,2.362-3.867,4.379-8.586c2.018-4.718-0.4-9.172,7.316-22.801c1.809-3.195,9.304-5.205,12.609-0.98
		C142.057,133.838,131.314,143.959,130.234,145.012z"/>
</g>
<g>
	<path fill="none" stroke="#4B2C13" stroke-width="2" stroke-miterlimit="10" d="M166.785,61.681
		c9.663-0.006,12.158,5.263,12.158,8.197c0,0,0,5.161-5.232,4.25c0,0-4.683-1.432-7.168-1.29c-2.742,0.157-5.593,0.888-5.593,0.888
		c-4.907,0.51-6.306-2.031-5.969-5.462C154.981,68.264,155.671,61.687,166.785,61.681z"/>
	<path fill="#4B2C13" d="M161.741,62.43c2.849,0,5.157,2.548,5.157,5.691s-2.309,5.691-5.157,5.691c-2.848,0-6.504-0.657-6.504-3.8
		S158.894,62.43,161.741,62.43z"/>
</g>
<g>
	<path fill="none" stroke="#4B2C13" stroke-width="2" stroke-miterlimit="10" d="M122.399,61.681
		c10.233-0.006,12.875,5.263,12.875,8.197c0,0,0,5.161-5.541,4.25c0,0-4.959-1.432-7.59-1.29c-2.905,0.157-5.923,0.888-5.923,0.888
		c-5.195,0.51-6.678-2.031-6.32-5.462C109.9,68.264,110.632,61.687,122.399,61.681z"/>
	<path fill="#4B2C13" d="M117.058,62.43c3.016,0,5.461,2.548,5.461,5.691s-2.445,5.691-5.461,5.691c-3.017,0-7.2-1.145-7.2-4.288
		S114.041,62.43,117.058,62.43z"/>
</g>
</svg>
