<?xml version="1.0" encoding="utf-8"?>
<!-- Generator: Adobe Illustrator 16.0.0, SVG Export Plug-In . SVG Version: 6.00 Build 0)  -->
<!DOCTYPE svg PUBLIC "-//W3C//DTD SVG 1.1//EN" "http://www.w3.org/Graphics/SVG/1.1/DTD/svg11.dtd">
<svg version="1.1" id="图层_1" xmlns="http://www.w3.org/2000/svg" xmlns:xlink="http://www.w3.org/1999/xlink" x="0px" y="0px"
	 width="220px" height="230px" viewBox="0 0 220 230" enable-background="new 0 0 220 230" xml:space="preserve">
<g>
	<ellipse fill="#C7C6C6" cx="134.444" cy="219.755" rx="10.54" ry="3.095"/>
	<ellipse fill="#C7C6C6" cx="93.579" cy="219.755" rx="10.54" ry="3.095"/>
	<g>
		<path fill="#EAC08A" stroke="#613619" stroke-miterlimit="10" d="M130.582,181.473c11.287-18.576,12.223-54.908,10.078-68.021
			c-9.268-56.687-33.658-72.732-59.338-78.13C58.293,30.48,53.923,18.959,48.729,23.37c-5.192,4.411,2.134,18.098,5.365,33.168
			c3.231,15.07-22.056,48.281-25.235,68.451c-3.93,24.935,10.371,47.598,25.936,59.2c20.033,14.934,39.453,13.389,53.915,17.889
			C108.71,202.078,119.296,200.049,130.582,181.473z"/>
		<path fill="#FFFFFF" d="M123.775,160.891c8.554-14.078,9.269-41.613,7.638-51.55c-5.836-35.568-19.173-54.785-37.878-59.889
			c-17.254-4.709-32.115-12.97-38.248-12.97c0,0,9.014,14.607,11.838,27.312c2.533,11.403-17.887,44.407-20.295,59.692
			c-2.979,18.896,4.578,31.522,19.511,43.533c14.755,11.869,29.899,10.147,40.859,13.558
			C107.2,180.577,115.223,174.97,123.775,160.891z"/>
	</g>
	<path fill="#EAC08A" stroke="#63361A" stroke-miterlimit="10" d="M92.804,166.002c-10.731,24.938-10.394,26.91-10.462,28.279
		c-0.121,2.459,0.624,4.832,1.775,6.693c2.664,4.303,9.347,8.52,9.857,9.104c0.779,0.891,3.941,2.983,1.616,3.325
		c-2.325,0.341-4.75-0.819-7.197-0.902c-1.612-0.054-2.682,0.575-3.196,1.346c-0.514,0.771-1.285,2.069-1.648,2.784
		c-0.365,0.716-0.322,0.847-0.213,1.106s0.285,0.648,5.295,0.843c5.009,0.194,5.018,0.194,10.086,0.149
		c5.068-0.043,5.452-0.647,5.823-1.819c0.317-0.998-0.183-2.418-0.961-6.402l0.004-0.003c7.057,1.383,14.113,1.45,21.169,0.205
		c-0.755,3.818-1.232,5.219-0.922,6.2c0.371,1.171,0.756,1.774,5.823,1.819c5.068,0.045,5.076,0.045,10.086-0.149
		s5.187-0.583,5.295-0.843c0.109-0.26,0.151-0.391-0.213-1.106c-0.364-0.715-1.135-2.013-1.648-2.784
		c-0.514-0.771-1.583-1.399-3.196-1.346c-2.448,0.083-4.872,1.243-7.197,0.902c-2.325-0.342,0.837-2.435,1.616-3.325
		c0.511-0.585,7.193-4.802,9.857-9.104c1.152-1.861,1.897-4.234,1.775-6.693c-0.066-1.37,0.271-3.342-10.462-28.279l-3.526-14.722
		c-0.424-0.425-0.856-0.856-1.285-1.287l-14.916-0.851v-0.189l-1.653,0.094l-1.653-0.094v0.189l-14.916,0.851
		c-0.428,0.431-0.862,0.864-1.286,1.287L92.804,166.002z"/>
	<path fill="#FFFFFF" d="M100.024,163.456c0-7.745,6.278-14.022,14.023-14.022l0,0c7.744,0,14.022,6.277,14.022,14.022l4.371,24.345
		c1.183,7.785-2.095,14.094-18.395,14.023h-2.003c-11.565,0-18.166-5.965-16.391-14.023L100.024,163.456z"/>
	<polygon fill="#187FC4" points="119.849,126.576 111.103,126.576 92.836,148.118 115.198,171.333 136.453,148.3 	"/>
	<path fill="#EAC08A" stroke="#63361A" stroke-miterlimit="10" d="M52.187,120.829c0.683,1.979,4.403,1.386,4.986,2.595
		c0.765,1.586-3.415,0.922-2.322,3.654c6.683,16.709,26.181,24.507,47.397,23.505c3.327-0.157,4.598,2.554,8.569,3.756
		c2.099,0.595,5.342,0.774,8.825-0.182c3.165-1.035,5.106-3.732,8.434-3.575c21.218,1.001,40.714-6.796,47.397-23.505
		c1.093-2.732-3.087-2.069-2.322-3.654c0.584-1.209,4.303-0.614,4.986-2.595c0.729-2.115-3.244-1.742-3.347-2.664
		c-0.146-1.318,4.099-1.708,2.05-4.576c-3.783-5.297-10.038-9.569-17.563-14.009c-2.612-9.539-4.889-16.114-7.065-20.787
		c-3.345-7.178-4.901-11.75-8.035-17.751c-3.489-6.682-9.24-11.422-11.274-9.534c-1.408,1.307-1.536,1.676-3.834,11.254
		c-0.444,1.849-4.248-1.283-13.87-0.889c-9.75-0.166-13.499,2.739-13.942,0.889c-2.299-9.578-2.426-9.947-3.834-11.254
		c-2.034-1.888-7.785,2.852-11.273,9.534c-3.135,6.001-4.691,10.574-8.035,17.751c-2.178,4.673-4.455,11.248-7.066,20.787
		c-7.523,4.44-13.779,8.712-17.563,14.009c-2.049,2.869,2.195,3.258,2.049,4.576C55.431,119.086,51.457,118.713,52.187,120.829z"/>
	<path fill="#613619" d="M132.237,63.864c3.121,0.672,5.715,1.622,8.025,2.857c-0.673-2.096-1.14-3.574-1.773-4.791
		c-0.966-1.853-1.521-2.439-2.24-3.525c-0.719-1.086-1.761-1.746-2.142-1.771c-0.382-0.023-0.646,0.386-1.019,2.065
		C132.815,59.931,132.626,60.485,132.237,63.864z"/>
	<path fill="#613619" d="M97.924,63.864c-3.121,0.672-5.715,1.622-8.025,2.857c0.674-2.096,1.139-3.574,1.773-4.791
		c0.966-1.853,1.521-2.439,2.24-3.525c0.719-1.086,1.761-1.746,2.142-1.771c0.382-0.023,0.647,0.386,1.019,2.065
		C97.345,59.931,97.536,60.485,97.924,63.864z"/>
	<g>
		<path fill="#FFFFFF" d="M61.503,123.354c0.864,14.052,15.95,27.793,41.463,27.241c2.998-0.064,4.898,2.052,7.775,3.025
			c3.059,1.013,4.834,1.149,8.405-0.101c2.878-0.974,4.479-3.528,7.511-3.33c25.065,1.639,41.53-12.783,42.395-26.836
			c0.473-7.677-0.91-12.384-6.795-15.81c-3.695-2.152-6.404-1.659-6.642-1.652c-6.369-28.979-16.477-29.389-20.206-29.662
			c-3.794-0.278-8.556,0.546-11.06,6.857c-0.93,2.343-5.182,16.27-6.01,18.798c-0.807,2.461-1.015,3.899-3.062,4.232
			c-2.047-0.333-2.255-1.77-3.061-4.232c-0.828-2.528-4.724-14.336-5.553-16.717c-2.492-7.162-5.907-9.621-11.234-9.621
			c-5.53,0-13.666,4.434-20.489,30.345c-0.236-0.006-2.945-0.499-6.641,1.652C62.416,110.97,61.033,115.677,61.503,123.354z"/>
	</g>
	<ellipse fill="#EE869A" cx="144.244" cy="122.686" rx="8.61" ry="2.881"/>
	<ellipse fill="#EE869A" cx="84.892" cy="122.686" rx="8.61" ry="2.881"/>
	<path fill="none" stroke="#63361A" stroke-width="2" stroke-linecap="round" stroke-linejoin="round" stroke-miterlimit="10" d="
		M114.993,126.809c-0.536-1.514,0.133-5.418,0.133-5.418"/>
	<g>
		<path fill="#613619" d="M120.484,111.218c0.578,0.364,0.906,0.684,1.149,0.957c0.243,0.273,0.4,0.498,0.651,0.853
			c0.252,0.354,0.597,0.838,0.42,1.761c-0.176,0.922-0.874,2.283-2.324,3.902c-1.452,1.617-3.658,3.494-5.256,3.494
			s-3.803-1.875-5.254-3.494c-1.451-1.619-2.149-2.98-2.325-3.902c-0.176-0.922,0.169-1.406,0.42-1.761
			c0.252-0.355,0.41-0.58,0.653-0.853c0.243-0.273,0.571-0.593,1.149-0.957c0.577-0.364,1.405-0.772,5.358-0.803
			C119.077,110.446,119.905,110.854,120.484,111.218z"/>
		<path fill="#FFFFFF" d="M120.698,113.849c-0.138,0.129-0.355,0.103-0.459-0.056c-0.098-0.151-0.234-0.335-0.406-0.506
			c-0.261-0.26-0.521-0.436-0.697-0.539c-0.128-0.074-0.181-0.23-0.127-0.368l0.031-0.082c0.053-0.136,0.192-0.217,0.336-0.19
			c0.255,0.048,0.678,0.174,1.132,0.505c0.254,0.185,0.43,0.409,0.537,0.573c0.081,0.123,0.06,0.285-0.049,0.386L120.698,113.849z"
			/>
	</g>
	<path fill="none" stroke="#613619" stroke-miterlimit="10" d="M108.457,129.232c0.599,2.32,0.978,3.789,1.577,6.11
		c3.078,0,6.157,0,9.236,0c0.599-2.321,0.977-3.462,1.576-5.782c-2.049-0.057-3.876-1.267-5.925-1.269
		c-0.091,1.64-0.18,3.278-0.27,4.918c-0.09-1.639-0.179-3.278-0.269-4.918C112.333,128.294,110.506,129.176,108.457,129.232z"/>
	<path fill="none" stroke="#63361A" stroke-width="2" stroke-linecap="round" stroke-linejoin="round" stroke-miterlimit="10" d="
		M99.847,127.18c8.133,4.637,13.952,0.217,15.146-0.024c7.71,6.489,15.086-0.347,15.086-0.347"/>
	<g>
		<g>
			<g>
				<path fill="#FFFFFF" d="M116.065,161.064c-0.262-0.722-0.525-1.442-0.787-2.164c-0.692,1.906-1.387,3.811-2.08,5.716
					c-1.884-0.923-2.934-2.979-2.578-5.048c0.357-2.067,2.034-3.652,4.119-3.893c2.085-0.238,4.078,0.926,4.895,2.858
					c0.815,1.933,0.26,4.173-1.366,5.5c0.087,0.571-0.649,0.875-0.99,0.409c-0.342-0.465,0.17-1.075,0.688-0.82
					c3.077-2.543,1.227-7.541-2.765-7.468c-3.99,0.073-5.656,5.135-2.488,7.563c0.854-2.35,1.711-4.699,2.565-7.05
					c0.626,1.72,1.252,3.438,1.878,5.159c-0.46,0-0.92,0-1.38,0c0.359,0.984,0.717,1.971,1.076,2.956
					c-0.787-1.24-1.574-2.479-2.361-3.72C115.017,161.064,115.541,161.064,116.065,161.064z"/>
			</g>
		</g>
	</g>
	<g>
		<path fill="none" stroke="#040000" stroke-width="3" stroke-linecap="round" stroke-linejoin="round" stroke-miterlimit="10" d="
			M103.004,106.37c-5.361-5.713-14.625-5.713-20.715,0"/>
		<path fill="none" stroke="#040000" stroke-width="3" stroke-linecap="round" stroke-linejoin="round" stroke-miterlimit="10" d="
			M101.52,108.205c-4.592-4.895-12.529-4.895-17.746,0"/>
		<path fill="none" stroke="#FFFFFF" stroke-width="2" stroke-linecap="round" stroke-linejoin="round" stroke-miterlimit="10" d="
			M100.822,105.5c-2.632-1.81-4.644-2.228-7.507-2.25"/>
		<path fill="none" stroke="#FFFFFF" stroke-linecap="round" stroke-linejoin="round" stroke-miterlimit="10" d="M90.166,105.012
			c-2.061,0.087-2.76,0.371-4.059,1.223"/>
	</g>
	<g>
		<path fill="none" stroke="#040000" stroke-width="3" stroke-linecap="round" stroke-linejoin="round" stroke-miterlimit="10" d="
			M148.269,106.37c-5.361-5.713-14.625-5.713-20.714,0"/>
		<path fill="none" stroke="#040000" stroke-width="3" stroke-linecap="round" stroke-linejoin="round" stroke-miterlimit="10" d="
			M146.784,108.205c-4.592-4.895-12.528-4.895-17.746,0"/>
		<path fill="none" stroke="#FFFFFF" stroke-width="2" stroke-linecap="round" stroke-linejoin="round" stroke-miterlimit="10" d="
			M146.087,105.5c-2.633-1.81-4.645-2.228-7.509-2.25"/>
		<path fill="none" stroke="#FFFFFF" stroke-linecap="round" stroke-linejoin="round" stroke-miterlimit="10" d="M135.432,105.012
			c-2.061,0.087-2.759,0.371-4.06,1.223"/>
	</g>
	<g>
		
			<rect x="95.596" y="150.088" transform="matrix(0.48 -0.8773 0.8773 0.48 -64.9805 202.0181)" fill="#F4DF28" stroke="#613619" stroke-miterlimit="10" width="84.633" height="11.464"/>
		<line fill="none" stroke="#613619" stroke-miterlimit="10" x1="156.374" y1="123.927" x2="150.564" y2="120.748"/>
		<line fill="none" stroke="#613619" stroke-miterlimit="10" x1="152.835" y1="130.396" x2="147.024" y2="127.218"/>
		<line fill="none" stroke="#613619" stroke-miterlimit="10" x1="149.51" y1="136.475" x2="143.698" y2="133.296"/>
		<line fill="none" stroke="#613619" stroke-miterlimit="10" x1="146.452" y1="142.063" x2="140.642" y2="138.884"/>
		<line fill="none" stroke="#613619" stroke-miterlimit="10" x1="142.858" y1="148.632" x2="137.048" y2="145.453"/>
		<line fill="none" stroke="#613619" stroke-miterlimit="10" x1="139.908" y1="154.023" x2="134.098" y2="150.844"/>
	</g>
	<g>
		<path fill="#EFBA4D" stroke="#613619" stroke-miterlimit="10" d="M120.429,140.277l-32.181,48.479
			c13.195,8.759,31.095,5.005,39.98-8.382S133.622,149.036,120.429,140.277z M119.49,151.775c7.087,4.705,7.103,17.154,2.328,24.345
			c-4.772,7.192-16.516,12.413-23.604,7.708L119.49,151.775z"/>
		<line fill="none" stroke="#613619" stroke-miterlimit="10" x1="99.319" y1="187.158" x2="97.987" y2="192.852"/>
		<line fill="none" stroke="#613619" stroke-miterlimit="10" x1="107.425" y1="188.499" x2="107.751" y2="192.755"/>
		<line fill="none" stroke="#613619" stroke-miterlimit="10" x1="113.849" y1="186.125" x2="116.594" y2="190.564"/>
		<line fill="none" stroke="#613619" stroke-miterlimit="10" x1="122.188" y1="182.137" x2="124.739" y2="184.688"/>
		<line fill="none" stroke="#613619" stroke-miterlimit="10" x1="126.681" y1="173.576" x2="130.848" y2="175.484"/>
		<line fill="none" stroke="#613619" stroke-miterlimit="10" x1="128.609" y1="163.889" x2="133.143" y2="163.842"/>
		<line fill="none" stroke="#613619" stroke-miterlimit="10" x1="127.77" y1="157.85" x2="132.251" y2="157.012"/>
		<line fill="none" stroke="#613619" stroke-miterlimit="10" x1="124.131" y1="151.622" x2="128.579" y2="148.538"/>
	</g>
	<path fill="#85C254" stroke="#613619" stroke-miterlimit="10" d="M79.945,144.396c1.08-1.797,5.64,14.629,13.125,9.977
		c6.251-3.887-4.36-16.27-2.207-16.316c4.356-0.097,8.577,2.025,10.889,5.943c2.847,4.824,1.912,10.865-1.898,14.844
		c-0.814,0.85,22.022,34.355,16.309,37.727c-7.318,4.318-22.375-34.004-24.058-33.779c-4.84,0.648-9.749-1.489-12.312-5.833
		C77.449,152.984,77.669,148.188,79.945,144.396z"/>
	<path fill="#EAC08A" stroke="#63361A" stroke-miterlimit="10" d="M128.238,162.943c-6.916,4.281-9.63,5.787-10.742,5.975
		c-0.301,0.05-0.847-0.432-1.168-0.703c-0.482-0.408-0.752-0.527-1.462-0.783c-1.218-0.441-1.874-0.359-2.262-0.168
		c-0.387,0.192-0.675,0.578-0.612,0.819c0.064,0.241,0.492,0.106,0.535,0.306c0.043,0.196-1.842,0.387-2.963,2.979
		c-0.445,1.029,0.402,4.166,3.144,4.54c3.842,0.524,3.482-1.877,7.689-3.413c4.206-1.536,7.975,0.781,20.216-5.305
		c2.87-1.426,4.976-7.863,1.448-10.943S128.239,162.943,128.238,162.943z"/>
	<path fill="#EAC08A" stroke="#63361A" stroke-miterlimit="10" d="M96.12,162.033c7.849-2.137,10.801-3.096,11.696-3.781
		c0.243-0.186,0.263-0.913,0.283-1.333c0.03-0.631,0.128-0.909,0.424-1.603c0.508-1.191,1.016-1.615,1.421-1.769
		c0.404-0.153,0.882-0.101,1.016,0.11c0.133,0.211-0.258,0.433-0.143,0.599s1.539-1.084,4.2-0.136
		c1.057,0.376,2.772,3.135,1.175,5.396c-2.237,3.166-3.747,1.266-7.74,3.295c-3.992,2.028-4.868,6.364-17.667,11.166
		c-3,1.127-9.144-1.725-8.99-6.404C81.947,162.895,96.121,162.033,96.12,162.033z"/>
</g>
</svg>
