<?xml version="1.0" encoding="utf-8"?>
<!-- Generator: Adobe Illustrator 16.0.0, SVG Export Plug-In . SVG Version: 6.00 Build 0)  -->
<!DOCTYPE svg PUBLIC "-//W3C//DTD SVG 1.1//EN" "http://www.w3.org/Graphics/SVG/1.1/DTD/svg11.dtd">
<svg version="1.1" id="图层_1" xmlns="http://www.w3.org/2000/svg" xmlns:xlink="http://www.w3.org/1999/xlink" x="0px" y="0px"
	 width="220px" height="230px" viewBox="0 0 220 230" enable-background="new 0 0 220 230" xml:space="preserve">
<g>
	<ellipse fill="#C7C6C6" cx="139.588" cy="224.963" rx="10.54" ry="3.096"/>
	<ellipse fill="#C7C6C6" cx="98.723" cy="224.963" rx="10.54" ry="3.096"/>
	<g>
		<path fill="#EAC08A" stroke="#613619" stroke-miterlimit="10" d="M135.726,187.68c11.287-18.576,12.222-54.908,10.078-68.021
			c-9.268-56.687-33.659-72.732-59.338-78.13c-23.03-4.841-29.94-17.224-35.134-12.812c-5.194,4.412,4.674,18.959,7.906,34.03
			c3.231,15.07-22.057,48.281-25.235,68.451c-3.931,24.935,10.371,47.598,25.935,59.199c20.033,14.935,39.453,13.39,53.915,17.89
			C113.853,208.286,124.438,206.256,135.726,187.68z"/>
		<path fill="#FFFFFF" d="M128.919,167.1c8.554-14.078,9.268-41.613,7.638-51.55c-5.836-35.568-20.525-51.241-37.878-59.889
			c-8.055-4.015-35.517-14.318-35.517-10.007c0,2.835,11.957,10.261,13.482,20.435c1.733,11.551-22.263,48.32-24.672,63.604
			c-2.978,18.897,4.578,31.523,19.512,43.535c14.754,11.869,29.898,10.146,40.858,13.557
			C112.343,186.785,120.364,181.178,128.919,167.1z"/>
	</g>
	<path fill="#EAC08A" stroke="#63361A" stroke-miterlimit="10" d="M97.947,172.211c-10.731,24.938-10.394,26.91-10.461,28.279
		c-0.121,2.459,0.623,4.832,1.775,6.693c2.663,4.303,9.346,8.52,9.857,9.104c0.779,0.891,3.941,2.983,1.615,3.325
		c-2.324,0.341-4.75-0.819-7.196-0.902c-1.613-0.054-2.683,0.575-3.196,1.346c-0.514,0.771-1.285,2.069-1.648,2.784
		c-0.365,0.716-0.322,0.847-0.213,1.106c0.108,0.26,0.284,0.648,5.295,0.843c5.008,0.194,5.018,0.194,10.086,0.149
		c5.067-0.043,5.452-0.647,5.823-1.819c0.317-0.998-0.183-2.418-0.961-6.402l0.004-0.003c7.056,1.383,14.113,1.45,21.168,0.205
		c-0.754,3.819-1.231,5.219-0.921,6.2c0.371,1.171,0.755,1.774,5.823,1.819c5.067,0.045,5.076,0.045,10.086-0.149
		s5.186-0.583,5.295-0.843s0.151-0.391-0.213-1.106c-0.364-0.715-1.135-2.013-1.649-2.784c-0.513-0.771-1.583-1.399-3.195-1.346
		c-2.448,0.083-4.872,1.243-7.197,0.902c-2.325-0.342,0.837-2.434,1.616-3.325c0.511-0.585,7.192-4.802,9.856-9.104
		c1.153-1.861,1.898-4.234,1.776-6.693c-0.068-1.37,0.269-3.342-10.463-28.28l-3.526-14.722c-0.424-0.424-0.857-0.856-1.286-1.287
		l-14.916-0.852v-0.188l-1.652,0.094l-1.653-0.094v0.188l-14.916,0.852c-0.428,0.431-0.861,0.863-1.285,1.287L97.947,172.211z"/>
	<path fill="#FFFFFF" d="M105.167,169.664c0-7.745,6.277-14.023,14.022-14.023l0,0c7.745,0,14.023,6.278,14.023,14.023l4.371,24.345
		c1.183,7.785-2.096,14.095-18.396,14.023h-2.003c-11.564,0-18.166-5.964-16.391-14.023L105.167,169.664z"/>
	<polygon fill="#187FC4" points="124.991,132.784 116.245,132.784 97.979,154.326 120.342,177.541 141.596,154.508 	"/>
	<path fill="#EAC08A" stroke="#63361A" stroke-miterlimit="10" d="M57.329,127.037c0.683,1.98,4.403,1.386,4.985,2.595
		c0.766,1.586-3.414,0.923-2.322,3.654c6.684,16.709,26.181,24.507,47.398,23.505c3.327-0.157,4.597,2.555,8.569,3.756
		c2.099,0.596,5.342,0.774,8.824-0.182c3.165-1.035,5.107-3.732,8.435-3.575c21.217,1.001,40.714-6.796,47.396-23.505
		c1.094-2.732-3.087-2.069-2.321-3.654c0.584-1.209,4.303-0.613,4.985-2.595c0.73-2.115-3.244-1.742-3.346-2.664
		c-0.146-1.317,4.098-1.708,2.049-4.576c-3.783-5.297-10.038-9.569-17.562-14.009c-2.612-9.539-4.89-16.114-7.066-20.787
		c-3.344-7.178-4.9-11.75-8.035-17.751c-3.488-6.682-9.239-11.422-11.273-9.534c-1.408,1.307-1.536,1.676-3.834,11.254
		c-0.444,1.849-4.248-1.283-13.87-0.889c-9.751-0.166-13.499,2.739-13.943,0.889c-2.298-9.578-2.426-9.947-3.833-11.254
		c-2.035-1.888-7.785,2.852-11.274,9.534C88.156,73.25,86.599,77.823,83.255,85c-2.177,4.673-4.454,11.248-7.065,20.787
		c-7.524,4.44-13.779,8.712-17.563,14.009c-2.049,2.869,2.195,3.259,2.049,4.576C60.574,125.294,56.602,124.921,57.329,127.037z"/>
	<path fill="#613619" d="M137.38,70.072c3.121,0.672,5.715,1.622,8.024,2.857c-0.673-2.096-1.139-3.574-1.772-4.791
		c-0.966-1.853-1.521-2.439-2.24-3.525c-0.719-1.086-1.761-1.746-2.142-1.77c-0.383-0.023-0.647,0.386-1.02,2.065
		C137.959,66.139,137.769,66.694,137.38,70.072z"/>
	<path fill="#613619" d="M103.066,70.072c-3.121,0.672-5.715,1.622-8.025,2.857c0.673-2.096,1.139-3.574,1.773-4.791
		c0.965-1.853,1.521-2.439,2.239-3.525c0.72-1.086,1.761-1.746,2.142-1.77c0.383-0.023,0.647,0.386,1.02,2.065
		C102.488,66.139,102.678,66.694,103.066,70.072z"/>
	<g>
		<path fill="#FFFFFF" d="M66.646,129.563c0.864,14.051,15.949,27.793,41.462,27.24c2.998-0.064,4.898,2.053,7.776,3.025
			c3.058,1.013,4.834,1.15,8.405-0.102c2.878-0.973,4.479-3.527,7.511-3.33c25.064,1.64,41.53-12.782,42.394-26.834
			c0.474-7.678-0.91-12.385-6.795-15.811c-3.694-2.152-6.403-1.659-6.641-1.652c-6.369-28.979-16.478-29.389-20.206-29.662
			c-3.794-0.278-8.556,0.546-11.061,6.857c-0.93,2.343-5.182,16.27-6.01,18.798c-0.806,2.461-1.014,3.899-3.061,4.232
			c-2.047-0.333-2.255-1.77-3.062-4.232c-0.828-2.528-4.724-14.336-5.553-16.717c-2.492-7.162-5.907-9.621-11.233-9.621
			c-5.531,0-13.666,4.434-20.489,30.345c-0.237-0.006-2.946-0.499-6.642,1.652C67.559,117.18,66.176,121.885,66.646,129.563z"/>
	</g>
	<ellipse fill="#EE869A" cx="149.386" cy="128.893" rx="8.61" ry="2.881"/>
	<ellipse fill="#EE869A" cx="90.035" cy="128.893" rx="8.61" ry="2.881"/>
	<path fill="none" stroke="#63361A" stroke-width="2" stroke-linecap="round" stroke-linejoin="round" stroke-miterlimit="10" d="
		M120.136,133.018c-0.536-1.515,0.132-5.418,0.132-5.418"/>
	<g>
		<path fill="#613619" d="M125.627,117.426c0.578,0.364,0.905,0.684,1.148,0.957s0.401,0.498,0.652,0.854
			c0.252,0.354,0.596,0.838,0.42,1.761c-0.176,0.922-0.873,2.282-2.325,3.901s-3.658,3.496-5.255,3.496
			c-1.598,0-3.803-1.877-5.255-3.496c-1.451-1.618-2.149-2.979-2.325-3.901s0.169-1.406,0.42-1.761
			c0.252-0.355,0.41-0.58,0.653-0.854s0.571-0.593,1.148-0.957c0.577-0.363,1.405-0.771,5.358-0.803
			C124.221,116.654,125.049,117.063,125.627,117.426z"/>
		<path fill="#FFFFFF" d="M125.841,120.057c-0.138,0.129-0.356,0.104-0.459-0.056c-0.099-0.151-0.235-0.335-0.406-0.506
			c-0.261-0.261-0.521-0.437-0.698-0.539c-0.128-0.074-0.18-0.229-0.127-0.368l0.032-0.082c0.052-0.136,0.192-0.217,0.335-0.189
			c0.255,0.048,0.678,0.174,1.132,0.504c0.254,0.186,0.431,0.41,0.537,0.574c0.081,0.123,0.061,0.285-0.048,0.386L125.841,120.057z"
			/>
	</g>
	<path fill="none" stroke="#613619" stroke-miterlimit="10" d="M113.6,135.439c0.599,2.321,0.979,3.791,1.577,6.111
		c3.078,0,6.157,0,9.236,0c0.599-2.32,0.977-3.462,1.575-5.783c-2.049-0.056-3.876-1.266-5.925-1.268
		c-0.09,1.639-0.18,3.279-0.269,4.918c-0.09-1.639-0.18-3.279-0.27-4.918C117.477,134.502,115.647,135.384,113.6,135.439z"/>
	<path fill="none" stroke="#63361A" stroke-width="2" stroke-linecap="round" stroke-linejoin="round" stroke-miterlimit="10" d="
		M104.99,133.387c8.133,4.639,13.951,0.219,15.146-0.023c7.71,6.49,15.086-0.346,15.086-0.346"/>
	<g>
		<g>
			<g>
				<path fill="#FFFFFF" d="M121.209,167.273c-0.263-0.722-0.525-1.442-0.787-2.164c-0.693,1.906-1.388,3.811-2.08,5.716
					c-1.884-0.923-2.935-2.979-2.578-5.048c0.357-2.067,2.034-3.652,4.119-3.893c2.085-0.238,4.078,0.926,4.894,2.858
					c0.816,1.933,0.261,4.173-1.366,5.5c0.088,0.571-0.648,0.875-0.989,0.409c-0.342-0.465,0.17-1.075,0.688-0.82
					c3.077-2.543,1.228-7.541-2.764-7.468s-5.657,5.135-2.489,7.563c0.855-2.35,1.711-4.699,2.566-7.05
					c0.626,1.72,1.252,3.438,1.878,5.159c-0.46,0-0.92,0-1.38,0c0.358,0.984,0.717,1.971,1.076,2.956
					c-0.787-1.24-1.574-2.479-2.361-3.72C120.159,167.273,120.684,167.273,121.209,167.273z"/>
			</g>
		</g>
	</g>
	<g>
		<path fill="none" stroke="#040000" stroke-width="3" stroke-linecap="round" stroke-linejoin="round" stroke-miterlimit="10" d="
			M108.147,112.578c-5.361-5.713-14.625-5.713-20.713,0"/>
		<path fill="none" stroke="#040000" stroke-width="3" stroke-linecap="round" stroke-linejoin="round" stroke-miterlimit="10" d="
			M106.662,114.413c-4.592-4.895-12.529-4.895-17.746,0"/>
		<path fill="none" stroke="#FFFFFF" stroke-width="2" stroke-linecap="round" stroke-linejoin="round" stroke-miterlimit="10" d="
			M105.964,111.709c-2.632-1.81-4.644-2.228-7.508-2.25"/>
		<path fill="none" stroke="#FFFFFF" stroke-linecap="round" stroke-linejoin="round" stroke-miterlimit="10" d="M95.309,111.22
			c-2.06,0.087-2.759,0.371-4.059,1.223"/>
	</g>
	<g>
		<path fill="none" stroke="#040000" stroke-width="3" stroke-linecap="round" stroke-linejoin="round" stroke-miterlimit="10" d="
			M153.412,112.578c-5.361-5.713-14.625-5.713-20.715,0"/>
		<path fill="none" stroke="#040000" stroke-width="3" stroke-linecap="round" stroke-linejoin="round" stroke-miterlimit="10" d="
			M151.928,114.413c-4.592-4.895-12.529-4.895-17.746,0"/>
		<path fill="none" stroke="#FFFFFF" stroke-width="2" stroke-linecap="round" stroke-linejoin="round" stroke-miterlimit="10" d="
			M151.229,111.709c-2.632-1.81-4.644-2.228-7.508-2.25"/>
		<path fill="none" stroke="#FFFFFF" stroke-linecap="round" stroke-linejoin="round" stroke-miterlimit="10" d="M140.573,111.22
			c-2.06,0.087-2.759,0.371-4.059,1.223"/>
	</g>
	<g>
		
			<rect x="100.738" y="159.576" transform="matrix(0.48 -0.8773 0.8773 0.48 -70.6303 211.4594)" fill="#F4DF28" stroke="#613619" stroke-miterlimit="10" width="84.633" height="11.463"/>
		<line fill="none" stroke="#613619" stroke-miterlimit="10" x1="161.518" y1="133.413" x2="155.707" y2="130.234"/>
		<line fill="none" stroke="#613619" stroke-miterlimit="10" x1="157.978" y1="139.884" x2="152.167" y2="136.704"/>
		<line fill="none" stroke="#613619" stroke-miterlimit="10" x1="154.651" y1="145.962" x2="148.842" y2="142.783"/>
		<line fill="none" stroke="#613619" stroke-miterlimit="10" x1="151.595" y1="151.55" x2="145.783" y2="148.371"/>
		<line fill="none" stroke="#613619" stroke-miterlimit="10" x1="148.001" y1="158.118" x2="142.19" y2="154.939"/>
		<line fill="none" stroke="#613619" stroke-miterlimit="10" x1="145.051" y1="163.51" x2="139.24" y2="160.331"/>
	</g>
	<g>
		<path fill="#EFBA4D" stroke="#613619" stroke-miterlimit="10" d="M125.57,149.764l-32.18,48.479
			c13.194,8.758,31.094,5.005,39.98-8.382C142.257,176.475,138.765,158.521,125.57,149.764z M124.634,161.264
			c7.087,4.703,7.102,17.152,2.328,24.344s-16.516,12.412-23.604,7.707L124.634,161.264z"/>
		<line fill="none" stroke="#613619" stroke-miterlimit="10" x1="104.461" y1="196.645" x2="103.13" y2="202.339"/>
		<line fill="none" stroke="#613619" stroke-miterlimit="10" x1="112.567" y1="197.984" x2="112.894" y2="202.242"/>
		<line fill="none" stroke="#613619" stroke-miterlimit="10" x1="118.991" y1="195.611" x2="121.735" y2="200.05"/>
		<line fill="none" stroke="#613619" stroke-miterlimit="10" x1="127.33" y1="191.623" x2="129.882" y2="194.174"/>
		<line fill="none" stroke="#613619" stroke-miterlimit="10" x1="131.823" y1="183.063" x2="135.99" y2="184.971"/>
		<line fill="none" stroke="#613619" stroke-miterlimit="10" x1="133.752" y1="173.376" x2="138.284" y2="173.328"/>
		<line fill="none" stroke="#613619" stroke-miterlimit="10" x1="132.913" y1="167.335" x2="137.394" y2="166.498"/>
		<line fill="none" stroke="#613619" stroke-miterlimit="10" x1="129.273" y1="161.107" x2="133.722" y2="158.023"/>
	</g>
	<path fill="#85C254" stroke="#613619" stroke-miterlimit="10" d="M85.088,153.882c1.08-1.797,5.639,14.629,13.124,9.978
		c6.252-3.887-4.36-16.27-2.206-16.317c4.355-0.096,8.576,2.026,10.888,5.944c2.847,4.824,1.912,10.865-1.898,14.844
		c-0.814,0.85,22.021,34.355,16.309,37.727c-7.319,4.318-22.375-34.005-24.058-33.779c-4.841,0.647-9.749-1.489-12.312-5.834
		C82.592,162.473,82.813,157.675,85.088,153.882z"/>
	<path fill="#EAC08A" stroke="#63361A" stroke-miterlimit="10" d="M99.566,166.477c7.836-2.179,10.784-3.151,11.675-3.842
		c0.242-0.187,0.259-0.914,0.276-1.335c0.027-0.631,0.123-0.909,0.416-1.604c0.502-1.193,1.008-1.62,1.412-1.775
		c0.404-0.154,0.883-0.105,1.017,0.105c0.136,0.211-0.254,0.434-0.138,0.6s1.535-1.091,4.2-0.157
		c1.059,0.371,2.789,3.121,1.203,5.39c-2.221,3.178-3.74,1.285-7.724,3.334c-3.981,2.05-4.835,6.391-17.609,11.258
		c-2.995,1.142-9.152-1.678-9.023-6.359C85.4,167.41,99.566,166.477,99.566,166.477z"/>
	<path fill="#EAC08A" stroke="#63361A" stroke-miterlimit="10" d="M132.422,168.107c-8.099,0.768-11.199,0.912-12.278,0.586
		c-0.293-0.088-0.568-0.762-0.735-1.148c-0.251-0.58-0.439-0.806-0.962-1.352c-0.896-0.936-1.52-1.153-1.953-1.153
		c-0.432,0-0.861,0.218-0.911,0.462c-0.051,0.245,0.393,0.314,0.344,0.512c-0.049,0.195-1.822-0.472-3.979,1.354
		c-0.855,0.725-1.488,3.91,0.804,5.464c3.21,2.174,3.953-0.138,8.404,0.354c4.452,0.489,6.801,4.238,20.471,4.22
		c3.205-0.005,7.947-4.839,6.154-9.164C145.986,163.915,132.422,168.107,132.422,168.107z"/>
</g>
</svg>
