<?xml version="1.0" encoding="utf-8"?>
<!-- Generator: Adobe Illustrator 16.0.0, SVG Export Plug-In . SVG Version: 6.00 Build 0)  -->
<!DOCTYPE svg PUBLIC "-//W3C//DTD SVG 1.1//EN" "http://www.w3.org/Graphics/SVG/1.1/DTD/svg11.dtd">
<svg version="1.1" id="图层_1" xmlns="http://www.w3.org/2000/svg" xmlns:xlink="http://www.w3.org/1999/xlink" x="0px" y="0px"
	 width="200px" height="230px" viewBox="0 0 200 230" enable-background="new 0 0 200 230" xml:space="preserve">
<ellipse fill="#C7C6C6" cx="134.007" cy="215.552" rx="10.54" ry="3.095"/>
<ellipse fill="#C7C6C6" cx="93.142" cy="215.552" rx="10.54" ry="3.095"/>
<g>
	<path fill="#EAC08A" stroke="#613619" stroke-miterlimit="10" d="M130.997,177.091c11.273-18.552,12.206-54.837,10.065-67.932
		c-9.256-56.612-33.614-72.635-59.259-78.026c-22.999-4.835-34.478-6.186-39.665-1.781s9.246,7.919,12.473,22.97
		c3.228,15.051-22.026,48.217-25.201,68.359c-3.926,24.902,10.356,47.534,25.899,59.121c20.007,14.914,39.399,13.371,53.843,17.865
		C109.152,197.668,119.725,195.643,130.997,177.091z"/>
	<path fill="#FFFFFF" d="M124.196,156.538c8.543-14.06,9.256-41.558,7.628-51.481c-5.828-35.521-20.497-51.173-37.826-59.809
		c-8.045-4.01-28.354-8.407-28.354-4.102c0,2.831,4.826,4.356,6.351,14.516c1.73,11.536-22.233,48.255-24.64,63.52
		c-2.974,18.871,4.572,31.48,19.485,43.476c14.736,11.853,29.859,10.133,40.805,13.538
		C107.645,176.195,115.653,170.598,124.196,156.538z"/>
</g>
<path fill="#EAC08A" stroke="#63361A" stroke-miterlimit="10" d="M77.203,174.236c2.82,0.091,3.793-1.531,3.953-1.408
	c0.16,0.124-0.143,0.453,0.049,0.613c0.19,0.16,0.662,0.063,1-0.205c0.339-0.269,0.691-0.826,0.813-2.114
	c0.071-0.751,0.079-1.044-0.085-1.654c-0.108-0.405-0.312-1.103-0.137-1.354c0.643-0.925,3.159-2.735,9.972-7.159
	c-10.717,24.904-10.38,26.873-10.447,28.24c-0.123,2.455,0.621,4.826,1.772,6.685c2.66,4.296,9.333,8.509,9.844,9.093
	c0.778,0.889,3.937,2.979,1.614,3.32c-2.322,0.34-4.743-0.818-7.188-0.9c-1.61-0.055-2.679,0.573-3.191,1.344
	c-0.514,0.77-1.283,2.065-1.646,2.779c-0.363,0.715-0.322,0.844-0.213,1.104c0.109,0.26,0.285,0.647,5.288,0.842
	s5.011,0.194,10.073,0.149c5.061-0.045,5.443-0.647,5.814-1.817c0.316-0.998-0.183-2.416-0.959-6.394l0.004-0.004
	c7.045,1.383,14.093,1.449,21.14,0.205c-0.752,3.814-1.229,5.213-0.919,6.192c0.369,1.17,0.753,1.772,5.814,1.817
	c5.063,0.045,5.07,0.045,10.073-0.149s5.179-0.582,5.288-0.842c0.109-0.259,0.151-0.39-0.212-1.104
	c-0.364-0.714-1.135-2.01-1.647-2.779c-0.513-0.771-1.581-1.398-3.191-1.344c-2.444,0.082-4.865,1.241-7.188,0.9
	s0.836-2.432,1.614-3.32c0.511-0.584,7.184-4.796,9.844-9.093c1.15-1.858,1.896-4.229,1.773-6.685
	c-0.067-1.366,0.27-3.336-10.448-28.24c6.813,4.424,9.33,6.234,9.972,7.159c0.174,0.25-0.027,0.948-0.137,1.354
	c-0.163,0.61-0.155,0.903-0.085,1.654c0.121,1.287,0.474,1.845,0.813,2.114c0.339,0.269,0.81,0.365,1,0.205
	c0.191-0.16-0.111-0.49,0.049-0.613s1.135,1.499,3.953,1.408c1.119-0.036,3.593-2.137,2.762-4.774
	c-1.163-3.692-3.179-2.345-6.358-5.491c-3.179-3.146-2.128-4.39-15.488-17.719c-0.424-0.423-0.856-0.854-1.284-1.285l-14.896-0.85
	v-0.188l-1.651,0.094l-1.649-0.094v0.188l-14.896,0.85c-0.428,0.432-0.86,0.862-1.285,1.285
	c-13.359,13.33-12.309,14.573-15.487,17.719c-3.181,3.146-5.194,1.799-6.358,5.491C73.615,172.1,76.087,174.2,77.203,174.236z"/>
<path fill="#FFFFFF" d="M99.978,158.412c0-7.735,6.27-14.005,14.005-14.005l0,0c7.735,0,14.005,6.27,14.005,14.005l4.365,24.313
	c1.182,7.775-2.092,14.075-18.37,14.004h-2.001c-11.549,0-18.142-5.957-16.368-14.004L99.978,158.412z"/>
<polygon fill="#187FC4" points="119.045,123.289 110.31,123.289 92.066,144.802 114.4,167.986 135.626,144.984 "/>
<path fill="#EAC08A" stroke="#63361A" stroke-miterlimit="10" d="M51.474,117.549c0.683,1.979,4.396,1.385,4.979,2.592
	c0.764,1.584-3.41,0.922-2.319,3.649c6.675,16.687,26.146,24.474,47.334,23.474c3.321-0.158,4.591,2.551,8.557,3.75
	c2.096,0.596,5.335,0.774,8.813-0.181c3.16-1.033,5.101-3.728,8.423-3.569c21.188,1,40.659-6.787,47.334-23.474
	c1.091-2.728-3.083-2.065-2.319-3.649c0.583-1.207,4.297-0.613,4.979-2.592c0.728-2.112-3.24-1.738-3.343-2.66
	c-0.146-1.316,4.093-1.705,2.046-4.57c-3.777-5.289-10.024-9.556-17.538-13.99c-2.608-9.526-4.883-16.092-7.057-20.759
	c-3.34-7.168-4.895-11.734-8.023-17.727c-3.484-6.673-9.229-11.407-11.26-9.521c-1.405,1.305-1.533,1.673-3.829,11.239
	c-0.443,1.847-4.241-1.282-13.852-0.888c-9.737-0.166-13.48,2.735-13.924,0.888c-2.296-9.566-2.423-9.934-3.829-11.239
	c-2.031-1.886-7.775,2.848-11.259,9.521c-3.129,5.993-4.685,10.559-8.024,17.727c-2.174,4.666-4.447,11.233-7.056,20.759
	c-7.515,4.434-13.761,8.701-17.539,13.99c-2.046,2.865,2.192,3.254,2.046,4.57C54.713,115.811,50.744,115.437,51.474,117.549z"/>
<path fill="#613619" d="M131.416,60.662c3.116,0.671,5.707,1.619,8.015,2.853c-0.672-2.094-1.139-3.569-1.771-4.785
	c-0.964-1.85-1.519-2.435-2.236-3.52c-0.719-1.085-1.759-1.744-2.14-1.768c-0.381-0.023-0.646,0.385-1.017,2.062
	C131.994,56.733,131.805,57.287,131.416,60.662z"/>
<path fill="#613619" d="M97.148,60.662c-3.115,0.671-5.707,1.619-8.014,2.853c0.672-2.094,1.138-3.569,1.771-4.785
	c0.963-1.85,1.519-2.435,2.236-3.52c0.719-1.085,1.758-1.744,2.139-1.768c0.381-0.023,0.646,0.385,1.018,2.062
	C96.57,56.733,96.761,57.287,97.148,60.662z"/>
<g>
	<path fill="#FFFFFF" d="M60.777,120.07c0.862,14.033,15.928,27.757,41.406,27.205c2.994-0.064,4.891,2.05,7.765,3.021
		c3.055,1.012,4.828,1.148,8.395-0.102c2.874-0.971,4.474-3.522,7.501-3.324c25.03,1.637,41.474-12.766,42.337-26.799
		c0.472-7.667-0.909-12.367-6.786-15.789c-3.69-2.148-6.396-1.656-6.632-1.649c-6.361-28.94-16.455-29.349-20.18-29.622
		c-3.788-0.278-8.544,0.545-11.045,6.848c-0.928,2.34-5.175,16.249-6.002,18.773c-0.805,2.459-1.013,3.894-3.057,4.227
		c-2.044-0.333-2.252-1.769-3.057-4.227c-0.827-2.525-4.72-14.317-5.547-16.695c-2.488-7.153-5.898-9.608-11.218-9.608
		c-5.523,0-13.647,4.427-20.461,30.304c-0.236-0.007-2.942-0.499-6.633,1.649C61.688,107.705,60.307,112.405,60.777,120.07z"/>
</g>
<ellipse fill="#EE869A" cx="143.407" cy="119.402" rx="8.599" ry="2.878"/>
<ellipse fill="#EE869A" cx="84.134" cy="119.402" rx="8.599" ry="2.878"/>
<path fill="none" stroke="#63361A" stroke-width="2" stroke-linecap="round" stroke-linejoin="round" stroke-miterlimit="10" d="
	M114.194,123.523c-0.535-1.513,0.132-5.412,0.132-5.412"/>
<g>
	<path fill="#613619" d="M119.678,107.952c0.577,0.363,0.904,0.683,1.147,0.955c0.243,0.272,0.401,0.498,0.652,0.852
		c0.251,0.354,0.595,0.838,0.419,1.759s-0.872,2.28-2.322,3.897s-3.652,3.491-5.248,3.491s-3.798-1.874-5.248-3.491
		c-1.449-1.617-2.146-2.976-2.321-3.897c-0.177-0.921,0.168-1.405,0.419-1.759c0.251-0.354,0.408-0.58,0.651-0.852
		c0.243-0.272,0.571-0.592,1.148-0.955c0.577-0.363,1.403-0.771,5.351-0.802C118.274,107.181,119.102,107.589,119.678,107.952z"/>
	<path fill="#FFFFFF" d="M119.894,110.58c-0.138,0.129-0.356,0.102-0.459-0.056c-0.098-0.151-0.235-0.334-0.405-0.505
		c-0.26-0.261-0.52-0.436-0.697-0.539c-0.128-0.075-0.18-0.23-0.127-0.368l0.032-0.082c0.053-0.135,0.192-0.216,0.335-0.189
		c0.255,0.048,0.676,0.174,1.13,0.504c0.253,0.184,0.43,0.409,0.536,0.572c0.081,0.123,0.061,0.285-0.048,0.386L119.894,110.58z"/>
</g>
<path fill="none" stroke="#613619" stroke-miterlimit="10" d="M107.666,125.941c0.599,2.318,0.978,3.785,1.575,6.104
	c3.075,0,6.149,0,9.225,0c0.599-2.318,0.976-3.458,1.573-5.775c-2.046-0.057-3.869-1.265-5.917-1.267
	c-0.089,1.638-0.179,3.274-0.268,4.911c-0.09-1.637-0.18-3.273-0.269-4.911C111.539,125.005,109.713,125.886,107.666,125.941z"/>
<path fill="none" stroke="#63361A" stroke-width="2" stroke-linecap="round" stroke-linejoin="round" stroke-miterlimit="10" d="
	M99.068,123.893c8.122,4.631,13.935,0.217,15.126-0.024c7.7,6.479,15.066-0.347,15.066-0.347"/>
<g>
	<g>
		<g>
			<path fill="#FFFFFF" d="M115.267,157.732c-0.262-0.719-0.524-1.439-0.786-2.159c-0.692,1.901-1.385,3.805-2.077,5.707
				c-1.882-0.923-2.931-2.976-2.575-5.04c0.356-2.065,2.031-3.649,4.113-3.889c2.082-0.238,4.073,0.924,4.888,2.854
				s0.26,4.168-1.364,5.493c0.087,0.568-0.648,0.874-0.989,0.408c-0.34-0.465,0.171-1.073,0.688-0.819
				c3.073-2.54,1.227-7.531-2.76-7.458c-3.984,0.072-5.648,5.129-2.484,7.554c0.854-2.347,1.709-4.694,2.563-7.041
				c0.625,1.718,1.25,3.435,1.875,5.152c-0.46,0-0.919,0-1.378,0c0.358,0.983,0.716,1.968,1.074,2.952
				c-0.786-1.238-1.572-2.478-2.358-3.715C114.219,157.732,114.742,157.732,115.267,157.732z"/>
		</g>
	</g>
</g>
<g>
	<path fill="#63361A" d="M127.903,102.52c-0.421-0.861-0.029-1.919,0.876-2.362l12.166-5.961c0.905-0.444,1.981-0.105,2.403,0.756
		l0,0c0.422,0.861,0.029,1.918-0.876,2.362l-12.166,5.961C129.401,103.72,128.325,103.381,127.903,102.52L127.903,102.52z"/>
	<path fill="#63361A" d="M143.089,107.857c0.457-0.878,0.107-1.921-0.781-2.33l-11.936-5.49c-0.889-0.408-1.979-0.027-2.436,0.851
		l0,0c-0.457,0.878-0.107,1.921,0.781,2.33l11.935,5.49C141.541,109.116,142.632,108.735,143.089,107.857L143.089,107.857z"/>
</g>
<g>
	<path fill="#63361A" d="M100.865,102.52c0.422-0.861,0.029-1.919-0.877-2.362l-12.166-5.961c-0.904-0.444-1.98-0.105-2.402,0.756
		l0,0c-0.422,0.861-0.029,1.918,0.876,2.362l12.166,5.961C99.367,103.72,100.443,103.381,100.865,102.52L100.865,102.52z"/>
	<path fill="#63361A" d="M85.68,107.857c-0.457-0.878-0.107-1.921,0.781-2.33l11.935-5.49c0.89-0.408,1.979-0.027,2.437,0.851l0,0
		c0.457,0.878,0.106,1.921-0.781,2.33l-11.936,5.49C87.227,109.116,86.137,108.735,85.68,107.857L85.68,107.857z"/>
</g>
</svg>
