<?xml version="1.0" encoding="utf-8"?>
<!-- Generator: Adobe Illustrator 16.0.0, SVG Export Plug-In . SVG Version: 6.00 Build 0)  -->
<!DOCTYPE svg PUBLIC "-//W3C//DTD SVG 1.1//EN" "http://www.w3.org/Graphics/SVG/1.1/DTD/svg11.dtd">
<svg version="1.1" id="图层_1" xmlns="http://www.w3.org/2000/svg" xmlns:xlink="http://www.w3.org/1999/xlink" x="0px" y="0px"
	 width="170px" height="220px" viewBox="0 0 170 220" enable-background="new 0 0 170 220" xml:space="preserve">
<ellipse fill="#C7C6C6" cx="122.882" cy="205.052" rx="10.54" ry="3.095"/>
<ellipse fill="#C7C6C6" cx="82.017" cy="205.052" rx="10.54" ry="3.095"/>
<g>
	<path fill="#EAC08A" stroke="#613619" stroke-miterlimit="10" d="M119.871,166.592c11.273-18.552,12.206-54.837,10.065-67.932
		c-9.256-56.611-33.614-72.635-59.258-78.026c-22.999-4.835-34.478-6.186-39.665-1.781s9.246,7.919,12.473,22.97
		c3.228,15.051-22.026,48.217-25.201,68.36c-3.926,24.902,10.356,47.534,25.899,59.122c20.007,14.913,39.399,13.37,53.843,17.864
		C98.027,187.169,108.599,185.145,119.871,166.592z"/>
	<path fill="#FFFFFF" d="M113.071,146.038c8.543-14.06,9.256-41.558,7.628-51.481c-5.828-35.521-20.497-51.173-37.826-59.809
		c-8.045-4.01-28.354-8.407-28.354-4.102c0,2.831,4.826,4.356,6.351,14.516c1.73,11.536-22.233,48.255-24.64,63.52
		c-2.974,18.871,4.572,31.48,19.485,43.475c14.736,11.853,29.859,10.133,40.805,13.538
		C96.52,165.695,104.531,160.098,113.071,146.038z"/>
</g>
<path fill="#EAC08A" stroke="#63361A" stroke-miterlimit="10" d="M66.076,163.736c2.82,0.092,3.795-1.53,3.955-1.407
	c0.16,0.124-0.144,0.453,0.047,0.612c0.191,0.16,0.662,0.064,1-0.205c0.34-0.268,0.692-0.825,0.813-2.113
	c0.071-0.751,0.079-1.044-0.085-1.654c-0.109-0.406-0.311-1.103-0.137-1.354c0.643-0.926,3.158-2.735,9.972-7.159
	c-10.717,24.905-10.38,26.873-10.448,28.241c-0.121,2.455,0.623,4.824,1.773,6.684c2.66,4.296,9.333,8.508,9.844,9.092
	c0.778,0.891,3.936,2.98,1.614,3.321c-2.322,0.34-4.743-0.819-7.187-0.901c-1.611-0.054-2.68,0.574-3.192,1.344
	c-0.513,0.771-1.283,2.066-1.647,2.781c-0.363,0.713-0.32,0.844-0.212,1.104c0.109,0.26,0.285,0.648,5.288,0.842
	c5.003,0.194,5.012,0.194,10.073,0.15c5.062-0.045,5.444-0.648,5.815-1.818c0.315-0.998-0.184-2.416-0.961-6.395l0.004-0.002
	c7.046,1.381,14.093,1.449,21.141,0.205c-0.752,3.813-1.229,5.213-0.919,6.191c0.369,1.17,0.753,1.773,5.814,1.818
	c5.063,0.044,5.07,0.044,10.073-0.15c5.003-0.193,5.179-0.582,5.288-0.842s0.151-0.391-0.212-1.104
	c-0.364-0.715-1.135-2.011-1.647-2.781c-0.513-0.77-1.581-1.397-3.191-1.344c-2.444,0.084-4.865,1.242-7.188,0.901
	s0.836-2.431,1.614-3.321c0.511-0.584,7.184-4.795,9.844-9.092c1.15-1.859,1.896-4.229,1.773-6.684
	c-0.067-1.367,0.27-3.336-10.448-28.241c6.813,4.424,9.33,6.233,9.972,7.159c0.174,0.25-0.028,0.947-0.137,1.354
	c-0.163,0.61-0.155,0.903-0.085,1.654c0.121,1.287,0.474,1.845,0.813,2.113c0.338,0.27,0.81,0.365,1,0.205
	c0.191-0.159-0.111-0.489,0.048-0.612c0.161-0.123,1.136,1.499,3.954,1.407c1.119-0.035,3.593-2.137,2.762-4.773
	c-1.163-3.691-3.179-2.345-6.358-5.49c-3.179-3.146-2.128-4.391-15.488-17.72c-0.424-0.423-0.856-0.854-1.284-1.285l-14.896-0.85
	v-0.188l-1.651,0.094l-1.649-0.094v0.188l-14.896,0.85c-0.43,0.431-0.861,0.862-1.285,1.285
	c-13.36,13.33-12.309,14.573-15.488,17.72c-3.18,3.146-5.195,1.799-6.357,5.49C62.49,161.6,64.962,163.701,66.076,163.736z"/>
<path fill="#FFFFFF" d="M88.853,147.913c0-7.735,6.271-14.005,14.005-14.005l0,0c7.735,0,14.005,6.27,14.005,14.005l4.365,24.312
	c1.182,7.776-2.092,14.076-18.37,14.006h-2.001c-11.549,0-18.142-5.957-16.368-14.006L88.853,147.913z"/>
<polygon fill="#187FC4" points="107.92,112.79 99.184,112.79 80.941,134.303 103.275,157.488 124.501,134.484 "/>
<path fill="#EAC08A" stroke="#63361A" stroke-miterlimit="10" d="M40.349,107.05c0.683,1.978,4.396,1.385,4.979,2.592
	c0.764,1.583-3.41,0.92-2.319,3.649c6.675,16.686,26.146,24.473,47.334,23.473c3.321-0.156,4.591,2.551,8.557,3.752
	c2.096,0.594,5.335,0.773,8.813-0.182c3.16-1.033,5.101-3.727,8.423-3.57c21.188,1,40.659-6.787,47.334-23.473
	c1.091-2.729-3.083-2.066-2.319-3.649c0.583-1.208,4.297-0.614,4.979-2.592c0.728-2.112-3.24-1.739-3.343-2.66
	c-0.146-1.316,4.093-1.705,2.046-4.57c-3.777-5.289-10.024-9.556-17.538-13.99c-2.608-9.526-4.883-16.092-7.057-20.759
	c-3.34-7.168-4.895-11.734-8.023-17.727c-3.484-6.673-9.229-11.407-11.26-9.521c-1.405,1.305-1.533,1.673-3.829,11.239
	c-0.443,1.847-4.241-1.282-13.852-0.888c-9.737-0.166-13.48,2.735-13.924,0.888c-2.296-9.566-2.423-9.934-3.829-11.239
	c-2.031-1.886-7.775,2.848-11.259,9.521c-3.129,5.993-4.685,10.559-8.024,17.727c-2.174,4.666-4.447,11.233-7.056,20.759
	c-7.515,4.434-13.761,8.701-17.539,13.99c-2.046,2.865,2.192,3.254,2.046,4.57C43.588,105.31,39.619,104.937,40.349,107.05z"/>
<path fill="#613619" d="M120.29,50.163c3.116,0.671,5.707,1.619,8.015,2.853c-0.672-2.094-1.139-3.569-1.771-4.785
	c-0.964-1.85-1.519-2.435-2.236-3.52c-0.719-1.085-1.759-1.744-2.14-1.768c-0.381-0.023-0.646,0.385-1.017,2.062
	C120.868,46.234,120.679,46.788,120.29,50.163z"/>
<path fill="#613619" d="M86.022,50.163c-3.116,0.671-5.706,1.619-8.014,2.853c0.672-2.094,1.138-3.569,1.771-4.785
	c0.965-1.85,1.52-2.435,2.237-3.52s1.759-1.744,2.14-1.768c0.381-0.023,0.646,0.385,1.017,2.062
	C85.445,46.234,85.635,46.788,86.022,50.163z"/>
<g>
	<path fill="#FFFFFF" d="M49.652,109.572c0.862,14.033,15.928,27.756,41.406,27.205c2.994-0.065,4.891,2.049,7.765,3.021
		c3.055,1.013,4.828,1.147,8.395-0.101c2.874-0.971,4.474-3.523,7.501-3.325c25.03,1.637,41.474-12.767,42.337-26.799
		c0.472-7.667-0.909-12.367-6.786-15.789c-3.69-2.148-6.396-1.656-6.632-1.649c-6.361-28.94-16.455-29.349-20.18-29.622
		c-3.788-0.278-8.544,0.545-11.045,6.848c-0.928,2.34-5.175,16.249-6.002,18.773c-0.805,2.459-1.013,3.894-3.057,4.227
		c-2.044-0.333-2.252-1.769-3.057-4.227c-0.827-2.525-4.72-14.317-5.546-16.695c-2.489-7.153-5.899-9.608-11.219-9.608
		c-5.523,0-13.647,4.427-20.461,30.304c-0.236-0.007-2.942-0.499-6.633,1.649C50.563,97.205,49.182,101.906,49.652,109.572z"/>
</g>
<ellipse fill="#EE869A" cx="132.281" cy="108.904" rx="8.599" ry="2.877"/>
<ellipse fill="#EE869A" cx="73.009" cy="108.904" rx="8.599" ry="2.877"/>
<path fill="none" stroke="#63361A" stroke-width="2" stroke-linecap="round" stroke-linejoin="round" stroke-miterlimit="10" d="
	M103.069,113.023c-0.535-1.513,0.132-5.412,0.132-5.412"/>
<g>
	<path fill="#613619" d="M108.553,97.453c0.577,0.363,0.904,0.683,1.147,0.955c0.243,0.272,0.401,0.498,0.652,0.852
		c0.251,0.354,0.595,0.838,0.419,1.759s-0.872,2.28-2.322,3.897s-3.652,3.491-5.248,3.491s-3.798-1.874-5.248-3.491
		c-1.449-1.617-2.146-2.976-2.321-3.897c-0.177-0.921,0.168-1.405,0.419-1.759c0.251-0.354,0.408-0.58,0.652-0.852
		c0.242-0.272,0.57-0.592,1.147-0.955c0.577-0.363,1.403-0.771,5.351-0.802C107.149,96.682,107.976,97.089,108.553,97.453z"/>
	<path fill="#FFFFFF" d="M108.769,100.081c-0.138,0.129-0.356,0.102-0.459-0.056c-0.098-0.151-0.235-0.334-0.405-0.505
		c-0.26-0.261-0.52-0.436-0.697-0.539c-0.128-0.075-0.18-0.23-0.127-0.368l0.032-0.082c0.053-0.135,0.192-0.216,0.335-0.189
		c0.255,0.048,0.676,0.174,1.13,0.504c0.253,0.184,0.43,0.409,0.536,0.572c0.081,0.123,0.061,0.285-0.048,0.386L108.769,100.081z"/>
</g>
<path fill="none" stroke="#613619" stroke-miterlimit="10" d="M96.541,115.443c0.599,2.317,0.978,3.785,1.576,6.103
	c3.074,0,6.148,0,9.224,0c0.599-2.319,0.976-3.458,1.573-5.776c-2.046-0.056-3.869-1.264-5.917-1.266
	c-0.089,1.637-0.179,3.273-0.268,4.911c-0.09-1.638-0.18-3.274-0.269-4.911C100.413,114.506,98.588,115.387,96.541,115.443z"/>
<path fill="none" stroke="#63361A" stroke-width="2" stroke-linecap="round" stroke-linejoin="round" stroke-miterlimit="10" d="
	M87.943,113.393c8.123,4.633,13.935,0.219,15.126-0.023c7.7,6.48,15.066-0.346,15.066-0.346"/>
<g>
	<g>
		<g>
			<path fill="#FFFFFF" d="M104.142,147.234c-0.262-0.721-0.524-1.44-0.786-2.16c-0.692,1.902-1.385,3.805-2.077,5.707
				c-1.882-0.922-2.931-2.975-2.575-5.04c0.356-2.065,2.031-3.649,4.113-3.888c2.082-0.239,4.073,0.922,4.888,2.854
				s0.26,4.168-1.364,5.493c0.087,0.569-0.648,0.874-0.989,0.409c-0.34-0.465,0.171-1.074,0.688-0.82
				c3.073-2.54,1.227-7.531-2.76-7.458c-3.984,0.073-5.648,5.129-2.484,7.554c0.854-2.347,1.709-4.693,2.563-7.041
				c0.625,1.717,1.25,3.436,1.875,5.152c-0.46,0-0.919,0-1.378,0c0.358,0.984,0.716,1.968,1.074,2.952
				c-0.786-1.238-1.572-2.478-2.358-3.716C103.094,147.232,103.617,147.232,104.142,147.234z"/>
		</g>
	</g>
</g>
<g>
	<path fill="#4B2C13" d="M71.057,89.205c0-0.622,0.504-1.125,1.125-1.125h18.25c0.621,0,1.125,0.504,1.125,1.125l0,0
		c0,0.621-0.504,1.125-1.125,1.125h-18.25C71.561,90.33,71.057,89.826,71.057,89.205L71.057,89.205z"/>
	<path fill="#4B2C13" d="M71.057,91.455c0-0.622,0.504-1.125,1.125-1.125h18.25c0.621,0,1.125,0.504,1.125,1.125l0,0
		c0,0.621-0.504,1.125-1.125,1.125h-18.25C71.561,92.58,71.057,92.076,71.057,91.455L71.057,91.455z"/>
	<path fill="#4B2C13" d="M71.057,93.705c0-0.622,0.504-1.125,1.125-1.125h18.25c0.621,0,1.125,0.504,1.125,1.125l0,0
		c0,0.621-0.504,1.125-1.125,1.125h-18.25C71.561,94.83,71.057,94.326,71.057,93.705L71.057,93.705z"/>
</g>
<g>
	<path fill="#4B2C13" d="M114.251,89.205c0-0.622,0.504-1.125,1.125-1.125h18.25c0.621,0,1.125,0.504,1.125,1.125l0,0
		c0,0.621-0.504,1.125-1.125,1.125h-18.25C114.756,90.33,114.251,89.826,114.251,89.205L114.251,89.205z"/>
	<path fill="#4B2C13" d="M114.251,91.455c0-0.622,0.504-1.125,1.125-1.125h18.25c0.621,0,1.125,0.504,1.125,1.125l0,0
		c0,0.621-0.504,1.125-1.125,1.125h-18.25C114.756,92.58,114.251,92.076,114.251,91.455L114.251,91.455z"/>
	<path fill="#4B2C13" d="M114.251,93.705c0-0.622,0.504-1.125,1.125-1.125h18.25c0.621,0,1.125,0.504,1.125,1.125l0,0
		c0,0.621-0.504,1.125-1.125,1.125h-18.25C114.756,94.83,114.251,94.326,114.251,93.705L114.251,93.705z"/>
</g>
</svg>
