<?xml version="1.0" encoding="utf-8"?>
<!-- Generator: Adobe Illustrator 16.0.0, SVG Export Plug-In . SVG Version: 6.00 Build 0)  -->
<!DOCTYPE svg PUBLIC "-//W3C//DTD SVG 1.1//EN" "http://www.w3.org/Graphics/SVG/1.1/DTD/svg11.dtd">
<svg version="1.1" id="图层_1" xmlns="http://www.w3.org/2000/svg" xmlns:xlink="http://www.w3.org/1999/xlink" x="0px" y="0px"
	 width="210px" height="220px" viewBox="0 0 210 220" enable-background="new 0 0 210 220" xml:space="preserve">
<g>
	<ellipse fill="#C7C6C6" cx="154.509" cy="212.146" rx="10.54" ry="3.095"/>
	<path fill="#C99F72" stroke="#613619" stroke-miterlimit="10" d="M143.605,184.584c1.925,1.095,1.961,9.35,0.076,13.16
		s-0.758,12.206,0.493,13.04s19.353,0.522,20.281-0.286c0.928-0.809-0.492-3.061-3.49-4.37s-7.214,1.521-8.742,1.578
		s-4.39,0.162-5.011-0.776c-0.621-0.938,0.479-6.373,4.977-9.133s9.328-9.773,10.266-13.46c0.937-3.687,2.379-9.828-6.389-11.619
		c-8.767-1.791-13.226,5.365-13.226,5.365S140.099,182.589,143.605,184.584z"/>
	<ellipse fill="#C7C6C6" cx="133.819" cy="212.146" rx="10.54" ry="3.095"/>
	<path fill="#EAC08A" stroke="#613619" stroke-miterlimit="10" d="M111.014,172.051c-1.166-3.498-10.4,1.18-10.4,1.18
		c-34.315,15.715-59.815,3.1-68.065-11.9c-8.106-14.738,1.503-47.012,3.5-64.263c2.604-22.502-4.935-45.836-6.935-51.224
		c-2-5.388-3.565-19.529,8.435-14.263s49.285,10.002,62.065,39.804c19.49,45.446,2.436,81.196,4.226,85.696
		c1.36,3.421,8.911-0.736,8.911-0.736"/>
	<path fill="#FFFFFF" d="M44.797,150.08c-5.5-13.135,3.241-41.944,4.575-54.304s2.925-29.195-1.499-37.965
		c-3.645-7.223-13.18-14.763-4.992-13.897c8.667,0.916,31.917,10.916,40.917,30.039c6.329,13.447-1.472,46.324,0,62.992
		c1.474,16.666,16.417,24.968,16.417,24.968C60.882,175.913,47.625,156.83,44.797,150.08z"/>
	<path fill="#E3BB88" stroke="#613619" stroke-miterlimit="10" d="M121.445,125.705l-2.342,2.003c0,0,2.555,10.175-6.666,28.372
		c-8.287,16.352-1.877,23.5,5.691,29.971c6.869,5.873,27.67,7.04,38.799,4.547c15.697-3.519,26.01-19.463,22.387-33.332
		c-5.564-21.308-10.218-29.326-10.218-29.326L121.445,125.705z"/>
	<path fill="#FFFFFF" d="M176.381,148.742c-4.829-15.522-8.554-23.037-8.554-23.037l-15.445,2.835c0,0-3.834,3.04,0,7.972
		c3.834,4.934,2.698,26.415,3.927,37.568c1.23,11.152,18.396,3.875,18.396,3.875C181.038,167.122,180.343,161.475,176.381,148.742z"
		/>
	<path fill="#187FC4" d="M147.348,103.83h-8.735l-23.251,22.348c0,0,24.27,4.188,34.687,8.766c7.365,3.238,18.25,11,18.25,11
		s0.71-3.867,1.158-8.863c0.136-5.443-0.359-9.141-0.359-9.141L147.348,103.83z"/>
	<path fill="#EAC08A" stroke="#63361A" stroke-miterlimit="10" d="M79.777,98.09c0.682,1.978,4.396,1.385,4.979,2.592
		c0.764,1.583-3.41,0.921-2.318,3.649c6.674,16.687,31.145,24.474,52.333,23.474c3.322-0.156,4.419,2.459,8.385,3.659
		c2.098,0.595,6.945,0.748,10.424-0.207c3.161-1.032,3.663-3.61,6.985-3.452c21.188,1,33.658-8.787,40.333-25.474
		c1.091-2.728-3.083-2.066-2.318-3.649c0.582-1.208,4.297-0.614,4.979-2.592c0.728-2.112-3.24-1.739-3.342-2.66
		c-0.146-1.316,4.092-1.705,2.046-4.57c-3.779-5.289-8.025-7.556-15.539-11.99c-2.495-9.11-3.465-15.199-6.056-20.759
		c-3.341-7.168-5.896-11.734-9.024-17.727c-3.484-6.673-10.228-11.407-12.259-9.521c-1.406,1.305-0.534,1.673-2.829,11.239
		c-0.444,1.847-4.242-1.282-13.853-0.888c-9.737-0.166-13.48,2.735-13.924,0.888c-2.296-9.566-1.423-9.934-2.829-11.239
		c-2.03-1.886-8.774,2.848-12.258,9.521c-3.129,5.993-4.685,10.559-8.024,17.727c-2.175,4.666-4.447,11.233-7.056,20.759
		c-7.515,4.434-13.762,8.701-17.539,13.99c-2.047,2.865,2.191,3.254,2.045,4.57C83.016,96.351,79.048,95.978,79.777,98.09z"/>
	<path fill="#613619" d="M159.72,41.203c3.116,0.671,5.707,1.619,8.014,2.853c-0.672-2.094-1.138-3.569-1.771-4.785
		c-0.964-1.85-1.52-2.435-2.237-3.52s-1.758-1.744-2.139-1.768c-0.381-0.023-0.646,0.385-1.018,2.062
		C160.298,37.274,160.107,37.828,159.72,41.203z"/>
	<path fill="#613619" d="M125.451,41.203c-3.115,0.671-5.707,1.619-8.014,2.853c0.672-2.094,1.139-3.569,1.771-4.785
		c0.964-1.85,1.52-2.435,2.236-3.52c0.719-1.085,1.759-1.744,2.14-1.768c0.381-0.023,0.646,0.385,1.017,2.062
		C124.874,37.274,125.064,37.828,125.451,41.203z"/>
	<g>
		<path fill="#FFFFFF" d="M89.08,100.612c0.863,14.033,20.929,27.756,46.407,27.205c2.994-0.063,3.726,2.096,6.932,3.096
			c4.174,1.027,7.058,0.745,10.846-0.053c2.875-0.971,4.532-3.533,5.883-3.447c20.982,1.334,34.475-12.766,35.337-26.799
			c0.473-7.667-0.909-12.367-6.786-15.789c-3.689-2.148-4.396-1.656-4.632-1.649c-6.36-28.94-15.618-29.283-19.342-29.556
			c-3.789-0.278-6.716,1.158-9.217,7.461c-0.929,2.34-2.237,12.407-2.586,15.75c-0.248,2.377-0.422,6.723-4.375,7.455
			c-2.044-0.333-2.817-0.581-4.5-5.274c-2.276-6.348-6.04-14.154-6.867-16.532c-2.489-7.153-7.899-9.608-13.219-9.608
			c-5.523,0-13.646,4.427-20.461,30.304c-0.236-0.007-2.942-0.499-6.633,1.649C89.99,88.246,88.611,92.946,89.08,100.612z"/>
	</g>
	<ellipse fill="#EE869A" cx="182.17" cy="98.653" rx="8.599" ry="2.877"/>
	<ellipse fill="#EE869A" cx="112.75" cy="99.944" rx="8.599" ry="2.877"/>
	<path fill="none" stroke="#63361A" stroke-width="2" stroke-linecap="round" stroke-linejoin="round" stroke-miterlimit="10" d="
		M148.802,104.064c-0.535-1.512,0.132-5.411,0.132-5.411"/>
	<g>
		<path fill="#613619" d="M153.993,88.175c0.583,0.354,0.916,0.668,1.163,0.937s0.409,0.492,0.665,0.842
			c0.258,0.35,0.609,0.828,0.447,1.752s-0.837,2.294-2.261,3.933c-1.424,1.64-3.598,3.548-5.192,3.573s-3.827-1.814-5.302-3.408
			c-1.475-1.594-2.193-2.942-2.383-3.86c-0.191-0.918,0.146-1.407,0.391-1.765c0.245-0.358,0.399-0.586,0.638-0.862
			c0.239-0.276,0.563-0.601,1.134-0.973c0.57-0.372,1.391-0.793,5.338-0.886C152.577,87.428,153.41,87.822,153.993,88.175z"/>
		<path fill="#FFFFFF" d="M154.249,90.802c-0.137,0.131-0.354,0.108-0.459-0.049c-0.101-0.15-0.24-0.331-0.413-0.499
			c-0.265-0.257-0.526-0.428-0.705-0.528c-0.129-0.073-0.184-0.227-0.132-0.366l0.029-0.083c0.05-0.137,0.189-0.22,0.332-0.195
			c0.256,0.044,0.68,0.163,1.139,0.486c0.256,0.181,0.436,0.402,0.545,0.564c0.082,0.122,0.063,0.285-0.042,0.387L154.249,90.802z"
			/>
	</g>
	<path fill="none" stroke="#613619" stroke-miterlimit="10" d="M142.132,106.355c0.634,2.308,1.036,3.769,1.67,6.077
		c3.074-0.049,6.148-0.097,9.223-0.145c0.563-2.327,0.921-3.472,1.483-5.799c-2.046-0.024-3.891-1.203-5.937-1.173
		c-0.063,1.638-0.127,3.277-0.19,4.915c-0.115-1.636-0.23-3.271-0.346-4.907C145.989,105.357,144.177,106.266,142.132,106.355z"/>
	<path fill="none" stroke="#63361A" stroke-width="2" stroke-linecap="round" stroke-linejoin="round" stroke-miterlimit="10" d="
		M131.503,104.471c8.193,4.504,16.233-0.383,17.422-0.643c7.801,6.359,12.761-0.2,12.761-0.2"/>
	<g>
		<g>
			<g>
				<path fill="#FFFFFF" d="M164.058,135.53c-0.452-0.618-0.905-1.236-1.357-1.854c-0.134,2.02-0.268,4.04-0.401,6.061
					c-2.065-0.36-3.645-2.038-3.879-4.121c-0.234-2.082,0.932-4.07,2.864-4.881c1.934-0.811,4.168-0.25,5.49,1.377
					c1.322,1.625,1.413,3.929,0.224,5.654c0.242,0.523-0.379,1.021-0.835,0.67c-0.457-0.352-0.137-1.08,0.431-0.979
					c2.242-3.296-0.925-7.573-4.732-6.392c-3.807,1.183-3.994,6.502-0.278,7.947c0.165-2.492,0.331-4.984,0.496-7.476
					c1.078,1.475,2.157,2.948,3.237,4.424c-0.44,0.128-0.882,0.256-1.323,0.384c0.619,0.846,1.237,1.69,1.856,2.535
					c-1.1-0.97-2.201-1.939-3.301-2.909C163.052,135.823,163.556,135.677,164.058,135.53z"/>
			</g>
		</g>
	</g>
	<path fill="#DEB686" stroke="#613619" stroke-miterlimit="10" d="M124.148,184.582c1.924,1.095,1.96,9.35,0.075,13.16
		s-0.757,12.206,0.493,13.04c1.251,0.834,19.353,0.521,20.281-0.286c0.928-0.809-0.492-3.061-3.49-4.37s-7.214,1.521-8.742,1.578
		s-4.39,0.162-5.011-0.776c-0.621-0.938,0.479-6.373,4.977-9.133s9.328-9.773,10.266-13.46c0.937-3.687,2.379-9.828-6.389-11.619
		c-8.767-1.791-13.226,5.365-13.226,5.365S120.641,182.587,124.148,184.582z"/>
	<path fill="#EAC08A" stroke="#63361A" stroke-miterlimit="10" d="M140.169,153.542c1.264,3.153,7.094,10.741,8.15,11.483
		c0.286,0.201,0.87,0.031,1.336-0.092c0.7-0.184,1.252-0.183,2.116-0.145c1.923,0.084,3.587,1.284,3.284,2.088
		c-0.277,0.732-1.197-0.126-1.339,0.057c-0.143,0.184,1.93,1.431,1.591,4.545c-0.203,1.863-2.474,4.106-5.494,3.138
		c-4.228-1.357-2.671-3.661-6.26-7.328s-8.629-3.136-18.274-15.474c-2.262-2.894-1.256-10.588,3.911-12.028
		S139.606,152.141,140.169,153.542z"/>
</g>
<g>
	<path fill="#4B2C13" d="M116.486,77.943c0-0.621,0.504-1.125,1.125-1.125h18.249c0.621,0,1.125,0.504,1.125,1.125l0,0
		c0,0.621-0.504,1.125-1.125,1.125h-18.249C116.99,79.068,116.486,78.564,116.486,77.943L116.486,77.943z"/>
	<path fill="#4B2C13" d="M116.486,80.193c0-0.621,0.504-1.125,1.125-1.125h18.249c0.621,0,1.125,0.504,1.125,1.125l0,0
		c0,0.621-0.504,1.125-1.125,1.125h-18.249C116.99,81.318,116.486,80.814,116.486,80.193L116.486,80.193z"/>
	<path fill="#4B2C13" d="M116.486,82.443c0-0.621,0.504-1.125,1.125-1.125h18.249c0.621,0,1.125,0.504,1.125,1.125l0,0
		c0,0.621-0.504,1.125-1.125,1.125h-18.249C116.99,83.568,116.486,83.064,116.486,82.443L116.486,82.443z"/>
</g>
<g>
	<path fill="#4B2C13" d="M159.681,77.943c0-0.621,0.503-1.125,1.125-1.125h18.25c0.621,0,1.125,0.504,1.125,1.125l0,0
		c0,0.621-0.504,1.125-1.125,1.125h-18.25C160.185,79.068,159.681,78.564,159.681,77.943L159.681,77.943z"/>
	<path fill="#4B2C13" d="M159.681,80.193c0-0.621,0.503-1.125,1.125-1.125h18.25c0.621,0,1.125,0.504,1.125,1.125l0,0
		c0,0.621-0.504,1.125-1.125,1.125h-18.25C160.185,81.318,159.681,80.814,159.681,80.193L159.681,80.193z"/>
	<path fill="#4B2C13" d="M159.681,82.443c0-0.621,0.503-1.125,1.125-1.125h18.25c0.621,0,1.125,0.504,1.125,1.125l0,0
		c0,0.621-0.504,1.125-1.125,1.125h-18.25C160.185,83.568,159.681,83.064,159.681,82.443L159.681,82.443z"/>
</g>
</svg>
