<?xml version="1.0" encoding="utf-8"?>
<!-- Generator: Adobe Illustrator 16.0.0, SVG Export Plug-In . SVG Version: 6.00 Build 0)  -->
<!DOCTYPE svg PUBLIC "-//W3C//DTD SVG 1.1//EN" "http://www.w3.org/Graphics/SVG/1.1/DTD/svg11.dtd">
<svg version="1.1" id="图层_1" xmlns="http://www.w3.org/2000/svg" xmlns:xlink="http://www.w3.org/1999/xlink" x="0px" y="0px"
	 width="220px" height="230px" viewBox="0 0 220 230" enable-background="new 0 0 220 230" xml:space="preserve">
<ellipse fill="#C7C6C6" cx="184.144" cy="215.676" rx="10.54" ry="3.096"/>
<ellipse fill="#C7C6C6" cx="123.696" cy="217.34" rx="10.54" ry="3.096"/>
<path fill="#C99F72" stroke="#613619" stroke-miterlimit="10" d="M163.078,193.568c2.211-0.125,6.721,6.789,7.204,11.014
	c0.484,4.225,5.986,10.665,7.489,10.688c1.503,0.021,16.54-10.063,16.881-11.244c0.342-1.183-2.074-2.303-5.302-1.777
	c-3.229,0.527-5.235,5.191-6.487,6.068c-1.252,0.879-3.599,2.519-4.63,2.067c-1.031-0.45-3.054-5.614-0.775-10.372
	c2.279-4.758,2.532-13.271,1.319-16.876c-1.213-3.604-3.334-9.546-11.67-6.294s-8.199,11.682-8.199,11.682
	S159.05,193.796,163.078,193.568z"/>
<path fill="#EAC08A" stroke="#613619" stroke-miterlimit="10" d="M118.33,177.609c-1.166-3.498-10.399,1.181-10.399,1.181
	c-32.431,17.429-59.815,3.099-68.065-11.901c-8.106-14.738,1.045-47.361,5.045-64.263c4-16.901-8.479-45.836-10.479-51.224
	c-2-5.388-3.565-19.529,8.435-14.263c12,5.266,51.284,10.002,64.065,39.804c19.489,45.446,2.435,81.196,4.226,85.696
	c1.36,3.422,8.91-0.736,8.91-0.736"/>
<path fill="#FFFFFF" d="M52.113,155.639c-5.5-13.135,3.242-41.944,4.575-54.304c1.334-12.36,1.925-27.195-2.499-35.965
	c-3.645-7.223-13.179-14.763-4.992-13.897c8.668,0.916,32.918,8.916,41.918,28.039c6.328,13.447-1.473,46.325,0,62.992
	c1.473,16.666,16.416,24.969,16.416,24.969C68.199,181.473,54.941,162.389,52.113,155.639z"/>
<path fill="#E3BB88" stroke="#613619" stroke-miterlimit="10" d="M128.763,131.264l-2.341,2.004c0,0,1.186,6.998-7.413,25.498
	c-6.519,14.025-2.92,27.26,6.438,32.844c7.76,4.632,27.669,7.041,38.798,4.547c15.697-3.518,25.951-18.223,21.62-31.887
	c-6.898-21.766-9.452-30.771-9.452-30.771L128.763,131.264z"/>
<path fill="#FFFFFF" d="M182.304,155.021c-3.677-11.58-7.16-23.758-7.16-23.758l-15.446,2.836c0,0-3.834,3.039,0,7.972
	s2.698,26.415,3.927,37.567c1.23,11.153,17.925,5.036,17.925,5.036C189.389,172.771,186.633,168.65,182.304,155.021z"/>
<path fill="#187FC4" d="M154.664,109.388h-8.734l-23.251,22.348c0,0,24.269,4.188,34.686,8.767c7.365,3.238,20.066,11,20.066,11
	s-1.106-3.868-0.658-8.864c0.136-5.443-0.359-9.14-0.359-9.14L154.664,109.388z"/>
<path fill="#EAC08A" stroke="#63361A" stroke-miterlimit="10" d="M87.094,103.648c0.682,1.978,4.396,1.385,4.979,2.592
	c0.764,1.583-3.41,0.921-2.318,3.649c6.674,16.686,29.461,26.035,52.333,23.472c3.306-0.369,4.42,2.461,8.386,3.66
	c2.097,0.596,6.944,0.748,10.423-0.207c3.162-1.032,3.665-3.631,6.986-3.453c16.925,0.91,35.591-7.256,40.333-25.472
	c0.739-2.844-3.083-2.066-2.319-3.649c0.583-1.208,4.297-0.614,4.979-2.592c0.729-2.112-3.239-1.739-3.342-2.66
	c-0.146-1.316,4.092-1.705,2.046-4.57c-3.778-5.289-8.024-7.556-15.539-11.99c-2.607-9.526-4.882-16.092-7.056-20.759
	c-3.34-7.168-4.895-11.734-8.024-17.727c-3.483-6.673-9.228-11.407-11.259-9.521c-1.406,1.305-1.534,1.673-3.829,11.239
	c-0.443,1.847-4.241-1.282-13.852-0.888c-9.738-0.166-13.481,2.735-13.924,0.888c-2.296-9.566-2.423-9.934-3.829-11.239
	c-2.03-1.886-7.774,2.848-11.259,9.521c-3.129,5.993-4.684,10.559-8.024,17.727c-2.174,4.666-4.446,11.233-7.056,20.759
	c-7.514,4.434-13.762,8.701-17.539,13.99c-2.046,2.865,2.191,3.254,2.046,4.57C90.332,101.909,86.365,101.536,87.094,103.648z"/>
<path fill="#613619" d="M167.036,46.761c3.116,0.671,5.707,1.619,8.015,2.854c-0.673-2.094-1.139-3.569-1.771-4.785
	c-0.964-1.85-1.519-2.435-2.237-3.52c-0.718-1.085-1.758-1.744-2.139-1.768c-0.381-0.023-0.646,0.385-1.017,2.062
	C167.614,42.833,167.425,43.386,167.036,46.761z"/>
<path fill="#613619" d="M132.769,46.761c-3.116,0.671-5.707,1.619-8.015,2.854c0.673-2.094,1.139-3.569,1.771-4.785
	c0.965-1.85,1.52-2.435,2.237-3.52s1.758-1.744,2.14-1.768c0.381-0.023,0.646,0.385,1.016,2.062
	C132.19,42.833,132.381,43.386,132.769,46.761z"/>
<g>
	<path fill="#FFFFFF" d="M96.396,106.171c0.863,14.033,20.93,27.756,46.408,27.205c2.994-0.063,3.725,2.095,6.931,3.095
		c4.174,1.028,7.058,0.745,10.846-0.052c2.875-0.971,4.532-3.534,5.884-3.448c20.981,1.334,34.474-12.766,35.337-26.799
		c0.472-7.667-0.909-12.367-6.786-15.789c-3.69-2.148-4.396-1.656-4.632-1.649c-6.361-28.94-15.618-29.283-19.343-29.556
		c-3.789-0.278-6.716,1.158-9.217,7.461c-0.929,2.34-2.237,12.407-2.586,15.75c-0.248,2.377-0.422,6.723-4.375,7.455
		c-2.044-0.333-2.816-0.581-4.5-5.274c-2.276-6.348-6.04-14.154-6.867-16.532c-2.488-7.153-7.898-9.608-13.219-9.608
		c-5.522,0-13.646,4.427-20.461,30.304c-0.236-0.007-2.941-0.499-6.632,1.649C97.308,93.804,95.927,98.505,96.396,106.171z"/>
</g>
<ellipse fill="#EE869A" cx="189.487" cy="104.211" rx="8.599" ry="2.877"/>
<ellipse fill="#EE869A" cx="120.067" cy="105.503" rx="8.599" ry="2.877"/>
<path fill="none" stroke="#63361A" stroke-width="2" stroke-linecap="round" stroke-linejoin="round" stroke-miterlimit="10" d="
	M156.118,109.622c-0.535-1.512,0.132-5.411,0.132-5.411"/>
<g>
	<path fill="#613619" d="M161.311,93.734c0.583,0.354,0.916,0.668,1.163,0.937s0.409,0.492,0.665,0.842
		c0.257,0.35,0.608,0.828,0.446,1.752c-0.161,0.924-0.837,2.294-2.261,3.933c-1.424,1.64-3.597,3.548-5.191,3.573
		c-1.596,0.025-3.827-1.814-5.303-3.408c-1.475-1.594-2.192-2.942-2.383-3.86s0.146-1.407,0.392-1.765
		c0.244-0.358,0.398-0.586,0.638-0.862s0.562-0.601,1.133-0.973c0.571-0.372,1.391-0.793,5.338-0.886
		C159.895,92.986,160.728,93.381,161.311,93.734z"/>
	<path fill="#FFFFFF" d="M161.565,96.36c-0.136,0.131-0.354,0.108-0.459-0.049c-0.1-0.15-0.24-0.331-0.413-0.499
		c-0.264-0.257-0.526-0.428-0.705-0.528c-0.129-0.073-0.183-0.227-0.132-0.366l0.03-0.083c0.05-0.137,0.188-0.22,0.332-0.195
		c0.256,0.044,0.679,0.163,1.138,0.486c0.256,0.181,0.436,0.402,0.545,0.564c0.082,0.122,0.064,0.285-0.042,0.387L161.565,96.36z"/>
</g>
<g>
	<g>
		<g>
			<path fill="#FFFFFF" d="M171.374,141.088c-0.451-0.618-0.904-1.236-1.356-1.854c-0.134,2.02-0.269,4.039-0.402,6.06
				c-2.064-0.36-3.644-2.038-3.879-4.121c-0.234-2.082,0.932-4.069,2.865-4.881c1.933-0.81,4.168-0.25,5.49,1.377
				c1.321,1.626,1.412,3.929,0.223,5.655c0.243,0.523-0.378,1.02-0.835,0.669s-0.136-1.079,0.431-0.979
				c2.242-3.296-0.925-7.572-4.731-6.391c-3.808,1.182-3.994,6.501-0.279,7.947c0.165-2.492,0.331-4.984,0.496-7.477
				c1.079,1.475,2.158,2.949,3.238,4.424c-0.441,0.129-0.883,0.256-1.323,0.385c0.619,0.845,1.237,1.689,1.855,2.535
				c-1.1-0.971-2.2-1.939-3.301-2.91C170.368,141.382,170.872,141.236,171.374,141.088z"/>
		</g>
	</g>
</g>
<path fill="#DEB686" stroke="#613619" stroke-miterlimit="10" d="M123.197,185.473c1.373,1.737-1.695,9.399-4.875,12.223
	c-3.181,2.822-5.291,11.025-4.445,12.269c0.845,1.243,17.738,7.759,18.9,7.358c1.164-0.4,0.694-3.021-1.591-5.361
	c-2.286-2.34-7.257-1.303-8.694-1.822c-1.437-0.521-4.127-1.5-4.351-2.603s2.84-5.726,8.044-6.593
	c5.205-0.866,12.317-5.551,14.572-8.614c2.254-3.063,5.898-8.213-1.553-13.168s-14.272,0-14.272,0S120.697,182.305,123.197,185.473z
	"/>
<path fill="#EAC08A" stroke="#63361A" stroke-miterlimit="10" d="M150.243,155.109c1.62,2.986,8.287,9.851,9.423,10.467
	c0.309,0.167,0.868-0.069,1.317-0.245c0.675-0.263,1.223-0.326,2.086-0.388c1.921-0.139,3.712,0.861,3.504,1.695
	c-0.189,0.758-1.203,0.012-1.323,0.211c-0.119,0.197,2.082,1.197,2.105,4.33c0.014,1.875-1.983,4.365-5.095,3.752
	c-4.356-0.861-3.075-3.328-7.064-6.557s-8.934-2.117-19.939-13.26c-2.581-2.613-2.47-10.372,2.496-12.399
	C142.721,140.689,149.525,153.785,150.243,155.109z"/>
<g>
	<path fill="none" stroke="#613619" stroke-miterlimit="10" d="M149.448,111.913c0.634,2.308,0.678,3.769,1.313,6.077
		c3.073-0.049,6.576-0.385,9.65-0.432c0.563-2.328,0.852-3.186,1.413-5.513c0,0-3.89-2.203-5.936-2.173
		c-0.063,1.638-0.127,4.277-0.191,5.915c-0.115-1.636-0.229-4.271-0.345-5.907C153.306,109.916,149.449,111.913,149.448,111.913z"/>
	<path fill="none" stroke="#63361A" stroke-width="2" stroke-linecap="round" stroke-linejoin="round" stroke-miterlimit="10" d="
		M144.478,112.938c0,0,10.576-3.291,11.764-3.551l10.794,4.384"/>
	<g>
		<path fill="#4B2C13" d="M163.639,87.115c0-1.04,0.843-1.883,1.883-1.883h19.333c1.04,0,1.883,0.843,1.883,1.883l0,0
			c0,2.047-4.255,1.883-1.883,1.883h-19.333C164.481,88.998,163.639,88.155,163.639,87.115L163.639,87.115z"/>
		<path fill="#5DC4E7" d="M169.762,89.001c0,0-0.166,1.426,0.667,1.926s2.167,3,1.518,5.155c-0.648,2.155,2.315,5.345,4.084,7.046
			c1.77,1.701,0.398,5.133,0.065,7.295s0.408,5.774,2,7.042c2.883,2.296,1.872,5.719,1,7.463c-1.5,3,0.642,6.846,0.642,6.846
			s4.011-1.352,7.438-3.297c3.556-2.019,6.015-4.496,6.015-4.496c-0.12-2.434-2.76-2.22-1.623-4.387
			c1.137-2.166,1.963-5.65,1.029-9.082c-1.155-4.243-5-5.418-4.995-8.11s-0.339-5.974-0.863-8.146
			c-0.523-2.171-2.851-5.254-2.851-5.254"/>
	</g>
	<g>
		<path fill="#4B2C13" d="M144.479,87.115c0-1.04-0.844-1.883-1.883-1.883h-19.333c-1.04,0-1.884,0.843-1.884,1.883l0,0
			c0,2.047,4.256,1.883,1.884,1.883h19.333C143.636,88.998,144.479,88.155,144.479,87.115L144.479,87.115z"/>
		<path fill="#5DC4E7" d="M138.354,88.999c0,0,0.166,1.426-0.667,1.926s-2.167,3-1.519,5.155c0.649,2.155-2.314,5.345-4.083,7.046
			c-1.77,1.701-0.398,5.133-0.065,7.295s-0.409,5.774-2,7.042c-2.883,2.296-1.872,5.719-1,7.463c1.5,3-0.883,7.15-0.883,7.15
			s-3.126-0.525-7.833-2.153c-3.537-1.223-6.348-2.545-6.346-2.558c0,0-0.193-0.402,0.076-1.564c0.551-2.374,3.651-4.04,2.515-6.207
			c-1.138-2.166-1.964-5.65-1.029-9.082c1.155-4.243,5-5.418,4.995-8.11s0.339-5.974,0.863-8.146
			c0.523-2.171,2.851-5.254,2.851-5.254"/>
	</g>
</g>
</svg>
