<?xml version="1.0" encoding="utf-8"?>
<!-- Generator: Adobe Illustrator 16.0.0, SVG Export Plug-In . SVG Version: 6.00 Build 0)  -->
<!DOCTYPE svg PUBLIC "-//W3C//DTD SVG 1.1//EN" "http://www.w3.org/Graphics/SVG/1.1/DTD/svg11.dtd">
<svg version="1.1" id="图层_1" xmlns="http://www.w3.org/2000/svg" xmlns:xlink="http://www.w3.org/1999/xlink" x="0px" y="0px"
	 width="200px" height="210px" viewBox="0 0 200 210" enable-background="new 0 0 200 210" xml:space="preserve">
<g>
	<ellipse fill="#C7C6C6" cx="101.032" cy="193.093" rx="10.54" ry="3.095"/>
	<path fill="#EAC08A" stroke="#63361A" stroke-miterlimit="10" d="M156.316,126.549c1.981,2.76,9.455,8.735,10.659,9.204
		c0.326,0.127,0.851-0.178,1.274-0.408c0.637-0.346,1.173-0.476,2.021-0.646c1.888-0.379,3.79,0.39,3.688,1.242
		c-0.093,0.777-1.19,0.164-1.285,0.375c-0.095,0.213,2.216,0.929,2.631,4.033c0.249,1.859-1.42,4.58-4.585,4.36
		c-4.432-0.308-3.47-2.916-7.83-5.62c-4.362-2.703-9.129-0.982-21.443-10.66c-2.888-2.269-3.749-9.98,0.925-12.613
		S155.436,125.324,156.316,126.549z"/>
	<path fill="#C99F72" stroke="#613619" stroke-miterlimit="10" d="M101.552,160.916c1.372,1.738-1.696,9.398-4.876,12.223
		c-3.18,2.823-5.29,11.026-4.445,12.27c0.846,1.242,17.737,7.758,18.901,7.357c1.163-0.399,0.693-3.021-1.592-5.36
		c-2.286-2.341-7.256-1.304-8.693-1.823c-1.437-0.52-4.128-1.499-4.351-2.602c-0.225-1.103,2.839-5.726,8.043-6.592
		c5.205-0.867,12.318-5.552,14.572-8.615c2.254-3.064,5.899-8.213-1.552-13.168c-7.452-4.955-14.273,0-14.273,0
		S99.052,157.749,101.552,160.916z"/>
	<ellipse fill="#C7C6C6" cx="165.148" cy="190.714" rx="10.54" ry="3.095"/>
	<path fill="#EAC08A" stroke="#613619" stroke-miterlimit="10" d="M96.685,153.055c-1.166-3.498-10.399,0.18-10.399,0.18
		c-34.316,15.715-59.816,4.099-68.066-10.901c-8.105-14.738-1.5-47.362,2.5-64.263c4-16.901-6.934-43.836-8.934-49.224
		c-2-5.388-3.566-19.529,8.434-14.263s52.285,8.002,65.066,37.804c19.489,45.446,2.435,81.196,4.225,85.696
		c1.361,3.421,8.91-0.735,8.91-0.735"/>
	<path fill="#FFFFFF" d="M30.467,131.083c-5.5-13.135,3.24-41.944,4.574-54.304c1.334-12.36,0.926-25.195-3.498-33.965
		c-3.645-7.223-13.18-14.763-4.992-13.897c8.667,0.916,33.917,6.916,42.917,26.039c6.329,13.447-1.472,46.325,0,62.992
		c1.473,16.666,15.417,24.968,15.417,24.968C45.552,156.916,33.295,137.833,30.467,131.083z"/>
	<path fill="#E3BB88" stroke="#613619" stroke-miterlimit="10" d="M107.115,106.708l-2.341,2.003c0,0-0.122,7.343-6.667,28.372
		c-4.596,14.769-1.877,23.5,5.692,29.971c6.868,5.873,27.67,7.04,38.799,4.546c15.696-3.517,25.243-18.017,21.62-31.887
		c-5.566-21.307-9.452-30.77-9.452-30.77L107.115,106.708z"/>
	<path fill="#FFFFFF" d="M161.134,130.083c-3.817-14.222-7.637-23.375-7.637-23.375l-15.445,2.835c0,0-3.834,3.039,0,7.973
		c3.834,4.933,2.697,26.414,3.927,37.567s18.396,3.875,18.396,3.875C166.707,148.124,164.438,142.393,161.134,130.083z"/>
	<path fill="#187FC4" d="M133.018,84.833h-8.735l-23.251,22.349c0,0,24.27,4.187,34.687,8.766c7.364,3.238,20,11,20,11
		s-1.04-3.868-0.593-8.864c0.137-5.442-0.358-9.14-0.358-9.14L133.018,84.833z"/>
	<path fill="#EAC08A" stroke="#63361A" stroke-miterlimit="10" d="M65.447,78.093c0.682,1.978,4.396,1.385,4.979,2.592
		c0.764,1.583-3.41,0.921-2.319,3.649c6.674,16.686,31.145,25.473,52.334,24.473c3.322-0.156,4.419,2.461,8.385,3.66
		c2.098,0.596,6.945,0.748,10.423-0.207c3.162-1.033,3.664-3.609,6.986-3.453c21.188,1,33.658-9.787,40.333-26.473
		c1.091-2.728-3.083-2.066-2.319-3.649c0.583-1.208,4.297-0.614,4.979-2.592c0.728-2.112-3.24-1.739-3.342-2.66
		c-0.146-1.316,4.092-1.705,2.046-4.57c-3.779-5.29-8.025-6.556-15.539-10.99c-2.608-9.526-4.882-16.092-7.057-20.759
		c-3.34-7.168-4.895-11.734-8.023-17.727c-3.484-6.673-10.229-11.407-12.259-9.521c-1.406,1.305-0.534,1.673-2.829,11.239
		c-0.444,1.847-4.242-1.282-13.853-0.888c-9.737-0.166-13.48,2.735-13.924,0.888c-2.296-9.566-2.423-9.934-3.829-11.239
		c-2.03-1.886-7.774,2.848-11.258,9.521c-3.129,5.993-4.684,10.559-8.024,17.727c-2.174,4.666-4.447,11.233-7.057,20.759
		c-7.514,4.434-13.761,7.701-17.539,12.99c-2.045,2.865,2.192,3.254,2.047,4.57C68.687,76.353,64.719,75.98,65.447,78.093z"/>
	<path fill="#613619" d="M145.39,22.206c3.115,0.671,5.707,1.619,8.014,2.853c-0.672-2.094-1.138-3.569-1.771-4.785
		c-0.965-1.85-1.52-2.435-2.237-3.52s-1.758-1.744-2.139-1.768c-0.382-0.023-0.646,0.385-1.018,2.062
		C145.968,18.277,145.777,18.831,145.39,22.206z"/>
	<path fill="#613619" d="M111.121,22.206c-3.116,0.671-5.707,1.619-8.014,2.853c0.672-2.094,1.138-3.569,1.771-4.785
		c0.965-1.85,1.52-2.435,2.237-3.52s1.758-1.744,2.139-1.768c0.382-0.023,0.646,0.385,1.018,2.062
		C110.543,18.277,110.733,18.831,111.121,22.206z"/>
	<g>
		<path fill="#FFFFFF" d="M74.752,81.614c0.863,14.033,20.929,27.756,46.407,27.204c2.994-0.063,3.726,2.096,6.932,3.096
			c4.174,1.027,7.058,0.745,10.846-0.053c2.875-0.971,4.532-3.533,5.883-3.447c20.982,1.334,34.474-12.766,35.337-26.799
			c0.472-7.667-0.909-12.367-6.786-15.789c-3.689-2.148-4.396-1.656-4.632-1.649c-6.361-28.94-15.618-29.283-19.342-29.556
			c-3.789-0.278-6.716,1.158-9.217,7.461c-0.93,2.34-2.237,12.407-2.586,15.75c-0.248,2.377-0.423,6.723-4.375,7.455
			c-2.044-0.333-2.817-0.581-4.5-5.274c-2.276-6.348-6.04-14.154-6.867-16.532c-2.489-7.153-7.899-9.608-13.219-9.608
			c-5.524,0-13.648,4.427-20.463,30.305c-0.235-0.007-2.941-0.499-6.631,1.649C75.662,69.248,74.281,73.949,74.752,81.614z"/>
	</g>
	<ellipse fill="#EE869A" cx="167.841" cy="79.656" rx="8.599" ry="2.877"/>
	<ellipse fill="#EE869A" cx="98.421" cy="80.947" rx="8.599" ry="2.877"/>
	<g>
		<path fill="none" stroke="#613619" stroke-width="2" stroke-miterlimit="10" d="M110.072,46.286
			c7.582,0,12.591,6.224,12.591,13.805c0,7.582-5.009,13.649-12.591,13.649c-7.581,0-12.505-6.144-12.505-13.726
			S102.491,46.287,110.072,46.286z"/>
		<path fill="#613619" d="M110.086,50.735c5.255,0,8.726,4.314,8.726,9.567c0,5.254-3.471,9.458-8.726,9.458
			c-5.254,0-8.666-4.258-8.666-9.512S104.832,50.735,110.086,50.735z"/>
		<circle fill="#FFFFFF" cx="113.5" cy="58.693" r="3.738"/>
		<circle fill="#FFFFFF" cx="105.761" cy="65.288" r="2.012"/>
	</g>
	<g>
		<path fill="none" stroke="#613619" stroke-width="2" stroke-miterlimit="10" d="M153.201,47.286
			c-7.243,0-12.027,5.947-12.027,13.189c0,7.243,4.784,13.039,12.027,13.039s11.947-5.87,11.947-13.113
			C165.148,53.158,160.444,47.286,153.201,47.286z"/>
		<path fill="#613619" d="M153.188,51.537c-5.02,0-8.335,4.12-8.335,9.139c0,5.019,3.315,9.036,8.335,9.036
			c5.019,0,8.279-4.068,8.279-9.087C161.468,55.605,158.207,51.537,153.188,51.537z"/>
		<circle fill="#FFFFFF" cx="149.928" cy="59.139" r="3.571"/>
		<circle fill="#FFFFFF" cx="157.32" cy="65.439" r="1.923"/>
	</g>
	<path fill="none" stroke="#63361A" stroke-width="2" stroke-linecap="round" stroke-linejoin="round" stroke-miterlimit="10" d="
		M134.473,85.066c-0.535-1.512,0.132-5.411,0.132-5.411"/>
	<g>
		<path fill="#613619" d="M139.663,69.178c0.583,0.354,0.916,0.668,1.163,0.938c0.247,0.269,0.409,0.492,0.665,0.842
			c0.257,0.35,0.609,0.828,0.447,1.752s-0.837,2.294-2.261,3.933c-1.425,1.64-3.598,3.548-5.192,3.573
			c-1.595,0.025-3.827-1.814-5.302-3.408c-1.476-1.594-2.193-2.942-2.383-3.86c-0.191-0.918,0.146-1.407,0.391-1.765
			s0.399-0.586,0.638-0.862c0.239-0.276,0.563-0.601,1.133-0.973c0.571-0.372,1.392-0.793,5.339-0.886
			C138.248,68.43,139.081,68.825,139.663,69.178z"/>
		<path fill="#FFFFFF" d="M139.918,71.805c-0.136,0.131-0.354,0.108-0.459-0.049c-0.1-0.15-0.239-0.331-0.413-0.499
			c-0.264-0.257-0.525-0.428-0.704-0.528c-0.13-0.073-0.184-0.227-0.133-0.366l0.03-0.083c0.05-0.137,0.189-0.22,0.332-0.195
			c0.256,0.044,0.679,0.163,1.138,0.486c0.257,0.181,0.437,0.402,0.545,0.564c0.082,0.122,0.064,0.285-0.042,0.387L139.918,71.805z"
			/>
	</g>
	<path fill="none" stroke="#613619" stroke-miterlimit="10" d="M127.802,87.357c0.634,2.308,1.035,3.769,1.67,6.077
		c3.073-0.049,6.148-0.097,9.223-0.145c0.563-2.327,0.921-3.472,1.483-5.799c-2.046-0.024-3.891-1.203-5.937-1.173
		c-0.063,1.638-0.127,3.277-0.19,4.915c-0.115-1.636-0.23-3.271-0.346-4.907C131.659,86.36,129.848,87.269,127.802,87.357z"/>
	<path fill="none" stroke="#63361A" stroke-width="2" stroke-linecap="round" stroke-linejoin="round" stroke-miterlimit="10" d="
		M117.173,85.474c8.193,4.504,16.233-0.383,17.422-0.643c7.801,6.359,12.761-0.2,12.761-0.2"/>
	<g>
		<g>
			<g>
				<path fill="#FFFFFF" d="M149.729,116.532c-0.452-0.618-0.905-1.236-1.357-1.854c-0.134,2.021-0.268,4.04-0.401,6.061
					c-2.065-0.36-3.645-2.038-3.879-4.121c-0.234-2.082,0.932-4.07,2.864-4.881c1.934-0.811,4.168-0.25,5.49,1.377
					c1.322,1.626,1.413,3.929,0.223,5.654c0.243,0.523-0.378,1.021-0.835,0.67c-0.457-0.352-0.136-1.08,0.432-0.979
					c2.242-3.296-0.925-7.573-4.732-6.392c-3.807,1.183-3.994,6.502-0.279,7.947c0.165-2.492,0.331-4.984,0.496-7.476
					c1.079,1.476,2.158,2.948,3.238,4.424c-0.441,0.128-0.882,0.256-1.323,0.384c0.619,0.846,1.237,1.69,1.856,2.535
					c-1.101-0.97-2.201-1.939-3.301-2.908C148.723,116.826,149.226,116.68,149.729,116.532z"/>
			</g>
		</g>
	</g>
	<path fill="#DEB686" stroke="#613619" stroke-miterlimit="10" d="M141.433,169.014c2.211-0.125,6.72,6.787,7.204,11.012
		c0.483,4.226,5.985,10.666,7.488,10.688s16.54-10.063,16.882-11.244s-2.074-2.303-5.303-1.777
		c-3.228,0.527-5.234,5.191-6.486,6.069s-3.6,2.519-4.631,2.067c-1.03-0.451-3.054-5.614-0.774-10.372s2.532-13.271,1.319-16.876
		c-1.214-3.605-3.334-9.546-11.671-6.294c-8.336,3.252-8.198,11.682-8.198,11.682S137.403,169.241,141.433,169.014z"/>
	<path fill="#EAC08A" stroke="#63361A" stroke-miterlimit="10" d="M118.838,135.747c-2.431,2.373-7.216,10.66-7.497,11.921
		c-0.077,0.342,0.304,0.816,0.595,1.2c0.438,0.575,0.647,1.087,0.942,1.899c0.657,1.81,0.185,3.807-0.675,3.834
		c-0.782,0.024-0.34-1.153-0.563-1.216c-0.224-0.062-0.584,2.33-3.591,3.207c-1.801,0.525-4.742-0.716-5-3.878
		c-0.361-4.426,2.362-3.867,4.38-8.585c2.017-4.718-0.401-9.172,7.315-22.801c1.81-3.196,9.305-5.206,12.61-0.981
		C130.659,124.573,119.917,134.693,118.838,135.747z"/>
</g>
</svg>
