<?xml version="1.0" encoding="utf-8"?>
<!-- Generator: Adobe Illustrator 16.0.0, SVG Export Plug-In . SVG Version: 6.00 Build 0)  -->
<!DOCTYPE svg PUBLIC "-//W3C//DTD SVG 1.1//EN" "http://www.w3.org/Graphics/SVG/1.1/DTD/svg11.dtd">
<svg version="1.1" id="图层_1" xmlns="http://www.w3.org/2000/svg" xmlns:xlink="http://www.w3.org/1999/xlink" x="0px" y="0px"
	 width="220px" height="230px" viewBox="0 0 220 230" enable-background="new 0 0 220 230" xml:space="preserve">
<ellipse fill="#C7C6C6" cx="116.421" cy="206.037" rx="10.54" ry="3.095"/>
<path fill="#EAC08A" stroke="#63361A" stroke-miterlimit="10" d="M171.705,139.493c1.98,2.759,9.455,8.735,10.658,9.204
	c0.326,0.127,0.852-0.178,1.275-0.408c0.636-0.346,1.172-0.477,2.021-0.646c1.888-0.377,3.79,0.391,3.688,1.243
	c-0.093,0.777-1.191,0.163-1.286,0.375c-0.094,0.212,2.216,0.929,2.631,4.033c0.249,1.858-1.42,4.58-4.585,4.36
	c-4.431-0.307-3.469-2.916-7.83-5.62c-4.361-2.703-9.129-0.983-21.442-10.66c-2.889-2.269-3.749-9.981,0.925-12.614
	S170.824,138.268,171.705,139.493z"/>
<path fill="#C99F72" stroke="#613619" stroke-miterlimit="10" d="M116.939,173.859c1.373,1.738-1.695,9.399-4.875,12.224
	c-3.181,2.823-5.291,11.026-4.445,12.269c0.845,1.243,17.736,7.758,18.9,7.358s0.694-3.021-1.591-5.36
	c-2.286-2.341-7.256-1.304-8.694-1.824c-1.437-0.52-4.127-1.498-4.351-2.602c-0.224-1.102,2.841-5.725,8.044-6.592
	c5.205-0.867,12.318-5.551,14.572-8.615s5.898-8.213-1.552-13.168c-7.452-4.955-14.273,0-14.273,0S114.439,170.693,116.939,173.859z
	"/>
<ellipse fill="#C7C6C6" cx="180.537" cy="203.658" rx="10.54" ry="3.095"/>
<path fill="#EAC08A" stroke="#613619" stroke-miterlimit="10" d="M112.073,165.999c-1.166-3.498-10.4,0.181-10.4,0.181
	c-34.315,15.715-59.815,4.098-68.065-10.902c-8.106-14.737-1.5-47.361,2.5-64.262s-6.935-43.836-8.935-49.224
	s-3.565-19.529,8.435-14.263c12,5.266,52.285,8.002,65.065,37.804c19.49,45.446,2.435,81.195,4.226,85.695
	c1.36,3.422,8.91-0.735,8.91-0.735"/>
<path fill="#FFFFFF" d="M45.855,144.027c-5.5-13.135,3.242-41.943,4.574-54.303c1.334-12.36,0.926-25.195-3.498-33.965
	c-3.645-7.223-13.18-14.763-4.992-13.897c8.666,0.916,33.916,6.916,42.916,26.039c6.33,13.447-1.473,46.326,0,62.992
	c1.474,16.666,15.418,24.969,15.418,24.969C60.939,169.861,48.684,150.777,45.855,144.027z"/>
<path fill="#E3BB88" stroke="#613619" stroke-miterlimit="10" d="M122.504,119.652l-2.341,2.002c0,0-0.122,7.344-6.667,28.373
	c-4.596,14.768-1.877,23.5,5.691,29.971c6.869,5.873,27.67,7.04,38.799,4.546c15.697-3.517,25.243-18.017,21.62-31.887
	c-5.565-21.308-9.452-30.771-9.452-30.771L122.504,119.652z"/>
<path fill="#FFFFFF" d="M176.521,143.027c-3.816-14.223-7.636-23.375-7.636-23.375l-15.446,2.834c0,0-3.834,3.041,0,7.973
	c3.834,4.934,2.697,26.415,3.928,37.568c1.229,11.152,18.396,3.875,18.396,3.875C182.096,161.068,179.827,155.337,176.521,143.027z"
	/>
<path fill="#187FC4" d="M148.405,97.777h-8.734l-23.251,22.348c0,0,24.269,4.188,34.686,8.766c7.365,3.238,20,11,20,11
	s-1.04-3.867-0.592-8.863c0.136-5.443-0.359-9.141-0.359-9.141L148.405,97.777z"/>
<path fill="#EAC08A" stroke="#63361A" stroke-miterlimit="10" d="M80.836,91.037c0.682,1.978,4.396,1.385,4.979,2.592
	c0.765,1.583-3.41,0.921-2.318,3.649c6.674,16.686,31.145,25.473,52.334,24.473c3.321-0.155,4.419,2.46,8.385,3.66
	c2.097,0.595,6.945,0.748,10.423-0.207c3.162-1.033,3.664-3.61,6.986-3.453c21.188,1,33.658-9.787,40.333-26.473
	c1.091-2.728-3.083-2.066-2.319-3.649c0.583-1.208,4.297-0.614,4.979-2.592c0.728-2.112-3.24-1.739-3.343-2.66
	c-0.146-1.316,4.093-1.705,2.046-4.57c-3.778-5.29-8.024-6.556-15.538-10.99c-2.608-9.526-4.883-16.092-7.057-20.759
	c-3.34-7.168-4.895-11.734-8.023-17.727c-3.484-6.673-10.229-11.407-12.26-9.521c-1.405,1.305-0.533,1.673-2.829,11.239
	c-0.443,1.847-4.241-1.282-13.852-0.888c-9.738-0.166-13.48,2.735-13.924,0.888c-2.296-9.566-2.423-9.934-3.829-11.239
	c-2.031-1.886-7.774,2.848-11.259,9.521c-3.129,5.993-4.684,10.559-8.023,17.727c-2.175,4.666-4.447,11.233-7.057,20.759
	c-7.514,4.434-13.761,7.701-17.539,12.99c-2.046,2.865,2.192,3.254,2.046,4.57C84.075,89.298,80.107,88.925,80.836,91.037z"/>
<path fill="#613619" d="M160.777,35.15c3.116,0.671,5.707,1.619,8.015,2.853c-0.672-2.094-1.139-3.569-1.771-4.785
	c-0.964-1.85-1.519-2.435-2.236-3.52c-0.719-1.085-1.759-1.744-2.14-1.768c-0.381-0.023-0.646,0.385-1.017,2.062
	C161.355,31.222,161.166,31.775,160.777,35.15z"/>
<path fill="#613619" d="M126.51,35.15c-3.116,0.671-5.707,1.619-8.014,2.853c0.672-2.094,1.138-3.569,1.771-4.785
	c0.964-1.85,1.52-2.435,2.237-3.52c0.718-1.085,1.758-1.744,2.139-1.768c0.381-0.023,0.646,0.385,1.018,2.062
	C125.932,31.222,126.123,31.775,126.51,35.15z"/>
<g>
	<path fill="#FFFFFF" d="M90.139,94.559c0.863,14.033,20.93,27.755,46.408,27.205c2.994-0.063,3.725,2.096,6.931,3.096
		c4.174,1.027,7.059,0.744,10.847-0.053c2.875-0.971,4.531-3.533,5.883-3.447c20.981,1.334,34.474-12.767,35.337-26.799
		c0.472-7.667-0.909-12.367-6.786-15.789c-3.69-2.148-4.396-1.656-4.632-1.649c-6.361-28.94-15.618-29.283-19.342-29.556
		c-3.789-0.278-6.717,1.158-9.218,7.461c-0.929,2.34-2.236,12.407-2.586,15.75c-0.248,2.377-0.422,6.723-4.375,7.455
		c-2.044-0.333-2.816-0.581-4.5-5.274c-2.275-6.348-6.04-14.154-6.867-16.532c-2.488-7.153-7.898-9.608-13.219-9.608
		c-5.522,0-13.646,4.427-20.461,30.304c-0.235-0.007-2.941-0.499-6.632,1.649C91.05,82.193,89.669,86.894,90.139,94.559z"/>
</g>
<ellipse fill="#EE869A" cx="183.23" cy="92.6" rx="8.599" ry="2.877"/>
<ellipse fill="#EE869A" cx="113.809" cy="93.891" rx="8.599" ry="2.877"/>
<path fill="none" stroke="#63361A" stroke-width="2" stroke-linecap="round" stroke-linejoin="round" stroke-miterlimit="10" d="
	M149.86,98.011c-0.534-1.512,0.133-5.411,0.133-5.411"/>
<g>
	<path fill="#613619" d="M155.052,82.122c0.583,0.354,0.916,0.668,1.163,0.937s0.409,0.492,0.665,0.842
		c0.257,0.35,0.609,0.828,0.447,1.752c-0.162,0.924-0.837,2.294-2.262,3.933c-1.424,1.64-3.597,3.548-5.191,3.573
		c-1.596,0.025-3.827-1.814-5.303-3.408c-1.475-1.594-2.192-2.942-2.383-3.86s0.146-1.407,0.392-1.765s0.398-0.586,0.638-0.862
		c0.239-0.276,0.562-0.601,1.133-0.973s1.392-0.793,5.338-0.886C153.637,81.375,154.47,81.769,155.052,82.122z"/>
	<path fill="#FFFFFF" d="M155.307,84.749c-0.136,0.131-0.354,0.108-0.459-0.049c-0.1-0.15-0.24-0.331-0.413-0.499
		c-0.264-0.257-0.525-0.428-0.705-0.528c-0.129-0.073-0.183-0.227-0.132-0.366l0.03-0.083c0.05-0.137,0.188-0.22,0.332-0.195
		c0.256,0.044,0.679,0.163,1.138,0.486c0.256,0.181,0.437,0.402,0.545,0.564c0.082,0.122,0.064,0.285-0.042,0.387L155.307,84.749z"
		/>
</g>
<g>
	<g>
		<g>
			<path fill="#FFFFFF" d="M165.117,129.477c-0.452-0.617-0.905-1.235-1.357-1.854c-0.134,2.02-0.268,4.04-0.402,6.061
				c-2.064-0.36-3.644-2.039-3.879-4.121c-0.233-2.082,0.933-4.07,2.865-4.881s4.168-0.25,5.49,1.377
				c1.321,1.625,1.413,3.928,0.223,5.654c0.243,0.523-0.378,1.02-0.835,0.669s-0.136-1.079,0.431-0.979
				c2.242-3.295-0.925-7.572-4.731-6.391c-3.808,1.182-3.994,6.502-0.279,7.947c0.165-2.492,0.331-4.984,0.496-7.477
				c1.079,1.476,2.158,2.949,3.238,4.425c-0.441,0.128-0.882,0.256-1.323,0.384c0.619,0.845,1.237,1.689,1.856,2.535
				c-1.101-0.971-2.201-1.939-3.302-2.909C164.11,129.771,164.613,129.624,165.117,129.477z"/>
		</g>
	</g>
</g>
<path fill="#DEB686" stroke="#613619" stroke-miterlimit="10" d="M156.82,181.958c2.212-0.125,6.721,6.788,7.204,11.013
	c0.484,4.225,5.986,10.665,7.489,10.688c1.503,0.021,16.54-10.063,16.881-11.244c0.342-1.182-2.074-2.303-5.302-1.777
	c-3.228,0.527-5.235,5.191-6.487,6.069s-3.599,2.519-4.63,2.067s-3.054-5.614-0.774-10.373c2.278-4.758,2.531-13.271,1.318-16.875
	c-1.213-3.605-3.334-9.547-11.67-6.295s-8.199,11.683-8.199,11.683S152.792,182.186,156.82,181.958z"/>
<path fill="#EAC08A" stroke="#63361A" stroke-miterlimit="10" d="M134.227,148.691c-2.431,2.373-7.216,10.66-7.498,11.922
	c-0.077,0.342,0.305,0.816,0.596,1.199c0.438,0.576,0.647,1.088,0.942,1.9c0.657,1.809,0.185,3.807-0.675,3.833
	c-0.782,0.025-0.34-1.153-0.564-1.215c-0.223-0.062-0.584,2.33-3.591,3.207c-1.8,0.524-4.741-0.716-4.999-3.878
	c-0.361-4.426,2.362-3.867,4.379-8.585c2.018-4.718-0.4-9.173,7.316-22.802c1.809-3.195,9.304-5.205,12.61-0.98
	C146.049,137.518,135.306,147.639,134.227,148.691z"/>
<g>
	<path fill="none" stroke="#613619" stroke-miterlimit="10" d="M143.345,99.882c0.634,2.308,0.678,3.769,1.313,6.077
		c3.073-0.048,6.576-0.384,9.65-0.432c0.563-2.327,0.852-3.185,1.413-5.512c0,0-3.89-2.203-5.936-2.173
		c-0.063,1.638-0.127,4.277-0.191,5.915c-0.115-1.636-0.23-4.271-0.345-5.907C147.203,97.884,143.346,99.881,143.345,99.882z"/>
	<path fill="none" stroke="#63361A" stroke-width="2" stroke-linecap="round" stroke-linejoin="round" stroke-miterlimit="10" d="
		M138.374,100.906c0,0,10.576-3.291,11.764-3.551l10.794,4.384"/>
</g>
<g>
	<ellipse fill="#E5E5E4" cx="170.708" cy="85.335" rx="9.75" ry="2.511"/>
	<path fill="#63361A" d="M160.958,74.074c0-0.414,0.335-0.75,0.75-0.75h17c0.414,0,0.75,0.336,0.75,0.75l0,0
		c0,0.414-0.336,0.75-0.75,0.75h-17C161.294,74.824,160.958,74.488,160.958,74.074L160.958,74.074z"/>
	<path fill="#63361A" d="M160.958,83.824c0-0.414,0.335-0.75,0.75-0.75h17c0.414,0,0.75,0.336,0.75,0.75l0,0
		c0,0.414-0.336,0.75-0.75,0.75h-17C161.294,84.574,160.958,84.238,160.958,83.824L160.958,83.824z"/>
	<circle fill="#63361A" cx="170.169" cy="78.991" r="1.735"/>
	<path fill="none" stroke="#613619" stroke-width="2" stroke-linecap="round" stroke-linejoin="round" stroke-miterlimit="10" d="
		M171.624,64.726c-4.25-0.25-7.001-4.25-7.001-4.25"/>
</g>
<g>
	<ellipse fill="#E5E5E4" cx="127.372" cy="85.335" rx="9.75" ry="2.511"/>
	<path fill="#63361A" d="M137.122,74.074c0-0.414-0.336-0.75-0.75-0.75h-17c-0.414,0-0.75,0.336-0.75,0.75l0,0
		c0,0.414,0.336,0.75,0.75,0.75h17C136.786,74.824,137.122,74.488,137.122,74.074L137.122,74.074z"/>
	<path fill="#63361A" d="M137.122,83.824c0-0.414-0.336-0.75-0.75-0.75h-17c-0.414,0-0.75,0.336-0.75,0.75l0,0
		c0,0.414,0.336,0.75,0.75,0.75h17C136.786,84.574,137.122,84.238,137.122,83.824L137.122,83.824z"/>
	<circle fill="#63361A" cx="127.91" cy="78.991" r="1.735"/>
	<path fill="none" stroke="#613619" stroke-width="2" stroke-linecap="round" stroke-linejoin="round" stroke-miterlimit="10" d="
		M126.455,64.726c4.25-0.25,7.001-4.25,7.001-4.25"/>
</g>
</svg>
