<?xml version="1.0" encoding="utf-8"?>
<!-- Generator: Adobe Illustrator 16.0.0, SVG Export Plug-In . SVG Version: 6.00 Build 0)  -->
<!DOCTYPE svg PUBLIC "-//W3C//DTD SVG 1.1//EN" "http://www.w3.org/Graphics/SVG/1.1/DTD/svg11.dtd">
<svg version="1.1" id="图层_1" xmlns="http://www.w3.org/2000/svg" xmlns:xlink="http://www.w3.org/1999/xlink" x="0px" y="0px"
	 width="220px" height="230px" viewBox="0 0 220 230" enable-background="new 0 0 220 230" xml:space="preserve">
<g>
	<ellipse fill="#C7C6C6" cx="177.087" cy="207.253" rx="10.54" ry="3.095"/>
	<ellipse fill="#C7C6C6" cx="116.64" cy="208.917" rx="10.54" ry="3.095"/>
	<path fill="#C99F72" stroke="#613619" stroke-miterlimit="10" d="M156.023,185.146c2.211-0.125,6.72,6.787,7.203,11.013
		c0.484,4.225,5.986,10.665,7.489,10.687c1.503,0.022,16.54-10.062,16.881-11.244c0.343-1.182-2.073-2.303-5.302-1.776
		c-3.228,0.526-5.235,5.19-6.487,6.069c-1.252,0.877-3.599,2.518-4.63,2.066c-1.03-0.451-3.054-5.613-0.774-10.372
		c2.278-4.758,2.531-13.271,1.318-16.876s-3.334-9.546-11.67-6.294s-8.198,11.683-8.198,11.683S151.994,185.373,156.023,185.146z"/>
	<path fill="#EAC08A" stroke="#613619" stroke-miterlimit="10" d="M111.275,169.188c-1.166-3.498-10.4,1.18-10.4,1.18
		c-32.431,17.429-59.816,3.099-68.066-11.901c-8.105-14.737,1.047-47.362,5.047-64.263c4-16.901-8.48-45.836-10.48-51.224
		s-3.566-19.529,8.434-14.263c12,5.266,51.285,10.002,64.066,39.804c19.49,45.446,2.436,81.196,4.225,85.696
		c1.361,3.421,8.912-0.735,8.912-0.735"/>
	<path fill="#FFFFFF" d="M45.059,147.216c-5.5-13.135,3.24-41.944,4.574-54.304c1.334-12.36,1.926-27.195-2.498-35.965
		c-3.645-7.223-13.18-14.763-4.992-13.897c8.666,0.916,32.916,8.916,41.916,28.039c6.33,13.447-1.471,46.325,0,62.992
		c1.474,16.666,16.418,24.968,16.418,24.968C61.143,173.049,47.885,153.966,45.059,147.216z"/>
	<path fill="#E3BB88" stroke="#613619" stroke-miterlimit="10" d="M121.706,122.841l-2.341,2.003c0,0,1.186,6.999-7.413,25.499
		c-6.519,14.025-2.92,27.259,6.438,32.845c7.76,4.631,27.669,7.039,38.799,4.545c15.696-3.517,25.95-18.222,21.619-31.887
		c-6.898-21.765-9.451-30.77-9.451-30.77L121.706,122.841z"/>
	<path fill="#FFFFFF" d="M175.248,146.6c-3.676-11.58-7.16-23.759-7.16-23.759l-15.446,2.835c0,0-3.834,3.04,0,7.973
		s2.697,26.414,3.928,37.567c1.229,11.153,17.924,5.036,17.924,5.036C182.333,164.348,179.577,160.227,175.248,146.6z"/>
	<path fill="#187FC4" d="M147.608,100.965h-8.735l-23.251,22.35c0,0,24.269,4.187,34.686,8.766c7.365,3.238,20.066,11,20.066,11
		s-1.106-3.868-0.658-8.864c0.137-5.442-0.358-9.14-0.358-9.14L147.608,100.965z"/>
	<path fill="#EAC08A" stroke="#63361A" stroke-miterlimit="10" d="M80.038,95.225c0.683,1.978,4.396,1.385,4.979,2.592
		c0.764,1.583-3.41,0.921-2.319,3.649c6.674,16.687,29.461,26.035,52.334,23.474c3.305-0.371,4.419,2.459,8.385,3.66
		c2.097,0.594,6.945,0.748,10.423-0.207c3.162-1.033,3.665-3.632,6.986-3.453c16.925,0.908,35.591-7.258,40.333-25.474
		c0.74-2.844-3.083-2.066-2.319-3.649c0.583-1.208,4.297-0.614,4.979-2.592c0.728-2.112-3.24-1.739-3.342-2.66
		c-0.146-1.316,4.092-1.705,2.046-4.57c-3.779-5.289-8.025-7.556-15.539-11.99c-2.608-9.526-4.882-16.092-7.057-20.759
		c-3.34-7.168-4.895-11.734-8.023-17.727c-3.484-6.673-9.229-11.407-11.259-9.521c-1.406,1.305-1.534,1.673-3.829,11.239
		c-0.444,1.847-4.242-1.282-13.853-0.888c-9.738-0.166-13.48,2.735-13.924,0.888c-2.296-9.566-2.423-9.934-3.829-11.239
		c-2.031-1.886-7.774,2.848-11.259,9.521c-3.129,5.993-4.685,10.559-8.024,17.727c-2.174,4.666-4.446,11.233-7.056,20.759
		c-7.514,4.434-13.761,8.701-17.538,13.99c-2.047,2.865,2.191,3.254,2.045,4.57C83.277,93.486,79.309,93.113,80.038,95.225z"/>
	<path fill="#613619" d="M159.98,38.338c3.115,0.671,5.707,1.619,8.014,2.853c-0.672-2.094-1.138-3.569-1.771-4.785
		c-0.964-1.85-1.519-2.435-2.236-3.521c-0.719-1.085-1.758-1.744-2.14-1.768c-0.381-0.023-0.646,0.385-1.017,2.062
		C160.558,34.41,160.368,34.963,159.98,38.338z"/>
	<path fill="#613619" d="M125.712,38.338c-3.116,0.671-5.707,1.619-8.014,2.853c0.672-2.094,1.138-3.569,1.771-4.785
		c0.964-1.85,1.52-2.435,2.237-3.521c0.718-1.085,1.758-1.744,2.139-1.768c0.381-0.023,0.646,0.385,1.018,2.062
		C125.135,34.41,125.325,34.963,125.712,38.338z"/>
	<g>
		<path fill="#FFFFFF" d="M89.342,97.748c0.862,14.033,20.929,27.756,46.407,27.205c2.994-0.064,3.725,2.095,6.931,3.095
			c4.175,1.028,7.059,0.745,10.847-0.052c2.875-0.971,4.531-3.534,5.883-3.448c20.981,1.334,34.474-12.766,35.337-26.799
			c0.472-7.667-0.909-12.367-6.786-15.789c-3.689-2.148-4.396-1.656-4.632-1.649c-6.361-28.94-15.618-29.283-19.342-29.556
			c-3.789-0.278-6.716,1.158-9.217,7.461c-0.93,2.34-2.237,12.407-2.587,15.75c-0.247,2.377-0.422,6.723-4.375,7.455
			c-2.044-0.333-2.816-0.581-4.5-5.274c-2.275-6.348-6.039-14.154-6.866-16.532c-2.489-7.153-7.899-9.608-13.22-9.608
			c-5.522,0-13.646,4.427-20.46,30.304c-0.236-0.007-2.942-0.499-6.633,1.649C90.252,85.381,88.871,90.082,89.342,97.748z"/>
	</g>
	<ellipse fill="#EE869A" cx="182.432" cy="95.788" rx="8.599" ry="2.877"/>
	<ellipse fill="#EE869A" cx="113.011" cy="97.08" rx="8.599" ry="2.877"/>
	<path fill="none" stroke="#63361A" stroke-width="2" stroke-linecap="round" stroke-linejoin="round" stroke-miterlimit="10" d="
		M149.063,101.199c-0.535-1.512,0.132-5.411,0.132-5.411"/>
	<g>
		<path fill="#613619" d="M154.255,85.311c0.583,0.354,0.916,0.668,1.163,0.937s0.409,0.492,0.665,0.842
			c0.257,0.35,0.609,0.828,0.447,1.752c-0.162,0.924-0.837,2.294-2.261,3.933c-1.425,1.64-3.598,3.548-5.192,3.573
			s-3.827-1.814-5.302-3.408c-1.476-1.594-2.193-2.942-2.384-3.86s0.146-1.407,0.392-1.765s0.398-0.586,0.638-0.862
			c0.239-0.276,0.563-0.601,1.133-0.973c0.571-0.372,1.392-0.793,5.338-0.886C152.839,84.563,153.672,84.958,154.255,85.311z"/>
		<path fill="#FFFFFF" d="M154.509,87.937c-0.136,0.131-0.354,0.108-0.459-0.049c-0.1-0.15-0.239-0.331-0.413-0.499
			c-0.264-0.257-0.525-0.428-0.705-0.528c-0.129-0.073-0.183-0.227-0.132-0.366l0.03-0.083c0.05-0.137,0.189-0.22,0.332-0.195
			c0.256,0.044,0.679,0.163,1.138,0.486c0.256,0.181,0.437,0.402,0.545,0.564c0.082,0.122,0.064,0.285-0.042,0.387L154.509,87.937z"
			/>
	</g>
	<path fill="none" stroke="#613619" stroke-miterlimit="10" d="M142.392,103.49c0.635,2.308,1.036,3.769,1.671,6.077
		c3.073-0.049,6.148-0.097,9.223-0.145c0.562-2.327,0.921-3.472,1.482-5.799c-2.046-0.024-3.89-1.203-5.936-1.173
		c-0.063,1.638-0.127,3.277-0.191,4.915c-0.114-1.636-0.229-3.271-0.345-4.907C146.25,102.493,144.438,103.402,142.392,103.49z"/>
	<path fill="none" stroke="#63361A" stroke-width="2" stroke-linecap="round" stroke-linejoin="round" stroke-miterlimit="10" d="
		M131.764,101.606c8.194,4.504,16.234-0.383,17.423-0.643c7.801,6.359,12.761-0.2,12.761-0.2"/>
	<g>
		<g>
			<g>
				<path fill="#FFFFFF" d="M164.319,132.665c-0.452-0.618-0.905-1.236-1.357-1.854c-0.134,2.021-0.268,4.041-0.402,6.061
					c-2.064-0.36-3.644-2.038-3.879-4.121c-0.233-2.082,0.933-4.07,2.865-4.881c1.934-0.811,4.168-0.25,5.49,1.377
					c1.322,1.626,1.413,3.929,0.223,5.654c0.243,0.523-0.378,1.021-0.835,0.67c-0.457-0.352-0.136-1.079,0.432-0.979
					c2.241-3.296-0.926-7.573-4.732-6.391c-3.807,1.182-3.994,6.501-0.279,7.946c0.165-2.492,0.331-4.983,0.496-7.476
					c1.079,1.476,2.158,2.949,3.238,4.424c-0.441,0.128-0.882,0.257-1.323,0.384c0.619,0.846,1.237,1.69,1.856,2.535
					c-1.101-0.97-2.201-1.938-3.302-2.908C163.313,132.959,163.816,132.813,164.319,132.665z"/>
			</g>
		</g>
	</g>
	<path fill="#DEB686" stroke="#613619" stroke-miterlimit="10" d="M116.143,177.048c1.371,1.738-1.696,9.399-4.877,12.224
		c-3.18,2.822-5.289,11.025-4.444,12.269s17.736,7.758,18.9,7.358c1.164-0.4,0.694-3.021-1.591-5.361
		c-2.286-2.34-7.256-1.303-8.693-1.823s-4.129-1.499-4.352-2.603c-0.224-1.102,2.84-5.725,8.045-6.592
		c5.204-0.867,12.317-5.551,14.571-8.614c2.254-3.064,5.898-8.214-1.552-13.169c-7.452-4.954-14.273,0-14.273,0
		S113.643,173.882,116.143,177.048z"/>
	<path fill="#EAC08A" stroke="#63361A" stroke-miterlimit="10" d="M143.189,146.688c1.619,2.985,8.286,9.85,9.423,10.465
		c0.308,0.168,0.868-0.068,1.316-0.244c0.675-0.264,1.223-0.326,2.085-0.389c1.921-0.138,3.712,0.862,3.504,1.695
		c-0.189,0.76-1.202,0.014-1.322,0.211c-0.12,0.198,2.082,1.198,2.104,4.33c0.015,1.875-1.982,4.366-5.095,3.752
		c-4.357-0.859-3.076-3.328-7.065-6.556c-3.988-3.228-8.934-2.117-19.939-13.261c-2.581-2.612-2.47-10.371,2.497-12.398
		S142.47,145.361,143.189,146.688z"/>
</g>
<g>
	<path fill="#63361A" d="M162.41,81.662c-0.422-0.861-0.03-1.919,0.876-2.362l12.166-5.961c0.905-0.444,1.98-0.105,2.403,0.756l0,0
		c0.422,0.861,0.028,1.918-0.876,2.362l-12.166,5.961C163.908,82.862,162.832,82.523,162.41,81.662L162.41,81.662z"/>
	<path fill="#63361A" d="M177.595,86.999c0.457-0.878,0.107-1.921-0.78-2.33l-11.936-5.49c-0.889-0.408-1.979-0.027-2.436,0.851l0,0
		c-0.457,0.878-0.107,1.921,0.78,2.33l11.936,5.49C176.048,88.258,177.138,87.877,177.595,86.999L177.595,86.999z"/>
</g>
<g>
	<path fill="#63361A" d="M135.37,81.662c0.422-0.861,0.03-1.919-0.876-2.363l-12.166-5.96c-0.905-0.444-1.981-0.105-2.403,0.756l0,0
		c-0.422,0.861-0.028,1.918,0.876,2.362l12.166,5.961C133.872,82.862,134.948,82.523,135.37,81.662L135.37,81.662z"/>
	<path fill="#63361A" d="M120.185,86.999c-0.456-0.878-0.106-1.921,0.781-2.33l11.936-5.49c0.889-0.408,1.979-0.027,2.436,0.851l0,0
		c0.457,0.878,0.107,1.921-0.781,2.33l-11.935,5.49C121.732,88.258,120.642,87.877,120.185,86.999L120.185,86.999z"/>
</g>
</svg>
