<?xml version="1.0" encoding="UTF-8"?>
<svg width="17px" height="17px" viewBox="0 0 17 17" version="1.1" xmlns="http://www.w3.org/2000/svg" xmlns:xlink="http://www.w3.org/1999/xlink">
    <!-- Generator: Sketch 49 (51002) - http://www.bohemiancoding.com/sketch -->
    <title>save@2x</title>
    <desc>Created with Sketch.</desc>
    <defs></defs>
    <g id="Scratch3.0" stroke="none" stroke-width="1" fill="none" fill-rule="evenodd" opacity="0.8">
        <g transform="translate(-267.000000, -14.000000)" fill="#FFFFFF" fill-rule="nonzero" id="save">
            <g transform="translate(268.000000, 15.000000)">
                <path d="M10.5226732,0.75 L1.66666667,0.75 C1.16040565,0.75 0.75,1.16040565 0.75,1.66666667 L0.75,13.3333333 C0.75,13.8395944 1.16040565,14.25 1.66666667,14.25 L13.3333333,14.25 C13.8395944,14.25 14.25,13.8395944 14.25,13.3333333 L14.25,4.47732684 L10.5226732,0.75 Z M13.3333333,15.75 L1.66666667,15.75 C0.331978521,15.75 -0.75,14.6680215 -0.75,13.3333333 L-0.75,1.66666667 C-0.75,0.331978521 0.331978521,-0.75 1.66666667,-0.75 L10.8333333,-0.75 C11.0322457,-0.75 11.2230111,-0.67098237 11.3636634,-0.530330086 L15.5303301,3.63633658 C15.6709824,3.77698886 15.75,3.9677543 15.75,4.16666667 L15.75,13.3333333 C15.75,14.6680215 14.6680215,15.75 13.3333333,15.75 Z" id="Shape"></path>
                <path d="M3.75,8.75 L3.75,15 C3.75,15.4142136 3.41421356,15.75 3,15.75 C2.58578644,15.75 2.25,15.4142136 2.25,15 L2.25,8 C2.25,7.58578644 2.58578644,7.25 3,7.25 L11,7.25 C11.4142136,7.25 11.75,7.58578644 11.75,8 L11.75,15 C11.75,15.4142136 11.4142136,15.75 11,15.75 C10.5857864,15.75 10.25,15.4142136 10.25,15 L10.25,8.75 L3.75,8.75 Z" id="Shape"></path>
                <path d="M3.75,3.25 L10,3.25 C10.4142136,3.25 10.75,3.58578644 10.75,4 C10.75,4.41421356 10.4142136,4.75 10,4.75 L3,4.75 C2.58578644,4.75 2.25,4.41421356 2.25,4 L2.25,0 C2.25,-0.414213562 2.58578644,-0.75 3,-0.75 C3.41421356,-0.75 3.75,-0.414213562 3.75,0 L3.75,3.25 Z" id="Shape"></path>
            </g>
        </g>
    </g>
</svg>