<?xml version="1.0" encoding="UTF-8"?>
<svg width="19px" height="17px" viewBox="0 0 19 17" version="1.1" xmlns="http://www.w3.org/2000/svg" xmlns:xlink="http://www.w3.org/1999/xlink">
    <!-- Generator: Sketch 49 (51002) - http://www.bohemiancoding.com/sketch -->
    <title>Shape@2x</title>
    <desc>Created with Sketch.</desc>
    <defs></defs>
    <g id="Scratch3.0" stroke="none" stroke-width="1" fill="none" fill-rule="evenodd" opacity="0.8">
        <g transform="translate(-184.000000, -14.000000)" fill="#FFFFFF" fill-rule="nonzero" id="folder">
            <g transform="translate(185.000000, 15.000000)">
                <path d="M5.43194551,0.75 L1.66666667,0.75 C1.16040565,0.75 0.75,1.16040565 0.75,1.66666667 L0.75,13.3333333 C0.75,13.8395944 1.16040565,14.25 1.66666667,14.25 L15,14.25 C15.506261,14.25 15.9166667,13.8395944 15.9166667,13.3333333 L15.9166667,4.16666667 C15.9166667,3.66040565 15.506261,3.25 15,3.25 L7.5,3.25 C7.24923511,3.25 7.01506161,3.12467415 6.87596228,2.91602515 L5.43194551,0.75 Z M7.90138782,1.75 L15,1.75 C16.3346881,1.75 17.4166667,2.83197852 17.4166667,4.16666667 L17.4166667,13.3333333 C17.4166667,14.6680215 16.3346881,15.75 15,15.75 L1.66666667,15.75 C0.331978521,15.75 -0.75,14.6680215 -0.75,13.3333333 L-0.75,1.66666667 C-0.75,0.331978521 0.331978521,-0.75 1.66666667,-0.75 L5.83333333,-0.75 C6.08409822,-0.75 6.31827172,-0.624674148 6.45737105,-0.416025147 L7.90138782,1.75 Z" id="Shape"></path>
            </g>
        </g>
    </g>
</svg>